G04 #@! TF.FileFunction,Legend,Top*
%FSLAX46Y46*%
G04 Gerber Fmt 4.6, Leading zero omitted, Abs format (unit mm)*
G04 Created by KiCad (PCBNEW 4.0.2-stable) date 2016 September 16, Friday 02:04:32*
%MOMM*%
G01*
G04 APERTURE LIST*
%ADD10C,0.100000*%
%ADD11C,0.150000*%
G04 APERTURE END LIST*
D10*
D11*
X2540000Y-69850000D02*
X21590000Y-69850000D01*
X21590000Y-69850000D02*
X21590000Y-88900000D01*
X21590000Y-88900000D02*
X2540000Y-88900000D01*
X2540000Y-88900000D02*
X2540000Y-69850000D01*
X15240000Y-66040000D02*
X20320000Y-66040000D01*
X20320000Y-66040000D02*
X20320000Y-68580000D01*
X20320000Y-68580000D02*
X15240000Y-68580000D01*
X15240000Y-68580000D02*
X15240000Y-66040000D01*
X15240000Y-67310000D02*
X13970000Y-67310000D01*
X20320000Y-67310000D02*
X21590000Y-67310000D01*
X74930000Y-45720000D02*
X69850000Y-45720000D01*
X69850000Y-45720000D02*
X69850000Y-43180000D01*
X69850000Y-43180000D02*
X74930000Y-43180000D01*
X74930000Y-43180000D02*
X74930000Y-45720000D01*
X74930000Y-44450000D02*
X76200000Y-44450000D01*
X69850000Y-44450000D02*
X68580000Y-44450000D01*
X83840000Y-84070000D02*
X83840000Y-81070000D01*
X86340000Y-81070000D02*
X86340000Y-84070000D01*
X85110000Y-66290000D02*
X85110000Y-63290000D01*
X87610000Y-63290000D02*
X87610000Y-66290000D01*
X82570000Y-66290000D02*
X82570000Y-63290000D01*
X85070000Y-63290000D02*
X85070000Y-66290000D01*
X81300000Y-84070000D02*
X81300000Y-81070000D01*
X83800000Y-81070000D02*
X83800000Y-84070000D01*
X74910000Y-72140000D02*
X74910000Y-75140000D01*
X72410000Y-75140000D02*
X72410000Y-72140000D01*
X78760000Y-68830000D02*
X78760000Y-65830000D01*
X81260000Y-65830000D02*
X81260000Y-68830000D01*
X85340000Y-79990000D02*
X82340000Y-79990000D01*
X82340000Y-77490000D02*
X85340000Y-77490000D01*
X90170000Y-71120000D02*
X90170000Y-76200000D01*
X90170000Y-76200000D02*
X87630000Y-76200000D01*
X87630000Y-76200000D02*
X87630000Y-71120000D01*
X87630000Y-71120000D02*
X90170000Y-71120000D01*
X88900000Y-71120000D02*
X88900000Y-69850000D01*
X88900000Y-76200000D02*
X88900000Y-77470000D01*
X90170000Y-76200000D02*
X90170000Y-71120000D01*
X90170000Y-71120000D02*
X92710000Y-71120000D01*
X92710000Y-71120000D02*
X92710000Y-76200000D01*
X92710000Y-76200000D02*
X90170000Y-76200000D01*
X91440000Y-76200000D02*
X91440000Y-77470000D01*
X91440000Y-71120000D02*
X91440000Y-69850000D01*
X45700000Y-61980000D02*
X45700000Y-64980000D01*
X43200000Y-64980000D02*
X43200000Y-61980000D01*
X48240000Y-61980000D02*
X48240000Y-64980000D01*
X45740000Y-64980000D02*
X45740000Y-61980000D01*
X33020000Y-78740000D02*
X38100000Y-78740000D01*
X38100000Y-78740000D02*
X38100000Y-81280000D01*
X38100000Y-81280000D02*
X33020000Y-81280000D01*
X33020000Y-81280000D02*
X33020000Y-78740000D01*
X33020000Y-80010000D02*
X31750000Y-80010000D01*
X38100000Y-80010000D02*
X39370000Y-80010000D01*
X30230000Y-55900000D02*
X33230000Y-55900000D01*
X33230000Y-58400000D02*
X30230000Y-58400000D01*
X86360000Y-12700000D02*
X91440000Y-12700000D01*
X91440000Y-12700000D02*
X91440000Y-15240000D01*
X91440000Y-15240000D02*
X86360000Y-15240000D01*
X86360000Y-15240000D02*
X86360000Y-12700000D01*
X86360000Y-13970000D02*
X85090000Y-13970000D01*
X91440000Y-13970000D02*
X92710000Y-13970000D01*
X74930000Y-8890000D02*
X69850000Y-8890000D01*
X69850000Y-8890000D02*
X69850000Y-6350000D01*
X69850000Y-6350000D02*
X74930000Y-6350000D01*
X74930000Y-6350000D02*
X74930000Y-8890000D01*
X74930000Y-7620000D02*
X76200000Y-7620000D01*
X69850000Y-7620000D02*
X68580000Y-7620000D01*
X56150000Y-2080000D02*
X63150000Y-2080000D01*
X63150000Y-2080000D02*
X63150000Y-8080000D01*
X63150000Y-8080000D02*
X56150000Y-8080000D01*
X56150000Y-8080000D02*
X56150000Y-2080000D01*
X53070000Y-8080000D02*
X46070000Y-8080000D01*
X46070000Y-8080000D02*
X46070000Y-2080000D01*
X46070000Y-2080000D02*
X53070000Y-2080000D01*
X53070000Y-2080000D02*
X53070000Y-8080000D01*
X86360000Y-19050000D02*
X91440000Y-19050000D01*
X91440000Y-19050000D02*
X91440000Y-21590000D01*
X91440000Y-21590000D02*
X86360000Y-21590000D01*
X86360000Y-21590000D02*
X86360000Y-19050000D01*
X86360000Y-20320000D02*
X85090000Y-20320000D01*
X91440000Y-20320000D02*
X92710000Y-20320000D01*
X91440000Y-27940000D02*
X86360000Y-27940000D01*
X86360000Y-27940000D02*
X86360000Y-25400000D01*
X86360000Y-25400000D02*
X91440000Y-25400000D01*
X91440000Y-25400000D02*
X91440000Y-27940000D01*
X91440000Y-26670000D02*
X92710000Y-26670000D01*
X86360000Y-26670000D02*
X85090000Y-26670000D01*
X56900000Y-38120000D02*
X59900000Y-38120000D01*
X59900000Y-40620000D02*
X56900000Y-40620000D01*
X69850000Y-12700000D02*
X74930000Y-12700000D01*
X74930000Y-12700000D02*
X74930000Y-15240000D01*
X74930000Y-15240000D02*
X69850000Y-15240000D01*
X69850000Y-15240000D02*
X69850000Y-12700000D01*
X69850000Y-13970000D02*
X68580000Y-13970000D01*
X74930000Y-13970000D02*
X76200000Y-13970000D01*
X53070000Y-49990000D02*
X46070000Y-49990000D01*
X46070000Y-49990000D02*
X46070000Y-43990000D01*
X46070000Y-43990000D02*
X53070000Y-43990000D01*
X53070000Y-43990000D02*
X53070000Y-49990000D01*
X56150000Y-43990000D02*
X63150000Y-43990000D01*
X63150000Y-43990000D02*
X63150000Y-49990000D01*
X63150000Y-49990000D02*
X56150000Y-49990000D01*
X56150000Y-49990000D02*
X56150000Y-43990000D01*
X69850000Y-25400000D02*
X74930000Y-25400000D01*
X74930000Y-25400000D02*
X74930000Y-27940000D01*
X74930000Y-27940000D02*
X69850000Y-27940000D01*
X69850000Y-27940000D02*
X69850000Y-25400000D01*
X69850000Y-26670000D02*
X68580000Y-26670000D01*
X74930000Y-26670000D02*
X76200000Y-26670000D01*
X74930000Y-34290000D02*
X69850000Y-34290000D01*
X69850000Y-34290000D02*
X69850000Y-31750000D01*
X69850000Y-31750000D02*
X74930000Y-31750000D01*
X74930000Y-31750000D02*
X74930000Y-34290000D01*
X74930000Y-33020000D02*
X76200000Y-33020000D01*
X69850000Y-33020000D02*
X68580000Y-33020000D01*
X38350000Y-33000000D02*
X35350000Y-33000000D01*
X35350000Y-30500000D02*
X38350000Y-30500000D01*
X36830000Y-40640000D02*
X36830000Y-45720000D01*
X36830000Y-45720000D02*
X34290000Y-45720000D01*
X34290000Y-45720000D02*
X34290000Y-40640000D01*
X34290000Y-40640000D02*
X36830000Y-40640000D01*
X35560000Y-40640000D02*
X35560000Y-39370000D01*
X35560000Y-45720000D02*
X35560000Y-46990000D01*
X69850000Y-19050000D02*
X74930000Y-19050000D01*
X74930000Y-19050000D02*
X74930000Y-21590000D01*
X74930000Y-21590000D02*
X69850000Y-21590000D01*
X69850000Y-21590000D02*
X69850000Y-19050000D01*
X69850000Y-20320000D02*
X68580000Y-20320000D01*
X74930000Y-20320000D02*
X76200000Y-20320000D01*
X40640000Y-45720000D02*
X40640000Y-40640000D01*
X40640000Y-40640000D02*
X43180000Y-40640000D01*
X43180000Y-40640000D02*
X43180000Y-45720000D01*
X43180000Y-45720000D02*
X40640000Y-45720000D01*
X41910000Y-45720000D02*
X41910000Y-46990000D01*
X41910000Y-40640000D02*
X41910000Y-39370000D01*
X20320000Y-27940000D02*
X25400000Y-27940000D01*
X25400000Y-27940000D02*
X25400000Y-30480000D01*
X25400000Y-30480000D02*
X20320000Y-30480000D01*
X20320000Y-30480000D02*
X20320000Y-27940000D01*
X20320000Y-29210000D02*
X19050000Y-29210000D01*
X25400000Y-29210000D02*
X26670000Y-29210000D01*
X11680000Y-45700000D02*
X8680000Y-45700000D01*
X8680000Y-43200000D02*
X11680000Y-43200000D01*
X44700000Y-26650000D02*
X41700000Y-26650000D01*
X41700000Y-24150000D02*
X44700000Y-24150000D01*
X41660000Y-21610000D02*
X44660000Y-21610000D01*
X44660000Y-24110000D02*
X41660000Y-24110000D01*
X59940000Y-26650000D02*
X56940000Y-26650000D01*
X56940000Y-24150000D02*
X59940000Y-24150000D01*
X56900000Y-21610000D02*
X59900000Y-21610000D01*
X59900000Y-24110000D02*
X56900000Y-24110000D01*
X20320000Y-34290000D02*
X25400000Y-34290000D01*
X25400000Y-34290000D02*
X25400000Y-36830000D01*
X25400000Y-36830000D02*
X20320000Y-36830000D01*
X20320000Y-36830000D02*
X20320000Y-34290000D01*
X20320000Y-35560000D02*
X19050000Y-35560000D01*
X25400000Y-35560000D02*
X26670000Y-35560000D01*
X25400000Y-43180000D02*
X20320000Y-43180000D01*
X20320000Y-43180000D02*
X20320000Y-40640000D01*
X20320000Y-40640000D02*
X25400000Y-40640000D01*
X25400000Y-40640000D02*
X25400000Y-43180000D01*
X25400000Y-41910000D02*
X26670000Y-41910000D01*
X20320000Y-41910000D02*
X19050000Y-41910000D01*
X20070000Y-53360000D02*
X23070000Y-53360000D01*
X23070000Y-55860000D02*
X20070000Y-55860000D01*
X23110000Y-58400000D02*
X20110000Y-58400000D01*
X20110000Y-55900000D02*
X23110000Y-55900000D01*
X7870000Y-63480000D02*
X4870000Y-63480000D01*
X4870000Y-60980000D02*
X7870000Y-60980000D01*
X4830000Y-58440000D02*
X7830000Y-58440000D01*
X7830000Y-60940000D02*
X4830000Y-60940000D01*
X10295000Y-51045000D02*
X10295000Y-52315000D01*
X17645000Y-51045000D02*
X17645000Y-52315000D01*
X17645000Y-63255000D02*
X17645000Y-61985000D01*
X10295000Y-63255000D02*
X10295000Y-61985000D01*
X10295000Y-51045000D02*
X17645000Y-51045000D01*
X10295000Y-63255000D02*
X17645000Y-63255000D01*
X10295000Y-52315000D02*
X9360000Y-52315000D01*
X20320000Y-15240000D02*
X25400000Y-15240000D01*
X25400000Y-15240000D02*
X25400000Y-17780000D01*
X25400000Y-17780000D02*
X20320000Y-17780000D01*
X20320000Y-17780000D02*
X20320000Y-15240000D01*
X20320000Y-16510000D02*
X19050000Y-16510000D01*
X25400000Y-16510000D02*
X26670000Y-16510000D01*
X20320000Y-21590000D02*
X25400000Y-21590000D01*
X25400000Y-21590000D02*
X25400000Y-24130000D01*
X25400000Y-24130000D02*
X20320000Y-24130000D01*
X20320000Y-24130000D02*
X20320000Y-21590000D01*
X20320000Y-22860000D02*
X19050000Y-22860000D01*
X25400000Y-22860000D02*
X26670000Y-22860000D01*
X10620000Y-15510000D02*
X10620000Y-22510000D01*
X10620000Y-22510000D02*
X4620000Y-22510000D01*
X4620000Y-22510000D02*
X4620000Y-15510000D01*
X4620000Y-15510000D02*
X10620000Y-15510000D01*
X10620000Y-28210000D02*
X10620000Y-35210000D01*
X10620000Y-35210000D02*
X4620000Y-35210000D01*
X4620000Y-35210000D02*
X4620000Y-28210000D01*
X4620000Y-28210000D02*
X10620000Y-28210000D01*
X41640000Y-8080000D02*
X34640000Y-8080000D01*
X34640000Y-8080000D02*
X34640000Y-2080000D01*
X34640000Y-2080000D02*
X41640000Y-2080000D01*
X41640000Y-2080000D02*
X41640000Y-8080000D01*
X41640000Y-16970000D02*
X34640000Y-16970000D01*
X34640000Y-16970000D02*
X34640000Y-10970000D01*
X34640000Y-10970000D02*
X41640000Y-10970000D01*
X41640000Y-10970000D02*
X41640000Y-16970000D01*
X47125000Y-14215000D02*
X47125000Y-15485000D01*
X54475000Y-14215000D02*
X54475000Y-15485000D01*
X54475000Y-34045000D02*
X54475000Y-32775000D01*
X47125000Y-34045000D02*
X47125000Y-32775000D01*
X47125000Y-14215000D02*
X54475000Y-14215000D01*
X47125000Y-34045000D02*
X54475000Y-34045000D01*
X47125000Y-15485000D02*
X46190000Y-15485000D01*
X75175000Y-77335000D02*
X76445000Y-77335000D01*
X75175000Y-69985000D02*
X76445000Y-69985000D01*
X87385000Y-69985000D02*
X86115000Y-69985000D01*
X87385000Y-77335000D02*
X86115000Y-77335000D01*
X75175000Y-77335000D02*
X75175000Y-69985000D01*
X87385000Y-77335000D02*
X87385000Y-69985000D01*
X76445000Y-77335000D02*
X76445000Y-78270000D01*
X33300000Y-92680000D02*
X31750000Y-92680000D01*
X33300000Y-93980000D02*
X33300000Y-92680000D01*
X31877000Y-98171000D02*
X31877000Y-104013000D01*
X31877000Y-104013000D02*
X31623000Y-104013000D01*
X31623000Y-104013000D02*
X31623000Y-98171000D01*
X31623000Y-98171000D02*
X31750000Y-98171000D01*
X31750000Y-98171000D02*
X31750000Y-104013000D01*
X32004000Y-95504000D02*
X32004000Y-95123000D01*
X31496000Y-95504000D02*
X31496000Y-95123000D01*
X29464000Y-95504000D02*
X29464000Y-95123000D01*
X28956000Y-95504000D02*
X28956000Y-95123000D01*
X26924000Y-95504000D02*
X26924000Y-95123000D01*
X26416000Y-95504000D02*
X26416000Y-95123000D01*
X30480000Y-98044000D02*
X33020000Y-98044000D01*
X31496000Y-104140000D02*
X31496000Y-98044000D01*
X32004000Y-104140000D02*
X31496000Y-104140000D01*
X32004000Y-98044000D02*
X32004000Y-104140000D01*
X30480000Y-95504000D02*
X30480000Y-98044000D01*
X33020000Y-95504000D02*
X30480000Y-95504000D01*
X33020000Y-95504000D02*
X33020000Y-98044000D01*
X27940000Y-95504000D02*
X27940000Y-98044000D01*
X27940000Y-95504000D02*
X25400000Y-95504000D01*
X26924000Y-98044000D02*
X26924000Y-104140000D01*
X26924000Y-104140000D02*
X26416000Y-104140000D01*
X26416000Y-104140000D02*
X26416000Y-98044000D01*
X25400000Y-98044000D02*
X27940000Y-98044000D01*
X27940000Y-98044000D02*
X30480000Y-98044000D01*
X28956000Y-104140000D02*
X28956000Y-98044000D01*
X29464000Y-104140000D02*
X28956000Y-104140000D01*
X29464000Y-98044000D02*
X29464000Y-104140000D01*
X27940000Y-95504000D02*
X27940000Y-98044000D01*
X30480000Y-95504000D02*
X27940000Y-95504000D01*
X30480000Y-95504000D02*
X30480000Y-98044000D01*
X25400000Y-95504000D02*
X25400000Y-98044000D01*
X87630000Y-57150000D02*
X39370000Y-57150000D01*
X39370000Y-57150000D02*
X39370000Y-54610000D01*
X39370000Y-54610000D02*
X87630000Y-54610000D01*
X90450000Y-57430000D02*
X88900000Y-57430000D01*
X87630000Y-57150000D02*
X87630000Y-54610000D01*
X88900000Y-54330000D02*
X90450000Y-54330000D01*
X90450000Y-54330000D02*
X90450000Y-57430000D01*
X87630000Y-59690000D02*
X39370000Y-59690000D01*
X39370000Y-59690000D02*
X39370000Y-57150000D01*
X39370000Y-57150000D02*
X87630000Y-57150000D01*
X90450000Y-59970000D02*
X88900000Y-59970000D01*
X87630000Y-59690000D02*
X87630000Y-57150000D01*
X88900000Y-56870000D02*
X90450000Y-56870000D01*
X90450000Y-56870000D02*
X90450000Y-59970000D01*
X38345000Y-74795000D02*
X39615000Y-74795000D01*
X38345000Y-67445000D02*
X39615000Y-67445000D01*
X60715000Y-67445000D02*
X59445000Y-67445000D01*
X60715000Y-74795000D02*
X59445000Y-74795000D01*
X38345000Y-74795000D02*
X38345000Y-67445000D01*
X60715000Y-74795000D02*
X60715000Y-67445000D01*
X39615000Y-74795000D02*
X39615000Y-75730000D01*
X57150000Y-78740000D02*
X41910000Y-78740000D01*
X41910000Y-78740000D02*
X41910000Y-76200000D01*
X41910000Y-76200000D02*
X57150000Y-76200000D01*
X59970000Y-79020000D02*
X58420000Y-79020000D01*
X57150000Y-78740000D02*
X57150000Y-76200000D01*
X58420000Y-75920000D02*
X59970000Y-75920000D01*
X59970000Y-75920000D02*
X59970000Y-79020000D01*
X57150000Y-81280000D02*
X41910000Y-81280000D01*
X41910000Y-81280000D02*
X41910000Y-78740000D01*
X41910000Y-78740000D02*
X57150000Y-78740000D01*
X59970000Y-81560000D02*
X58420000Y-81560000D01*
X57150000Y-81280000D02*
X57150000Y-78740000D01*
X58420000Y-78460000D02*
X59970000Y-78460000D01*
X59970000Y-78460000D02*
X59970000Y-81560000D01*
X87630000Y-92710000D02*
X39370000Y-92710000D01*
X39370000Y-92710000D02*
X39370000Y-90170000D01*
X39370000Y-90170000D02*
X87630000Y-90170000D01*
X90450000Y-92990000D02*
X88900000Y-92990000D01*
X87630000Y-92710000D02*
X87630000Y-90170000D01*
X88900000Y-89890000D02*
X90450000Y-89890000D01*
X90450000Y-89890000D02*
X90450000Y-92990000D01*
X87630000Y-95250000D02*
X39370000Y-95250000D01*
X39370000Y-95250000D02*
X39370000Y-92710000D01*
X39370000Y-92710000D02*
X87630000Y-92710000D01*
X90450000Y-95530000D02*
X88900000Y-95530000D01*
X87630000Y-95250000D02*
X87630000Y-92710000D01*
X88900000Y-92430000D02*
X90450000Y-92430000D01*
X90450000Y-92430000D02*
X90450000Y-95530000D01*
X8890000Y-5080000D02*
X8890000Y-10160000D01*
X8890000Y-10160000D02*
X11430000Y-10160000D01*
X11430000Y-10160000D02*
X11430000Y-5080000D01*
X11710000Y-2260000D02*
X11710000Y-3810000D01*
X11430000Y-5080000D02*
X8890000Y-5080000D01*
X8610000Y-3810000D02*
X8610000Y-2260000D01*
X8610000Y-2260000D02*
X11710000Y-2260000D01*
X20320000Y-8890000D02*
X25400000Y-8890000D01*
X25400000Y-8890000D02*
X25400000Y-11430000D01*
X25400000Y-11430000D02*
X20320000Y-11430000D01*
X20320000Y-11430000D02*
X20320000Y-8890000D01*
X20320000Y-10160000D02*
X19050000Y-10160000D01*
X25400000Y-10160000D02*
X26670000Y-10160000D01*
X25400000Y-5080000D02*
X20320000Y-5080000D01*
X20320000Y-5080000D02*
X20320000Y-2540000D01*
X20320000Y-2540000D02*
X25400000Y-2540000D01*
X25400000Y-2540000D02*
X25400000Y-5080000D01*
X25400000Y-3810000D02*
X26670000Y-3810000D01*
X20320000Y-3810000D02*
X19050000Y-3810000D01*
X81280000Y-43180000D02*
X81280000Y-40640000D01*
X81000000Y-46000000D02*
X81000000Y-44450000D01*
X81280000Y-43180000D02*
X83820000Y-43180000D01*
X84100000Y-44450000D02*
X84100000Y-46000000D01*
X84100000Y-46000000D02*
X81000000Y-46000000D01*
X83820000Y-43180000D02*
X83820000Y-40640000D01*
X83820000Y-40640000D02*
X81280000Y-40640000D01*
X67310000Y-74930000D02*
X67310000Y-80010000D01*
X67310000Y-80010000D02*
X64770000Y-80010000D01*
X64770000Y-80010000D02*
X64770000Y-74930000D01*
X64770000Y-74930000D02*
X67310000Y-74930000D01*
X66040000Y-74930000D02*
X66040000Y-73660000D01*
X66040000Y-80010000D02*
X66040000Y-81280000D01*
D10*
X2567142Y-95877143D02*
X3138571Y-97877143D01*
X3710000Y-96448571D01*
X4281428Y-97877143D01*
X4852857Y-95877143D01*
X5709999Y-95877143D02*
X6281428Y-97877143D01*
X6852857Y-96448571D01*
X7424285Y-97877143D01*
X7995714Y-95877143D01*
X8852856Y-95877143D02*
X9424285Y-97877143D01*
X9995714Y-96448571D01*
X10567142Y-97877143D01*
X11138571Y-95877143D01*
X12281428Y-97591429D02*
X12424285Y-97734286D01*
X12281428Y-97877143D01*
X12138571Y-97734286D01*
X12281428Y-97591429D01*
X12281428Y-97877143D01*
X13709999Y-97877143D02*
X13709999Y-95877143D01*
X13709999Y-94877143D02*
X13567142Y-95020000D01*
X13709999Y-95162857D01*
X13852856Y-95020000D01*
X13709999Y-94877143D01*
X13709999Y-95162857D01*
X15138570Y-95877143D02*
X15138570Y-97877143D01*
X15138570Y-96162857D02*
X15281427Y-96020000D01*
X15567141Y-95877143D01*
X15995713Y-95877143D01*
X16281427Y-96020000D01*
X16424284Y-96305714D01*
X16424284Y-97877143D01*
X17852856Y-97877143D02*
X17852856Y-94877143D01*
X19138570Y-97877143D02*
X19138570Y-96305714D01*
X18995713Y-96020000D01*
X18709999Y-95877143D01*
X18281427Y-95877143D01*
X17995713Y-96020000D01*
X17852856Y-96162857D01*
X20567142Y-97877143D02*
X20567142Y-95877143D01*
X20567142Y-94877143D02*
X20424285Y-95020000D01*
X20567142Y-95162857D01*
X20709999Y-95020000D01*
X20567142Y-94877143D01*
X20567142Y-95162857D01*
X21995713Y-97877143D02*
X21995713Y-94877143D01*
X21995713Y-96020000D02*
X22281427Y-95877143D01*
X22852856Y-95877143D01*
X23138570Y-96020000D01*
X23281427Y-96162857D01*
X23424284Y-96448571D01*
X23424284Y-97305714D01*
X23281427Y-97591429D01*
X23138570Y-97734286D01*
X22852856Y-97877143D01*
X22281427Y-97877143D01*
X21995713Y-97734286D01*
X24709999Y-97877143D02*
X24709999Y-95877143D01*
X24709999Y-94877143D02*
X24567142Y-95020000D01*
X24709999Y-95162857D01*
X24852856Y-95020000D01*
X24709999Y-94877143D01*
X24709999Y-95162857D01*
X25709998Y-95877143D02*
X26852855Y-95877143D01*
X26138570Y-94877143D02*
X26138570Y-97448571D01*
X26281427Y-97734286D01*
X26567141Y-97877143D01*
X26852855Y-97877143D01*
X27852856Y-97877143D02*
X27852856Y-95877143D01*
X27852856Y-94877143D02*
X27709999Y-95020000D01*
X27852856Y-95162857D01*
X27995713Y-95020000D01*
X27852856Y-94877143D01*
X27852856Y-95162857D01*
X29709998Y-97877143D02*
X29424284Y-97734286D01*
X29281427Y-97591429D01*
X29138570Y-97305714D01*
X29138570Y-96448571D01*
X29281427Y-96162857D01*
X29424284Y-96020000D01*
X29709998Y-95877143D01*
X30138570Y-95877143D01*
X30424284Y-96020000D01*
X30567141Y-96162857D01*
X30709998Y-96448571D01*
X30709998Y-97305714D01*
X30567141Y-97591429D01*
X30424284Y-97734286D01*
X30138570Y-97877143D01*
X29709998Y-97877143D01*
X31995713Y-95877143D02*
X31995713Y-97877143D01*
X31995713Y-96162857D02*
X32138570Y-96020000D01*
X32424284Y-95877143D01*
X32852856Y-95877143D01*
X33138570Y-96020000D01*
X33281427Y-96305714D01*
X33281427Y-97877143D01*
X34709999Y-96734286D02*
X36995713Y-96734286D01*
X39567142Y-97734286D02*
X39281428Y-97877143D01*
X38709999Y-97877143D01*
X38424285Y-97734286D01*
X38281428Y-97448571D01*
X38281428Y-96305714D01*
X38424285Y-96020000D01*
X38709999Y-95877143D01*
X39281428Y-95877143D01*
X39567142Y-96020000D01*
X39709999Y-96305714D01*
X39709999Y-96591429D01*
X38281428Y-96877143D01*
X42138571Y-97734286D02*
X41852857Y-97877143D01*
X41281428Y-97877143D01*
X40995714Y-97734286D01*
X40852857Y-97448571D01*
X40852857Y-96305714D01*
X40995714Y-96020000D01*
X41281428Y-95877143D01*
X41852857Y-95877143D01*
X42138571Y-96020000D01*
X42281428Y-96305714D01*
X42281428Y-96591429D01*
X40852857Y-96877143D01*
X44852857Y-95877143D02*
X44852857Y-98305714D01*
X44710000Y-98591429D01*
X44567143Y-98734286D01*
X44281428Y-98877143D01*
X43852857Y-98877143D01*
X43567143Y-98734286D01*
X44852857Y-97734286D02*
X44567143Y-97877143D01*
X43995714Y-97877143D01*
X43710000Y-97734286D01*
X43567143Y-97591429D01*
X43424286Y-97305714D01*
X43424286Y-96448571D01*
X43567143Y-96162857D01*
X43710000Y-96020000D01*
X43995714Y-95877143D01*
X44567143Y-95877143D01*
X44852857Y-96020000D01*
X46281429Y-97591429D02*
X46424286Y-97734286D01*
X46281429Y-97877143D01*
X46138572Y-97734286D01*
X46281429Y-97591429D01*
X46281429Y-97877143D01*
X48995714Y-97734286D02*
X48710000Y-97877143D01*
X48138571Y-97877143D01*
X47852857Y-97734286D01*
X47710000Y-97591429D01*
X47567143Y-97305714D01*
X47567143Y-96448571D01*
X47710000Y-96162857D01*
X47852857Y-96020000D01*
X48138571Y-95877143D01*
X48710000Y-95877143D01*
X48995714Y-96020000D01*
X50710000Y-97877143D02*
X50424286Y-97734286D01*
X50281429Y-97591429D01*
X50138572Y-97305714D01*
X50138572Y-96448571D01*
X50281429Y-96162857D01*
X50424286Y-96020000D01*
X50710000Y-95877143D01*
X51138572Y-95877143D01*
X51424286Y-96020000D01*
X51567143Y-96162857D01*
X51710000Y-96448571D01*
X51710000Y-97305714D01*
X51567143Y-97591429D01*
X51424286Y-97734286D01*
X51138572Y-97877143D01*
X50710000Y-97877143D01*
X52995715Y-97877143D02*
X52995715Y-95877143D01*
X52995715Y-96162857D02*
X53138572Y-96020000D01*
X53424286Y-95877143D01*
X53852858Y-95877143D01*
X54138572Y-96020000D01*
X54281429Y-96305714D01*
X54281429Y-97877143D01*
X54281429Y-96305714D02*
X54424286Y-96020000D01*
X54710000Y-95877143D01*
X55138572Y-95877143D01*
X55424286Y-96020000D01*
X55567143Y-96305714D01*
X55567143Y-97877143D01*
D11*
D10*
X95662857Y-97625237D02*
X98329524Y-96863333D01*
X96424762Y-96101428D01*
X98329524Y-95339523D01*
X95662857Y-94577618D01*
X95662857Y-93434761D02*
X98329524Y-92672857D01*
X96424762Y-91910952D01*
X98329524Y-91149047D01*
X95662857Y-90387142D01*
X95662857Y-89244285D02*
X98329524Y-88482381D01*
X96424762Y-87720476D01*
X98329524Y-86958571D01*
X95662857Y-86196666D01*
X97948571Y-84672857D02*
X98139048Y-84482381D01*
X98329524Y-84672857D01*
X98139048Y-84863333D01*
X97948571Y-84672857D01*
X98329524Y-84672857D01*
X98329524Y-82768095D02*
X95662857Y-82768095D01*
X96043810Y-82768095D02*
X95853333Y-82577619D01*
X95662857Y-82196666D01*
X95662857Y-81625238D01*
X95853333Y-81244286D01*
X96234286Y-81053809D01*
X98329524Y-81053809D01*
X96234286Y-81053809D02*
X95853333Y-80863333D01*
X95662857Y-80482381D01*
X95662857Y-79910952D01*
X95853333Y-79530000D01*
X96234286Y-79339524D01*
X98329524Y-79339524D01*
X98329524Y-75720476D02*
X96234286Y-75720476D01*
X95853333Y-75910953D01*
X95662857Y-76291905D01*
X95662857Y-77053810D01*
X95853333Y-77434762D01*
X98139048Y-75720476D02*
X98329524Y-76101429D01*
X98329524Y-77053810D01*
X98139048Y-77434762D01*
X97758095Y-77625238D01*
X97377143Y-77625238D01*
X96996190Y-77434762D01*
X96805714Y-77053810D01*
X96805714Y-76101429D01*
X96615238Y-75720476D01*
X98329524Y-73815714D02*
X95662857Y-73815714D01*
X96424762Y-73815714D02*
X96043810Y-73625238D01*
X95853333Y-73434762D01*
X95662857Y-73053809D01*
X95662857Y-72672857D01*
X98329524Y-71339524D02*
X95662857Y-71339524D01*
X94329524Y-71339524D02*
X94520000Y-71530000D01*
X94710476Y-71339524D01*
X94520000Y-71149048D01*
X94329524Y-71339524D01*
X94710476Y-71339524D01*
X95662857Y-69434762D02*
X98329524Y-69434762D01*
X96043810Y-69434762D02*
X95853333Y-69244286D01*
X95662857Y-68863333D01*
X95662857Y-68291905D01*
X95853333Y-67910953D01*
X96234286Y-67720476D01*
X98329524Y-67720476D01*
X98329524Y-65244285D02*
X98139048Y-65625238D01*
X97948571Y-65815714D01*
X97567619Y-66006190D01*
X96424762Y-66006190D01*
X96043810Y-65815714D01*
X95853333Y-65625238D01*
X95662857Y-65244285D01*
X95662857Y-64672857D01*
X95853333Y-64291905D01*
X96043810Y-64101428D01*
X96424762Y-63910952D01*
X97567619Y-63910952D01*
X97948571Y-64101428D01*
X98139048Y-64291905D01*
X98329524Y-64672857D01*
X98329524Y-65244285D01*
X98139048Y-62387142D02*
X98329524Y-62006190D01*
X98329524Y-61244285D01*
X98139048Y-60863333D01*
X97758095Y-60672857D01*
X97567619Y-60672857D01*
X97186667Y-60863333D01*
X96996190Y-61244285D01*
X96996190Y-61815714D01*
X96805714Y-62196666D01*
X96424762Y-62387142D01*
X96234286Y-62387142D01*
X95853333Y-62196666D01*
X95662857Y-61815714D01*
X95662857Y-61244285D01*
X95853333Y-60863333D01*
X98329524Y-58958571D02*
X94329524Y-58958571D01*
X96805714Y-58577619D02*
X98329524Y-57434762D01*
X95662857Y-57434762D02*
X97186667Y-58958571D01*
X98329524Y-55149047D02*
X98139048Y-55530000D01*
X97948571Y-55720476D01*
X97567619Y-55910952D01*
X96424762Y-55910952D01*
X96043810Y-55720476D01*
X95853333Y-55530000D01*
X95662857Y-55149047D01*
X95662857Y-54577619D01*
X95853333Y-54196667D01*
X96043810Y-54006190D01*
X96424762Y-53815714D01*
X97567619Y-53815714D01*
X97948571Y-54006190D01*
X98139048Y-54196667D01*
X98329524Y-54577619D01*
X98329524Y-55149047D01*
X95662857Y-50387142D02*
X98329524Y-50387142D01*
X95662857Y-52101428D02*
X97758095Y-52101428D01*
X98139048Y-51910952D01*
X98329524Y-51529999D01*
X98329524Y-50958571D01*
X98139048Y-50577619D01*
X97948571Y-50387142D01*
X95662857Y-49053809D02*
X95662857Y-47529999D01*
X94329524Y-48482380D02*
X97758095Y-48482380D01*
X98139048Y-48291904D01*
X98329524Y-47910951D01*
X98329524Y-47529999D01*
X98139048Y-46387142D02*
X98329524Y-46006190D01*
X98329524Y-45244285D01*
X98139048Y-44863333D01*
X97758095Y-44672857D01*
X97567619Y-44672857D01*
X97186667Y-44863333D01*
X96996190Y-45244285D01*
X96996190Y-45815714D01*
X96805714Y-46196666D01*
X96424762Y-46387142D01*
X96234286Y-46387142D01*
X95853333Y-46196666D01*
X95662857Y-45815714D01*
X95662857Y-45244285D01*
X95853333Y-44863333D01*
X98329524Y-42387142D02*
X98139048Y-42768095D01*
X97948571Y-42958571D01*
X97567619Y-43149047D01*
X96424762Y-43149047D01*
X96043810Y-42958571D01*
X95853333Y-42768095D01*
X95662857Y-42387142D01*
X95662857Y-41815714D01*
X95853333Y-41434762D01*
X96043810Y-41244285D01*
X96424762Y-41053809D01*
X97567619Y-41053809D01*
X97948571Y-41244285D01*
X98139048Y-41434762D01*
X98329524Y-41815714D01*
X98329524Y-42387142D01*
X98329524Y-39339523D02*
X95662857Y-39339523D01*
X96043810Y-39339523D02*
X95853333Y-39149047D01*
X95662857Y-38768094D01*
X95662857Y-38196666D01*
X95853333Y-37815714D01*
X96234286Y-37625237D01*
X98329524Y-37625237D01*
X96234286Y-37625237D02*
X95853333Y-37434761D01*
X95662857Y-37053809D01*
X95662857Y-36482380D01*
X95853333Y-36101428D01*
X96234286Y-35910952D01*
X98329524Y-35910952D01*
X98329524Y-34006190D02*
X95662857Y-34006190D01*
X94329524Y-34006190D02*
X94520000Y-34196666D01*
X94710476Y-34006190D01*
X94520000Y-33815714D01*
X94329524Y-34006190D01*
X94710476Y-34006190D01*
X98139048Y-30387142D02*
X98329524Y-30768095D01*
X98329524Y-31529999D01*
X98139048Y-31910952D01*
X97948571Y-32101428D01*
X97567619Y-32291904D01*
X96424762Y-32291904D01*
X96043810Y-32101428D01*
X95853333Y-31910952D01*
X95662857Y-31529999D01*
X95662857Y-30768095D01*
X95853333Y-30387142D01*
X98329524Y-28672857D02*
X94329524Y-28672857D01*
X98329524Y-26958571D02*
X96234286Y-26958571D01*
X95853333Y-27149048D01*
X95662857Y-27530000D01*
X95662857Y-28101428D01*
X95853333Y-28482381D01*
X96043810Y-28672857D01*
X98329524Y-23339523D02*
X96234286Y-23339523D01*
X95853333Y-23530000D01*
X95662857Y-23910952D01*
X95662857Y-24672857D01*
X95853333Y-25053809D01*
X98139048Y-23339523D02*
X98329524Y-23720476D01*
X98329524Y-24672857D01*
X98139048Y-25053809D01*
X97758095Y-25244285D01*
X97377143Y-25244285D01*
X96996190Y-25053809D01*
X96805714Y-24672857D01*
X96805714Y-23720476D01*
X96615238Y-23339523D01*
X98329524Y-20863332D02*
X98139048Y-21244285D01*
X97758095Y-21434761D01*
X94329524Y-21434761D01*
X98329524Y-19339523D02*
X95662857Y-19339523D01*
X94329524Y-19339523D02*
X94520000Y-19529999D01*
X94710476Y-19339523D01*
X94520000Y-19149047D01*
X94329524Y-19339523D01*
X94710476Y-19339523D01*
X98139048Y-17625237D02*
X98329524Y-17244285D01*
X98329524Y-16482380D01*
X98139048Y-16101428D01*
X97758095Y-15910952D01*
X97567619Y-15910952D01*
X97186667Y-16101428D01*
X96996190Y-16482380D01*
X96996190Y-17053809D01*
X96805714Y-17434761D01*
X96424762Y-17625237D01*
X96234286Y-17625237D01*
X95853333Y-17434761D01*
X95662857Y-17053809D01*
X95662857Y-16482380D01*
X95853333Y-16101428D01*
X97948571Y-14196666D02*
X98139048Y-14006190D01*
X98329524Y-14196666D01*
X98139048Y-14387142D01*
X97948571Y-14196666D01*
X98329524Y-14196666D01*
X98139048Y-10577618D02*
X98329524Y-10958571D01*
X98329524Y-11720475D01*
X98139048Y-12101428D01*
X97948571Y-12291904D01*
X97567619Y-12482380D01*
X96424762Y-12482380D01*
X96043810Y-12291904D01*
X95853333Y-12101428D01*
X95662857Y-11720475D01*
X95662857Y-10958571D01*
X95853333Y-10577618D01*
X98329524Y-8291904D02*
X98139048Y-8672857D01*
X97948571Y-8863333D01*
X97567619Y-9053809D01*
X96424762Y-9053809D01*
X96043810Y-8863333D01*
X95853333Y-8672857D01*
X95662857Y-8291904D01*
X95662857Y-7720476D01*
X95853333Y-7339524D01*
X96043810Y-7149047D01*
X96424762Y-6958571D01*
X97567619Y-6958571D01*
X97948571Y-7149047D01*
X98139048Y-7339524D01*
X98329524Y-7720476D01*
X98329524Y-8291904D01*
X98329524Y-5244285D02*
X95662857Y-5244285D01*
X96043810Y-5244285D02*
X95853333Y-5053809D01*
X95662857Y-4672856D01*
X95662857Y-4101428D01*
X95853333Y-3720476D01*
X96234286Y-3529999D01*
X98329524Y-3529999D01*
X96234286Y-3529999D02*
X95853333Y-3339523D01*
X95662857Y-2958571D01*
X95662857Y-2387142D01*
X95853333Y-2006190D01*
X96234286Y-1815714D01*
X98329524Y-1815714D01*
D11*
D10*
X1897143Y-55852858D02*
X3897143Y-55281429D01*
X2468571Y-54710000D01*
X3897143Y-54138572D01*
X1897143Y-53567143D01*
X1897143Y-52710001D02*
X3897143Y-52138572D01*
X2468571Y-51567143D01*
X3897143Y-50995715D01*
X1897143Y-50424286D01*
X1897143Y-49567144D02*
X3897143Y-48995715D01*
X2468571Y-48424286D01*
X3897143Y-47852858D01*
X1897143Y-47281429D01*
X3611429Y-46138572D02*
X3754286Y-45995715D01*
X3897143Y-46138572D01*
X3754286Y-46281429D01*
X3611429Y-46138572D01*
X3897143Y-46138572D01*
X3897143Y-44710001D02*
X1897143Y-44710001D01*
X897143Y-44710001D02*
X1040000Y-44852858D01*
X1182857Y-44710001D01*
X1040000Y-44567144D01*
X897143Y-44710001D01*
X1182857Y-44710001D01*
X1897143Y-43281430D02*
X3897143Y-43281430D01*
X2182857Y-43281430D02*
X2040000Y-43138573D01*
X1897143Y-42852859D01*
X1897143Y-42424287D01*
X2040000Y-42138573D01*
X2325714Y-41995716D01*
X3897143Y-41995716D01*
X3897143Y-40567144D02*
X897143Y-40567144D01*
X3897143Y-39281430D02*
X2325714Y-39281430D01*
X2040000Y-39424287D01*
X1897143Y-39710001D01*
X1897143Y-40138573D01*
X2040000Y-40424287D01*
X2182857Y-40567144D01*
X3897143Y-37852858D02*
X1897143Y-37852858D01*
X897143Y-37852858D02*
X1040000Y-37995715D01*
X1182857Y-37852858D01*
X1040000Y-37710001D01*
X897143Y-37852858D01*
X1182857Y-37852858D01*
X3897143Y-36424287D02*
X897143Y-36424287D01*
X2040000Y-36424287D02*
X1897143Y-36138573D01*
X1897143Y-35567144D01*
X2040000Y-35281430D01*
X2182857Y-35138573D01*
X2468571Y-34995716D01*
X3325714Y-34995716D01*
X3611429Y-35138573D01*
X3754286Y-35281430D01*
X3897143Y-35567144D01*
X3897143Y-36138573D01*
X3754286Y-36424287D01*
X3897143Y-33710001D02*
X1897143Y-33710001D01*
X897143Y-33710001D02*
X1040000Y-33852858D01*
X1182857Y-33710001D01*
X1040000Y-33567144D01*
X897143Y-33710001D01*
X1182857Y-33710001D01*
X1897143Y-32710002D02*
X1897143Y-31567145D01*
X897143Y-32281430D02*
X3468571Y-32281430D01*
X3754286Y-32138573D01*
X3897143Y-31852859D01*
X3897143Y-31567145D01*
X3897143Y-30567144D02*
X1897143Y-30567144D01*
X897143Y-30567144D02*
X1040000Y-30710001D01*
X1182857Y-30567144D01*
X1040000Y-30424287D01*
X897143Y-30567144D01*
X1182857Y-30567144D01*
X3897143Y-28710002D02*
X3754286Y-28995716D01*
X3611429Y-29138573D01*
X3325714Y-29281430D01*
X2468571Y-29281430D01*
X2182857Y-29138573D01*
X2040000Y-28995716D01*
X1897143Y-28710002D01*
X1897143Y-28281430D01*
X2040000Y-27995716D01*
X2182857Y-27852859D01*
X2468571Y-27710002D01*
X3325714Y-27710002D01*
X3611429Y-27852859D01*
X3754286Y-27995716D01*
X3897143Y-28281430D01*
X3897143Y-28710002D01*
X1897143Y-26424287D02*
X3897143Y-26424287D01*
X2182857Y-26424287D02*
X2040000Y-26281430D01*
X1897143Y-25995716D01*
X1897143Y-25567144D01*
X2040000Y-25281430D01*
X2325714Y-25138573D01*
X3897143Y-25138573D01*
X2754286Y-23710001D02*
X2754286Y-21424287D01*
X3754286Y-18852858D02*
X3897143Y-19138572D01*
X3897143Y-19710001D01*
X3754286Y-19995715D01*
X3468571Y-20138572D01*
X2325714Y-20138572D01*
X2040000Y-19995715D01*
X1897143Y-19710001D01*
X1897143Y-19138572D01*
X2040000Y-18852858D01*
X2325714Y-18710001D01*
X2611429Y-18710001D01*
X2897143Y-20138572D01*
X3754286Y-16281429D02*
X3897143Y-16567143D01*
X3897143Y-17138572D01*
X3754286Y-17424286D01*
X3468571Y-17567143D01*
X2325714Y-17567143D01*
X2040000Y-17424286D01*
X1897143Y-17138572D01*
X1897143Y-16567143D01*
X2040000Y-16281429D01*
X2325714Y-16138572D01*
X2611429Y-16138572D01*
X2897143Y-17567143D01*
X1897143Y-13567143D02*
X4325714Y-13567143D01*
X4611429Y-13710000D01*
X4754286Y-13852857D01*
X4897143Y-14138572D01*
X4897143Y-14567143D01*
X4754286Y-14852857D01*
X3754286Y-13567143D02*
X3897143Y-13852857D01*
X3897143Y-14424286D01*
X3754286Y-14710000D01*
X3611429Y-14852857D01*
X3325714Y-14995714D01*
X2468571Y-14995714D01*
X2182857Y-14852857D01*
X2040000Y-14710000D01*
X1897143Y-14424286D01*
X1897143Y-13852857D01*
X2040000Y-13567143D01*
X3611429Y-12138571D02*
X3754286Y-11995714D01*
X3897143Y-12138571D01*
X3754286Y-12281428D01*
X3611429Y-12138571D01*
X3897143Y-12138571D01*
X3754286Y-9424286D02*
X3897143Y-9710000D01*
X3897143Y-10281429D01*
X3754286Y-10567143D01*
X3611429Y-10710000D01*
X3325714Y-10852857D01*
X2468571Y-10852857D01*
X2182857Y-10710000D01*
X2040000Y-10567143D01*
X1897143Y-10281429D01*
X1897143Y-9710000D01*
X2040000Y-9424286D01*
X3897143Y-7710000D02*
X3754286Y-7995714D01*
X3611429Y-8138571D01*
X3325714Y-8281428D01*
X2468571Y-8281428D01*
X2182857Y-8138571D01*
X2040000Y-7995714D01*
X1897143Y-7710000D01*
X1897143Y-7281428D01*
X2040000Y-6995714D01*
X2182857Y-6852857D01*
X2468571Y-6710000D01*
X3325714Y-6710000D01*
X3611429Y-6852857D01*
X3754286Y-6995714D01*
X3897143Y-7281428D01*
X3897143Y-7710000D01*
X3897143Y-5424285D02*
X1897143Y-5424285D01*
X2182857Y-5424285D02*
X2040000Y-5281428D01*
X1897143Y-4995714D01*
X1897143Y-4567142D01*
X2040000Y-4281428D01*
X2325714Y-4138571D01*
X3897143Y-4138571D01*
X2325714Y-4138571D02*
X2040000Y-3995714D01*
X1897143Y-3710000D01*
X1897143Y-3281428D01*
X2040000Y-2995714D01*
X2325714Y-2852857D01*
X3897143Y-2852857D01*
D11*
X7516667Y-81644762D02*
X7659524Y-81692381D01*
X7897620Y-81692381D01*
X7992858Y-81644762D01*
X8040477Y-81597143D01*
X8088096Y-81501905D01*
X8088096Y-81406667D01*
X8040477Y-81311429D01*
X7992858Y-81263810D01*
X7897620Y-81216190D01*
X7707143Y-81168571D01*
X7611905Y-81120952D01*
X7564286Y-81073333D01*
X7516667Y-80978095D01*
X7516667Y-80882857D01*
X7564286Y-80787619D01*
X7611905Y-80740000D01*
X7707143Y-80692381D01*
X7945239Y-80692381D01*
X8088096Y-80740000D01*
X8421429Y-80692381D02*
X8659524Y-81692381D01*
X8850001Y-80978095D01*
X9040477Y-81692381D01*
X9278572Y-80692381D01*
X10183334Y-81692381D02*
X9611905Y-81692381D01*
X9897619Y-81692381D02*
X9897619Y-80692381D01*
X9802381Y-80835238D01*
X9707143Y-80930476D01*
X9611905Y-80978095D01*
X88566667Y-50252381D02*
X88566667Y-50966667D01*
X88519047Y-51109524D01*
X88423809Y-51204762D01*
X88280952Y-51252381D01*
X88185714Y-51252381D01*
X89566667Y-51252381D02*
X88995238Y-51252381D01*
X89280952Y-51252381D02*
X89280952Y-50252381D01*
X89185714Y-50395238D01*
X89090476Y-50490476D01*
X88995238Y-50538095D01*
X17137143Y-67762381D02*
X16803809Y-67286190D01*
X16565714Y-67762381D02*
X16565714Y-66762381D01*
X16946667Y-66762381D01*
X17041905Y-66810000D01*
X17089524Y-66857619D01*
X17137143Y-66952857D01*
X17137143Y-67095714D01*
X17089524Y-67190952D01*
X17041905Y-67238571D01*
X16946667Y-67286190D01*
X16565714Y-67286190D01*
X17518095Y-66857619D02*
X17565714Y-66810000D01*
X17660952Y-66762381D01*
X17899048Y-66762381D01*
X17994286Y-66810000D01*
X18041905Y-66857619D01*
X18089524Y-66952857D01*
X18089524Y-67048095D01*
X18041905Y-67190952D01*
X17470476Y-67762381D01*
X18089524Y-67762381D01*
X19041905Y-67762381D02*
X18470476Y-67762381D01*
X18756190Y-67762381D02*
X18756190Y-66762381D01*
X18660952Y-66905238D01*
X18565714Y-67000476D01*
X18470476Y-67048095D01*
X71747143Y-44902381D02*
X71413809Y-44426190D01*
X71175714Y-44902381D02*
X71175714Y-43902381D01*
X71556667Y-43902381D01*
X71651905Y-43950000D01*
X71699524Y-43997619D01*
X71747143Y-44092857D01*
X71747143Y-44235714D01*
X71699524Y-44330952D01*
X71651905Y-44378571D01*
X71556667Y-44426190D01*
X71175714Y-44426190D01*
X72128095Y-43997619D02*
X72175714Y-43950000D01*
X72270952Y-43902381D01*
X72509048Y-43902381D01*
X72604286Y-43950000D01*
X72651905Y-43997619D01*
X72699524Y-44092857D01*
X72699524Y-44188095D01*
X72651905Y-44330952D01*
X72080476Y-44902381D01*
X72699524Y-44902381D01*
X73032857Y-43902381D02*
X73651905Y-43902381D01*
X73318571Y-44283333D01*
X73461429Y-44283333D01*
X73556667Y-44330952D01*
X73604286Y-44378571D01*
X73651905Y-44473810D01*
X73651905Y-44711905D01*
X73604286Y-44807143D01*
X73556667Y-44854762D01*
X73461429Y-44902381D01*
X73175714Y-44902381D01*
X73080476Y-44854762D01*
X73032857Y-44807143D01*
X84177143Y-83192857D02*
X84224762Y-83240476D01*
X84272381Y-83383333D01*
X84272381Y-83478571D01*
X84224762Y-83621429D01*
X84129524Y-83716667D01*
X84034286Y-83764286D01*
X83843810Y-83811905D01*
X83700952Y-83811905D01*
X83510476Y-83764286D01*
X83415238Y-83716667D01*
X83320000Y-83621429D01*
X83272381Y-83478571D01*
X83272381Y-83383333D01*
X83320000Y-83240476D01*
X83367619Y-83192857D01*
X83367619Y-82811905D02*
X83320000Y-82764286D01*
X83272381Y-82669048D01*
X83272381Y-82430952D01*
X83320000Y-82335714D01*
X83367619Y-82288095D01*
X83462857Y-82240476D01*
X83558095Y-82240476D01*
X83700952Y-82288095D01*
X84272381Y-82859524D01*
X84272381Y-82240476D01*
X83272381Y-81907143D02*
X83272381Y-81240476D01*
X84272381Y-81669048D01*
X85447143Y-65412857D02*
X85494762Y-65460476D01*
X85542381Y-65603333D01*
X85542381Y-65698571D01*
X85494762Y-65841429D01*
X85399524Y-65936667D01*
X85304286Y-65984286D01*
X85113810Y-66031905D01*
X84970952Y-66031905D01*
X84780476Y-65984286D01*
X84685238Y-65936667D01*
X84590000Y-65841429D01*
X84542381Y-65698571D01*
X84542381Y-65603333D01*
X84590000Y-65460476D01*
X84637619Y-65412857D01*
X84637619Y-65031905D02*
X84590000Y-64984286D01*
X84542381Y-64889048D01*
X84542381Y-64650952D01*
X84590000Y-64555714D01*
X84637619Y-64508095D01*
X84732857Y-64460476D01*
X84828095Y-64460476D01*
X84970952Y-64508095D01*
X85542381Y-65079524D01*
X85542381Y-64460476D01*
X84970952Y-63889048D02*
X84923333Y-63984286D01*
X84875714Y-64031905D01*
X84780476Y-64079524D01*
X84732857Y-64079524D01*
X84637619Y-64031905D01*
X84590000Y-63984286D01*
X84542381Y-63889048D01*
X84542381Y-63698571D01*
X84590000Y-63603333D01*
X84637619Y-63555714D01*
X84732857Y-63508095D01*
X84780476Y-63508095D01*
X84875714Y-63555714D01*
X84923333Y-63603333D01*
X84970952Y-63698571D01*
X84970952Y-63889048D01*
X85018571Y-63984286D01*
X85066190Y-64031905D01*
X85161429Y-64079524D01*
X85351905Y-64079524D01*
X85447143Y-64031905D01*
X85494762Y-63984286D01*
X85542381Y-63889048D01*
X85542381Y-63698571D01*
X85494762Y-63603333D01*
X85447143Y-63555714D01*
X85351905Y-63508095D01*
X85161429Y-63508095D01*
X85066190Y-63555714D01*
X85018571Y-63603333D01*
X84970952Y-63698571D01*
X82907143Y-65412857D02*
X82954762Y-65460476D01*
X83002381Y-65603333D01*
X83002381Y-65698571D01*
X82954762Y-65841429D01*
X82859524Y-65936667D01*
X82764286Y-65984286D01*
X82573810Y-66031905D01*
X82430952Y-66031905D01*
X82240476Y-65984286D01*
X82145238Y-65936667D01*
X82050000Y-65841429D01*
X82002381Y-65698571D01*
X82002381Y-65603333D01*
X82050000Y-65460476D01*
X82097619Y-65412857D01*
X82097619Y-65031905D02*
X82050000Y-64984286D01*
X82002381Y-64889048D01*
X82002381Y-64650952D01*
X82050000Y-64555714D01*
X82097619Y-64508095D01*
X82192857Y-64460476D01*
X82288095Y-64460476D01*
X82430952Y-64508095D01*
X83002381Y-65079524D01*
X83002381Y-64460476D01*
X82002381Y-63603333D02*
X82002381Y-63793810D01*
X82050000Y-63889048D01*
X82097619Y-63936667D01*
X82240476Y-64031905D01*
X82430952Y-64079524D01*
X82811905Y-64079524D01*
X82907143Y-64031905D01*
X82954762Y-63984286D01*
X83002381Y-63889048D01*
X83002381Y-63698571D01*
X82954762Y-63603333D01*
X82907143Y-63555714D01*
X82811905Y-63508095D01*
X82573810Y-63508095D01*
X82478571Y-63555714D01*
X82430952Y-63603333D01*
X82383333Y-63698571D01*
X82383333Y-63889048D01*
X82430952Y-63984286D01*
X82478571Y-64031905D01*
X82573810Y-64079524D01*
X81637143Y-83192857D02*
X81684762Y-83240476D01*
X81732381Y-83383333D01*
X81732381Y-83478571D01*
X81684762Y-83621429D01*
X81589524Y-83716667D01*
X81494286Y-83764286D01*
X81303810Y-83811905D01*
X81160952Y-83811905D01*
X80970476Y-83764286D01*
X80875238Y-83716667D01*
X80780000Y-83621429D01*
X80732381Y-83478571D01*
X80732381Y-83383333D01*
X80780000Y-83240476D01*
X80827619Y-83192857D01*
X80827619Y-82811905D02*
X80780000Y-82764286D01*
X80732381Y-82669048D01*
X80732381Y-82430952D01*
X80780000Y-82335714D01*
X80827619Y-82288095D01*
X80922857Y-82240476D01*
X81018095Y-82240476D01*
X81160952Y-82288095D01*
X81732381Y-82859524D01*
X81732381Y-82240476D01*
X81732381Y-81764286D02*
X81732381Y-81573810D01*
X81684762Y-81478571D01*
X81637143Y-81430952D01*
X81494286Y-81335714D01*
X81303810Y-81288095D01*
X80922857Y-81288095D01*
X80827619Y-81335714D01*
X80780000Y-81383333D01*
X80732381Y-81478571D01*
X80732381Y-81669048D01*
X80780000Y-81764286D01*
X80827619Y-81811905D01*
X80922857Y-81859524D01*
X81160952Y-81859524D01*
X81256190Y-81811905D01*
X81303810Y-81764286D01*
X81351429Y-81669048D01*
X81351429Y-81478571D01*
X81303810Y-81383333D01*
X81256190Y-81335714D01*
X81160952Y-81288095D01*
X75287143Y-74302857D02*
X75334762Y-74350476D01*
X75382381Y-74493333D01*
X75382381Y-74588571D01*
X75334762Y-74731429D01*
X75239524Y-74826667D01*
X75144286Y-74874286D01*
X74953810Y-74921905D01*
X74810952Y-74921905D01*
X74620476Y-74874286D01*
X74525238Y-74826667D01*
X74430000Y-74731429D01*
X74382381Y-74588571D01*
X74382381Y-74493333D01*
X74430000Y-74350476D01*
X74477619Y-74302857D01*
X74477619Y-73921905D02*
X74430000Y-73874286D01*
X74382381Y-73779048D01*
X74382381Y-73540952D01*
X74430000Y-73445714D01*
X74477619Y-73398095D01*
X74572857Y-73350476D01*
X74668095Y-73350476D01*
X74810952Y-73398095D01*
X75382381Y-73969524D01*
X75382381Y-73350476D01*
X74382381Y-72445714D02*
X74382381Y-72921905D01*
X74858571Y-72969524D01*
X74810952Y-72921905D01*
X74763333Y-72826667D01*
X74763333Y-72588571D01*
X74810952Y-72493333D01*
X74858571Y-72445714D01*
X74953810Y-72398095D01*
X75191905Y-72398095D01*
X75287143Y-72445714D01*
X75334762Y-72493333D01*
X75382381Y-72588571D01*
X75382381Y-72826667D01*
X75334762Y-72921905D01*
X75287143Y-72969524D01*
X79097143Y-67952857D02*
X79144762Y-68000476D01*
X79192381Y-68143333D01*
X79192381Y-68238571D01*
X79144762Y-68381429D01*
X79049524Y-68476667D01*
X78954286Y-68524286D01*
X78763810Y-68571905D01*
X78620952Y-68571905D01*
X78430476Y-68524286D01*
X78335238Y-68476667D01*
X78240000Y-68381429D01*
X78192381Y-68238571D01*
X78192381Y-68143333D01*
X78240000Y-68000476D01*
X78287619Y-67952857D01*
X78287619Y-67571905D02*
X78240000Y-67524286D01*
X78192381Y-67429048D01*
X78192381Y-67190952D01*
X78240000Y-67095714D01*
X78287619Y-67048095D01*
X78382857Y-67000476D01*
X78478095Y-67000476D01*
X78620952Y-67048095D01*
X79192381Y-67619524D01*
X79192381Y-67000476D01*
X78192381Y-66667143D02*
X78192381Y-66048095D01*
X78573333Y-66381429D01*
X78573333Y-66238571D01*
X78620952Y-66143333D01*
X78668571Y-66095714D01*
X78763810Y-66048095D01*
X79001905Y-66048095D01*
X79097143Y-66095714D01*
X79144762Y-66143333D01*
X79192381Y-66238571D01*
X79192381Y-66524286D01*
X79144762Y-66619524D01*
X79097143Y-66667143D01*
X83177143Y-80367143D02*
X83129524Y-80414762D01*
X82986667Y-80462381D01*
X82891429Y-80462381D01*
X82748571Y-80414762D01*
X82653333Y-80319524D01*
X82605714Y-80224286D01*
X82558095Y-80033810D01*
X82558095Y-79890952D01*
X82605714Y-79700476D01*
X82653333Y-79605238D01*
X82748571Y-79510000D01*
X82891429Y-79462381D01*
X82986667Y-79462381D01*
X83129524Y-79510000D01*
X83177143Y-79557619D01*
X83558095Y-79557619D02*
X83605714Y-79510000D01*
X83700952Y-79462381D01*
X83939048Y-79462381D01*
X84034286Y-79510000D01*
X84081905Y-79557619D01*
X84129524Y-79652857D01*
X84129524Y-79748095D01*
X84081905Y-79890952D01*
X83510476Y-80462381D01*
X84129524Y-80462381D01*
X84986667Y-79795714D02*
X84986667Y-80462381D01*
X84748571Y-79414762D02*
X84510476Y-80129048D01*
X85129524Y-80129048D01*
X89352381Y-74302857D02*
X88876190Y-74636191D01*
X89352381Y-74874286D02*
X88352381Y-74874286D01*
X88352381Y-74493333D01*
X88400000Y-74398095D01*
X88447619Y-74350476D01*
X88542857Y-74302857D01*
X88685714Y-74302857D01*
X88780952Y-74350476D01*
X88828571Y-74398095D01*
X88876190Y-74493333D01*
X88876190Y-74874286D01*
X89352381Y-73350476D02*
X89352381Y-73921905D01*
X89352381Y-73636191D02*
X88352381Y-73636191D01*
X88495238Y-73731429D01*
X88590476Y-73826667D01*
X88638095Y-73921905D01*
X89352381Y-72874286D02*
X89352381Y-72683810D01*
X89304762Y-72588571D01*
X89257143Y-72540952D01*
X89114286Y-72445714D01*
X88923810Y-72398095D01*
X88542857Y-72398095D01*
X88447619Y-72445714D01*
X88400000Y-72493333D01*
X88352381Y-72588571D01*
X88352381Y-72779048D01*
X88400000Y-72874286D01*
X88447619Y-72921905D01*
X88542857Y-72969524D01*
X88780952Y-72969524D01*
X88876190Y-72921905D01*
X88923810Y-72874286D01*
X88971429Y-72779048D01*
X88971429Y-72588571D01*
X88923810Y-72493333D01*
X88876190Y-72445714D01*
X88780952Y-72398095D01*
X91892381Y-74302857D02*
X91416190Y-74636191D01*
X91892381Y-74874286D02*
X90892381Y-74874286D01*
X90892381Y-74493333D01*
X90940000Y-74398095D01*
X90987619Y-74350476D01*
X91082857Y-74302857D01*
X91225714Y-74302857D01*
X91320952Y-74350476D01*
X91368571Y-74398095D01*
X91416190Y-74493333D01*
X91416190Y-74874286D01*
X90987619Y-73921905D02*
X90940000Y-73874286D01*
X90892381Y-73779048D01*
X90892381Y-73540952D01*
X90940000Y-73445714D01*
X90987619Y-73398095D01*
X91082857Y-73350476D01*
X91178095Y-73350476D01*
X91320952Y-73398095D01*
X91892381Y-73969524D01*
X91892381Y-73350476D01*
X90892381Y-72731429D02*
X90892381Y-72636190D01*
X90940000Y-72540952D01*
X90987619Y-72493333D01*
X91082857Y-72445714D01*
X91273333Y-72398095D01*
X91511429Y-72398095D01*
X91701905Y-72445714D01*
X91797143Y-72493333D01*
X91844762Y-72540952D01*
X91892381Y-72636190D01*
X91892381Y-72731429D01*
X91844762Y-72826667D01*
X91797143Y-72874286D01*
X91701905Y-72921905D01*
X91511429Y-72969524D01*
X91273333Y-72969524D01*
X91082857Y-72921905D01*
X90987619Y-72874286D01*
X90940000Y-72826667D01*
X90892381Y-72731429D01*
X46077143Y-64142857D02*
X46124762Y-64190476D01*
X46172381Y-64333333D01*
X46172381Y-64428571D01*
X46124762Y-64571429D01*
X46029524Y-64666667D01*
X45934286Y-64714286D01*
X45743810Y-64761905D01*
X45600952Y-64761905D01*
X45410476Y-64714286D01*
X45315238Y-64666667D01*
X45220000Y-64571429D01*
X45172381Y-64428571D01*
X45172381Y-64333333D01*
X45220000Y-64190476D01*
X45267619Y-64142857D01*
X45267619Y-63761905D02*
X45220000Y-63714286D01*
X45172381Y-63619048D01*
X45172381Y-63380952D01*
X45220000Y-63285714D01*
X45267619Y-63238095D01*
X45362857Y-63190476D01*
X45458095Y-63190476D01*
X45600952Y-63238095D01*
X46172381Y-63809524D01*
X46172381Y-63190476D01*
X45172381Y-62571429D02*
X45172381Y-62476190D01*
X45220000Y-62380952D01*
X45267619Y-62333333D01*
X45362857Y-62285714D01*
X45553333Y-62238095D01*
X45791429Y-62238095D01*
X45981905Y-62285714D01*
X46077143Y-62333333D01*
X46124762Y-62380952D01*
X46172381Y-62476190D01*
X46172381Y-62571429D01*
X46124762Y-62666667D01*
X46077143Y-62714286D01*
X45981905Y-62761905D01*
X45791429Y-62809524D01*
X45553333Y-62809524D01*
X45362857Y-62761905D01*
X45267619Y-62714286D01*
X45220000Y-62666667D01*
X45172381Y-62571429D01*
X48617143Y-64142857D02*
X48664762Y-64190476D01*
X48712381Y-64333333D01*
X48712381Y-64428571D01*
X48664762Y-64571429D01*
X48569524Y-64666667D01*
X48474286Y-64714286D01*
X48283810Y-64761905D01*
X48140952Y-64761905D01*
X47950476Y-64714286D01*
X47855238Y-64666667D01*
X47760000Y-64571429D01*
X47712381Y-64428571D01*
X47712381Y-64333333D01*
X47760000Y-64190476D01*
X47807619Y-64142857D01*
X48712381Y-63190476D02*
X48712381Y-63761905D01*
X48712381Y-63476191D02*
X47712381Y-63476191D01*
X47855238Y-63571429D01*
X47950476Y-63666667D01*
X47998095Y-63761905D01*
X48712381Y-62714286D02*
X48712381Y-62523810D01*
X48664762Y-62428571D01*
X48617143Y-62380952D01*
X48474286Y-62285714D01*
X48283810Y-62238095D01*
X47902857Y-62238095D01*
X47807619Y-62285714D01*
X47760000Y-62333333D01*
X47712381Y-62428571D01*
X47712381Y-62619048D01*
X47760000Y-62714286D01*
X47807619Y-62761905D01*
X47902857Y-62809524D01*
X48140952Y-62809524D01*
X48236190Y-62761905D01*
X48283810Y-62714286D01*
X48331429Y-62619048D01*
X48331429Y-62428571D01*
X48283810Y-62333333D01*
X48236190Y-62285714D01*
X48140952Y-62238095D01*
X34917143Y-80462381D02*
X34583809Y-79986190D01*
X34345714Y-80462381D02*
X34345714Y-79462381D01*
X34726667Y-79462381D01*
X34821905Y-79510000D01*
X34869524Y-79557619D01*
X34917143Y-79652857D01*
X34917143Y-79795714D01*
X34869524Y-79890952D01*
X34821905Y-79938571D01*
X34726667Y-79986190D01*
X34345714Y-79986190D01*
X35869524Y-80462381D02*
X35298095Y-80462381D01*
X35583809Y-80462381D02*
X35583809Y-79462381D01*
X35488571Y-79605238D01*
X35393333Y-79700476D01*
X35298095Y-79748095D01*
X36440952Y-79890952D02*
X36345714Y-79843333D01*
X36298095Y-79795714D01*
X36250476Y-79700476D01*
X36250476Y-79652857D01*
X36298095Y-79557619D01*
X36345714Y-79510000D01*
X36440952Y-79462381D01*
X36631429Y-79462381D01*
X36726667Y-79510000D01*
X36774286Y-79557619D01*
X36821905Y-79652857D01*
X36821905Y-79700476D01*
X36774286Y-79795714D01*
X36726667Y-79843333D01*
X36631429Y-79890952D01*
X36440952Y-79890952D01*
X36345714Y-79938571D01*
X36298095Y-79986190D01*
X36250476Y-80081429D01*
X36250476Y-80271905D01*
X36298095Y-80367143D01*
X36345714Y-80414762D01*
X36440952Y-80462381D01*
X36631429Y-80462381D01*
X36726667Y-80414762D01*
X36774286Y-80367143D01*
X36821905Y-80271905D01*
X36821905Y-80081429D01*
X36774286Y-79986190D01*
X36726667Y-79938571D01*
X36631429Y-79890952D01*
X31107143Y-56237143D02*
X31059524Y-56284762D01*
X30916667Y-56332381D01*
X30821429Y-56332381D01*
X30678571Y-56284762D01*
X30583333Y-56189524D01*
X30535714Y-56094286D01*
X30488095Y-55903810D01*
X30488095Y-55760952D01*
X30535714Y-55570476D01*
X30583333Y-55475238D01*
X30678571Y-55380000D01*
X30821429Y-55332381D01*
X30916667Y-55332381D01*
X31059524Y-55380000D01*
X31107143Y-55427619D01*
X31488095Y-55427619D02*
X31535714Y-55380000D01*
X31630952Y-55332381D01*
X31869048Y-55332381D01*
X31964286Y-55380000D01*
X32011905Y-55427619D01*
X32059524Y-55522857D01*
X32059524Y-55618095D01*
X32011905Y-55760952D01*
X31440476Y-56332381D01*
X32059524Y-56332381D01*
X32440476Y-55427619D02*
X32488095Y-55380000D01*
X32583333Y-55332381D01*
X32821429Y-55332381D01*
X32916667Y-55380000D01*
X32964286Y-55427619D01*
X33011905Y-55522857D01*
X33011905Y-55618095D01*
X32964286Y-55760952D01*
X32392857Y-56332381D01*
X33011905Y-56332381D01*
X88257143Y-14422381D02*
X87923809Y-13946190D01*
X87685714Y-14422381D02*
X87685714Y-13422381D01*
X88066667Y-13422381D01*
X88161905Y-13470000D01*
X88209524Y-13517619D01*
X88257143Y-13612857D01*
X88257143Y-13755714D01*
X88209524Y-13850952D01*
X88161905Y-13898571D01*
X88066667Y-13946190D01*
X87685714Y-13946190D01*
X89209524Y-14422381D02*
X88638095Y-14422381D01*
X88923809Y-14422381D02*
X88923809Y-13422381D01*
X88828571Y-13565238D01*
X88733333Y-13660476D01*
X88638095Y-13708095D01*
X89542857Y-13422381D02*
X90209524Y-13422381D01*
X89780952Y-14422381D01*
X71747143Y-8072381D02*
X71413809Y-7596190D01*
X71175714Y-8072381D02*
X71175714Y-7072381D01*
X71556667Y-7072381D01*
X71651905Y-7120000D01*
X71699524Y-7167619D01*
X71747143Y-7262857D01*
X71747143Y-7405714D01*
X71699524Y-7500952D01*
X71651905Y-7548571D01*
X71556667Y-7596190D01*
X71175714Y-7596190D01*
X72699524Y-8072381D02*
X72128095Y-8072381D01*
X72413809Y-8072381D02*
X72413809Y-7072381D01*
X72318571Y-7215238D01*
X72223333Y-7310476D01*
X72128095Y-7358095D01*
X73604286Y-7072381D02*
X73128095Y-7072381D01*
X73080476Y-7548571D01*
X73128095Y-7500952D01*
X73223333Y-7453333D01*
X73461429Y-7453333D01*
X73556667Y-7500952D01*
X73604286Y-7548571D01*
X73651905Y-7643810D01*
X73651905Y-7881905D01*
X73604286Y-7977143D01*
X73556667Y-8024762D01*
X73461429Y-8072381D01*
X73223333Y-8072381D01*
X73128095Y-8024762D01*
X73080476Y-7977143D01*
X59047143Y-4167143D02*
X58999524Y-4214762D01*
X58856667Y-4262381D01*
X58761429Y-4262381D01*
X58618571Y-4214762D01*
X58523333Y-4119524D01*
X58475714Y-4024286D01*
X58428095Y-3833810D01*
X58428095Y-3690952D01*
X58475714Y-3500476D01*
X58523333Y-3405238D01*
X58618571Y-3310000D01*
X58761429Y-3262381D01*
X58856667Y-3262381D01*
X58999524Y-3310000D01*
X59047143Y-3357619D01*
X59428095Y-3357619D02*
X59475714Y-3310000D01*
X59570952Y-3262381D01*
X59809048Y-3262381D01*
X59904286Y-3310000D01*
X59951905Y-3357619D01*
X59999524Y-3452857D01*
X59999524Y-3548095D01*
X59951905Y-3690952D01*
X59380476Y-4262381D01*
X59999524Y-4262381D01*
X60951905Y-4262381D02*
X60380476Y-4262381D01*
X60666190Y-4262381D02*
X60666190Y-3262381D01*
X60570952Y-3405238D01*
X60475714Y-3500476D01*
X60380476Y-3548095D01*
X48887143Y-6707143D02*
X48839524Y-6754762D01*
X48696667Y-6802381D01*
X48601429Y-6802381D01*
X48458571Y-6754762D01*
X48363333Y-6659524D01*
X48315714Y-6564286D01*
X48268095Y-6373810D01*
X48268095Y-6230952D01*
X48315714Y-6040476D01*
X48363333Y-5945238D01*
X48458571Y-5850000D01*
X48601429Y-5802381D01*
X48696667Y-5802381D01*
X48839524Y-5850000D01*
X48887143Y-5897619D01*
X49839524Y-6802381D02*
X49268095Y-6802381D01*
X49553809Y-6802381D02*
X49553809Y-5802381D01*
X49458571Y-5945238D01*
X49363333Y-6040476D01*
X49268095Y-6088095D01*
X50172857Y-5802381D02*
X50839524Y-5802381D01*
X50410952Y-6802381D01*
X88257143Y-20772381D02*
X87923809Y-20296190D01*
X87685714Y-20772381D02*
X87685714Y-19772381D01*
X88066667Y-19772381D01*
X88161905Y-19820000D01*
X88209524Y-19867619D01*
X88257143Y-19962857D01*
X88257143Y-20105714D01*
X88209524Y-20200952D01*
X88161905Y-20248571D01*
X88066667Y-20296190D01*
X87685714Y-20296190D01*
X89209524Y-20772381D02*
X88638095Y-20772381D01*
X88923809Y-20772381D02*
X88923809Y-19772381D01*
X88828571Y-19915238D01*
X88733333Y-20010476D01*
X88638095Y-20058095D01*
X90066667Y-20105714D02*
X90066667Y-20772381D01*
X89828571Y-19724762D02*
X89590476Y-20439048D01*
X90209524Y-20439048D01*
X88257143Y-27122381D02*
X87923809Y-26646190D01*
X87685714Y-27122381D02*
X87685714Y-26122381D01*
X88066667Y-26122381D01*
X88161905Y-26170000D01*
X88209524Y-26217619D01*
X88257143Y-26312857D01*
X88257143Y-26455714D01*
X88209524Y-26550952D01*
X88161905Y-26598571D01*
X88066667Y-26646190D01*
X87685714Y-26646190D01*
X89209524Y-27122381D02*
X88638095Y-27122381D01*
X88923809Y-27122381D02*
X88923809Y-26122381D01*
X88828571Y-26265238D01*
X88733333Y-26360476D01*
X88638095Y-26408095D01*
X90066667Y-26122381D02*
X89876190Y-26122381D01*
X89780952Y-26170000D01*
X89733333Y-26217619D01*
X89638095Y-26360476D01*
X89590476Y-26550952D01*
X89590476Y-26931905D01*
X89638095Y-27027143D01*
X89685714Y-27074762D01*
X89780952Y-27122381D01*
X89971429Y-27122381D01*
X90066667Y-27074762D01*
X90114286Y-27027143D01*
X90161905Y-26931905D01*
X90161905Y-26693810D01*
X90114286Y-26598571D01*
X90066667Y-26550952D01*
X89971429Y-26503333D01*
X89780952Y-26503333D01*
X89685714Y-26550952D01*
X89638095Y-26598571D01*
X89590476Y-26693810D01*
X57777143Y-38457143D02*
X57729524Y-38504762D01*
X57586667Y-38552381D01*
X57491429Y-38552381D01*
X57348571Y-38504762D01*
X57253333Y-38409524D01*
X57205714Y-38314286D01*
X57158095Y-38123810D01*
X57158095Y-37980952D01*
X57205714Y-37790476D01*
X57253333Y-37695238D01*
X57348571Y-37600000D01*
X57491429Y-37552381D01*
X57586667Y-37552381D01*
X57729524Y-37600000D01*
X57777143Y-37647619D01*
X58729524Y-38552381D02*
X58158095Y-38552381D01*
X58443809Y-38552381D02*
X58443809Y-37552381D01*
X58348571Y-37695238D01*
X58253333Y-37790476D01*
X58158095Y-37838095D01*
X59300952Y-37980952D02*
X59205714Y-37933333D01*
X59158095Y-37885714D01*
X59110476Y-37790476D01*
X59110476Y-37742857D01*
X59158095Y-37647619D01*
X59205714Y-37600000D01*
X59300952Y-37552381D01*
X59491429Y-37552381D01*
X59586667Y-37600000D01*
X59634286Y-37647619D01*
X59681905Y-37742857D01*
X59681905Y-37790476D01*
X59634286Y-37885714D01*
X59586667Y-37933333D01*
X59491429Y-37980952D01*
X59300952Y-37980952D01*
X59205714Y-38028571D01*
X59158095Y-38076190D01*
X59110476Y-38171429D01*
X59110476Y-38361905D01*
X59158095Y-38457143D01*
X59205714Y-38504762D01*
X59300952Y-38552381D01*
X59491429Y-38552381D01*
X59586667Y-38504762D01*
X59634286Y-38457143D01*
X59681905Y-38361905D01*
X59681905Y-38171429D01*
X59634286Y-38076190D01*
X59586667Y-38028571D01*
X59491429Y-37980952D01*
X71747143Y-14422381D02*
X71413809Y-13946190D01*
X71175714Y-14422381D02*
X71175714Y-13422381D01*
X71556667Y-13422381D01*
X71651905Y-13470000D01*
X71699524Y-13517619D01*
X71747143Y-13612857D01*
X71747143Y-13755714D01*
X71699524Y-13850952D01*
X71651905Y-13898571D01*
X71556667Y-13946190D01*
X71175714Y-13946190D01*
X72699524Y-14422381D02*
X72128095Y-14422381D01*
X72413809Y-14422381D02*
X72413809Y-13422381D01*
X72318571Y-13565238D01*
X72223333Y-13660476D01*
X72128095Y-13708095D01*
X73032857Y-13422381D02*
X73651905Y-13422381D01*
X73318571Y-13803333D01*
X73461429Y-13803333D01*
X73556667Y-13850952D01*
X73604286Y-13898571D01*
X73651905Y-13993810D01*
X73651905Y-14231905D01*
X73604286Y-14327143D01*
X73556667Y-14374762D01*
X73461429Y-14422381D01*
X73175714Y-14422381D01*
X73080476Y-14374762D01*
X73032857Y-14327143D01*
X48887143Y-48617143D02*
X48839524Y-48664762D01*
X48696667Y-48712381D01*
X48601429Y-48712381D01*
X48458571Y-48664762D01*
X48363333Y-48569524D01*
X48315714Y-48474286D01*
X48268095Y-48283810D01*
X48268095Y-48140952D01*
X48315714Y-47950476D01*
X48363333Y-47855238D01*
X48458571Y-47760000D01*
X48601429Y-47712381D01*
X48696667Y-47712381D01*
X48839524Y-47760000D01*
X48887143Y-47807619D01*
X49839524Y-48712381D02*
X49268095Y-48712381D01*
X49553809Y-48712381D02*
X49553809Y-47712381D01*
X49458571Y-47855238D01*
X49363333Y-47950476D01*
X49268095Y-47998095D01*
X50744286Y-47712381D02*
X50268095Y-47712381D01*
X50220476Y-48188571D01*
X50268095Y-48140952D01*
X50363333Y-48093333D01*
X50601429Y-48093333D01*
X50696667Y-48140952D01*
X50744286Y-48188571D01*
X50791905Y-48283810D01*
X50791905Y-48521905D01*
X50744286Y-48617143D01*
X50696667Y-48664762D01*
X50601429Y-48712381D01*
X50363333Y-48712381D01*
X50268095Y-48664762D01*
X50220476Y-48617143D01*
X59047143Y-46077143D02*
X58999524Y-46124762D01*
X58856667Y-46172381D01*
X58761429Y-46172381D01*
X58618571Y-46124762D01*
X58523333Y-46029524D01*
X58475714Y-45934286D01*
X58428095Y-45743810D01*
X58428095Y-45600952D01*
X58475714Y-45410476D01*
X58523333Y-45315238D01*
X58618571Y-45220000D01*
X58761429Y-45172381D01*
X58856667Y-45172381D01*
X58999524Y-45220000D01*
X59047143Y-45267619D01*
X59999524Y-46172381D02*
X59428095Y-46172381D01*
X59713809Y-46172381D02*
X59713809Y-45172381D01*
X59618571Y-45315238D01*
X59523333Y-45410476D01*
X59428095Y-45458095D01*
X60856667Y-45172381D02*
X60666190Y-45172381D01*
X60570952Y-45220000D01*
X60523333Y-45267619D01*
X60428095Y-45410476D01*
X60380476Y-45600952D01*
X60380476Y-45981905D01*
X60428095Y-46077143D01*
X60475714Y-46124762D01*
X60570952Y-46172381D01*
X60761429Y-46172381D01*
X60856667Y-46124762D01*
X60904286Y-46077143D01*
X60951905Y-45981905D01*
X60951905Y-45743810D01*
X60904286Y-45648571D01*
X60856667Y-45600952D01*
X60761429Y-45553333D01*
X60570952Y-45553333D01*
X60475714Y-45600952D01*
X60428095Y-45648571D01*
X60380476Y-45743810D01*
X72223334Y-27122381D02*
X71890000Y-26646190D01*
X71651905Y-27122381D02*
X71651905Y-26122381D01*
X72032858Y-26122381D01*
X72128096Y-26170000D01*
X72175715Y-26217619D01*
X72223334Y-26312857D01*
X72223334Y-26455714D01*
X72175715Y-26550952D01*
X72128096Y-26598571D01*
X72032858Y-26646190D01*
X71651905Y-26646190D01*
X72556667Y-26122381D02*
X73223334Y-26122381D01*
X72794762Y-27122381D01*
X72223334Y-33472381D02*
X71890000Y-32996190D01*
X71651905Y-33472381D02*
X71651905Y-32472381D01*
X72032858Y-32472381D01*
X72128096Y-32520000D01*
X72175715Y-32567619D01*
X72223334Y-32662857D01*
X72223334Y-32805714D01*
X72175715Y-32900952D01*
X72128096Y-32948571D01*
X72032858Y-32996190D01*
X71651905Y-32996190D01*
X72794762Y-32900952D02*
X72699524Y-32853333D01*
X72651905Y-32805714D01*
X72604286Y-32710476D01*
X72604286Y-32662857D01*
X72651905Y-32567619D01*
X72699524Y-32520000D01*
X72794762Y-32472381D01*
X72985239Y-32472381D01*
X73080477Y-32520000D01*
X73128096Y-32567619D01*
X73175715Y-32662857D01*
X73175715Y-32710476D01*
X73128096Y-32805714D01*
X73080477Y-32853333D01*
X72985239Y-32900952D01*
X72794762Y-32900952D01*
X72699524Y-32948571D01*
X72651905Y-32996190D01*
X72604286Y-33091429D01*
X72604286Y-33281905D01*
X72651905Y-33377143D01*
X72699524Y-33424762D01*
X72794762Y-33472381D01*
X72985239Y-33472381D01*
X73080477Y-33424762D01*
X73128096Y-33377143D01*
X73175715Y-33281905D01*
X73175715Y-33091429D01*
X73128096Y-32996190D01*
X73080477Y-32948571D01*
X72985239Y-32900952D01*
X36187143Y-33377143D02*
X36139524Y-33424762D01*
X35996667Y-33472381D01*
X35901429Y-33472381D01*
X35758571Y-33424762D01*
X35663333Y-33329524D01*
X35615714Y-33234286D01*
X35568095Y-33043810D01*
X35568095Y-32900952D01*
X35615714Y-32710476D01*
X35663333Y-32615238D01*
X35758571Y-32520000D01*
X35901429Y-32472381D01*
X35996667Y-32472381D01*
X36139524Y-32520000D01*
X36187143Y-32567619D01*
X37139524Y-33472381D02*
X36568095Y-33472381D01*
X36853809Y-33472381D02*
X36853809Y-32472381D01*
X36758571Y-32615238D01*
X36663333Y-32710476D01*
X36568095Y-32758095D01*
X37996667Y-32805714D02*
X37996667Y-33472381D01*
X37758571Y-32424762D02*
X37520476Y-33139048D01*
X38139524Y-33139048D01*
X36012381Y-43822857D02*
X35536190Y-44156191D01*
X36012381Y-44394286D02*
X35012381Y-44394286D01*
X35012381Y-44013333D01*
X35060000Y-43918095D01*
X35107619Y-43870476D01*
X35202857Y-43822857D01*
X35345714Y-43822857D01*
X35440952Y-43870476D01*
X35488571Y-43918095D01*
X35536190Y-44013333D01*
X35536190Y-44394286D01*
X36012381Y-42870476D02*
X36012381Y-43441905D01*
X36012381Y-43156191D02*
X35012381Y-43156191D01*
X35155238Y-43251429D01*
X35250476Y-43346667D01*
X35298095Y-43441905D01*
X35107619Y-42489524D02*
X35060000Y-42441905D01*
X35012381Y-42346667D01*
X35012381Y-42108571D01*
X35060000Y-42013333D01*
X35107619Y-41965714D01*
X35202857Y-41918095D01*
X35298095Y-41918095D01*
X35440952Y-41965714D01*
X36012381Y-42537143D01*
X36012381Y-41918095D01*
X71747143Y-20772381D02*
X71413809Y-20296190D01*
X71175714Y-20772381D02*
X71175714Y-19772381D01*
X71556667Y-19772381D01*
X71651905Y-19820000D01*
X71699524Y-19867619D01*
X71747143Y-19962857D01*
X71747143Y-20105714D01*
X71699524Y-20200952D01*
X71651905Y-20248571D01*
X71556667Y-20296190D01*
X71175714Y-20296190D01*
X72699524Y-20772381D02*
X72128095Y-20772381D01*
X72413809Y-20772381D02*
X72413809Y-19772381D01*
X72318571Y-19915238D01*
X72223333Y-20010476D01*
X72128095Y-20058095D01*
X73651905Y-20772381D02*
X73080476Y-20772381D01*
X73366190Y-20772381D02*
X73366190Y-19772381D01*
X73270952Y-19915238D01*
X73175714Y-20010476D01*
X73080476Y-20058095D01*
X42362381Y-43822857D02*
X41886190Y-44156191D01*
X42362381Y-44394286D02*
X41362381Y-44394286D01*
X41362381Y-44013333D01*
X41410000Y-43918095D01*
X41457619Y-43870476D01*
X41552857Y-43822857D01*
X41695714Y-43822857D01*
X41790952Y-43870476D01*
X41838571Y-43918095D01*
X41886190Y-44013333D01*
X41886190Y-44394286D01*
X42362381Y-42870476D02*
X42362381Y-43441905D01*
X42362381Y-43156191D02*
X41362381Y-43156191D01*
X41505238Y-43251429D01*
X41600476Y-43346667D01*
X41648095Y-43441905D01*
X41362381Y-42251429D02*
X41362381Y-42156190D01*
X41410000Y-42060952D01*
X41457619Y-42013333D01*
X41552857Y-41965714D01*
X41743333Y-41918095D01*
X41981429Y-41918095D01*
X42171905Y-41965714D01*
X42267143Y-42013333D01*
X42314762Y-42060952D01*
X42362381Y-42156190D01*
X42362381Y-42251429D01*
X42314762Y-42346667D01*
X42267143Y-42394286D01*
X42171905Y-42441905D01*
X41981429Y-42489524D01*
X41743333Y-42489524D01*
X41552857Y-42441905D01*
X41457619Y-42394286D01*
X41410000Y-42346667D01*
X41362381Y-42251429D01*
X22693334Y-29662381D02*
X22360000Y-29186190D01*
X22121905Y-29662381D02*
X22121905Y-28662381D01*
X22502858Y-28662381D01*
X22598096Y-28710000D01*
X22645715Y-28757619D01*
X22693334Y-28852857D01*
X22693334Y-28995714D01*
X22645715Y-29090952D01*
X22598096Y-29138571D01*
X22502858Y-29186190D01*
X22121905Y-29186190D01*
X23169524Y-29662381D02*
X23360000Y-29662381D01*
X23455239Y-29614762D01*
X23502858Y-29567143D01*
X23598096Y-29424286D01*
X23645715Y-29233810D01*
X23645715Y-28852857D01*
X23598096Y-28757619D01*
X23550477Y-28710000D01*
X23455239Y-28662381D01*
X23264762Y-28662381D01*
X23169524Y-28710000D01*
X23121905Y-28757619D01*
X23074286Y-28852857D01*
X23074286Y-29090952D01*
X23121905Y-29186190D01*
X23169524Y-29233810D01*
X23264762Y-29281429D01*
X23455239Y-29281429D01*
X23550477Y-29233810D01*
X23598096Y-29186190D01*
X23645715Y-29090952D01*
X9517143Y-46077143D02*
X9469524Y-46124762D01*
X9326667Y-46172381D01*
X9231429Y-46172381D01*
X9088571Y-46124762D01*
X8993333Y-46029524D01*
X8945714Y-45934286D01*
X8898095Y-45743810D01*
X8898095Y-45600952D01*
X8945714Y-45410476D01*
X8993333Y-45315238D01*
X9088571Y-45220000D01*
X9231429Y-45172381D01*
X9326667Y-45172381D01*
X9469524Y-45220000D01*
X9517143Y-45267619D01*
X10469524Y-46172381D02*
X9898095Y-46172381D01*
X10183809Y-46172381D02*
X10183809Y-45172381D01*
X10088571Y-45315238D01*
X9993333Y-45410476D01*
X9898095Y-45458095D01*
X10802857Y-45172381D02*
X11421905Y-45172381D01*
X11088571Y-45553333D01*
X11231429Y-45553333D01*
X11326667Y-45600952D01*
X11374286Y-45648571D01*
X11421905Y-45743810D01*
X11421905Y-45981905D01*
X11374286Y-46077143D01*
X11326667Y-46124762D01*
X11231429Y-46172381D01*
X10945714Y-46172381D01*
X10850476Y-46124762D01*
X10802857Y-46077143D01*
X42537143Y-27027143D02*
X42489524Y-27074762D01*
X42346667Y-27122381D01*
X42251429Y-27122381D01*
X42108571Y-27074762D01*
X42013333Y-26979524D01*
X41965714Y-26884286D01*
X41918095Y-26693810D01*
X41918095Y-26550952D01*
X41965714Y-26360476D01*
X42013333Y-26265238D01*
X42108571Y-26170000D01*
X42251429Y-26122381D01*
X42346667Y-26122381D01*
X42489524Y-26170000D01*
X42537143Y-26217619D01*
X43489524Y-27122381D02*
X42918095Y-27122381D01*
X43203809Y-27122381D02*
X43203809Y-26122381D01*
X43108571Y-26265238D01*
X43013333Y-26360476D01*
X42918095Y-26408095D01*
X44108571Y-26122381D02*
X44203810Y-26122381D01*
X44299048Y-26170000D01*
X44346667Y-26217619D01*
X44394286Y-26312857D01*
X44441905Y-26503333D01*
X44441905Y-26741429D01*
X44394286Y-26931905D01*
X44346667Y-27027143D01*
X44299048Y-27074762D01*
X44203810Y-27122381D01*
X44108571Y-27122381D01*
X44013333Y-27074762D01*
X43965714Y-27027143D01*
X43918095Y-26931905D01*
X43870476Y-26741429D01*
X43870476Y-26503333D01*
X43918095Y-26312857D01*
X43965714Y-26217619D01*
X44013333Y-26170000D01*
X44108571Y-26122381D01*
X43013334Y-21947143D02*
X42965715Y-21994762D01*
X42822858Y-22042381D01*
X42727620Y-22042381D01*
X42584762Y-21994762D01*
X42489524Y-21899524D01*
X42441905Y-21804286D01*
X42394286Y-21613810D01*
X42394286Y-21470952D01*
X42441905Y-21280476D01*
X42489524Y-21185238D01*
X42584762Y-21090000D01*
X42727620Y-21042381D01*
X42822858Y-21042381D01*
X42965715Y-21090000D01*
X43013334Y-21137619D01*
X43489524Y-22042381D02*
X43680000Y-22042381D01*
X43775239Y-21994762D01*
X43822858Y-21947143D01*
X43918096Y-21804286D01*
X43965715Y-21613810D01*
X43965715Y-21232857D01*
X43918096Y-21137619D01*
X43870477Y-21090000D01*
X43775239Y-21042381D01*
X43584762Y-21042381D01*
X43489524Y-21090000D01*
X43441905Y-21137619D01*
X43394286Y-21232857D01*
X43394286Y-21470952D01*
X43441905Y-21566190D01*
X43489524Y-21613810D01*
X43584762Y-21661429D01*
X43775239Y-21661429D01*
X43870477Y-21613810D01*
X43918096Y-21566190D01*
X43965715Y-21470952D01*
X58253334Y-24487143D02*
X58205715Y-24534762D01*
X58062858Y-24582381D01*
X57967620Y-24582381D01*
X57824762Y-24534762D01*
X57729524Y-24439524D01*
X57681905Y-24344286D01*
X57634286Y-24153810D01*
X57634286Y-24010952D01*
X57681905Y-23820476D01*
X57729524Y-23725238D01*
X57824762Y-23630000D01*
X57967620Y-23582381D01*
X58062858Y-23582381D01*
X58205715Y-23630000D01*
X58253334Y-23677619D01*
X59110477Y-23582381D02*
X58920000Y-23582381D01*
X58824762Y-23630000D01*
X58777143Y-23677619D01*
X58681905Y-23820476D01*
X58634286Y-24010952D01*
X58634286Y-24391905D01*
X58681905Y-24487143D01*
X58729524Y-24534762D01*
X58824762Y-24582381D01*
X59015239Y-24582381D01*
X59110477Y-24534762D01*
X59158096Y-24487143D01*
X59205715Y-24391905D01*
X59205715Y-24153810D01*
X59158096Y-24058571D01*
X59110477Y-24010952D01*
X59015239Y-23963333D01*
X58824762Y-23963333D01*
X58729524Y-24010952D01*
X58681905Y-24058571D01*
X58634286Y-24153810D01*
X58253334Y-21947143D02*
X58205715Y-21994762D01*
X58062858Y-22042381D01*
X57967620Y-22042381D01*
X57824762Y-21994762D01*
X57729524Y-21899524D01*
X57681905Y-21804286D01*
X57634286Y-21613810D01*
X57634286Y-21470952D01*
X57681905Y-21280476D01*
X57729524Y-21185238D01*
X57824762Y-21090000D01*
X57967620Y-21042381D01*
X58062858Y-21042381D01*
X58205715Y-21090000D01*
X58253334Y-21137619D01*
X59158096Y-21042381D02*
X58681905Y-21042381D01*
X58634286Y-21518571D01*
X58681905Y-21470952D01*
X58777143Y-21423333D01*
X59015239Y-21423333D01*
X59110477Y-21470952D01*
X59158096Y-21518571D01*
X59205715Y-21613810D01*
X59205715Y-21851905D01*
X59158096Y-21947143D01*
X59110477Y-21994762D01*
X59015239Y-22042381D01*
X58777143Y-22042381D01*
X58681905Y-21994762D01*
X58634286Y-21947143D01*
X22693334Y-36012381D02*
X22360000Y-35536190D01*
X22121905Y-36012381D02*
X22121905Y-35012381D01*
X22502858Y-35012381D01*
X22598096Y-35060000D01*
X22645715Y-35107619D01*
X22693334Y-35202857D01*
X22693334Y-35345714D01*
X22645715Y-35440952D01*
X22598096Y-35488571D01*
X22502858Y-35536190D01*
X22121905Y-35536190D01*
X23598096Y-35012381D02*
X23121905Y-35012381D01*
X23074286Y-35488571D01*
X23121905Y-35440952D01*
X23217143Y-35393333D01*
X23455239Y-35393333D01*
X23550477Y-35440952D01*
X23598096Y-35488571D01*
X23645715Y-35583810D01*
X23645715Y-35821905D01*
X23598096Y-35917143D01*
X23550477Y-35964762D01*
X23455239Y-36012381D01*
X23217143Y-36012381D01*
X23121905Y-35964762D01*
X23074286Y-35917143D01*
X22693334Y-42362381D02*
X22360000Y-41886190D01*
X22121905Y-42362381D02*
X22121905Y-41362381D01*
X22502858Y-41362381D01*
X22598096Y-41410000D01*
X22645715Y-41457619D01*
X22693334Y-41552857D01*
X22693334Y-41695714D01*
X22645715Y-41790952D01*
X22598096Y-41838571D01*
X22502858Y-41886190D01*
X22121905Y-41886190D01*
X23550477Y-41362381D02*
X23360000Y-41362381D01*
X23264762Y-41410000D01*
X23217143Y-41457619D01*
X23121905Y-41600476D01*
X23074286Y-41790952D01*
X23074286Y-42171905D01*
X23121905Y-42267143D01*
X23169524Y-42314762D01*
X23264762Y-42362381D01*
X23455239Y-42362381D01*
X23550477Y-42314762D01*
X23598096Y-42267143D01*
X23645715Y-42171905D01*
X23645715Y-41933810D01*
X23598096Y-41838571D01*
X23550477Y-41790952D01*
X23455239Y-41743333D01*
X23264762Y-41743333D01*
X23169524Y-41790952D01*
X23121905Y-41838571D01*
X23074286Y-41933810D01*
X21423334Y-53697143D02*
X21375715Y-53744762D01*
X21232858Y-53792381D01*
X21137620Y-53792381D01*
X20994762Y-53744762D01*
X20899524Y-53649524D01*
X20851905Y-53554286D01*
X20804286Y-53363810D01*
X20804286Y-53220952D01*
X20851905Y-53030476D01*
X20899524Y-52935238D01*
X20994762Y-52840000D01*
X21137620Y-52792381D01*
X21232858Y-52792381D01*
X21375715Y-52840000D01*
X21423334Y-52887619D01*
X21994762Y-53220952D02*
X21899524Y-53173333D01*
X21851905Y-53125714D01*
X21804286Y-53030476D01*
X21804286Y-52982857D01*
X21851905Y-52887619D01*
X21899524Y-52840000D01*
X21994762Y-52792381D01*
X22185239Y-52792381D01*
X22280477Y-52840000D01*
X22328096Y-52887619D01*
X22375715Y-52982857D01*
X22375715Y-53030476D01*
X22328096Y-53125714D01*
X22280477Y-53173333D01*
X22185239Y-53220952D01*
X21994762Y-53220952D01*
X21899524Y-53268571D01*
X21851905Y-53316190D01*
X21804286Y-53411429D01*
X21804286Y-53601905D01*
X21851905Y-53697143D01*
X21899524Y-53744762D01*
X21994762Y-53792381D01*
X22185239Y-53792381D01*
X22280477Y-53744762D01*
X22328096Y-53697143D01*
X22375715Y-53601905D01*
X22375715Y-53411429D01*
X22328096Y-53316190D01*
X22280477Y-53268571D01*
X22185239Y-53220952D01*
X21423334Y-58777143D02*
X21375715Y-58824762D01*
X21232858Y-58872381D01*
X21137620Y-58872381D01*
X20994762Y-58824762D01*
X20899524Y-58729524D01*
X20851905Y-58634286D01*
X20804286Y-58443810D01*
X20804286Y-58300952D01*
X20851905Y-58110476D01*
X20899524Y-58015238D01*
X20994762Y-57920000D01*
X21137620Y-57872381D01*
X21232858Y-57872381D01*
X21375715Y-57920000D01*
X21423334Y-57967619D01*
X21756667Y-57872381D02*
X22423334Y-57872381D01*
X21994762Y-58872381D01*
X5707143Y-63857143D02*
X5659524Y-63904762D01*
X5516667Y-63952381D01*
X5421429Y-63952381D01*
X5278571Y-63904762D01*
X5183333Y-63809524D01*
X5135714Y-63714286D01*
X5088095Y-63523810D01*
X5088095Y-63380952D01*
X5135714Y-63190476D01*
X5183333Y-63095238D01*
X5278571Y-63000000D01*
X5421429Y-62952381D01*
X5516667Y-62952381D01*
X5659524Y-63000000D01*
X5707143Y-63047619D01*
X6659524Y-63952381D02*
X6088095Y-63952381D01*
X6373809Y-63952381D02*
X6373809Y-62952381D01*
X6278571Y-63095238D01*
X6183333Y-63190476D01*
X6088095Y-63238095D01*
X7611905Y-63952381D02*
X7040476Y-63952381D01*
X7326190Y-63952381D02*
X7326190Y-62952381D01*
X7230952Y-63095238D01*
X7135714Y-63190476D01*
X7040476Y-63238095D01*
X5707143Y-58777143D02*
X5659524Y-58824762D01*
X5516667Y-58872381D01*
X5421429Y-58872381D01*
X5278571Y-58824762D01*
X5183333Y-58729524D01*
X5135714Y-58634286D01*
X5088095Y-58443810D01*
X5088095Y-58300952D01*
X5135714Y-58110476D01*
X5183333Y-58015238D01*
X5278571Y-57920000D01*
X5421429Y-57872381D01*
X5516667Y-57872381D01*
X5659524Y-57920000D01*
X5707143Y-57967619D01*
X6659524Y-58872381D02*
X6088095Y-58872381D01*
X6373809Y-58872381D02*
X6373809Y-57872381D01*
X6278571Y-58015238D01*
X6183333Y-58110476D01*
X6088095Y-58158095D01*
X7040476Y-57967619D02*
X7088095Y-57920000D01*
X7183333Y-57872381D01*
X7421429Y-57872381D01*
X7516667Y-57920000D01*
X7564286Y-57967619D01*
X7611905Y-58062857D01*
X7611905Y-58158095D01*
X7564286Y-58300952D01*
X6992857Y-58872381D01*
X7611905Y-58872381D01*
X13208095Y-50252381D02*
X13208095Y-51061905D01*
X13255714Y-51157143D01*
X13303333Y-51204762D01*
X13398571Y-51252381D01*
X13589048Y-51252381D01*
X13684286Y-51204762D01*
X13731905Y-51157143D01*
X13779524Y-51061905D01*
X13779524Y-50252381D01*
X14779524Y-51252381D02*
X14208095Y-51252381D01*
X14493809Y-51252381D02*
X14493809Y-50252381D01*
X14398571Y-50395238D01*
X14303333Y-50490476D01*
X14208095Y-50538095D01*
X22693334Y-16962381D02*
X22360000Y-16486190D01*
X22121905Y-16962381D02*
X22121905Y-15962381D01*
X22502858Y-15962381D01*
X22598096Y-16010000D01*
X22645715Y-16057619D01*
X22693334Y-16152857D01*
X22693334Y-16295714D01*
X22645715Y-16390952D01*
X22598096Y-16438571D01*
X22502858Y-16486190D01*
X22121905Y-16486190D01*
X23026667Y-15962381D02*
X23645715Y-15962381D01*
X23312381Y-16343333D01*
X23455239Y-16343333D01*
X23550477Y-16390952D01*
X23598096Y-16438571D01*
X23645715Y-16533810D01*
X23645715Y-16771905D01*
X23598096Y-16867143D01*
X23550477Y-16914762D01*
X23455239Y-16962381D01*
X23169524Y-16962381D01*
X23074286Y-16914762D01*
X23026667Y-16867143D01*
X22693334Y-23312381D02*
X22360000Y-22836190D01*
X22121905Y-23312381D02*
X22121905Y-22312381D01*
X22502858Y-22312381D01*
X22598096Y-22360000D01*
X22645715Y-22407619D01*
X22693334Y-22502857D01*
X22693334Y-22645714D01*
X22645715Y-22740952D01*
X22598096Y-22788571D01*
X22502858Y-22836190D01*
X22121905Y-22836190D01*
X23074286Y-22407619D02*
X23121905Y-22360000D01*
X23217143Y-22312381D01*
X23455239Y-22312381D01*
X23550477Y-22360000D01*
X23598096Y-22407619D01*
X23645715Y-22502857D01*
X23645715Y-22598095D01*
X23598096Y-22740952D01*
X23026667Y-23312381D01*
X23645715Y-23312381D01*
X9247143Y-19216666D02*
X9294762Y-19264285D01*
X9342381Y-19407142D01*
X9342381Y-19502380D01*
X9294762Y-19645238D01*
X9199524Y-19740476D01*
X9104286Y-19788095D01*
X8913810Y-19835714D01*
X8770952Y-19835714D01*
X8580476Y-19788095D01*
X8485238Y-19740476D01*
X8390000Y-19645238D01*
X8342381Y-19502380D01*
X8342381Y-19407142D01*
X8390000Y-19264285D01*
X8437619Y-19216666D01*
X8437619Y-18835714D02*
X8390000Y-18788095D01*
X8342381Y-18692857D01*
X8342381Y-18454761D01*
X8390000Y-18359523D01*
X8437619Y-18311904D01*
X8532857Y-18264285D01*
X8628095Y-18264285D01*
X8770952Y-18311904D01*
X9342381Y-18883333D01*
X9342381Y-18264285D01*
X9247143Y-31916666D02*
X9294762Y-31964285D01*
X9342381Y-32107142D01*
X9342381Y-32202380D01*
X9294762Y-32345238D01*
X9199524Y-32440476D01*
X9104286Y-32488095D01*
X8913810Y-32535714D01*
X8770952Y-32535714D01*
X8580476Y-32488095D01*
X8485238Y-32440476D01*
X8390000Y-32345238D01*
X8342381Y-32202380D01*
X8342381Y-32107142D01*
X8390000Y-31964285D01*
X8437619Y-31916666D01*
X9342381Y-30964285D02*
X9342381Y-31535714D01*
X9342381Y-31250000D02*
X8342381Y-31250000D01*
X8485238Y-31345238D01*
X8580476Y-31440476D01*
X8628095Y-31535714D01*
X37933334Y-6707143D02*
X37885715Y-6754762D01*
X37742858Y-6802381D01*
X37647620Y-6802381D01*
X37504762Y-6754762D01*
X37409524Y-6659524D01*
X37361905Y-6564286D01*
X37314286Y-6373810D01*
X37314286Y-6230952D01*
X37361905Y-6040476D01*
X37409524Y-5945238D01*
X37504762Y-5850000D01*
X37647620Y-5802381D01*
X37742858Y-5802381D01*
X37885715Y-5850000D01*
X37933334Y-5897619D01*
X38266667Y-5802381D02*
X38885715Y-5802381D01*
X38552381Y-6183333D01*
X38695239Y-6183333D01*
X38790477Y-6230952D01*
X38838096Y-6278571D01*
X38885715Y-6373810D01*
X38885715Y-6611905D01*
X38838096Y-6707143D01*
X38790477Y-6754762D01*
X38695239Y-6802381D01*
X38409524Y-6802381D01*
X38314286Y-6754762D01*
X38266667Y-6707143D01*
X37933334Y-15597143D02*
X37885715Y-15644762D01*
X37742858Y-15692381D01*
X37647620Y-15692381D01*
X37504762Y-15644762D01*
X37409524Y-15549524D01*
X37361905Y-15454286D01*
X37314286Y-15263810D01*
X37314286Y-15120952D01*
X37361905Y-14930476D01*
X37409524Y-14835238D01*
X37504762Y-14740000D01*
X37647620Y-14692381D01*
X37742858Y-14692381D01*
X37885715Y-14740000D01*
X37933334Y-14787619D01*
X38790477Y-15025714D02*
X38790477Y-15692381D01*
X38552381Y-14644762D02*
X38314286Y-15359048D01*
X38933334Y-15359048D01*
X50038095Y-13422381D02*
X50038095Y-14231905D01*
X50085714Y-14327143D01*
X50133333Y-14374762D01*
X50228571Y-14422381D01*
X50419048Y-14422381D01*
X50514286Y-14374762D01*
X50561905Y-14327143D01*
X50609524Y-14231905D01*
X50609524Y-13422381D01*
X51038095Y-13517619D02*
X51085714Y-13470000D01*
X51180952Y-13422381D01*
X51419048Y-13422381D01*
X51514286Y-13470000D01*
X51561905Y-13517619D01*
X51609524Y-13612857D01*
X51609524Y-13708095D01*
X51561905Y-13850952D01*
X50990476Y-14422381D01*
X51609524Y-14422381D01*
X74382381Y-74421905D02*
X75191905Y-74421905D01*
X75287143Y-74374286D01*
X75334762Y-74326667D01*
X75382381Y-74231429D01*
X75382381Y-74040952D01*
X75334762Y-73945714D01*
X75287143Y-73898095D01*
X75191905Y-73850476D01*
X74382381Y-73850476D01*
X74715714Y-72945714D02*
X75382381Y-72945714D01*
X74334762Y-73183810D02*
X75049048Y-73421905D01*
X75049048Y-72802857D01*
X29662381Y-97115238D02*
X29186190Y-97448572D01*
X29662381Y-97686667D02*
X28662381Y-97686667D01*
X28662381Y-97305714D01*
X28710000Y-97210476D01*
X28757619Y-97162857D01*
X28852857Y-97115238D01*
X28995714Y-97115238D01*
X29090952Y-97162857D01*
X29138571Y-97210476D01*
X29186190Y-97305714D01*
X29186190Y-97686667D01*
X28662381Y-96829524D02*
X29662381Y-96496191D01*
X28662381Y-96162857D01*
X29662381Y-95305714D02*
X29662381Y-95877143D01*
X29662381Y-95591429D02*
X28662381Y-95591429D01*
X28805238Y-95686667D01*
X28900476Y-95781905D01*
X28948095Y-95877143D01*
X91892381Y-56618095D02*
X90892381Y-56618095D01*
X90892381Y-56237142D01*
X90940000Y-56141904D01*
X90987619Y-56094285D01*
X91082857Y-56046666D01*
X91225714Y-56046666D01*
X91320952Y-56094285D01*
X91368571Y-56141904D01*
X91416190Y-56237142D01*
X91416190Y-56618095D01*
X90892381Y-55713333D02*
X90892381Y-55046666D01*
X91892381Y-55475238D01*
X91892381Y-59158095D02*
X90892381Y-59158095D01*
X90892381Y-58777142D01*
X90940000Y-58681904D01*
X90987619Y-58634285D01*
X91082857Y-58586666D01*
X91225714Y-58586666D01*
X91320952Y-58634285D01*
X91368571Y-58681904D01*
X91416190Y-58777142D01*
X91416190Y-59158095D01*
X90892381Y-57729523D02*
X90892381Y-57920000D01*
X90940000Y-58015238D01*
X90987619Y-58062857D01*
X91130476Y-58158095D01*
X91320952Y-58205714D01*
X91701905Y-58205714D01*
X91797143Y-58158095D01*
X91844762Y-58110476D01*
X91892381Y-58015238D01*
X91892381Y-57824761D01*
X91844762Y-57729523D01*
X91797143Y-57681904D01*
X91701905Y-57634285D01*
X91463810Y-57634285D01*
X91368571Y-57681904D01*
X91320952Y-57729523D01*
X91273333Y-57824761D01*
X91273333Y-58015238D01*
X91320952Y-58110476D01*
X91368571Y-58158095D01*
X91463810Y-58205714D01*
X37552381Y-71881905D02*
X38361905Y-71881905D01*
X38457143Y-71834286D01*
X38504762Y-71786667D01*
X38552381Y-71691429D01*
X38552381Y-71500952D01*
X38504762Y-71405714D01*
X38457143Y-71358095D01*
X38361905Y-71310476D01*
X37552381Y-71310476D01*
X37552381Y-70929524D02*
X37552381Y-70310476D01*
X37933333Y-70643810D01*
X37933333Y-70500952D01*
X37980952Y-70405714D01*
X38028571Y-70358095D01*
X38123810Y-70310476D01*
X38361905Y-70310476D01*
X38457143Y-70358095D01*
X38504762Y-70405714D01*
X38552381Y-70500952D01*
X38552381Y-70786667D01*
X38504762Y-70881905D01*
X38457143Y-70929524D01*
X61412381Y-78208095D02*
X60412381Y-78208095D01*
X60412381Y-77827142D01*
X60460000Y-77731904D01*
X60507619Y-77684285D01*
X60602857Y-77636666D01*
X60745714Y-77636666D01*
X60840952Y-77684285D01*
X60888571Y-77731904D01*
X60936190Y-77827142D01*
X60936190Y-78208095D01*
X60412381Y-77303333D02*
X60412381Y-76684285D01*
X60793333Y-77017619D01*
X60793333Y-76874761D01*
X60840952Y-76779523D01*
X60888571Y-76731904D01*
X60983810Y-76684285D01*
X61221905Y-76684285D01*
X61317143Y-76731904D01*
X61364762Y-76779523D01*
X61412381Y-76874761D01*
X61412381Y-77160476D01*
X61364762Y-77255714D01*
X61317143Y-77303333D01*
X61412381Y-80748095D02*
X60412381Y-80748095D01*
X60412381Y-80367142D01*
X60460000Y-80271904D01*
X60507619Y-80224285D01*
X60602857Y-80176666D01*
X60745714Y-80176666D01*
X60840952Y-80224285D01*
X60888571Y-80271904D01*
X60936190Y-80367142D01*
X60936190Y-80748095D01*
X60507619Y-79795714D02*
X60460000Y-79748095D01*
X60412381Y-79652857D01*
X60412381Y-79414761D01*
X60460000Y-79319523D01*
X60507619Y-79271904D01*
X60602857Y-79224285D01*
X60698095Y-79224285D01*
X60840952Y-79271904D01*
X61412381Y-79843333D01*
X61412381Y-79224285D01*
X91892381Y-92178095D02*
X90892381Y-92178095D01*
X90892381Y-91797142D01*
X90940000Y-91701904D01*
X90987619Y-91654285D01*
X91082857Y-91606666D01*
X91225714Y-91606666D01*
X91320952Y-91654285D01*
X91368571Y-91701904D01*
X91416190Y-91797142D01*
X91416190Y-92178095D01*
X90892381Y-90701904D02*
X90892381Y-91178095D01*
X91368571Y-91225714D01*
X91320952Y-91178095D01*
X91273333Y-91082857D01*
X91273333Y-90844761D01*
X91320952Y-90749523D01*
X91368571Y-90701904D01*
X91463810Y-90654285D01*
X91701905Y-90654285D01*
X91797143Y-90701904D01*
X91844762Y-90749523D01*
X91892381Y-90844761D01*
X91892381Y-91082857D01*
X91844762Y-91178095D01*
X91797143Y-91225714D01*
X91892381Y-94718095D02*
X90892381Y-94718095D01*
X90892381Y-94337142D01*
X90940000Y-94241904D01*
X90987619Y-94194285D01*
X91082857Y-94146666D01*
X91225714Y-94146666D01*
X91320952Y-94194285D01*
X91368571Y-94241904D01*
X91416190Y-94337142D01*
X91416190Y-94718095D01*
X91225714Y-93289523D02*
X91892381Y-93289523D01*
X90844762Y-93527619D02*
X91559048Y-93765714D01*
X91559048Y-93146666D01*
X9421905Y-1722381D02*
X9421905Y-722381D01*
X9802858Y-722381D01*
X9898096Y-770000D01*
X9945715Y-817619D01*
X9993334Y-912857D01*
X9993334Y-1055714D01*
X9945715Y-1150952D01*
X9898096Y-1198571D01*
X9802858Y-1246190D01*
X9421905Y-1246190D01*
X10945715Y-1722381D02*
X10374286Y-1722381D01*
X10660000Y-1722381D02*
X10660000Y-722381D01*
X10564762Y-865238D01*
X10469524Y-960476D01*
X10374286Y-1008095D01*
X22693334Y-10612381D02*
X22360000Y-10136190D01*
X22121905Y-10612381D02*
X22121905Y-9612381D01*
X22502858Y-9612381D01*
X22598096Y-9660000D01*
X22645715Y-9707619D01*
X22693334Y-9802857D01*
X22693334Y-9945714D01*
X22645715Y-10040952D01*
X22598096Y-10088571D01*
X22502858Y-10136190D01*
X22121905Y-10136190D01*
X23550477Y-9945714D02*
X23550477Y-10612381D01*
X23312381Y-9564762D02*
X23074286Y-10279048D01*
X23693334Y-10279048D01*
X22693334Y-4262381D02*
X22360000Y-3786190D01*
X22121905Y-4262381D02*
X22121905Y-3262381D01*
X22502858Y-3262381D01*
X22598096Y-3310000D01*
X22645715Y-3357619D01*
X22693334Y-3452857D01*
X22693334Y-3595714D01*
X22645715Y-3690952D01*
X22598096Y-3738571D01*
X22502858Y-3786190D01*
X22121905Y-3786190D01*
X23645715Y-4262381D02*
X23074286Y-4262381D01*
X23360000Y-4262381D02*
X23360000Y-3262381D01*
X23264762Y-3405238D01*
X23169524Y-3500476D01*
X23074286Y-3548095D01*
X81811905Y-50002381D02*
X81811905Y-49002381D01*
X82192858Y-49002381D01*
X82288096Y-49050000D01*
X82335715Y-49097619D01*
X82383334Y-49192857D01*
X82383334Y-49335714D01*
X82335715Y-49430952D01*
X82288096Y-49478571D01*
X82192858Y-49526190D01*
X81811905Y-49526190D01*
X82954762Y-49430952D02*
X82859524Y-49383333D01*
X82811905Y-49335714D01*
X82764286Y-49240476D01*
X82764286Y-49192857D01*
X82811905Y-49097619D01*
X82859524Y-49050000D01*
X82954762Y-49002381D01*
X83145239Y-49002381D01*
X83240477Y-49050000D01*
X83288096Y-49097619D01*
X83335715Y-49192857D01*
X83335715Y-49240476D01*
X83288096Y-49335714D01*
X83240477Y-49383333D01*
X83145239Y-49430952D01*
X82954762Y-49430952D01*
X82859524Y-49478571D01*
X82811905Y-49526190D01*
X82764286Y-49621429D01*
X82764286Y-49811905D01*
X82811905Y-49907143D01*
X82859524Y-49954762D01*
X82954762Y-50002381D01*
X83145239Y-50002381D01*
X83240477Y-49954762D01*
X83288096Y-49907143D01*
X83335715Y-49811905D01*
X83335715Y-49621429D01*
X83288096Y-49526190D01*
X83240477Y-49478571D01*
X83145239Y-49430952D01*
X66492381Y-78112857D02*
X66016190Y-78446191D01*
X66492381Y-78684286D02*
X65492381Y-78684286D01*
X65492381Y-78303333D01*
X65540000Y-78208095D01*
X65587619Y-78160476D01*
X65682857Y-78112857D01*
X65825714Y-78112857D01*
X65920952Y-78160476D01*
X65968571Y-78208095D01*
X66016190Y-78303333D01*
X66016190Y-78684286D01*
X65587619Y-77731905D02*
X65540000Y-77684286D01*
X65492381Y-77589048D01*
X65492381Y-77350952D01*
X65540000Y-77255714D01*
X65587619Y-77208095D01*
X65682857Y-77160476D01*
X65778095Y-77160476D01*
X65920952Y-77208095D01*
X66492381Y-77779524D01*
X66492381Y-77160476D01*
X65587619Y-76779524D02*
X65540000Y-76731905D01*
X65492381Y-76636667D01*
X65492381Y-76398571D01*
X65540000Y-76303333D01*
X65587619Y-76255714D01*
X65682857Y-76208095D01*
X65778095Y-76208095D01*
X65920952Y-76255714D01*
X66492381Y-76827143D01*
X66492381Y-76208095D01*
M02*
