G04 #@! TF.FileFunction,Copper,L2,Bot,Signal*
%FSLAX46Y46*%
G04 Gerber Fmt 4.6, Leading zero omitted, Abs format (unit mm)*
G04 Created by KiCad (PCBNEW 4.0.2-stable) date 2016 September 16, Friday 02:04:32*
%MOMM*%
G01*
G04 APERTURE LIST*
%ADD10C,0.100000*%
%ADD11C,1.200000*%
%ADD12C,2.000000*%
%ADD13C,1.000000*%
%ADD14C,1.400000*%
%ADD15R,1.900000X2.300000*%
%ADD16R,2.300000X1.900000*%
%ADD17C,1.998980*%
%ADD18R,1.300000X1.300000*%
%ADD19C,1.300000*%
%ADD20O,1.600000X1.600000*%
%ADD21R,1.727200X2.032000*%
%ADD22O,1.727200X2.032000*%
%ADD23R,2.032000X1.727200*%
%ADD24O,2.032000X1.727200*%
%ADD25R,2.032000X2.032000*%
%ADD26O,2.032000X2.032000*%
%ADD27C,5.500000*%
%ADD28C,0.700000*%
%ADD29C,0.600000*%
%ADD30C,0.550000*%
G04 APERTURE END LIST*
D10*
D11*
X12700000Y-74930000D03*
D12*
X19050000Y-82550000D03*
X6350000Y-82550000D03*
X19050000Y-77470000D03*
X6350000Y-77470000D03*
D13*
X12700000Y-73152000D03*
X12700000Y-86868000D03*
D14*
X12700000Y-85090000D03*
D11*
X93980000Y-48260000D03*
X96520000Y-48260000D03*
X96520000Y-38100000D03*
X88900000Y-43180000D03*
X93980000Y-38100000D03*
D15*
X93980000Y-43180000D03*
D16*
X88900000Y-40640000D03*
X88900000Y-38100000D03*
X88900000Y-45720000D03*
X88900000Y-48059340D03*
D17*
X12700000Y-67310000D03*
X22860000Y-67310000D03*
X77470000Y-44450000D03*
X67310000Y-44450000D03*
D18*
X85090000Y-83820000D03*
D19*
X85090000Y-81320000D03*
D18*
X86360000Y-66040000D03*
D19*
X86360000Y-63540000D03*
D18*
X83820000Y-66040000D03*
D19*
X83820000Y-63540000D03*
D18*
X82550000Y-83820000D03*
D19*
X82550000Y-81320000D03*
D18*
X73660000Y-72390000D03*
D19*
X73660000Y-74890000D03*
D18*
X80010000Y-68580000D03*
D19*
X80010000Y-66080000D03*
D18*
X85090000Y-78740000D03*
D19*
X82590000Y-78740000D03*
D17*
X88900000Y-68580000D03*
X88900000Y-78740000D03*
X91440000Y-78740000D03*
X91440000Y-68580000D03*
D18*
X44450000Y-62230000D03*
D19*
X44450000Y-64730000D03*
D18*
X46990000Y-62230000D03*
D19*
X46990000Y-64730000D03*
D17*
X30480000Y-80010000D03*
X40640000Y-80010000D03*
D18*
X30480000Y-57150000D03*
D19*
X32980000Y-57150000D03*
D17*
X83820000Y-13970000D03*
X93980000Y-13970000D03*
X77470000Y-7620000D03*
X67310000Y-7620000D03*
D18*
X57150000Y-5080000D03*
D19*
X62150000Y-5080000D03*
D18*
X52070000Y-5080000D03*
D19*
X47070000Y-5080000D03*
D17*
X83820000Y-20320000D03*
X93980000Y-20320000D03*
X93980000Y-26670000D03*
X83820000Y-26670000D03*
D18*
X57150000Y-39370000D03*
D19*
X59650000Y-39370000D03*
D17*
X67310000Y-13970000D03*
X77470000Y-13970000D03*
D18*
X52070000Y-46990000D03*
D19*
X47070000Y-46990000D03*
D18*
X57150000Y-46990000D03*
D19*
X62150000Y-46990000D03*
D17*
X67310000Y-26670000D03*
X77470000Y-26670000D03*
X77470000Y-33020000D03*
X67310000Y-33020000D03*
D18*
X38100000Y-31750000D03*
D19*
X35600000Y-31750000D03*
D17*
X35560000Y-38100000D03*
X35560000Y-48260000D03*
X67310000Y-20320000D03*
X77470000Y-20320000D03*
X41910000Y-48260000D03*
X41910000Y-38100000D03*
X17780000Y-29210000D03*
X27940000Y-29210000D03*
D18*
X11430000Y-44450000D03*
D19*
X8930000Y-44450000D03*
D18*
X44450000Y-25400000D03*
D19*
X41950000Y-25400000D03*
D18*
X41910000Y-22860000D03*
D19*
X44410000Y-22860000D03*
D18*
X59690000Y-25400000D03*
D19*
X57190000Y-25400000D03*
D18*
X57150000Y-22860000D03*
D19*
X59650000Y-22860000D03*
D17*
X17780000Y-35560000D03*
X27940000Y-35560000D03*
X27940000Y-41910000D03*
X17780000Y-41910000D03*
D18*
X20320000Y-54610000D03*
D19*
X22820000Y-54610000D03*
D18*
X22860000Y-57150000D03*
D19*
X20360000Y-57150000D03*
D18*
X7620000Y-62230000D03*
D19*
X5120000Y-62230000D03*
D18*
X5080000Y-59690000D03*
D19*
X7580000Y-59690000D03*
D20*
X10160000Y-53340000D03*
X10160000Y-55880000D03*
X10160000Y-58420000D03*
X10160000Y-60960000D03*
X17780000Y-60960000D03*
X17780000Y-58420000D03*
X17780000Y-55880000D03*
X17780000Y-53340000D03*
D17*
X17780000Y-16510000D03*
X27940000Y-16510000D03*
X17780000Y-22860000D03*
X27940000Y-22860000D03*
D18*
X7620000Y-16510000D03*
D19*
X7620000Y-21510000D03*
D18*
X7620000Y-29210000D03*
D19*
X7620000Y-34210000D03*
D18*
X40640000Y-5080000D03*
D19*
X35640000Y-5080000D03*
D18*
X40640000Y-13970000D03*
D19*
X35640000Y-13970000D03*
D20*
X46990000Y-16510000D03*
X46990000Y-19050000D03*
X46990000Y-21590000D03*
X46990000Y-24130000D03*
X46990000Y-26670000D03*
X46990000Y-29210000D03*
X46990000Y-31750000D03*
X54610000Y-31750000D03*
X54610000Y-29210000D03*
X54610000Y-26670000D03*
X54610000Y-24130000D03*
X54610000Y-21590000D03*
X54610000Y-19050000D03*
X54610000Y-16510000D03*
X77470000Y-77470000D03*
X80010000Y-77470000D03*
X82550000Y-77470000D03*
X85090000Y-77470000D03*
X85090000Y-69850000D03*
X82550000Y-69850000D03*
X80010000Y-69850000D03*
X77470000Y-69850000D03*
D21*
X31750000Y-93980000D03*
D22*
X29210000Y-93980000D03*
X26670000Y-93980000D03*
D21*
X88900000Y-55880000D03*
D22*
X86360000Y-55880000D03*
X83820000Y-55880000D03*
X81280000Y-55880000D03*
X78740000Y-55880000D03*
X76200000Y-55880000D03*
X73660000Y-55880000D03*
X71120000Y-55880000D03*
X68580000Y-55880000D03*
X66040000Y-55880000D03*
X63500000Y-55880000D03*
X60960000Y-55880000D03*
X58420000Y-55880000D03*
X55880000Y-55880000D03*
X53340000Y-55880000D03*
X50800000Y-55880000D03*
X48260000Y-55880000D03*
X45720000Y-55880000D03*
X43180000Y-55880000D03*
X40640000Y-55880000D03*
D21*
X88900000Y-58420000D03*
D22*
X86360000Y-58420000D03*
X83820000Y-58420000D03*
X81280000Y-58420000D03*
X78740000Y-58420000D03*
X76200000Y-58420000D03*
X73660000Y-58420000D03*
X71120000Y-58420000D03*
X68580000Y-58420000D03*
X66040000Y-58420000D03*
X63500000Y-58420000D03*
X60960000Y-58420000D03*
X58420000Y-58420000D03*
X55880000Y-58420000D03*
X53340000Y-58420000D03*
X50800000Y-58420000D03*
X48260000Y-58420000D03*
X45720000Y-58420000D03*
X43180000Y-58420000D03*
X40640000Y-58420000D03*
D20*
X40640000Y-74930000D03*
X43180000Y-74930000D03*
X45720000Y-74930000D03*
X48260000Y-74930000D03*
X50800000Y-74930000D03*
X53340000Y-74930000D03*
X55880000Y-74930000D03*
X58420000Y-74930000D03*
X58420000Y-67310000D03*
X55880000Y-67310000D03*
X53340000Y-67310000D03*
X50800000Y-67310000D03*
X48260000Y-67310000D03*
X45720000Y-67310000D03*
X43180000Y-67310000D03*
X40640000Y-67310000D03*
D21*
X58420000Y-77470000D03*
D22*
X55880000Y-77470000D03*
X53340000Y-77470000D03*
X50800000Y-77470000D03*
X48260000Y-77470000D03*
X45720000Y-77470000D03*
X43180000Y-77470000D03*
D21*
X58420000Y-80010000D03*
D22*
X55880000Y-80010000D03*
X53340000Y-80010000D03*
X50800000Y-80010000D03*
X48260000Y-80010000D03*
X45720000Y-80010000D03*
X43180000Y-80010000D03*
D21*
X88900000Y-91440000D03*
D22*
X86360000Y-91440000D03*
X83820000Y-91440000D03*
X81280000Y-91440000D03*
X78740000Y-91440000D03*
X76200000Y-91440000D03*
X73660000Y-91440000D03*
X71120000Y-91440000D03*
X68580000Y-91440000D03*
X66040000Y-91440000D03*
X63500000Y-91440000D03*
X60960000Y-91440000D03*
X58420000Y-91440000D03*
X55880000Y-91440000D03*
X53340000Y-91440000D03*
X50800000Y-91440000D03*
X48260000Y-91440000D03*
X45720000Y-91440000D03*
X43180000Y-91440000D03*
X40640000Y-91440000D03*
D21*
X88900000Y-93980000D03*
D22*
X86360000Y-93980000D03*
X83820000Y-93980000D03*
X81280000Y-93980000D03*
X78740000Y-93980000D03*
X76200000Y-93980000D03*
X73660000Y-93980000D03*
X71120000Y-93980000D03*
X68580000Y-93980000D03*
X66040000Y-93980000D03*
X63500000Y-93980000D03*
X60960000Y-93980000D03*
X58420000Y-93980000D03*
X55880000Y-93980000D03*
X53340000Y-93980000D03*
X50800000Y-93980000D03*
X48260000Y-93980000D03*
X45720000Y-93980000D03*
X43180000Y-93980000D03*
X40640000Y-93980000D03*
D23*
X10160000Y-3810000D03*
D24*
X10160000Y-6350000D03*
X10160000Y-8890000D03*
D17*
X17780000Y-10160000D03*
X27940000Y-10160000D03*
X27940000Y-3810000D03*
X17780000Y-3810000D03*
D25*
X82550000Y-44450000D03*
D26*
X82550000Y-41910000D03*
D17*
X66040000Y-72390000D03*
X66040000Y-82550000D03*
D27*
X49530000Y-39370000D03*
X95250000Y-95250000D03*
X95250000Y-3810000D03*
X3810000Y-95250000D03*
X3810000Y-3810000D03*
D28*
X67310000Y-66040000D03*
X77470000Y-36830000D03*
X57150000Y-30480000D03*
X31750000Y-20320000D03*
X31750000Y-26670000D03*
X57150000Y-36830000D03*
X57150000Y-33020000D03*
X72390000Y-38100000D03*
X67310000Y-38100000D03*
X36830000Y-67310000D03*
X57150000Y-12700000D03*
X57150000Y-10160000D03*
X33020000Y-53340000D03*
X76200000Y-86360000D03*
X69850000Y-76200000D03*
X88900000Y-53340000D03*
X83820000Y-53340000D03*
X55880000Y-53340000D03*
X50800000Y-53340000D03*
X63500000Y-29210000D03*
X33020000Y-76200000D03*
D29*
X10160000Y-6350000D02*
X5080000Y-11430000D01*
X5080000Y-31670000D02*
X7620000Y-34210000D01*
X5080000Y-11430000D02*
X5080000Y-31670000D01*
X12700000Y-16510000D02*
X12700000Y-36830000D01*
X8890000Y-58420000D02*
X10160000Y-58420000D01*
X6350000Y-55880000D02*
X8890000Y-58420000D01*
X5080000Y-55880000D02*
X6350000Y-55880000D01*
X3810000Y-54610000D02*
X5080000Y-55880000D01*
X3810000Y-36830000D02*
X3810000Y-54610000D01*
X8890000Y-36830000D02*
X3810000Y-36830000D01*
X12700000Y-36830000D02*
X8890000Y-36830000D01*
X7620000Y-16510000D02*
X12700000Y-16510000D01*
X12700000Y-16510000D02*
X17780000Y-16510000D01*
X40640000Y-13970000D02*
X44450000Y-13970000D01*
X44450000Y-13970000D02*
X46990000Y-16510000D01*
X40640000Y-5080000D02*
X40640000Y-13970000D01*
X27940000Y-3810000D02*
X27940000Y-2540000D01*
X40640000Y-3810000D02*
X40640000Y-5080000D01*
X39370000Y-2540000D02*
X40640000Y-3810000D01*
X27940000Y-2540000D02*
X39370000Y-2540000D01*
X27940000Y-3810000D02*
X27940000Y-5080000D01*
X22860000Y-10160000D02*
X17780000Y-10160000D01*
X27940000Y-5080000D02*
X22860000Y-10160000D01*
X10160000Y-3810000D02*
X17780000Y-3810000D01*
X33020000Y-13970000D02*
X35640000Y-13970000D01*
X27940000Y-35560000D02*
X27940000Y-41910000D01*
X33020000Y-17780000D02*
X33020000Y-34290000D01*
X31750000Y-35560000D02*
X27940000Y-35560000D01*
X33020000Y-34290000D02*
X31750000Y-35560000D01*
X27940000Y-10160000D02*
X29210000Y-10160000D01*
X34290000Y-19050000D02*
X46990000Y-19050000D01*
X33020000Y-17780000D02*
X34290000Y-19050000D01*
X33020000Y-13970000D02*
X33020000Y-17780000D01*
X29210000Y-10160000D02*
X33020000Y-13970000D01*
X88900000Y-87630000D02*
X92075000Y-84455000D01*
X80010000Y-87630000D02*
X88900000Y-87630000D01*
X76200000Y-83820000D02*
X80010000Y-87630000D01*
X73660000Y-83820000D02*
X76200000Y-83820000D01*
X68580000Y-78740000D02*
X73660000Y-83820000D01*
X68580000Y-67310000D02*
X68580000Y-78740000D01*
X67310000Y-66040000D02*
X68580000Y-67310000D01*
X93980000Y-43180000D02*
X91440000Y-45720000D01*
X91440000Y-45720000D02*
X91440000Y-68580000D01*
X57190000Y-25400000D02*
X57190000Y-30440000D01*
X77470000Y-36830000D02*
X82550000Y-36830000D01*
X57190000Y-30440000D02*
X57150000Y-30480000D01*
X82550000Y-41910000D02*
X82550000Y-36830000D01*
X91440000Y-40640000D02*
X93980000Y-43180000D01*
X82550000Y-36830000D02*
X85090000Y-34290000D01*
X85090000Y-34290000D02*
X90170000Y-34290000D01*
X90170000Y-34290000D02*
X91440000Y-35560000D01*
X91440000Y-35560000D02*
X91440000Y-40640000D01*
X45720000Y-66040000D02*
X45720000Y-66000000D01*
X57190000Y-25400000D02*
X57190000Y-25440000D01*
X85090000Y-77470000D02*
X85090000Y-74930000D01*
X85090000Y-74930000D02*
X86360000Y-73660000D01*
X86360000Y-73660000D02*
X91440000Y-73660000D01*
X91440000Y-73660000D02*
X91440000Y-68580000D01*
X45720000Y-66000000D02*
X46990000Y-64730000D01*
X44450000Y-64730000D02*
X44450000Y-64770000D01*
X44450000Y-64770000D02*
X45720000Y-66040000D01*
X45720000Y-66040000D02*
X45720000Y-67310000D01*
X85090000Y-81320000D02*
X88940000Y-81320000D01*
X88940000Y-81320000D02*
X92075000Y-84455000D01*
X92075000Y-84455000D02*
X95049340Y-87429340D01*
X91440000Y-93980000D02*
X88900000Y-93980000D01*
X91440000Y-92308680D02*
X91440000Y-93980000D01*
X95049340Y-88699340D02*
X91440000Y-92308680D01*
X95049340Y-87429340D02*
X95049340Y-88699340D01*
X82550000Y-81320000D02*
X85090000Y-81320000D01*
X85090000Y-78740000D02*
X85090000Y-81320000D01*
X85090000Y-77470000D02*
X85090000Y-78740000D01*
X55880000Y-24130000D02*
X55920000Y-24130000D01*
X55920000Y-24130000D02*
X57190000Y-25400000D01*
X54610000Y-24130000D02*
X55880000Y-24130000D01*
X55880000Y-24130000D02*
X57150000Y-22860000D01*
X8890000Y-60960000D02*
X7620000Y-62230000D01*
X7580000Y-59690000D02*
X7620000Y-59690000D01*
X7620000Y-59690000D02*
X8890000Y-60960000D01*
X8890000Y-60960000D02*
X10160000Y-60960000D01*
X82550000Y-69850000D02*
X82550000Y-72390000D01*
X80010000Y-74930000D02*
X80010000Y-77470000D01*
X82550000Y-72390000D02*
X80010000Y-74930000D01*
X27940000Y-19050000D02*
X30480000Y-19050000D01*
X30480000Y-19050000D02*
X31750000Y-20320000D01*
X27940000Y-16510000D02*
X27940000Y-19050000D01*
X27940000Y-19050000D02*
X27940000Y-22860000D01*
X44410000Y-22860000D02*
X44410000Y-21550000D01*
X20320000Y-52070000D02*
X20320000Y-54610000D01*
X22860000Y-49530000D02*
X20320000Y-52070000D01*
X26670000Y-49530000D02*
X22860000Y-49530000D01*
X30480000Y-45720000D02*
X26670000Y-49530000D01*
X30480000Y-39030004D02*
X30480000Y-45720000D01*
X34120002Y-35390002D02*
X30480000Y-39030004D01*
X34120002Y-21759998D02*
X34120002Y-35390002D01*
X35560000Y-20320000D02*
X34120002Y-21759998D01*
X43180000Y-20320000D02*
X35560000Y-20320000D01*
X44410000Y-21550000D02*
X43180000Y-20320000D01*
X44450000Y-25400000D02*
X45720000Y-24130000D01*
X44410000Y-22860000D02*
X44450000Y-22860000D01*
X44450000Y-22860000D02*
X45720000Y-24130000D01*
X45720000Y-24130000D02*
X46990000Y-24130000D01*
X19050000Y-55880000D02*
X19090000Y-55880000D01*
X19090000Y-55880000D02*
X20360000Y-57150000D01*
X17780000Y-55880000D02*
X19050000Y-55880000D01*
X19050000Y-55880000D02*
X20320000Y-54610000D01*
X17780000Y-29210000D02*
X17780000Y-27940000D01*
X17780000Y-27940000D02*
X19050000Y-26670000D01*
X19050000Y-26670000D02*
X31750000Y-26670000D01*
X8930000Y-44450000D02*
X8930000Y-45760000D01*
X15240000Y-58420000D02*
X17780000Y-58420000D01*
X13970000Y-57150000D02*
X15240000Y-58420000D01*
X13970000Y-50800000D02*
X13970000Y-57150000D01*
X8930000Y-45760000D02*
X13970000Y-50800000D01*
X64770000Y-35560000D02*
X67310000Y-33020000D01*
X46990000Y-35560000D02*
X64770000Y-35560000D01*
X45720000Y-34290000D02*
X46990000Y-35560000D01*
X39370000Y-34290000D02*
X45720000Y-34290000D01*
X38100000Y-33020000D02*
X39370000Y-34290000D01*
X38100000Y-31750000D02*
X38100000Y-33020000D01*
X35600000Y-31750000D02*
X35600000Y-31710000D01*
X35600000Y-31710000D02*
X38100000Y-29210000D01*
X44450000Y-31750000D02*
X46990000Y-31750000D01*
X41910000Y-29210000D02*
X44450000Y-31750000D01*
X38100000Y-29210000D02*
X41910000Y-29210000D01*
X35600000Y-31750000D02*
X35600000Y-38060000D01*
X35600000Y-38060000D02*
X35560000Y-38100000D01*
X67310000Y-26670000D02*
X69850000Y-29210000D01*
X52070000Y-48260000D02*
X52070000Y-46990000D01*
X54610000Y-50800000D02*
X52070000Y-48260000D01*
X69850000Y-50800000D02*
X54610000Y-50800000D01*
X69850000Y-29210000D02*
X69850000Y-50800000D01*
X57150000Y-33020000D02*
X58420000Y-31750000D01*
X58420000Y-31750000D02*
X62230000Y-27940000D01*
X62230000Y-27940000D02*
X62230000Y-19050000D01*
X62230000Y-19050000D02*
X67310000Y-13970000D01*
X54610000Y-31750000D02*
X55880000Y-31750000D01*
X57150000Y-36830000D02*
X57150000Y-39370000D01*
X55880000Y-31750000D02*
X57150000Y-33020000D01*
X57150000Y-46990000D02*
X57150000Y-39370000D01*
X72390000Y-33020000D02*
X77470000Y-33020000D01*
X62150000Y-46990000D02*
X62150000Y-43260000D01*
X74930000Y-26670000D02*
X77470000Y-26670000D01*
X72390000Y-29210000D02*
X74930000Y-26670000D01*
X72390000Y-38100000D02*
X72390000Y-33020000D01*
X72390000Y-33020000D02*
X72390000Y-29210000D01*
X62150000Y-43260000D02*
X67310000Y-38100000D01*
X52070000Y-5080000D02*
X52070000Y-20320000D01*
X53340000Y-21590000D02*
X54610000Y-21590000D01*
X52070000Y-20320000D02*
X53340000Y-21590000D01*
X40640000Y-63500000D02*
X36830000Y-67310000D01*
X44450000Y-62230000D02*
X41910000Y-62230000D01*
X40640000Y-63500000D02*
X40640000Y-67310000D01*
X41910000Y-62230000D02*
X40640000Y-63500000D01*
X40640000Y-67310000D02*
X43180000Y-67310000D01*
X44450000Y-62230000D02*
X46990000Y-62230000D01*
X32980000Y-57150000D02*
X32980000Y-53380000D01*
X32980000Y-53380000D02*
X33020000Y-53340000D01*
X57150000Y-5080000D02*
X57150000Y-8890000D01*
X57150000Y-8890000D02*
X57150000Y-10160000D01*
X57150000Y-10160000D02*
X57150000Y-12700000D01*
X57150000Y-12700000D02*
X57150000Y-13970000D01*
X57150000Y-13970000D02*
X54610000Y-16510000D01*
X83820000Y-20320000D02*
X83820000Y-21590000D01*
X88900000Y-26670000D02*
X93980000Y-26670000D01*
X83820000Y-21590000D02*
X88900000Y-26670000D01*
X62150000Y-5080000D02*
X62150000Y-8810000D01*
X81280000Y-17780000D02*
X83820000Y-20320000D01*
X81280000Y-13970000D02*
X81280000Y-17780000D01*
X78740000Y-11430000D02*
X81280000Y-13970000D01*
X64770000Y-11430000D02*
X78740000Y-11430000D01*
X62150000Y-8810000D02*
X64770000Y-11430000D01*
X30480000Y-57150000D02*
X30480000Y-80010000D01*
X88900000Y-78740000D02*
X91440000Y-78740000D01*
X82590000Y-78740000D02*
X82590000Y-77510000D01*
X82590000Y-77510000D02*
X82550000Y-77470000D01*
X73660000Y-72390000D02*
X73660000Y-71120000D01*
X74930000Y-69850000D02*
X77470000Y-69850000D01*
X73660000Y-71120000D02*
X74930000Y-69850000D01*
X73660000Y-74890000D02*
X73660000Y-76200000D01*
X74930000Y-77470000D02*
X77470000Y-77470000D01*
X73660000Y-76200000D02*
X74930000Y-77470000D01*
X88900000Y-45720000D02*
X88900000Y-48059340D01*
X88900000Y-48059340D02*
X84889340Y-52070000D01*
X84889340Y-52070000D02*
X82550000Y-52070000D01*
X82550000Y-52070000D02*
X81280000Y-53340000D01*
X81280000Y-53340000D02*
X81280000Y-55880000D01*
X40640000Y-80010000D02*
X43180000Y-80010000D01*
X43180000Y-80010000D02*
X45720000Y-80010000D01*
X45720000Y-80010000D02*
X48260000Y-80010000D01*
X48260000Y-80010000D02*
X50800000Y-80010000D01*
X50800000Y-80010000D02*
X53340000Y-80010000D01*
X53340000Y-80010000D02*
X55880000Y-80010000D01*
X55880000Y-80010000D02*
X58420000Y-80010000D01*
X58420000Y-74930000D02*
X58420000Y-77470000D01*
X55880000Y-74930000D02*
X55880000Y-77470000D01*
X53340000Y-74930000D02*
X53340000Y-77470000D01*
X50800000Y-74930000D02*
X50800000Y-77470000D01*
X48260000Y-74930000D02*
X48260000Y-77470000D01*
X45720000Y-74930000D02*
X45720000Y-77470000D01*
X43180000Y-74930000D02*
X43180000Y-77470000D01*
X73660000Y-62230000D02*
X73660000Y-66040000D01*
X69850000Y-69850000D02*
X69850000Y-76200000D01*
X73660000Y-66040000D02*
X69850000Y-69850000D01*
X19050000Y-82550000D02*
X22860000Y-86360000D01*
X22860000Y-86360000D02*
X76200000Y-86360000D01*
X78740000Y-88900000D02*
X78740000Y-91440000D01*
X76200000Y-86360000D02*
X78740000Y-88900000D01*
X73660000Y-58420000D02*
X73660000Y-62230000D01*
X71120000Y-58420000D02*
X71120000Y-60960000D01*
X22860000Y-78740000D02*
X22860000Y-67310000D01*
X29210000Y-85090000D02*
X22860000Y-78740000D01*
X62230000Y-85090000D02*
X29210000Y-85090000D01*
X62230000Y-67310000D02*
X62230000Y-85090000D01*
X64770000Y-64770000D02*
X62230000Y-67310000D01*
X67310000Y-64770000D02*
X64770000Y-64770000D01*
X71120000Y-60960000D02*
X67310000Y-64770000D01*
X55880000Y-67310000D02*
X55880000Y-58420000D01*
X53340000Y-67310000D02*
X53340000Y-58420000D01*
X83820000Y-53340000D02*
X88900000Y-53340000D01*
X82550000Y-44450000D02*
X77470000Y-44450000D01*
X77470000Y-44450000D02*
X73660000Y-48260000D01*
X73660000Y-48260000D02*
X73660000Y-55880000D01*
X48260000Y-67310000D02*
X48260000Y-69850000D01*
X55880000Y-53340000D02*
X55880000Y-55880000D01*
X38100000Y-53340000D02*
X50800000Y-53340000D01*
X36660002Y-54779998D02*
X38100000Y-53340000D01*
X36660002Y-61129998D02*
X36660002Y-54779998D01*
X34120002Y-63669998D02*
X36660002Y-61129998D01*
X34120002Y-69680002D02*
X34120002Y-63669998D01*
X35729998Y-71289998D02*
X34120002Y-69680002D01*
X46820002Y-71289998D02*
X35729998Y-71289998D01*
X48260000Y-69850000D02*
X46820002Y-71289998D01*
X50800000Y-67310000D02*
X50800000Y-71120000D01*
X53340000Y-52070000D02*
X53340000Y-55880000D01*
X35560000Y-52070000D02*
X53340000Y-52070000D01*
X35560000Y-59690000D02*
X35560000Y-52070000D01*
X33020000Y-62230000D02*
X35560000Y-59690000D01*
X33020000Y-71120000D02*
X33020000Y-62230000D01*
X34290000Y-72390000D02*
X33020000Y-71120000D01*
X49530000Y-72390000D02*
X34290000Y-72390000D01*
X50800000Y-71120000D02*
X49530000Y-72390000D01*
X17780000Y-35560000D02*
X21590000Y-39370000D01*
X19050000Y-52070000D02*
X17780000Y-53340000D01*
X19050000Y-49530000D02*
X19050000Y-52070000D01*
X21590000Y-46990000D02*
X19050000Y-49530000D01*
X21590000Y-39370000D02*
X21590000Y-46990000D01*
X10160000Y-53340000D02*
X6350000Y-49530000D01*
X6350000Y-41910000D02*
X17780000Y-41910000D01*
X6350000Y-49530000D02*
X6350000Y-41910000D01*
X35560000Y-48260000D02*
X41910000Y-48260000D01*
X64770000Y-22860000D02*
X67310000Y-20320000D01*
X64770000Y-27940000D02*
X64770000Y-22860000D01*
X63500000Y-29210000D02*
X64770000Y-27940000D01*
X67310000Y-20320000D02*
X72390000Y-20320000D01*
X77470000Y-15240000D02*
X77470000Y-13970000D01*
X72390000Y-20320000D02*
X77470000Y-15240000D01*
X77470000Y-7620000D02*
X87630000Y-7620000D01*
X87630000Y-7620000D02*
X93980000Y-13970000D01*
X40640000Y-74930000D02*
X38100000Y-74930000D01*
X36830000Y-76200000D02*
X33020000Y-76200000D01*
X38100000Y-74930000D02*
X36830000Y-76200000D01*
D30*
G36*
X27144505Y-1744505D02*
X26900636Y-2109481D01*
X26860899Y-2309250D01*
X26394174Y-2775160D01*
X26115827Y-3445494D01*
X26115194Y-4171321D01*
X26392371Y-4842140D01*
X26489536Y-4939474D01*
X22394010Y-9035000D01*
X19234931Y-9035000D01*
X18814840Y-8614174D01*
X18144506Y-8335827D01*
X17418679Y-8335194D01*
X16747860Y-8612371D01*
X16234174Y-9125160D01*
X15955827Y-9795494D01*
X15955194Y-10521321D01*
X16232371Y-11192140D01*
X16745160Y-11705826D01*
X17415494Y-11984173D01*
X18141321Y-11984806D01*
X18812140Y-11707629D01*
X19235508Y-11285000D01*
X22860000Y-11285000D01*
X23290519Y-11199364D01*
X23655495Y-10955495D01*
X28735495Y-5875495D01*
X28789150Y-5795194D01*
X28979364Y-5510519D01*
X29019101Y-5310750D01*
X29485826Y-4844840D01*
X29764173Y-4174506D01*
X29764617Y-3665000D01*
X35202062Y-3665000D01*
X34805571Y-3828827D01*
X34390285Y-4243389D01*
X34165257Y-4785317D01*
X34164744Y-5372108D01*
X34388827Y-5914429D01*
X34803389Y-6329715D01*
X35345317Y-6554743D01*
X35932108Y-6555256D01*
X36474429Y-6331173D01*
X36889715Y-5916611D01*
X37114743Y-5374683D01*
X37115256Y-4787892D01*
X36891173Y-4245571D01*
X36476611Y-3830285D01*
X36078560Y-3665000D01*
X38904010Y-3665000D01*
X39266516Y-4027506D01*
X39215110Y-4102741D01*
X39148838Y-4430000D01*
X39148838Y-5730000D01*
X39206364Y-6035727D01*
X39387049Y-6316518D01*
X39515000Y-6403943D01*
X39515000Y-12645289D01*
X39403482Y-12717049D01*
X39215110Y-12992741D01*
X39148838Y-13320000D01*
X39148838Y-14620000D01*
X39206364Y-14925727D01*
X39387049Y-15206518D01*
X39662741Y-15394890D01*
X39990000Y-15461162D01*
X41290000Y-15461162D01*
X41595727Y-15403636D01*
X41876518Y-15222951D01*
X41963943Y-15095000D01*
X43984010Y-15095000D01*
X45344089Y-16455079D01*
X45333164Y-16510000D01*
X45456860Y-17131861D01*
X45809115Y-17659049D01*
X45990131Y-17780000D01*
X45809115Y-17900951D01*
X45793046Y-17925000D01*
X34755990Y-17925000D01*
X34145000Y-17314010D01*
X34145000Y-15095000D01*
X34678891Y-15095000D01*
X34803389Y-15219715D01*
X35345317Y-15444743D01*
X35932108Y-15445256D01*
X36474429Y-15221173D01*
X36889715Y-14806611D01*
X37114743Y-14264683D01*
X37115256Y-13677892D01*
X36891173Y-13135571D01*
X36476611Y-12720285D01*
X35934683Y-12495257D01*
X35347892Y-12494744D01*
X34805571Y-12718827D01*
X34679178Y-12845000D01*
X33485990Y-12845000D01*
X30005495Y-9364505D01*
X29939665Y-9320519D01*
X29640519Y-9120636D01*
X29440750Y-9080899D01*
X28974840Y-8614174D01*
X28304506Y-8335827D01*
X27578679Y-8335194D01*
X26907860Y-8612371D01*
X26394174Y-9125160D01*
X26115827Y-9795494D01*
X26115194Y-10521321D01*
X26392371Y-11192140D01*
X26905160Y-11705826D01*
X27575494Y-11984173D01*
X28301321Y-11984806D01*
X28972140Y-11707629D01*
X29069474Y-11610464D01*
X31895000Y-14435990D01*
X31895000Y-18874010D01*
X31275495Y-18254505D01*
X31096643Y-18135000D01*
X30910519Y-18010636D01*
X30480000Y-17925000D01*
X29105001Y-17925000D01*
X29485826Y-17544840D01*
X29764173Y-16874506D01*
X29764806Y-16148679D01*
X29487629Y-15477860D01*
X28974840Y-14964174D01*
X28304506Y-14685827D01*
X27578679Y-14685194D01*
X26907860Y-14962371D01*
X26394174Y-15475160D01*
X26115827Y-16145494D01*
X26115194Y-16871321D01*
X26392371Y-17542140D01*
X26815000Y-17965508D01*
X26815000Y-21405069D01*
X26394174Y-21825160D01*
X26115827Y-22495494D01*
X26115194Y-23221321D01*
X26392371Y-23892140D01*
X26905160Y-24405826D01*
X27575494Y-24684173D01*
X28301321Y-24684806D01*
X28972140Y-24407629D01*
X29485826Y-23894840D01*
X29764173Y-23224506D01*
X29764806Y-22498679D01*
X29487629Y-21827860D01*
X29065000Y-21404492D01*
X29065000Y-20175000D01*
X30014010Y-20175000D01*
X30703715Y-20864705D01*
X30753302Y-20984715D01*
X31083547Y-21315536D01*
X31515253Y-21494796D01*
X31895000Y-21495127D01*
X31895000Y-25495126D01*
X31517303Y-25494796D01*
X31395800Y-25545000D01*
X19050000Y-25545000D01*
X18619481Y-25630636D01*
X18254505Y-25874505D01*
X16984505Y-27144505D01*
X16740636Y-27509481D01*
X16700899Y-27709250D01*
X16234174Y-28175160D01*
X15955827Y-28845494D01*
X15955194Y-29571321D01*
X16232371Y-30242140D01*
X16745160Y-30755826D01*
X17415494Y-31034173D01*
X18141321Y-31034806D01*
X18812140Y-30757629D01*
X19325826Y-30244840D01*
X19604173Y-29574506D01*
X19604806Y-28848679D01*
X19327629Y-28177860D01*
X19230464Y-28080526D01*
X19515990Y-27795000D01*
X26774999Y-27795000D01*
X26394174Y-28175160D01*
X26115827Y-28845494D01*
X26115194Y-29571321D01*
X26392371Y-30242140D01*
X26905160Y-30755826D01*
X27575494Y-31034173D01*
X28301321Y-31034806D01*
X28972140Y-30757629D01*
X29485826Y-30244840D01*
X29764173Y-29574506D01*
X29764806Y-28848679D01*
X29487629Y-28177860D01*
X29105438Y-27795000D01*
X31395331Y-27795000D01*
X31515253Y-27844796D01*
X31895000Y-27845127D01*
X31895000Y-33824010D01*
X31284010Y-34435000D01*
X29394931Y-34435000D01*
X28974840Y-34014174D01*
X28304506Y-33735827D01*
X27578679Y-33735194D01*
X26907860Y-34012371D01*
X26394174Y-34525160D01*
X26115827Y-35195494D01*
X26115194Y-35921321D01*
X26392371Y-36592140D01*
X26815000Y-37015508D01*
X26815000Y-40455069D01*
X26394174Y-40875160D01*
X26115827Y-41545494D01*
X26115194Y-42271321D01*
X26392371Y-42942140D01*
X26905160Y-43455826D01*
X27575494Y-43734173D01*
X28301321Y-43734806D01*
X28972140Y-43457629D01*
X29485826Y-42944840D01*
X29764173Y-42274506D01*
X29764806Y-41548679D01*
X29487629Y-40877860D01*
X29065000Y-40454492D01*
X29065000Y-37014931D01*
X29395508Y-36685000D01*
X31750000Y-36685000D01*
X32180519Y-36599364D01*
X32545495Y-36355495D01*
X33815495Y-35085495D01*
X34059364Y-34720519D01*
X34145000Y-34290000D01*
X34145000Y-32091131D01*
X34348827Y-32584429D01*
X34475000Y-32710822D01*
X34475000Y-36605139D01*
X34014174Y-37065160D01*
X33735827Y-37735494D01*
X33735194Y-38461321D01*
X34012371Y-39132140D01*
X34525160Y-39645826D01*
X35195494Y-39924173D01*
X35921321Y-39924806D01*
X36592140Y-39647629D01*
X37105826Y-39134840D01*
X37384173Y-38464506D01*
X37384175Y-38461321D01*
X40085194Y-38461321D01*
X40362371Y-39132140D01*
X40875160Y-39645826D01*
X41545494Y-39924173D01*
X42271321Y-39924806D01*
X42942140Y-39647629D01*
X43455826Y-39134840D01*
X43734173Y-38464506D01*
X43734806Y-37738679D01*
X43457629Y-37067860D01*
X42944840Y-36554174D01*
X42274506Y-36275827D01*
X41548679Y-36275194D01*
X40877860Y-36552371D01*
X40364174Y-37065160D01*
X40085827Y-37735494D01*
X40085194Y-38461321D01*
X37384175Y-38461321D01*
X37384806Y-37738679D01*
X37107629Y-37067860D01*
X36725000Y-36684562D01*
X36725000Y-32796849D01*
X36847049Y-32986518D01*
X36987418Y-33082428D01*
X37060636Y-33450519D01*
X37217121Y-33684715D01*
X37304505Y-33815495D01*
X38574505Y-35085495D01*
X38939481Y-35329364D01*
X39370000Y-35415000D01*
X45254010Y-35415000D01*
X46194505Y-36355495D01*
X46559481Y-36599364D01*
X46990000Y-36685000D01*
X47159460Y-36685000D01*
X46501030Y-37342281D01*
X45955622Y-38655769D01*
X45954381Y-40077992D01*
X46497496Y-41392429D01*
X47502281Y-42398970D01*
X48815769Y-42944378D01*
X50237992Y-42945619D01*
X51552429Y-42402504D01*
X52558970Y-41397719D01*
X53104378Y-40084231D01*
X53105619Y-38662008D01*
X52562504Y-37347571D01*
X51901089Y-36685000D01*
X55975126Y-36685000D01*
X55974796Y-37062697D01*
X56025000Y-37184200D01*
X56025000Y-38045289D01*
X55913482Y-38117049D01*
X55725110Y-38392741D01*
X55658838Y-38720000D01*
X55658838Y-40020000D01*
X55716364Y-40325727D01*
X55897049Y-40606518D01*
X56025000Y-40693943D01*
X56025000Y-45665289D01*
X55913482Y-45737049D01*
X55725110Y-46012741D01*
X55658838Y-46340000D01*
X55658838Y-47640000D01*
X55716364Y-47945727D01*
X55897049Y-48226518D01*
X56172741Y-48414890D01*
X56500000Y-48481162D01*
X57800000Y-48481162D01*
X58105727Y-48423636D01*
X58386518Y-48242951D01*
X58574890Y-47967259D01*
X58641162Y-47640000D01*
X58641162Y-47282108D01*
X60674744Y-47282108D01*
X60898827Y-47824429D01*
X61313389Y-48239715D01*
X61855317Y-48464743D01*
X62442108Y-48465256D01*
X62984429Y-48241173D01*
X63399715Y-47826611D01*
X63624743Y-47284683D01*
X63625256Y-46697892D01*
X63401173Y-46155571D01*
X63275000Y-46029178D01*
X63275000Y-43725990D01*
X67854705Y-39146285D01*
X67974715Y-39096698D01*
X68305536Y-38766453D01*
X68484796Y-38334747D01*
X68485204Y-37867303D01*
X68306698Y-37435285D01*
X67976453Y-37104464D01*
X67544747Y-36925204D01*
X67077303Y-36924796D01*
X66645285Y-37103302D01*
X66314464Y-37433547D01*
X66264048Y-37554962D01*
X61354505Y-42464505D01*
X61110636Y-42829481D01*
X61025000Y-43260000D01*
X61025000Y-46028891D01*
X60900285Y-46153389D01*
X60675257Y-46695317D01*
X60674744Y-47282108D01*
X58641162Y-47282108D01*
X58641162Y-46340000D01*
X58583636Y-46034273D01*
X58402951Y-45753482D01*
X58275000Y-45666057D01*
X58275000Y-40694711D01*
X58386518Y-40622951D01*
X58561285Y-40367171D01*
X58813389Y-40619715D01*
X59355317Y-40844743D01*
X59942108Y-40845256D01*
X60484429Y-40621173D01*
X60899715Y-40206611D01*
X61124743Y-39664683D01*
X61125256Y-39077892D01*
X60901173Y-38535571D01*
X60486611Y-38120285D01*
X59944683Y-37895257D01*
X59357892Y-37894744D01*
X58815571Y-38118827D01*
X58558594Y-38375356D01*
X58402951Y-38133482D01*
X58275000Y-38046057D01*
X58275000Y-37184669D01*
X58324796Y-37064747D01*
X58325127Y-36685000D01*
X64770000Y-36685000D01*
X65200519Y-36599364D01*
X65565495Y-36355495D01*
X67076703Y-34844287D01*
X67671321Y-34844806D01*
X68342140Y-34567629D01*
X68725000Y-34185438D01*
X68725000Y-43284999D01*
X68344840Y-42904174D01*
X67674506Y-42625827D01*
X66948679Y-42625194D01*
X66277860Y-42902371D01*
X65764174Y-43415160D01*
X65485827Y-44085494D01*
X65485194Y-44811321D01*
X65762371Y-45482140D01*
X66275160Y-45995826D01*
X66945494Y-46274173D01*
X67671321Y-46274806D01*
X68342140Y-45997629D01*
X68725000Y-45615438D01*
X68725000Y-49675000D01*
X55075990Y-49675000D01*
X53443484Y-48042494D01*
X53494890Y-47967259D01*
X53561162Y-47640000D01*
X53561162Y-46340000D01*
X53503636Y-46034273D01*
X53322951Y-45753482D01*
X53047259Y-45565110D01*
X52720000Y-45498838D01*
X51420000Y-45498838D01*
X51114273Y-45556364D01*
X50833482Y-45737049D01*
X50645110Y-46012741D01*
X50578838Y-46340000D01*
X50578838Y-47640000D01*
X50636364Y-47945727D01*
X50817049Y-48226518D01*
X50957418Y-48322428D01*
X51030636Y-48690519D01*
X51243665Y-49009340D01*
X51274505Y-49055495D01*
X53164010Y-50945000D01*
X35560000Y-50945000D01*
X35129481Y-51030636D01*
X34764505Y-51274505D01*
X34520636Y-51639481D01*
X34435000Y-52070000D01*
X34435000Y-56808869D01*
X34231173Y-56315571D01*
X34105000Y-56189178D01*
X34105000Y-53791000D01*
X34194796Y-53574747D01*
X34195204Y-53107303D01*
X34016698Y-52675285D01*
X33686453Y-52344464D01*
X33254747Y-52165204D01*
X32787303Y-52164796D01*
X32355285Y-52343302D01*
X32024464Y-52673547D01*
X31845204Y-53105253D01*
X31844796Y-53572697D01*
X31855000Y-53597393D01*
X31855000Y-56103151D01*
X31732951Y-55913482D01*
X31457259Y-55725110D01*
X31130000Y-55658838D01*
X29830000Y-55658838D01*
X29524273Y-55716364D01*
X29243482Y-55897049D01*
X29055110Y-56172741D01*
X28988838Y-56500000D01*
X28988838Y-57800000D01*
X29046364Y-58105727D01*
X29227049Y-58386518D01*
X29355000Y-58473943D01*
X29355000Y-78555069D01*
X28934174Y-78975160D01*
X28655827Y-79645494D01*
X28655194Y-80371321D01*
X28932371Y-81042140D01*
X29445160Y-81555826D01*
X30115494Y-81834173D01*
X30841321Y-81834806D01*
X31512140Y-81557629D01*
X32025826Y-81044840D01*
X32304173Y-80374506D01*
X32304806Y-79648679D01*
X32027629Y-78977860D01*
X31605000Y-78554492D01*
X31605000Y-58474711D01*
X31716518Y-58402951D01*
X31891285Y-58147171D01*
X32143389Y-58399715D01*
X32685317Y-58624743D01*
X33272108Y-58625256D01*
X33814429Y-58401173D01*
X34229715Y-57986611D01*
X34435000Y-57492229D01*
X34435000Y-59224010D01*
X32224505Y-61434505D01*
X31980636Y-61799481D01*
X31895000Y-62230000D01*
X31895000Y-71120000D01*
X31980636Y-71550519D01*
X32094225Y-71720517D01*
X32224505Y-71915495D01*
X33494505Y-73185495D01*
X33859481Y-73429364D01*
X34290000Y-73515000D01*
X39841330Y-73515000D01*
X39490951Y-73749115D01*
X39453610Y-73805000D01*
X38100000Y-73805000D01*
X37669481Y-73890636D01*
X37304505Y-74134505D01*
X36364010Y-75075000D01*
X33374669Y-75075000D01*
X33254747Y-75025204D01*
X32787303Y-75024796D01*
X32355285Y-75203302D01*
X32024464Y-75533547D01*
X31845204Y-75965253D01*
X31844796Y-76432697D01*
X32023302Y-76864715D01*
X32353547Y-77195536D01*
X32785253Y-77374796D01*
X33252697Y-77375204D01*
X33374200Y-77325000D01*
X36830000Y-77325000D01*
X37260519Y-77239364D01*
X37625495Y-76995495D01*
X38565990Y-76055000D01*
X39453610Y-76055000D01*
X39490951Y-76110885D01*
X40018139Y-76463140D01*
X40640000Y-76586836D01*
X41261861Y-76463140D01*
X41789049Y-76110885D01*
X41910000Y-75929869D01*
X42006273Y-76073952D01*
X41985979Y-76087512D01*
X41619937Y-76635334D01*
X41491400Y-77281533D01*
X41491400Y-77658467D01*
X41619937Y-78304666D01*
X41831126Y-78620733D01*
X41674840Y-78464174D01*
X41004506Y-78185827D01*
X40278679Y-78185194D01*
X39607860Y-78462371D01*
X39094174Y-78975160D01*
X38815827Y-79645494D01*
X38815194Y-80371321D01*
X39092371Y-81042140D01*
X39605160Y-81555826D01*
X40275494Y-81834173D01*
X41001321Y-81834806D01*
X41672140Y-81557629D01*
X41926597Y-81303616D01*
X41985979Y-81392488D01*
X42533801Y-81758530D01*
X43180000Y-81887067D01*
X43826199Y-81758530D01*
X44374021Y-81392488D01*
X44450000Y-81278777D01*
X44525979Y-81392488D01*
X45073801Y-81758530D01*
X45720000Y-81887067D01*
X46366199Y-81758530D01*
X46914021Y-81392488D01*
X46990000Y-81278777D01*
X47065979Y-81392488D01*
X47613801Y-81758530D01*
X48260000Y-81887067D01*
X48906199Y-81758530D01*
X49454021Y-81392488D01*
X49530000Y-81278777D01*
X49605979Y-81392488D01*
X50153801Y-81758530D01*
X50800000Y-81887067D01*
X51446199Y-81758530D01*
X51994021Y-81392488D01*
X52070000Y-81278777D01*
X52145979Y-81392488D01*
X52693801Y-81758530D01*
X53340000Y-81887067D01*
X53986199Y-81758530D01*
X54534021Y-81392488D01*
X54610000Y-81278777D01*
X54685979Y-81392488D01*
X55233801Y-81758530D01*
X55880000Y-81887067D01*
X56526199Y-81758530D01*
X56890689Y-81514986D01*
X56953449Y-81612518D01*
X57229141Y-81800890D01*
X57556400Y-81867162D01*
X59283600Y-81867162D01*
X59589327Y-81809636D01*
X59870118Y-81628951D01*
X60058490Y-81353259D01*
X60124762Y-81026000D01*
X60124762Y-78994000D01*
X60075214Y-78730673D01*
X60124762Y-78486000D01*
X60124762Y-76454000D01*
X60067236Y-76148273D01*
X59886551Y-75867482D01*
X59780227Y-75794834D01*
X59921304Y-75583697D01*
X60045000Y-74961836D01*
X60045000Y-74898164D01*
X59921304Y-74276303D01*
X59569049Y-73749115D01*
X59041861Y-73396860D01*
X58420000Y-73273164D01*
X57798139Y-73396860D01*
X57270951Y-73749115D01*
X57150000Y-73930131D01*
X57029049Y-73749115D01*
X56501861Y-73396860D01*
X55880000Y-73273164D01*
X55258139Y-73396860D01*
X54730951Y-73749115D01*
X54610000Y-73930131D01*
X54489049Y-73749115D01*
X53961861Y-73396860D01*
X53340000Y-73273164D01*
X52718139Y-73396860D01*
X52190951Y-73749115D01*
X52070000Y-73930131D01*
X51949049Y-73749115D01*
X51421861Y-73396860D01*
X50800000Y-73273164D01*
X50178139Y-73396860D01*
X49650951Y-73749115D01*
X49530000Y-73930131D01*
X49409049Y-73749115D01*
X49058670Y-73515000D01*
X49530000Y-73515000D01*
X49960519Y-73429364D01*
X50325495Y-73185495D01*
X51595495Y-71915495D01*
X51839364Y-71550519D01*
X51925000Y-71120000D01*
X51925000Y-68506954D01*
X51949049Y-68490885D01*
X52070000Y-68309869D01*
X52190951Y-68490885D01*
X52718139Y-68843140D01*
X53340000Y-68966836D01*
X53961861Y-68843140D01*
X54489049Y-68490885D01*
X54610000Y-68309869D01*
X54730951Y-68490885D01*
X55258139Y-68843140D01*
X55880000Y-68966836D01*
X56501861Y-68843140D01*
X57029049Y-68490885D01*
X57150000Y-68309869D01*
X57270951Y-68490885D01*
X57798139Y-68843140D01*
X58420000Y-68966836D01*
X59041861Y-68843140D01*
X59569049Y-68490885D01*
X59921304Y-67963697D01*
X60045000Y-67341836D01*
X60045000Y-67278164D01*
X59921304Y-66656303D01*
X59569049Y-66129115D01*
X59041861Y-65776860D01*
X58420000Y-65653164D01*
X57798139Y-65776860D01*
X57270951Y-66129115D01*
X57150000Y-66310131D01*
X57029049Y-66129115D01*
X57005000Y-66113046D01*
X57005000Y-59848606D01*
X57074021Y-59802488D01*
X57150000Y-59688777D01*
X57225979Y-59802488D01*
X57773801Y-60168530D01*
X58420000Y-60297067D01*
X59066199Y-60168530D01*
X59614021Y-59802488D01*
X59690000Y-59688777D01*
X59765979Y-59802488D01*
X60313801Y-60168530D01*
X60960000Y-60297067D01*
X61606199Y-60168530D01*
X62154021Y-59802488D01*
X62230000Y-59688777D01*
X62305979Y-59802488D01*
X62853801Y-60168530D01*
X63500000Y-60297067D01*
X64146199Y-60168530D01*
X64694021Y-59802488D01*
X64770000Y-59688777D01*
X64845979Y-59802488D01*
X65393801Y-60168530D01*
X66040000Y-60297067D01*
X66686199Y-60168530D01*
X67234021Y-59802488D01*
X67310000Y-59688777D01*
X67385979Y-59802488D01*
X67933801Y-60168530D01*
X68580000Y-60297067D01*
X69226199Y-60168530D01*
X69774021Y-59802488D01*
X69850000Y-59688777D01*
X69925979Y-59802488D01*
X69995000Y-59848606D01*
X69995000Y-60494010D01*
X66844010Y-63645000D01*
X64770000Y-63645000D01*
X64339481Y-63730636D01*
X63974505Y-63974505D01*
X61434505Y-66514505D01*
X61190636Y-66879481D01*
X61105000Y-67310000D01*
X61105000Y-83965000D01*
X29675990Y-83965000D01*
X23985000Y-78274010D01*
X23985000Y-68764931D01*
X24405826Y-68344840D01*
X24684173Y-67674506D01*
X24684806Y-66948679D01*
X24407629Y-66277860D01*
X23894840Y-65764174D01*
X23224506Y-65485827D01*
X22498679Y-65485194D01*
X21827860Y-65762371D01*
X21314174Y-66275160D01*
X21035827Y-66945494D01*
X21035194Y-67671321D01*
X21312371Y-68342140D01*
X21735000Y-68765508D01*
X21735000Y-78740000D01*
X21820636Y-79170519D01*
X22064505Y-79535495D01*
X27764010Y-85235000D01*
X23325990Y-85235000D01*
X20874797Y-82783807D01*
X20875316Y-82188578D01*
X20598062Y-81517571D01*
X20085129Y-81003742D01*
X19414608Y-80725317D01*
X18688578Y-80724684D01*
X18017571Y-81001938D01*
X17503742Y-81514871D01*
X17225317Y-82185392D01*
X17224684Y-82911422D01*
X17501938Y-83582429D01*
X18014871Y-84096258D01*
X18685392Y-84374683D01*
X19284215Y-84375205D01*
X22064505Y-87155495D01*
X22429481Y-87399364D01*
X22860000Y-87485000D01*
X75734010Y-87485000D01*
X77615000Y-89365990D01*
X77615000Y-90011394D01*
X77545979Y-90057512D01*
X77470000Y-90171223D01*
X77394021Y-90057512D01*
X76846199Y-89691470D01*
X76200000Y-89562933D01*
X75553801Y-89691470D01*
X75005979Y-90057512D01*
X74930000Y-90171223D01*
X74854021Y-90057512D01*
X74306199Y-89691470D01*
X73660000Y-89562933D01*
X73013801Y-89691470D01*
X72465979Y-90057512D01*
X72390000Y-90171223D01*
X72314021Y-90057512D01*
X71766199Y-89691470D01*
X71120000Y-89562933D01*
X70473801Y-89691470D01*
X69925979Y-90057512D01*
X69850000Y-90171223D01*
X69774021Y-90057512D01*
X69226199Y-89691470D01*
X68580000Y-89562933D01*
X67933801Y-89691470D01*
X67385979Y-90057512D01*
X67310000Y-90171223D01*
X67234021Y-90057512D01*
X66686199Y-89691470D01*
X66040000Y-89562933D01*
X65393801Y-89691470D01*
X64845979Y-90057512D01*
X64770000Y-90171223D01*
X64694021Y-90057512D01*
X64146199Y-89691470D01*
X63500000Y-89562933D01*
X62853801Y-89691470D01*
X62305979Y-90057512D01*
X62230000Y-90171223D01*
X62154021Y-90057512D01*
X61606199Y-89691470D01*
X60960000Y-89562933D01*
X60313801Y-89691470D01*
X59765979Y-90057512D01*
X59690000Y-90171223D01*
X59614021Y-90057512D01*
X59066199Y-89691470D01*
X58420000Y-89562933D01*
X57773801Y-89691470D01*
X57225979Y-90057512D01*
X57150000Y-90171223D01*
X57074021Y-90057512D01*
X56526199Y-89691470D01*
X55880000Y-89562933D01*
X55233801Y-89691470D01*
X54685979Y-90057512D01*
X54610000Y-90171223D01*
X54534021Y-90057512D01*
X53986199Y-89691470D01*
X53340000Y-89562933D01*
X52693801Y-89691470D01*
X52145979Y-90057512D01*
X52070000Y-90171223D01*
X51994021Y-90057512D01*
X51446199Y-89691470D01*
X50800000Y-89562933D01*
X50153801Y-89691470D01*
X49605979Y-90057512D01*
X49530000Y-90171223D01*
X49454021Y-90057512D01*
X48906199Y-89691470D01*
X48260000Y-89562933D01*
X47613801Y-89691470D01*
X47065979Y-90057512D01*
X46990000Y-90171223D01*
X46914021Y-90057512D01*
X46366199Y-89691470D01*
X45720000Y-89562933D01*
X45073801Y-89691470D01*
X44525979Y-90057512D01*
X44450000Y-90171223D01*
X44374021Y-90057512D01*
X43826199Y-89691470D01*
X43180000Y-89562933D01*
X42533801Y-89691470D01*
X41985979Y-90057512D01*
X41910000Y-90171223D01*
X41834021Y-90057512D01*
X41286199Y-89691470D01*
X40640000Y-89562933D01*
X39993801Y-89691470D01*
X39445979Y-90057512D01*
X39079937Y-90605334D01*
X38951400Y-91251533D01*
X38951400Y-91628467D01*
X39079937Y-92274666D01*
X39370817Y-92710000D01*
X39079937Y-93145334D01*
X38951400Y-93791533D01*
X38951400Y-94168467D01*
X39079937Y-94814666D01*
X39445979Y-95362488D01*
X39993801Y-95728530D01*
X40640000Y-95857067D01*
X41286199Y-95728530D01*
X41834021Y-95362488D01*
X41910000Y-95248777D01*
X41985979Y-95362488D01*
X42533801Y-95728530D01*
X43180000Y-95857067D01*
X43826199Y-95728530D01*
X44374021Y-95362488D01*
X44450000Y-95248777D01*
X44525979Y-95362488D01*
X45073801Y-95728530D01*
X45720000Y-95857067D01*
X46366199Y-95728530D01*
X46914021Y-95362488D01*
X46990000Y-95248777D01*
X47065979Y-95362488D01*
X47613801Y-95728530D01*
X48260000Y-95857067D01*
X48906199Y-95728530D01*
X49454021Y-95362488D01*
X49530000Y-95248777D01*
X49605979Y-95362488D01*
X50153801Y-95728530D01*
X50800000Y-95857067D01*
X51446199Y-95728530D01*
X51994021Y-95362488D01*
X52070000Y-95248777D01*
X52145979Y-95362488D01*
X52693801Y-95728530D01*
X53340000Y-95857067D01*
X53986199Y-95728530D01*
X54534021Y-95362488D01*
X54610000Y-95248777D01*
X54685979Y-95362488D01*
X55233801Y-95728530D01*
X55880000Y-95857067D01*
X56526199Y-95728530D01*
X57074021Y-95362488D01*
X57150000Y-95248777D01*
X57225979Y-95362488D01*
X57773801Y-95728530D01*
X58420000Y-95857067D01*
X59066199Y-95728530D01*
X59614021Y-95362488D01*
X59690000Y-95248777D01*
X59765979Y-95362488D01*
X60313801Y-95728530D01*
X60960000Y-95857067D01*
X61606199Y-95728530D01*
X62154021Y-95362488D01*
X62230000Y-95248777D01*
X62305979Y-95362488D01*
X62853801Y-95728530D01*
X63500000Y-95857067D01*
X64146199Y-95728530D01*
X64694021Y-95362488D01*
X64770000Y-95248777D01*
X64845979Y-95362488D01*
X65393801Y-95728530D01*
X66040000Y-95857067D01*
X66686199Y-95728530D01*
X67234021Y-95362488D01*
X67310000Y-95248777D01*
X67385979Y-95362488D01*
X67933801Y-95728530D01*
X68580000Y-95857067D01*
X69226199Y-95728530D01*
X69774021Y-95362488D01*
X69850000Y-95248777D01*
X69925979Y-95362488D01*
X70473801Y-95728530D01*
X71120000Y-95857067D01*
X71766199Y-95728530D01*
X72314021Y-95362488D01*
X72390000Y-95248777D01*
X72465979Y-95362488D01*
X73013801Y-95728530D01*
X73660000Y-95857067D01*
X74306199Y-95728530D01*
X74854021Y-95362488D01*
X74930000Y-95248777D01*
X75005979Y-95362488D01*
X75553801Y-95728530D01*
X76200000Y-95857067D01*
X76846199Y-95728530D01*
X77394021Y-95362488D01*
X77470000Y-95248777D01*
X77545979Y-95362488D01*
X78093801Y-95728530D01*
X78740000Y-95857067D01*
X79386199Y-95728530D01*
X79934021Y-95362488D01*
X80010000Y-95248777D01*
X80085979Y-95362488D01*
X80633801Y-95728530D01*
X81280000Y-95857067D01*
X81926199Y-95728530D01*
X82474021Y-95362488D01*
X82550000Y-95248777D01*
X82625979Y-95362488D01*
X83173801Y-95728530D01*
X83820000Y-95857067D01*
X84466199Y-95728530D01*
X85014021Y-95362488D01*
X85074367Y-95272173D01*
X85148302Y-95379453D01*
X85717764Y-95748223D01*
X86063359Y-95845506D01*
X86335000Y-95652044D01*
X86335000Y-94005000D01*
X86315000Y-94005000D01*
X86315000Y-93955000D01*
X86335000Y-93955000D01*
X86335000Y-93935000D01*
X86385000Y-93935000D01*
X86385000Y-93955000D01*
X86405000Y-93955000D01*
X86405000Y-94005000D01*
X86385000Y-94005000D01*
X86385000Y-95652044D01*
X86656641Y-95845506D01*
X87002236Y-95748223D01*
X87381878Y-95502376D01*
X87433449Y-95582518D01*
X87709141Y-95770890D01*
X88036400Y-95837162D01*
X89763600Y-95837162D01*
X90069327Y-95779636D01*
X90350118Y-95598951D01*
X90538490Y-95323259D01*
X90582689Y-95105000D01*
X91440000Y-95105000D01*
X91675166Y-95058222D01*
X91674381Y-95957992D01*
X92217496Y-97272429D01*
X92459644Y-97515000D01*
X6601274Y-97515000D01*
X6838970Y-97277719D01*
X7384378Y-95964231D01*
X7385619Y-94542008D01*
X7075529Y-93791533D01*
X24981400Y-93791533D01*
X24981400Y-94168467D01*
X25109937Y-94814666D01*
X25475979Y-95362488D01*
X26023801Y-95728530D01*
X26670000Y-95857067D01*
X27316199Y-95728530D01*
X27864021Y-95362488D01*
X27940000Y-95248777D01*
X28015979Y-95362488D01*
X28563801Y-95728530D01*
X29210000Y-95857067D01*
X29856199Y-95728530D01*
X30220689Y-95484986D01*
X30283449Y-95582518D01*
X30559141Y-95770890D01*
X30886400Y-95837162D01*
X32613600Y-95837162D01*
X32919327Y-95779636D01*
X33200118Y-95598951D01*
X33388490Y-95323259D01*
X33454762Y-94996000D01*
X33454762Y-92964000D01*
X33397236Y-92658273D01*
X33216551Y-92377482D01*
X32940859Y-92189110D01*
X32613600Y-92122838D01*
X30886400Y-92122838D01*
X30580673Y-92180364D01*
X30299882Y-92361049D01*
X30221598Y-92475621D01*
X29856199Y-92231470D01*
X29210000Y-92102933D01*
X28563801Y-92231470D01*
X28015979Y-92597512D01*
X27940000Y-92711223D01*
X27864021Y-92597512D01*
X27316199Y-92231470D01*
X26670000Y-92102933D01*
X26023801Y-92231470D01*
X25475979Y-92597512D01*
X25109937Y-93145334D01*
X24981400Y-93791533D01*
X7075529Y-93791533D01*
X6842504Y-93227571D01*
X5837719Y-92221030D01*
X4524231Y-91675622D01*
X3102008Y-91674381D01*
X1787571Y-92217496D01*
X1545000Y-92459644D01*
X1545000Y-85392011D01*
X11174735Y-85392011D01*
X11406414Y-85952715D01*
X11575174Y-86121770D01*
X11375231Y-86603285D01*
X11374771Y-87130402D01*
X11576065Y-87617572D01*
X11948468Y-87990625D01*
X12435285Y-88192769D01*
X12962402Y-88193229D01*
X13449572Y-87991935D01*
X13822625Y-87619532D01*
X14024769Y-87132715D01*
X14025229Y-86605598D01*
X13825220Y-86121539D01*
X13992079Y-85954971D01*
X14224735Y-85394672D01*
X14225265Y-84787989D01*
X13993586Y-84227285D01*
X13564971Y-83797921D01*
X13004672Y-83565265D01*
X12397989Y-83564735D01*
X11837285Y-83796414D01*
X11407921Y-84225029D01*
X11175265Y-84785328D01*
X11174735Y-85392011D01*
X1545000Y-85392011D01*
X1545000Y-82911422D01*
X4524684Y-82911422D01*
X4801938Y-83582429D01*
X5314871Y-84096258D01*
X5985392Y-84374683D01*
X6711422Y-84375316D01*
X7382429Y-84098062D01*
X7896258Y-83585129D01*
X8174683Y-82914608D01*
X8175316Y-82188578D01*
X7898062Y-81517571D01*
X7385129Y-81003742D01*
X6714608Y-80725317D01*
X5988578Y-80724684D01*
X5317571Y-81001938D01*
X4803742Y-81514871D01*
X4525317Y-82185392D01*
X4524684Y-82911422D01*
X1545000Y-82911422D01*
X1545000Y-77831422D01*
X4524684Y-77831422D01*
X4801938Y-78502429D01*
X5314871Y-79016258D01*
X5985392Y-79294683D01*
X6711422Y-79295316D01*
X7382429Y-79018062D01*
X7896258Y-78505129D01*
X8174683Y-77834608D01*
X8174685Y-77831422D01*
X17224684Y-77831422D01*
X17501938Y-78502429D01*
X18014871Y-79016258D01*
X18685392Y-79294683D01*
X19411422Y-79295316D01*
X20082429Y-79018062D01*
X20596258Y-78505129D01*
X20874683Y-77834608D01*
X20875316Y-77108578D01*
X20598062Y-76437571D01*
X20085129Y-75923742D01*
X19414608Y-75645317D01*
X18688578Y-75644684D01*
X18017571Y-75921938D01*
X17503742Y-76434871D01*
X17225317Y-77105392D01*
X17224684Y-77831422D01*
X8174685Y-77831422D01*
X8175316Y-77108578D01*
X7898062Y-76437571D01*
X7385129Y-75923742D01*
X6714608Y-75645317D01*
X5988578Y-75644684D01*
X5317571Y-75921938D01*
X4803742Y-76434871D01*
X4525317Y-77105392D01*
X4524684Y-77831422D01*
X1545000Y-77831422D01*
X1545000Y-75212206D01*
X11274754Y-75212206D01*
X11491240Y-75736143D01*
X11891749Y-76137351D01*
X12415307Y-76354752D01*
X12982206Y-76355246D01*
X13506143Y-76138760D01*
X13907351Y-75738251D01*
X14124752Y-75214693D01*
X14125246Y-74647794D01*
X13908760Y-74123857D01*
X13755605Y-73970435D01*
X13822625Y-73903532D01*
X14024769Y-73416715D01*
X14025229Y-72889598D01*
X13823935Y-72402428D01*
X13451532Y-72029375D01*
X12964715Y-71827231D01*
X12437598Y-71826771D01*
X11950428Y-72028065D01*
X11577375Y-72400468D01*
X11375231Y-72887285D01*
X11374771Y-73414402D01*
X11576065Y-73901572D01*
X11644518Y-73970145D01*
X11492649Y-74121749D01*
X11275248Y-74645307D01*
X11274754Y-75212206D01*
X1545000Y-75212206D01*
X1545000Y-67671321D01*
X10875194Y-67671321D01*
X11152371Y-68342140D01*
X11665160Y-68855826D01*
X12335494Y-69134173D01*
X13061321Y-69134806D01*
X13732140Y-68857629D01*
X14245826Y-68344840D01*
X14524173Y-67674506D01*
X14524806Y-66948679D01*
X14247629Y-66277860D01*
X13734840Y-65764174D01*
X13064506Y-65485827D01*
X12338679Y-65485194D01*
X11667860Y-65762371D01*
X11154174Y-66275160D01*
X10875827Y-66945494D01*
X10875194Y-67671321D01*
X1545000Y-67671321D01*
X1545000Y-36830000D01*
X2685000Y-36830000D01*
X2685000Y-54610000D01*
X2770636Y-55040519D01*
X2916045Y-55258139D01*
X3014505Y-55405495D01*
X4284505Y-56675495D01*
X4649481Y-56919364D01*
X5080000Y-57005000D01*
X5884010Y-57005000D01*
X7150517Y-58271507D01*
X6745571Y-58438827D01*
X6488594Y-58695356D01*
X6332951Y-58453482D01*
X6057259Y-58265110D01*
X5730000Y-58198838D01*
X4430000Y-58198838D01*
X4124273Y-58256364D01*
X3843482Y-58437049D01*
X3655110Y-58712741D01*
X3588838Y-59040000D01*
X3588838Y-60340000D01*
X3646364Y-60645727D01*
X3827049Y-60926518D01*
X4102741Y-61114890D01*
X4141423Y-61122723D01*
X3870285Y-61393389D01*
X3645257Y-61935317D01*
X3644744Y-62522108D01*
X3868827Y-63064429D01*
X4283389Y-63479715D01*
X4825317Y-63704743D01*
X5412108Y-63705256D01*
X5954429Y-63481173D01*
X6211406Y-63224644D01*
X6367049Y-63466518D01*
X6642741Y-63654890D01*
X6970000Y-63721162D01*
X8270000Y-63721162D01*
X8575727Y-63663636D01*
X8856518Y-63482951D01*
X9044890Y-63207259D01*
X9111162Y-62880000D01*
X9111162Y-62329828D01*
X9190619Y-62250371D01*
X9506303Y-62461304D01*
X10128164Y-62585000D01*
X10191836Y-62585000D01*
X10813697Y-62461304D01*
X11340885Y-62109049D01*
X11693140Y-61581861D01*
X11816836Y-60960000D01*
X11693140Y-60338139D01*
X11340885Y-59810951D01*
X11159869Y-59690000D01*
X11340885Y-59569049D01*
X11693140Y-59041861D01*
X11816836Y-58420000D01*
X11693140Y-57798139D01*
X11340885Y-57270951D01*
X11159869Y-57150000D01*
X11340885Y-57029049D01*
X11693140Y-56501861D01*
X11816836Y-55880000D01*
X11693140Y-55258139D01*
X11340885Y-54730951D01*
X11159869Y-54610000D01*
X11340885Y-54489049D01*
X11693140Y-53961861D01*
X11816836Y-53340000D01*
X11693140Y-52718139D01*
X11340885Y-52190951D01*
X10813697Y-51838696D01*
X10191836Y-51715000D01*
X10128164Y-51715000D01*
X10126351Y-51715361D01*
X7475000Y-49064010D01*
X7475000Y-44791131D01*
X7678827Y-45284429D01*
X7805000Y-45410822D01*
X7805000Y-45760000D01*
X7890636Y-46190519D01*
X8107778Y-46515495D01*
X8134505Y-46555495D01*
X12845000Y-51265990D01*
X12845000Y-57150000D01*
X12930636Y-57580519D01*
X13174505Y-57945495D01*
X14444505Y-59215495D01*
X14809481Y-59459364D01*
X15240000Y-59545000D01*
X16583046Y-59545000D01*
X16599115Y-59569049D01*
X16780131Y-59690000D01*
X16599115Y-59810951D01*
X16246860Y-60338139D01*
X16123164Y-60960000D01*
X16246860Y-61581861D01*
X16599115Y-62109049D01*
X17126303Y-62461304D01*
X17748164Y-62585000D01*
X17811836Y-62585000D01*
X18433697Y-62461304D01*
X18960885Y-62109049D01*
X19313140Y-61581861D01*
X19436836Y-60960000D01*
X19313140Y-60338139D01*
X18960885Y-59810951D01*
X18779869Y-59690000D01*
X18960885Y-59569049D01*
X19313140Y-59041861D01*
X19436836Y-58420000D01*
X19385158Y-58160200D01*
X19433059Y-58112299D01*
X19466410Y-58422454D01*
X20021378Y-58667556D01*
X20627897Y-58681624D01*
X21193632Y-58462516D01*
X21253590Y-58422454D01*
X21286941Y-58112297D01*
X20360000Y-57185355D01*
X20345858Y-57199498D01*
X20310502Y-57164142D01*
X20324645Y-57150000D01*
X20310502Y-57135858D01*
X20345858Y-57100502D01*
X20360000Y-57114645D01*
X21286941Y-56187703D01*
X21275422Y-56080583D01*
X21465647Y-56001789D01*
X21711789Y-55755648D01*
X21760972Y-55636910D01*
X21865314Y-55741434D01*
X21623482Y-55897049D01*
X21435110Y-56172741D01*
X21422733Y-56233859D01*
X21322297Y-56223059D01*
X20395355Y-57150000D01*
X21322297Y-58076941D01*
X21418991Y-58066544D01*
X21426364Y-58105727D01*
X21607049Y-58386518D01*
X21882741Y-58574890D01*
X22210000Y-58641162D01*
X23510000Y-58641162D01*
X23815727Y-58583636D01*
X24096518Y-58402951D01*
X24284890Y-58127259D01*
X24351162Y-57800000D01*
X24351162Y-56500000D01*
X24293636Y-56194273D01*
X24112951Y-55913482D01*
X23837259Y-55725110D01*
X23798577Y-55717277D01*
X24069715Y-55446611D01*
X24294743Y-54904683D01*
X24295256Y-54317892D01*
X24071173Y-53775571D01*
X23656611Y-53360285D01*
X23114683Y-53135257D01*
X22527892Y-53134744D01*
X21985571Y-53358827D01*
X21760956Y-53583051D01*
X21711789Y-53464352D01*
X21465647Y-53218211D01*
X21144048Y-53085000D01*
X20563750Y-53085000D01*
X20345000Y-53303750D01*
X20345000Y-54585000D01*
X20365000Y-54585000D01*
X20365000Y-54635000D01*
X20345000Y-54635000D01*
X20345000Y-54655000D01*
X20295000Y-54655000D01*
X20295000Y-54635000D01*
X20275000Y-54635000D01*
X20275000Y-54585000D01*
X20295000Y-54585000D01*
X20295000Y-53303750D01*
X20076250Y-53085000D01*
X19625990Y-53085000D01*
X19845495Y-52865495D01*
X20089364Y-52500519D01*
X20175000Y-52070000D01*
X20175000Y-49995990D01*
X21549669Y-48621321D01*
X33735194Y-48621321D01*
X34012371Y-49292140D01*
X34525160Y-49805826D01*
X35195494Y-50084173D01*
X35921321Y-50084806D01*
X36592140Y-49807629D01*
X37015508Y-49385000D01*
X40455069Y-49385000D01*
X40875160Y-49805826D01*
X41545494Y-50084173D01*
X42271321Y-50084806D01*
X42942140Y-49807629D01*
X43455826Y-49294840D01*
X43734173Y-48624506D01*
X43734806Y-47898679D01*
X43480044Y-47282108D01*
X45594744Y-47282108D01*
X45818827Y-47824429D01*
X46233389Y-48239715D01*
X46775317Y-48464743D01*
X47362108Y-48465256D01*
X47904429Y-48241173D01*
X48319715Y-47826611D01*
X48544743Y-47284683D01*
X48545256Y-46697892D01*
X48321173Y-46155571D01*
X47906611Y-45740285D01*
X47364683Y-45515257D01*
X46777892Y-45514744D01*
X46235571Y-45738827D01*
X45820285Y-46153389D01*
X45595257Y-46695317D01*
X45594744Y-47282108D01*
X43480044Y-47282108D01*
X43457629Y-47227860D01*
X42944840Y-46714174D01*
X42274506Y-46435827D01*
X41548679Y-46435194D01*
X40877860Y-46712371D01*
X40454492Y-47135000D01*
X37014931Y-47135000D01*
X36594840Y-46714174D01*
X35924506Y-46435827D01*
X35198679Y-46435194D01*
X34527860Y-46712371D01*
X34014174Y-47225160D01*
X33735827Y-47895494D01*
X33735194Y-48621321D01*
X21549669Y-48621321D01*
X22385495Y-47785495D01*
X22629364Y-47420519D01*
X22715000Y-46990000D01*
X22715000Y-39370000D01*
X22629364Y-38939481D01*
X22385495Y-38574505D01*
X19604287Y-35793297D01*
X19604806Y-35198679D01*
X19327629Y-34527860D01*
X18814840Y-34014174D01*
X18144506Y-33735827D01*
X17418679Y-33735194D01*
X16747860Y-34012371D01*
X16234174Y-34525160D01*
X15955827Y-35195494D01*
X15955194Y-35921321D01*
X16232371Y-36592140D01*
X16745160Y-37105826D01*
X17415494Y-37384173D01*
X18013705Y-37384695D01*
X20465000Y-39835990D01*
X20465000Y-46524010D01*
X18254505Y-48734505D01*
X18010636Y-49099481D01*
X17925000Y-49530000D01*
X17925000Y-51604010D01*
X17813649Y-51715361D01*
X17811836Y-51715000D01*
X17748164Y-51715000D01*
X17126303Y-51838696D01*
X16599115Y-52190951D01*
X16246860Y-52718139D01*
X16123164Y-53340000D01*
X16246860Y-53961861D01*
X16599115Y-54489049D01*
X16751497Y-54590867D01*
X16410352Y-54915794D01*
X16145625Y-55513331D01*
X16129718Y-55593309D01*
X16323965Y-55855000D01*
X17755000Y-55855000D01*
X17755000Y-55835000D01*
X17805000Y-55835000D01*
X17805000Y-55855000D01*
X17825000Y-55855000D01*
X17825000Y-55905000D01*
X17805000Y-55905000D01*
X17805000Y-55925000D01*
X17755000Y-55925000D01*
X17755000Y-55905000D01*
X16323965Y-55905000D01*
X16129718Y-56166691D01*
X16145625Y-56246669D01*
X16410352Y-56844206D01*
X16751497Y-57169133D01*
X16599115Y-57270951D01*
X16583046Y-57295000D01*
X15705990Y-57295000D01*
X15095000Y-56684010D01*
X15095000Y-50800000D01*
X15009364Y-50369481D01*
X14765495Y-50004505D01*
X10682384Y-45921394D01*
X10780000Y-45941162D01*
X12080000Y-45941162D01*
X12385727Y-45883636D01*
X12666518Y-45702951D01*
X12854890Y-45427259D01*
X12921162Y-45100000D01*
X12921162Y-43800000D01*
X12863636Y-43494273D01*
X12682951Y-43213482D01*
X12421734Y-43035000D01*
X16325069Y-43035000D01*
X16745160Y-43455826D01*
X17415494Y-43734173D01*
X18141321Y-43734806D01*
X18812140Y-43457629D01*
X19325826Y-42944840D01*
X19604173Y-42274506D01*
X19604806Y-41548679D01*
X19327629Y-40877860D01*
X18814840Y-40364174D01*
X18144506Y-40085827D01*
X17418679Y-40085194D01*
X16747860Y-40362371D01*
X16324492Y-40785000D01*
X6350000Y-40785000D01*
X5919481Y-40870636D01*
X5554505Y-41114505D01*
X5310636Y-41479481D01*
X5225000Y-41910000D01*
X5225000Y-49530000D01*
X5310636Y-49960519D01*
X5393259Y-50084173D01*
X5554505Y-50325495D01*
X8514089Y-53285079D01*
X8503164Y-53340000D01*
X8626860Y-53961861D01*
X8979115Y-54489049D01*
X9160131Y-54610000D01*
X8979115Y-54730951D01*
X8626860Y-55258139D01*
X8503164Y-55880000D01*
X8626860Y-56501861D01*
X8755752Y-56694762D01*
X7145495Y-55084505D01*
X6966643Y-54965000D01*
X6780519Y-54840636D01*
X6350000Y-54755000D01*
X5545990Y-54755000D01*
X4935000Y-54144010D01*
X4935000Y-37955000D01*
X12700000Y-37955000D01*
X13130519Y-37869364D01*
X13495495Y-37625495D01*
X13739364Y-37260519D01*
X13825000Y-36830000D01*
X13825000Y-23221321D01*
X15955194Y-23221321D01*
X16232371Y-23892140D01*
X16745160Y-24405826D01*
X17415494Y-24684173D01*
X18141321Y-24684806D01*
X18812140Y-24407629D01*
X19325826Y-23894840D01*
X19604173Y-23224506D01*
X19604806Y-22498679D01*
X19327629Y-21827860D01*
X18814840Y-21314174D01*
X18144506Y-21035827D01*
X17418679Y-21035194D01*
X16747860Y-21312371D01*
X16234174Y-21825160D01*
X15955827Y-22495494D01*
X15955194Y-23221321D01*
X13825000Y-23221321D01*
X13825000Y-17635000D01*
X16325069Y-17635000D01*
X16745160Y-18055826D01*
X17415494Y-18334173D01*
X18141321Y-18334806D01*
X18812140Y-18057629D01*
X19325826Y-17544840D01*
X19604173Y-16874506D01*
X19604806Y-16148679D01*
X19327629Y-15477860D01*
X18814840Y-14964174D01*
X18144506Y-14685827D01*
X17418679Y-14685194D01*
X16747860Y-14962371D01*
X16324492Y-15385000D01*
X8944711Y-15385000D01*
X8872951Y-15273482D01*
X8597259Y-15085110D01*
X8270000Y-15018838D01*
X6970000Y-15018838D01*
X6664273Y-15076364D01*
X6383482Y-15257049D01*
X6205000Y-15518266D01*
X6205000Y-11895990D01*
X8472882Y-9628108D01*
X8777512Y-10084021D01*
X9325334Y-10450063D01*
X9971533Y-10578600D01*
X10348467Y-10578600D01*
X10994666Y-10450063D01*
X11542488Y-10084021D01*
X11908530Y-9536199D01*
X12037067Y-8890000D01*
X11908530Y-8243801D01*
X11542488Y-7695979D01*
X11428777Y-7620000D01*
X11542488Y-7544021D01*
X11908530Y-6996199D01*
X12037067Y-6350000D01*
X11908530Y-5703801D01*
X11664986Y-5339311D01*
X11762518Y-5276551D01*
X11950890Y-5000859D01*
X11964227Y-4935000D01*
X16325069Y-4935000D01*
X16745160Y-5355826D01*
X17415494Y-5634173D01*
X18141321Y-5634806D01*
X18812140Y-5357629D01*
X19325826Y-4844840D01*
X19604173Y-4174506D01*
X19604806Y-3448679D01*
X19327629Y-2777860D01*
X18814840Y-2264174D01*
X18144506Y-1985827D01*
X17418679Y-1985194D01*
X16747860Y-2262371D01*
X16324492Y-2685000D01*
X11967977Y-2685000D01*
X11959636Y-2640673D01*
X11778951Y-2359882D01*
X11503259Y-2171510D01*
X11176000Y-2105238D01*
X9144000Y-2105238D01*
X8838273Y-2162764D01*
X8557482Y-2343449D01*
X8369110Y-2619141D01*
X8302838Y-2946400D01*
X8302838Y-4673600D01*
X8360364Y-4979327D01*
X8541049Y-5260118D01*
X8655621Y-5338402D01*
X8411470Y-5703801D01*
X8282933Y-6350000D01*
X8330396Y-6588614D01*
X4284505Y-10634505D01*
X4040636Y-10999481D01*
X3955000Y-11430000D01*
X3955000Y-31670000D01*
X4040636Y-32100519D01*
X4123481Y-32224505D01*
X4284505Y-32465495D01*
X6144898Y-34325888D01*
X6144744Y-34502108D01*
X6368827Y-35044429D01*
X6783389Y-35459715D01*
X7325317Y-35684743D01*
X7912108Y-35685256D01*
X8454429Y-35461173D01*
X8869715Y-35046611D01*
X9094743Y-34504683D01*
X9095256Y-33917892D01*
X8871173Y-33375571D01*
X8456611Y-32960285D01*
X7914683Y-32735257D01*
X7736091Y-32735101D01*
X6205000Y-31204010D01*
X6205000Y-30194688D01*
X6367049Y-30446518D01*
X6642741Y-30634890D01*
X6970000Y-30701162D01*
X8270000Y-30701162D01*
X8575727Y-30643636D01*
X8856518Y-30462951D01*
X9044890Y-30187259D01*
X9111162Y-29860000D01*
X9111162Y-28560000D01*
X9053636Y-28254273D01*
X8872951Y-27973482D01*
X8597259Y-27785110D01*
X8270000Y-27718838D01*
X6970000Y-27718838D01*
X6664273Y-27776364D01*
X6383482Y-27957049D01*
X6205000Y-28218266D01*
X6205000Y-21947938D01*
X6368827Y-22344429D01*
X6783389Y-22759715D01*
X7325317Y-22984743D01*
X7912108Y-22985256D01*
X8454429Y-22761173D01*
X8869715Y-22346611D01*
X9094743Y-21804683D01*
X9095256Y-21217892D01*
X8871173Y-20675571D01*
X8456611Y-20260285D01*
X7914683Y-20035257D01*
X7327892Y-20034744D01*
X6785571Y-20258827D01*
X6370285Y-20673389D01*
X6205000Y-21071440D01*
X6205000Y-17494688D01*
X6367049Y-17746518D01*
X6642741Y-17934890D01*
X6970000Y-18001162D01*
X8270000Y-18001162D01*
X8575727Y-17943636D01*
X8856518Y-17762951D01*
X8943943Y-17635000D01*
X11575000Y-17635000D01*
X11575000Y-35705000D01*
X3810000Y-35705000D01*
X3379481Y-35790636D01*
X3014505Y-36034505D01*
X2770636Y-36399481D01*
X2685000Y-36830000D01*
X1545000Y-36830000D01*
X1545000Y-6601274D01*
X1782281Y-6838970D01*
X3095769Y-7384378D01*
X4517992Y-7385619D01*
X5832429Y-6842504D01*
X6838970Y-5837719D01*
X7384378Y-4524231D01*
X7385619Y-3102008D01*
X6842504Y-1787571D01*
X6600356Y-1545000D01*
X27443086Y-1545000D01*
X27144505Y-1744505D01*
X27144505Y-1744505D01*
G37*
X27144505Y-1744505D02*
X26900636Y-2109481D01*
X26860899Y-2309250D01*
X26394174Y-2775160D01*
X26115827Y-3445494D01*
X26115194Y-4171321D01*
X26392371Y-4842140D01*
X26489536Y-4939474D01*
X22394010Y-9035000D01*
X19234931Y-9035000D01*
X18814840Y-8614174D01*
X18144506Y-8335827D01*
X17418679Y-8335194D01*
X16747860Y-8612371D01*
X16234174Y-9125160D01*
X15955827Y-9795494D01*
X15955194Y-10521321D01*
X16232371Y-11192140D01*
X16745160Y-11705826D01*
X17415494Y-11984173D01*
X18141321Y-11984806D01*
X18812140Y-11707629D01*
X19235508Y-11285000D01*
X22860000Y-11285000D01*
X23290519Y-11199364D01*
X23655495Y-10955495D01*
X28735495Y-5875495D01*
X28789150Y-5795194D01*
X28979364Y-5510519D01*
X29019101Y-5310750D01*
X29485826Y-4844840D01*
X29764173Y-4174506D01*
X29764617Y-3665000D01*
X35202062Y-3665000D01*
X34805571Y-3828827D01*
X34390285Y-4243389D01*
X34165257Y-4785317D01*
X34164744Y-5372108D01*
X34388827Y-5914429D01*
X34803389Y-6329715D01*
X35345317Y-6554743D01*
X35932108Y-6555256D01*
X36474429Y-6331173D01*
X36889715Y-5916611D01*
X37114743Y-5374683D01*
X37115256Y-4787892D01*
X36891173Y-4245571D01*
X36476611Y-3830285D01*
X36078560Y-3665000D01*
X38904010Y-3665000D01*
X39266516Y-4027506D01*
X39215110Y-4102741D01*
X39148838Y-4430000D01*
X39148838Y-5730000D01*
X39206364Y-6035727D01*
X39387049Y-6316518D01*
X39515000Y-6403943D01*
X39515000Y-12645289D01*
X39403482Y-12717049D01*
X39215110Y-12992741D01*
X39148838Y-13320000D01*
X39148838Y-14620000D01*
X39206364Y-14925727D01*
X39387049Y-15206518D01*
X39662741Y-15394890D01*
X39990000Y-15461162D01*
X41290000Y-15461162D01*
X41595727Y-15403636D01*
X41876518Y-15222951D01*
X41963943Y-15095000D01*
X43984010Y-15095000D01*
X45344089Y-16455079D01*
X45333164Y-16510000D01*
X45456860Y-17131861D01*
X45809115Y-17659049D01*
X45990131Y-17780000D01*
X45809115Y-17900951D01*
X45793046Y-17925000D01*
X34755990Y-17925000D01*
X34145000Y-17314010D01*
X34145000Y-15095000D01*
X34678891Y-15095000D01*
X34803389Y-15219715D01*
X35345317Y-15444743D01*
X35932108Y-15445256D01*
X36474429Y-15221173D01*
X36889715Y-14806611D01*
X37114743Y-14264683D01*
X37115256Y-13677892D01*
X36891173Y-13135571D01*
X36476611Y-12720285D01*
X35934683Y-12495257D01*
X35347892Y-12494744D01*
X34805571Y-12718827D01*
X34679178Y-12845000D01*
X33485990Y-12845000D01*
X30005495Y-9364505D01*
X29939665Y-9320519D01*
X29640519Y-9120636D01*
X29440750Y-9080899D01*
X28974840Y-8614174D01*
X28304506Y-8335827D01*
X27578679Y-8335194D01*
X26907860Y-8612371D01*
X26394174Y-9125160D01*
X26115827Y-9795494D01*
X26115194Y-10521321D01*
X26392371Y-11192140D01*
X26905160Y-11705826D01*
X27575494Y-11984173D01*
X28301321Y-11984806D01*
X28972140Y-11707629D01*
X29069474Y-11610464D01*
X31895000Y-14435990D01*
X31895000Y-18874010D01*
X31275495Y-18254505D01*
X31096643Y-18135000D01*
X30910519Y-18010636D01*
X30480000Y-17925000D01*
X29105001Y-17925000D01*
X29485826Y-17544840D01*
X29764173Y-16874506D01*
X29764806Y-16148679D01*
X29487629Y-15477860D01*
X28974840Y-14964174D01*
X28304506Y-14685827D01*
X27578679Y-14685194D01*
X26907860Y-14962371D01*
X26394174Y-15475160D01*
X26115827Y-16145494D01*
X26115194Y-16871321D01*
X26392371Y-17542140D01*
X26815000Y-17965508D01*
X26815000Y-21405069D01*
X26394174Y-21825160D01*
X26115827Y-22495494D01*
X26115194Y-23221321D01*
X26392371Y-23892140D01*
X26905160Y-24405826D01*
X27575494Y-24684173D01*
X28301321Y-24684806D01*
X28972140Y-24407629D01*
X29485826Y-23894840D01*
X29764173Y-23224506D01*
X29764806Y-22498679D01*
X29487629Y-21827860D01*
X29065000Y-21404492D01*
X29065000Y-20175000D01*
X30014010Y-20175000D01*
X30703715Y-20864705D01*
X30753302Y-20984715D01*
X31083547Y-21315536D01*
X31515253Y-21494796D01*
X31895000Y-21495127D01*
X31895000Y-25495126D01*
X31517303Y-25494796D01*
X31395800Y-25545000D01*
X19050000Y-25545000D01*
X18619481Y-25630636D01*
X18254505Y-25874505D01*
X16984505Y-27144505D01*
X16740636Y-27509481D01*
X16700899Y-27709250D01*
X16234174Y-28175160D01*
X15955827Y-28845494D01*
X15955194Y-29571321D01*
X16232371Y-30242140D01*
X16745160Y-30755826D01*
X17415494Y-31034173D01*
X18141321Y-31034806D01*
X18812140Y-30757629D01*
X19325826Y-30244840D01*
X19604173Y-29574506D01*
X19604806Y-28848679D01*
X19327629Y-28177860D01*
X19230464Y-28080526D01*
X19515990Y-27795000D01*
X26774999Y-27795000D01*
X26394174Y-28175160D01*
X26115827Y-28845494D01*
X26115194Y-29571321D01*
X26392371Y-30242140D01*
X26905160Y-30755826D01*
X27575494Y-31034173D01*
X28301321Y-31034806D01*
X28972140Y-30757629D01*
X29485826Y-30244840D01*
X29764173Y-29574506D01*
X29764806Y-28848679D01*
X29487629Y-28177860D01*
X29105438Y-27795000D01*
X31395331Y-27795000D01*
X31515253Y-27844796D01*
X31895000Y-27845127D01*
X31895000Y-33824010D01*
X31284010Y-34435000D01*
X29394931Y-34435000D01*
X28974840Y-34014174D01*
X28304506Y-33735827D01*
X27578679Y-33735194D01*
X26907860Y-34012371D01*
X26394174Y-34525160D01*
X26115827Y-35195494D01*
X26115194Y-35921321D01*
X26392371Y-36592140D01*
X26815000Y-37015508D01*
X26815000Y-40455069D01*
X26394174Y-40875160D01*
X26115827Y-41545494D01*
X26115194Y-42271321D01*
X26392371Y-42942140D01*
X26905160Y-43455826D01*
X27575494Y-43734173D01*
X28301321Y-43734806D01*
X28972140Y-43457629D01*
X29485826Y-42944840D01*
X29764173Y-42274506D01*
X29764806Y-41548679D01*
X29487629Y-40877860D01*
X29065000Y-40454492D01*
X29065000Y-37014931D01*
X29395508Y-36685000D01*
X31750000Y-36685000D01*
X32180519Y-36599364D01*
X32545495Y-36355495D01*
X33815495Y-35085495D01*
X34059364Y-34720519D01*
X34145000Y-34290000D01*
X34145000Y-32091131D01*
X34348827Y-32584429D01*
X34475000Y-32710822D01*
X34475000Y-36605139D01*
X34014174Y-37065160D01*
X33735827Y-37735494D01*
X33735194Y-38461321D01*
X34012371Y-39132140D01*
X34525160Y-39645826D01*
X35195494Y-39924173D01*
X35921321Y-39924806D01*
X36592140Y-39647629D01*
X37105826Y-39134840D01*
X37384173Y-38464506D01*
X37384175Y-38461321D01*
X40085194Y-38461321D01*
X40362371Y-39132140D01*
X40875160Y-39645826D01*
X41545494Y-39924173D01*
X42271321Y-39924806D01*
X42942140Y-39647629D01*
X43455826Y-39134840D01*
X43734173Y-38464506D01*
X43734806Y-37738679D01*
X43457629Y-37067860D01*
X42944840Y-36554174D01*
X42274506Y-36275827D01*
X41548679Y-36275194D01*
X40877860Y-36552371D01*
X40364174Y-37065160D01*
X40085827Y-37735494D01*
X40085194Y-38461321D01*
X37384175Y-38461321D01*
X37384806Y-37738679D01*
X37107629Y-37067860D01*
X36725000Y-36684562D01*
X36725000Y-32796849D01*
X36847049Y-32986518D01*
X36987418Y-33082428D01*
X37060636Y-33450519D01*
X37217121Y-33684715D01*
X37304505Y-33815495D01*
X38574505Y-35085495D01*
X38939481Y-35329364D01*
X39370000Y-35415000D01*
X45254010Y-35415000D01*
X46194505Y-36355495D01*
X46559481Y-36599364D01*
X46990000Y-36685000D01*
X47159460Y-36685000D01*
X46501030Y-37342281D01*
X45955622Y-38655769D01*
X45954381Y-40077992D01*
X46497496Y-41392429D01*
X47502281Y-42398970D01*
X48815769Y-42944378D01*
X50237992Y-42945619D01*
X51552429Y-42402504D01*
X52558970Y-41397719D01*
X53104378Y-40084231D01*
X53105619Y-38662008D01*
X52562504Y-37347571D01*
X51901089Y-36685000D01*
X55975126Y-36685000D01*
X55974796Y-37062697D01*
X56025000Y-37184200D01*
X56025000Y-38045289D01*
X55913482Y-38117049D01*
X55725110Y-38392741D01*
X55658838Y-38720000D01*
X55658838Y-40020000D01*
X55716364Y-40325727D01*
X55897049Y-40606518D01*
X56025000Y-40693943D01*
X56025000Y-45665289D01*
X55913482Y-45737049D01*
X55725110Y-46012741D01*
X55658838Y-46340000D01*
X55658838Y-47640000D01*
X55716364Y-47945727D01*
X55897049Y-48226518D01*
X56172741Y-48414890D01*
X56500000Y-48481162D01*
X57800000Y-48481162D01*
X58105727Y-48423636D01*
X58386518Y-48242951D01*
X58574890Y-47967259D01*
X58641162Y-47640000D01*
X58641162Y-47282108D01*
X60674744Y-47282108D01*
X60898827Y-47824429D01*
X61313389Y-48239715D01*
X61855317Y-48464743D01*
X62442108Y-48465256D01*
X62984429Y-48241173D01*
X63399715Y-47826611D01*
X63624743Y-47284683D01*
X63625256Y-46697892D01*
X63401173Y-46155571D01*
X63275000Y-46029178D01*
X63275000Y-43725990D01*
X67854705Y-39146285D01*
X67974715Y-39096698D01*
X68305536Y-38766453D01*
X68484796Y-38334747D01*
X68485204Y-37867303D01*
X68306698Y-37435285D01*
X67976453Y-37104464D01*
X67544747Y-36925204D01*
X67077303Y-36924796D01*
X66645285Y-37103302D01*
X66314464Y-37433547D01*
X66264048Y-37554962D01*
X61354505Y-42464505D01*
X61110636Y-42829481D01*
X61025000Y-43260000D01*
X61025000Y-46028891D01*
X60900285Y-46153389D01*
X60675257Y-46695317D01*
X60674744Y-47282108D01*
X58641162Y-47282108D01*
X58641162Y-46340000D01*
X58583636Y-46034273D01*
X58402951Y-45753482D01*
X58275000Y-45666057D01*
X58275000Y-40694711D01*
X58386518Y-40622951D01*
X58561285Y-40367171D01*
X58813389Y-40619715D01*
X59355317Y-40844743D01*
X59942108Y-40845256D01*
X60484429Y-40621173D01*
X60899715Y-40206611D01*
X61124743Y-39664683D01*
X61125256Y-39077892D01*
X60901173Y-38535571D01*
X60486611Y-38120285D01*
X59944683Y-37895257D01*
X59357892Y-37894744D01*
X58815571Y-38118827D01*
X58558594Y-38375356D01*
X58402951Y-38133482D01*
X58275000Y-38046057D01*
X58275000Y-37184669D01*
X58324796Y-37064747D01*
X58325127Y-36685000D01*
X64770000Y-36685000D01*
X65200519Y-36599364D01*
X65565495Y-36355495D01*
X67076703Y-34844287D01*
X67671321Y-34844806D01*
X68342140Y-34567629D01*
X68725000Y-34185438D01*
X68725000Y-43284999D01*
X68344840Y-42904174D01*
X67674506Y-42625827D01*
X66948679Y-42625194D01*
X66277860Y-42902371D01*
X65764174Y-43415160D01*
X65485827Y-44085494D01*
X65485194Y-44811321D01*
X65762371Y-45482140D01*
X66275160Y-45995826D01*
X66945494Y-46274173D01*
X67671321Y-46274806D01*
X68342140Y-45997629D01*
X68725000Y-45615438D01*
X68725000Y-49675000D01*
X55075990Y-49675000D01*
X53443484Y-48042494D01*
X53494890Y-47967259D01*
X53561162Y-47640000D01*
X53561162Y-46340000D01*
X53503636Y-46034273D01*
X53322951Y-45753482D01*
X53047259Y-45565110D01*
X52720000Y-45498838D01*
X51420000Y-45498838D01*
X51114273Y-45556364D01*
X50833482Y-45737049D01*
X50645110Y-46012741D01*
X50578838Y-46340000D01*
X50578838Y-47640000D01*
X50636364Y-47945727D01*
X50817049Y-48226518D01*
X50957418Y-48322428D01*
X51030636Y-48690519D01*
X51243665Y-49009340D01*
X51274505Y-49055495D01*
X53164010Y-50945000D01*
X35560000Y-50945000D01*
X35129481Y-51030636D01*
X34764505Y-51274505D01*
X34520636Y-51639481D01*
X34435000Y-52070000D01*
X34435000Y-56808869D01*
X34231173Y-56315571D01*
X34105000Y-56189178D01*
X34105000Y-53791000D01*
X34194796Y-53574747D01*
X34195204Y-53107303D01*
X34016698Y-52675285D01*
X33686453Y-52344464D01*
X33254747Y-52165204D01*
X32787303Y-52164796D01*
X32355285Y-52343302D01*
X32024464Y-52673547D01*
X31845204Y-53105253D01*
X31844796Y-53572697D01*
X31855000Y-53597393D01*
X31855000Y-56103151D01*
X31732951Y-55913482D01*
X31457259Y-55725110D01*
X31130000Y-55658838D01*
X29830000Y-55658838D01*
X29524273Y-55716364D01*
X29243482Y-55897049D01*
X29055110Y-56172741D01*
X28988838Y-56500000D01*
X28988838Y-57800000D01*
X29046364Y-58105727D01*
X29227049Y-58386518D01*
X29355000Y-58473943D01*
X29355000Y-78555069D01*
X28934174Y-78975160D01*
X28655827Y-79645494D01*
X28655194Y-80371321D01*
X28932371Y-81042140D01*
X29445160Y-81555826D01*
X30115494Y-81834173D01*
X30841321Y-81834806D01*
X31512140Y-81557629D01*
X32025826Y-81044840D01*
X32304173Y-80374506D01*
X32304806Y-79648679D01*
X32027629Y-78977860D01*
X31605000Y-78554492D01*
X31605000Y-58474711D01*
X31716518Y-58402951D01*
X31891285Y-58147171D01*
X32143389Y-58399715D01*
X32685317Y-58624743D01*
X33272108Y-58625256D01*
X33814429Y-58401173D01*
X34229715Y-57986611D01*
X34435000Y-57492229D01*
X34435000Y-59224010D01*
X32224505Y-61434505D01*
X31980636Y-61799481D01*
X31895000Y-62230000D01*
X31895000Y-71120000D01*
X31980636Y-71550519D01*
X32094225Y-71720517D01*
X32224505Y-71915495D01*
X33494505Y-73185495D01*
X33859481Y-73429364D01*
X34290000Y-73515000D01*
X39841330Y-73515000D01*
X39490951Y-73749115D01*
X39453610Y-73805000D01*
X38100000Y-73805000D01*
X37669481Y-73890636D01*
X37304505Y-74134505D01*
X36364010Y-75075000D01*
X33374669Y-75075000D01*
X33254747Y-75025204D01*
X32787303Y-75024796D01*
X32355285Y-75203302D01*
X32024464Y-75533547D01*
X31845204Y-75965253D01*
X31844796Y-76432697D01*
X32023302Y-76864715D01*
X32353547Y-77195536D01*
X32785253Y-77374796D01*
X33252697Y-77375204D01*
X33374200Y-77325000D01*
X36830000Y-77325000D01*
X37260519Y-77239364D01*
X37625495Y-76995495D01*
X38565990Y-76055000D01*
X39453610Y-76055000D01*
X39490951Y-76110885D01*
X40018139Y-76463140D01*
X40640000Y-76586836D01*
X41261861Y-76463140D01*
X41789049Y-76110885D01*
X41910000Y-75929869D01*
X42006273Y-76073952D01*
X41985979Y-76087512D01*
X41619937Y-76635334D01*
X41491400Y-77281533D01*
X41491400Y-77658467D01*
X41619937Y-78304666D01*
X41831126Y-78620733D01*
X41674840Y-78464174D01*
X41004506Y-78185827D01*
X40278679Y-78185194D01*
X39607860Y-78462371D01*
X39094174Y-78975160D01*
X38815827Y-79645494D01*
X38815194Y-80371321D01*
X39092371Y-81042140D01*
X39605160Y-81555826D01*
X40275494Y-81834173D01*
X41001321Y-81834806D01*
X41672140Y-81557629D01*
X41926597Y-81303616D01*
X41985979Y-81392488D01*
X42533801Y-81758530D01*
X43180000Y-81887067D01*
X43826199Y-81758530D01*
X44374021Y-81392488D01*
X44450000Y-81278777D01*
X44525979Y-81392488D01*
X45073801Y-81758530D01*
X45720000Y-81887067D01*
X46366199Y-81758530D01*
X46914021Y-81392488D01*
X46990000Y-81278777D01*
X47065979Y-81392488D01*
X47613801Y-81758530D01*
X48260000Y-81887067D01*
X48906199Y-81758530D01*
X49454021Y-81392488D01*
X49530000Y-81278777D01*
X49605979Y-81392488D01*
X50153801Y-81758530D01*
X50800000Y-81887067D01*
X51446199Y-81758530D01*
X51994021Y-81392488D01*
X52070000Y-81278777D01*
X52145979Y-81392488D01*
X52693801Y-81758530D01*
X53340000Y-81887067D01*
X53986199Y-81758530D01*
X54534021Y-81392488D01*
X54610000Y-81278777D01*
X54685979Y-81392488D01*
X55233801Y-81758530D01*
X55880000Y-81887067D01*
X56526199Y-81758530D01*
X56890689Y-81514986D01*
X56953449Y-81612518D01*
X57229141Y-81800890D01*
X57556400Y-81867162D01*
X59283600Y-81867162D01*
X59589327Y-81809636D01*
X59870118Y-81628951D01*
X60058490Y-81353259D01*
X60124762Y-81026000D01*
X60124762Y-78994000D01*
X60075214Y-78730673D01*
X60124762Y-78486000D01*
X60124762Y-76454000D01*
X60067236Y-76148273D01*
X59886551Y-75867482D01*
X59780227Y-75794834D01*
X59921304Y-75583697D01*
X60045000Y-74961836D01*
X60045000Y-74898164D01*
X59921304Y-74276303D01*
X59569049Y-73749115D01*
X59041861Y-73396860D01*
X58420000Y-73273164D01*
X57798139Y-73396860D01*
X57270951Y-73749115D01*
X57150000Y-73930131D01*
X57029049Y-73749115D01*
X56501861Y-73396860D01*
X55880000Y-73273164D01*
X55258139Y-73396860D01*
X54730951Y-73749115D01*
X54610000Y-73930131D01*
X54489049Y-73749115D01*
X53961861Y-73396860D01*
X53340000Y-73273164D01*
X52718139Y-73396860D01*
X52190951Y-73749115D01*
X52070000Y-73930131D01*
X51949049Y-73749115D01*
X51421861Y-73396860D01*
X50800000Y-73273164D01*
X50178139Y-73396860D01*
X49650951Y-73749115D01*
X49530000Y-73930131D01*
X49409049Y-73749115D01*
X49058670Y-73515000D01*
X49530000Y-73515000D01*
X49960519Y-73429364D01*
X50325495Y-73185495D01*
X51595495Y-71915495D01*
X51839364Y-71550519D01*
X51925000Y-71120000D01*
X51925000Y-68506954D01*
X51949049Y-68490885D01*
X52070000Y-68309869D01*
X52190951Y-68490885D01*
X52718139Y-68843140D01*
X53340000Y-68966836D01*
X53961861Y-68843140D01*
X54489049Y-68490885D01*
X54610000Y-68309869D01*
X54730951Y-68490885D01*
X55258139Y-68843140D01*
X55880000Y-68966836D01*
X56501861Y-68843140D01*
X57029049Y-68490885D01*
X57150000Y-68309869D01*
X57270951Y-68490885D01*
X57798139Y-68843140D01*
X58420000Y-68966836D01*
X59041861Y-68843140D01*
X59569049Y-68490885D01*
X59921304Y-67963697D01*
X60045000Y-67341836D01*
X60045000Y-67278164D01*
X59921304Y-66656303D01*
X59569049Y-66129115D01*
X59041861Y-65776860D01*
X58420000Y-65653164D01*
X57798139Y-65776860D01*
X57270951Y-66129115D01*
X57150000Y-66310131D01*
X57029049Y-66129115D01*
X57005000Y-66113046D01*
X57005000Y-59848606D01*
X57074021Y-59802488D01*
X57150000Y-59688777D01*
X57225979Y-59802488D01*
X57773801Y-60168530D01*
X58420000Y-60297067D01*
X59066199Y-60168530D01*
X59614021Y-59802488D01*
X59690000Y-59688777D01*
X59765979Y-59802488D01*
X60313801Y-60168530D01*
X60960000Y-60297067D01*
X61606199Y-60168530D01*
X62154021Y-59802488D01*
X62230000Y-59688777D01*
X62305979Y-59802488D01*
X62853801Y-60168530D01*
X63500000Y-60297067D01*
X64146199Y-60168530D01*
X64694021Y-59802488D01*
X64770000Y-59688777D01*
X64845979Y-59802488D01*
X65393801Y-60168530D01*
X66040000Y-60297067D01*
X66686199Y-60168530D01*
X67234021Y-59802488D01*
X67310000Y-59688777D01*
X67385979Y-59802488D01*
X67933801Y-60168530D01*
X68580000Y-60297067D01*
X69226199Y-60168530D01*
X69774021Y-59802488D01*
X69850000Y-59688777D01*
X69925979Y-59802488D01*
X69995000Y-59848606D01*
X69995000Y-60494010D01*
X66844010Y-63645000D01*
X64770000Y-63645000D01*
X64339481Y-63730636D01*
X63974505Y-63974505D01*
X61434505Y-66514505D01*
X61190636Y-66879481D01*
X61105000Y-67310000D01*
X61105000Y-83965000D01*
X29675990Y-83965000D01*
X23985000Y-78274010D01*
X23985000Y-68764931D01*
X24405826Y-68344840D01*
X24684173Y-67674506D01*
X24684806Y-66948679D01*
X24407629Y-66277860D01*
X23894840Y-65764174D01*
X23224506Y-65485827D01*
X22498679Y-65485194D01*
X21827860Y-65762371D01*
X21314174Y-66275160D01*
X21035827Y-66945494D01*
X21035194Y-67671321D01*
X21312371Y-68342140D01*
X21735000Y-68765508D01*
X21735000Y-78740000D01*
X21820636Y-79170519D01*
X22064505Y-79535495D01*
X27764010Y-85235000D01*
X23325990Y-85235000D01*
X20874797Y-82783807D01*
X20875316Y-82188578D01*
X20598062Y-81517571D01*
X20085129Y-81003742D01*
X19414608Y-80725317D01*
X18688578Y-80724684D01*
X18017571Y-81001938D01*
X17503742Y-81514871D01*
X17225317Y-82185392D01*
X17224684Y-82911422D01*
X17501938Y-83582429D01*
X18014871Y-84096258D01*
X18685392Y-84374683D01*
X19284215Y-84375205D01*
X22064505Y-87155495D01*
X22429481Y-87399364D01*
X22860000Y-87485000D01*
X75734010Y-87485000D01*
X77615000Y-89365990D01*
X77615000Y-90011394D01*
X77545979Y-90057512D01*
X77470000Y-90171223D01*
X77394021Y-90057512D01*
X76846199Y-89691470D01*
X76200000Y-89562933D01*
X75553801Y-89691470D01*
X75005979Y-90057512D01*
X74930000Y-90171223D01*
X74854021Y-90057512D01*
X74306199Y-89691470D01*
X73660000Y-89562933D01*
X73013801Y-89691470D01*
X72465979Y-90057512D01*
X72390000Y-90171223D01*
X72314021Y-90057512D01*
X71766199Y-89691470D01*
X71120000Y-89562933D01*
X70473801Y-89691470D01*
X69925979Y-90057512D01*
X69850000Y-90171223D01*
X69774021Y-90057512D01*
X69226199Y-89691470D01*
X68580000Y-89562933D01*
X67933801Y-89691470D01*
X67385979Y-90057512D01*
X67310000Y-90171223D01*
X67234021Y-90057512D01*
X66686199Y-89691470D01*
X66040000Y-89562933D01*
X65393801Y-89691470D01*
X64845979Y-90057512D01*
X64770000Y-90171223D01*
X64694021Y-90057512D01*
X64146199Y-89691470D01*
X63500000Y-89562933D01*
X62853801Y-89691470D01*
X62305979Y-90057512D01*
X62230000Y-90171223D01*
X62154021Y-90057512D01*
X61606199Y-89691470D01*
X60960000Y-89562933D01*
X60313801Y-89691470D01*
X59765979Y-90057512D01*
X59690000Y-90171223D01*
X59614021Y-90057512D01*
X59066199Y-89691470D01*
X58420000Y-89562933D01*
X57773801Y-89691470D01*
X57225979Y-90057512D01*
X57150000Y-90171223D01*
X57074021Y-90057512D01*
X56526199Y-89691470D01*
X55880000Y-89562933D01*
X55233801Y-89691470D01*
X54685979Y-90057512D01*
X54610000Y-90171223D01*
X54534021Y-90057512D01*
X53986199Y-89691470D01*
X53340000Y-89562933D01*
X52693801Y-89691470D01*
X52145979Y-90057512D01*
X52070000Y-90171223D01*
X51994021Y-90057512D01*
X51446199Y-89691470D01*
X50800000Y-89562933D01*
X50153801Y-89691470D01*
X49605979Y-90057512D01*
X49530000Y-90171223D01*
X49454021Y-90057512D01*
X48906199Y-89691470D01*
X48260000Y-89562933D01*
X47613801Y-89691470D01*
X47065979Y-90057512D01*
X46990000Y-90171223D01*
X46914021Y-90057512D01*
X46366199Y-89691470D01*
X45720000Y-89562933D01*
X45073801Y-89691470D01*
X44525979Y-90057512D01*
X44450000Y-90171223D01*
X44374021Y-90057512D01*
X43826199Y-89691470D01*
X43180000Y-89562933D01*
X42533801Y-89691470D01*
X41985979Y-90057512D01*
X41910000Y-90171223D01*
X41834021Y-90057512D01*
X41286199Y-89691470D01*
X40640000Y-89562933D01*
X39993801Y-89691470D01*
X39445979Y-90057512D01*
X39079937Y-90605334D01*
X38951400Y-91251533D01*
X38951400Y-91628467D01*
X39079937Y-92274666D01*
X39370817Y-92710000D01*
X39079937Y-93145334D01*
X38951400Y-93791533D01*
X38951400Y-94168467D01*
X39079937Y-94814666D01*
X39445979Y-95362488D01*
X39993801Y-95728530D01*
X40640000Y-95857067D01*
X41286199Y-95728530D01*
X41834021Y-95362488D01*
X41910000Y-95248777D01*
X41985979Y-95362488D01*
X42533801Y-95728530D01*
X43180000Y-95857067D01*
X43826199Y-95728530D01*
X44374021Y-95362488D01*
X44450000Y-95248777D01*
X44525979Y-95362488D01*
X45073801Y-95728530D01*
X45720000Y-95857067D01*
X46366199Y-95728530D01*
X46914021Y-95362488D01*
X46990000Y-95248777D01*
X47065979Y-95362488D01*
X47613801Y-95728530D01*
X48260000Y-95857067D01*
X48906199Y-95728530D01*
X49454021Y-95362488D01*
X49530000Y-95248777D01*
X49605979Y-95362488D01*
X50153801Y-95728530D01*
X50800000Y-95857067D01*
X51446199Y-95728530D01*
X51994021Y-95362488D01*
X52070000Y-95248777D01*
X52145979Y-95362488D01*
X52693801Y-95728530D01*
X53340000Y-95857067D01*
X53986199Y-95728530D01*
X54534021Y-95362488D01*
X54610000Y-95248777D01*
X54685979Y-95362488D01*
X55233801Y-95728530D01*
X55880000Y-95857067D01*
X56526199Y-95728530D01*
X57074021Y-95362488D01*
X57150000Y-95248777D01*
X57225979Y-95362488D01*
X57773801Y-95728530D01*
X58420000Y-95857067D01*
X59066199Y-95728530D01*
X59614021Y-95362488D01*
X59690000Y-95248777D01*
X59765979Y-95362488D01*
X60313801Y-95728530D01*
X60960000Y-95857067D01*
X61606199Y-95728530D01*
X62154021Y-95362488D01*
X62230000Y-95248777D01*
X62305979Y-95362488D01*
X62853801Y-95728530D01*
X63500000Y-95857067D01*
X64146199Y-95728530D01*
X64694021Y-95362488D01*
X64770000Y-95248777D01*
X64845979Y-95362488D01*
X65393801Y-95728530D01*
X66040000Y-95857067D01*
X66686199Y-95728530D01*
X67234021Y-95362488D01*
X67310000Y-95248777D01*
X67385979Y-95362488D01*
X67933801Y-95728530D01*
X68580000Y-95857067D01*
X69226199Y-95728530D01*
X69774021Y-95362488D01*
X69850000Y-95248777D01*
X69925979Y-95362488D01*
X70473801Y-95728530D01*
X71120000Y-95857067D01*
X71766199Y-95728530D01*
X72314021Y-95362488D01*
X72390000Y-95248777D01*
X72465979Y-95362488D01*
X73013801Y-95728530D01*
X73660000Y-95857067D01*
X74306199Y-95728530D01*
X74854021Y-95362488D01*
X74930000Y-95248777D01*
X75005979Y-95362488D01*
X75553801Y-95728530D01*
X76200000Y-95857067D01*
X76846199Y-95728530D01*
X77394021Y-95362488D01*
X77470000Y-95248777D01*
X77545979Y-95362488D01*
X78093801Y-95728530D01*
X78740000Y-95857067D01*
X79386199Y-95728530D01*
X79934021Y-95362488D01*
X80010000Y-95248777D01*
X80085979Y-95362488D01*
X80633801Y-95728530D01*
X81280000Y-95857067D01*
X81926199Y-95728530D01*
X82474021Y-95362488D01*
X82550000Y-95248777D01*
X82625979Y-95362488D01*
X83173801Y-95728530D01*
X83820000Y-95857067D01*
X84466199Y-95728530D01*
X85014021Y-95362488D01*
X85074367Y-95272173D01*
X85148302Y-95379453D01*
X85717764Y-95748223D01*
X86063359Y-95845506D01*
X86335000Y-95652044D01*
X86335000Y-94005000D01*
X86315000Y-94005000D01*
X86315000Y-93955000D01*
X86335000Y-93955000D01*
X86335000Y-93935000D01*
X86385000Y-93935000D01*
X86385000Y-93955000D01*
X86405000Y-93955000D01*
X86405000Y-94005000D01*
X86385000Y-94005000D01*
X86385000Y-95652044D01*
X86656641Y-95845506D01*
X87002236Y-95748223D01*
X87381878Y-95502376D01*
X87433449Y-95582518D01*
X87709141Y-95770890D01*
X88036400Y-95837162D01*
X89763600Y-95837162D01*
X90069327Y-95779636D01*
X90350118Y-95598951D01*
X90538490Y-95323259D01*
X90582689Y-95105000D01*
X91440000Y-95105000D01*
X91675166Y-95058222D01*
X91674381Y-95957992D01*
X92217496Y-97272429D01*
X92459644Y-97515000D01*
X6601274Y-97515000D01*
X6838970Y-97277719D01*
X7384378Y-95964231D01*
X7385619Y-94542008D01*
X7075529Y-93791533D01*
X24981400Y-93791533D01*
X24981400Y-94168467D01*
X25109937Y-94814666D01*
X25475979Y-95362488D01*
X26023801Y-95728530D01*
X26670000Y-95857067D01*
X27316199Y-95728530D01*
X27864021Y-95362488D01*
X27940000Y-95248777D01*
X28015979Y-95362488D01*
X28563801Y-95728530D01*
X29210000Y-95857067D01*
X29856199Y-95728530D01*
X30220689Y-95484986D01*
X30283449Y-95582518D01*
X30559141Y-95770890D01*
X30886400Y-95837162D01*
X32613600Y-95837162D01*
X32919327Y-95779636D01*
X33200118Y-95598951D01*
X33388490Y-95323259D01*
X33454762Y-94996000D01*
X33454762Y-92964000D01*
X33397236Y-92658273D01*
X33216551Y-92377482D01*
X32940859Y-92189110D01*
X32613600Y-92122838D01*
X30886400Y-92122838D01*
X30580673Y-92180364D01*
X30299882Y-92361049D01*
X30221598Y-92475621D01*
X29856199Y-92231470D01*
X29210000Y-92102933D01*
X28563801Y-92231470D01*
X28015979Y-92597512D01*
X27940000Y-92711223D01*
X27864021Y-92597512D01*
X27316199Y-92231470D01*
X26670000Y-92102933D01*
X26023801Y-92231470D01*
X25475979Y-92597512D01*
X25109937Y-93145334D01*
X24981400Y-93791533D01*
X7075529Y-93791533D01*
X6842504Y-93227571D01*
X5837719Y-92221030D01*
X4524231Y-91675622D01*
X3102008Y-91674381D01*
X1787571Y-92217496D01*
X1545000Y-92459644D01*
X1545000Y-85392011D01*
X11174735Y-85392011D01*
X11406414Y-85952715D01*
X11575174Y-86121770D01*
X11375231Y-86603285D01*
X11374771Y-87130402D01*
X11576065Y-87617572D01*
X11948468Y-87990625D01*
X12435285Y-88192769D01*
X12962402Y-88193229D01*
X13449572Y-87991935D01*
X13822625Y-87619532D01*
X14024769Y-87132715D01*
X14025229Y-86605598D01*
X13825220Y-86121539D01*
X13992079Y-85954971D01*
X14224735Y-85394672D01*
X14225265Y-84787989D01*
X13993586Y-84227285D01*
X13564971Y-83797921D01*
X13004672Y-83565265D01*
X12397989Y-83564735D01*
X11837285Y-83796414D01*
X11407921Y-84225029D01*
X11175265Y-84785328D01*
X11174735Y-85392011D01*
X1545000Y-85392011D01*
X1545000Y-82911422D01*
X4524684Y-82911422D01*
X4801938Y-83582429D01*
X5314871Y-84096258D01*
X5985392Y-84374683D01*
X6711422Y-84375316D01*
X7382429Y-84098062D01*
X7896258Y-83585129D01*
X8174683Y-82914608D01*
X8175316Y-82188578D01*
X7898062Y-81517571D01*
X7385129Y-81003742D01*
X6714608Y-80725317D01*
X5988578Y-80724684D01*
X5317571Y-81001938D01*
X4803742Y-81514871D01*
X4525317Y-82185392D01*
X4524684Y-82911422D01*
X1545000Y-82911422D01*
X1545000Y-77831422D01*
X4524684Y-77831422D01*
X4801938Y-78502429D01*
X5314871Y-79016258D01*
X5985392Y-79294683D01*
X6711422Y-79295316D01*
X7382429Y-79018062D01*
X7896258Y-78505129D01*
X8174683Y-77834608D01*
X8174685Y-77831422D01*
X17224684Y-77831422D01*
X17501938Y-78502429D01*
X18014871Y-79016258D01*
X18685392Y-79294683D01*
X19411422Y-79295316D01*
X20082429Y-79018062D01*
X20596258Y-78505129D01*
X20874683Y-77834608D01*
X20875316Y-77108578D01*
X20598062Y-76437571D01*
X20085129Y-75923742D01*
X19414608Y-75645317D01*
X18688578Y-75644684D01*
X18017571Y-75921938D01*
X17503742Y-76434871D01*
X17225317Y-77105392D01*
X17224684Y-77831422D01*
X8174685Y-77831422D01*
X8175316Y-77108578D01*
X7898062Y-76437571D01*
X7385129Y-75923742D01*
X6714608Y-75645317D01*
X5988578Y-75644684D01*
X5317571Y-75921938D01*
X4803742Y-76434871D01*
X4525317Y-77105392D01*
X4524684Y-77831422D01*
X1545000Y-77831422D01*
X1545000Y-75212206D01*
X11274754Y-75212206D01*
X11491240Y-75736143D01*
X11891749Y-76137351D01*
X12415307Y-76354752D01*
X12982206Y-76355246D01*
X13506143Y-76138760D01*
X13907351Y-75738251D01*
X14124752Y-75214693D01*
X14125246Y-74647794D01*
X13908760Y-74123857D01*
X13755605Y-73970435D01*
X13822625Y-73903532D01*
X14024769Y-73416715D01*
X14025229Y-72889598D01*
X13823935Y-72402428D01*
X13451532Y-72029375D01*
X12964715Y-71827231D01*
X12437598Y-71826771D01*
X11950428Y-72028065D01*
X11577375Y-72400468D01*
X11375231Y-72887285D01*
X11374771Y-73414402D01*
X11576065Y-73901572D01*
X11644518Y-73970145D01*
X11492649Y-74121749D01*
X11275248Y-74645307D01*
X11274754Y-75212206D01*
X1545000Y-75212206D01*
X1545000Y-67671321D01*
X10875194Y-67671321D01*
X11152371Y-68342140D01*
X11665160Y-68855826D01*
X12335494Y-69134173D01*
X13061321Y-69134806D01*
X13732140Y-68857629D01*
X14245826Y-68344840D01*
X14524173Y-67674506D01*
X14524806Y-66948679D01*
X14247629Y-66277860D01*
X13734840Y-65764174D01*
X13064506Y-65485827D01*
X12338679Y-65485194D01*
X11667860Y-65762371D01*
X11154174Y-66275160D01*
X10875827Y-66945494D01*
X10875194Y-67671321D01*
X1545000Y-67671321D01*
X1545000Y-36830000D01*
X2685000Y-36830000D01*
X2685000Y-54610000D01*
X2770636Y-55040519D01*
X2916045Y-55258139D01*
X3014505Y-55405495D01*
X4284505Y-56675495D01*
X4649481Y-56919364D01*
X5080000Y-57005000D01*
X5884010Y-57005000D01*
X7150517Y-58271507D01*
X6745571Y-58438827D01*
X6488594Y-58695356D01*
X6332951Y-58453482D01*
X6057259Y-58265110D01*
X5730000Y-58198838D01*
X4430000Y-58198838D01*
X4124273Y-58256364D01*
X3843482Y-58437049D01*
X3655110Y-58712741D01*
X3588838Y-59040000D01*
X3588838Y-60340000D01*
X3646364Y-60645727D01*
X3827049Y-60926518D01*
X4102741Y-61114890D01*
X4141423Y-61122723D01*
X3870285Y-61393389D01*
X3645257Y-61935317D01*
X3644744Y-62522108D01*
X3868827Y-63064429D01*
X4283389Y-63479715D01*
X4825317Y-63704743D01*
X5412108Y-63705256D01*
X5954429Y-63481173D01*
X6211406Y-63224644D01*
X6367049Y-63466518D01*
X6642741Y-63654890D01*
X6970000Y-63721162D01*
X8270000Y-63721162D01*
X8575727Y-63663636D01*
X8856518Y-63482951D01*
X9044890Y-63207259D01*
X9111162Y-62880000D01*
X9111162Y-62329828D01*
X9190619Y-62250371D01*
X9506303Y-62461304D01*
X10128164Y-62585000D01*
X10191836Y-62585000D01*
X10813697Y-62461304D01*
X11340885Y-62109049D01*
X11693140Y-61581861D01*
X11816836Y-60960000D01*
X11693140Y-60338139D01*
X11340885Y-59810951D01*
X11159869Y-59690000D01*
X11340885Y-59569049D01*
X11693140Y-59041861D01*
X11816836Y-58420000D01*
X11693140Y-57798139D01*
X11340885Y-57270951D01*
X11159869Y-57150000D01*
X11340885Y-57029049D01*
X11693140Y-56501861D01*
X11816836Y-55880000D01*
X11693140Y-55258139D01*
X11340885Y-54730951D01*
X11159869Y-54610000D01*
X11340885Y-54489049D01*
X11693140Y-53961861D01*
X11816836Y-53340000D01*
X11693140Y-52718139D01*
X11340885Y-52190951D01*
X10813697Y-51838696D01*
X10191836Y-51715000D01*
X10128164Y-51715000D01*
X10126351Y-51715361D01*
X7475000Y-49064010D01*
X7475000Y-44791131D01*
X7678827Y-45284429D01*
X7805000Y-45410822D01*
X7805000Y-45760000D01*
X7890636Y-46190519D01*
X8107778Y-46515495D01*
X8134505Y-46555495D01*
X12845000Y-51265990D01*
X12845000Y-57150000D01*
X12930636Y-57580519D01*
X13174505Y-57945495D01*
X14444505Y-59215495D01*
X14809481Y-59459364D01*
X15240000Y-59545000D01*
X16583046Y-59545000D01*
X16599115Y-59569049D01*
X16780131Y-59690000D01*
X16599115Y-59810951D01*
X16246860Y-60338139D01*
X16123164Y-60960000D01*
X16246860Y-61581861D01*
X16599115Y-62109049D01*
X17126303Y-62461304D01*
X17748164Y-62585000D01*
X17811836Y-62585000D01*
X18433697Y-62461304D01*
X18960885Y-62109049D01*
X19313140Y-61581861D01*
X19436836Y-60960000D01*
X19313140Y-60338139D01*
X18960885Y-59810951D01*
X18779869Y-59690000D01*
X18960885Y-59569049D01*
X19313140Y-59041861D01*
X19436836Y-58420000D01*
X19385158Y-58160200D01*
X19433059Y-58112299D01*
X19466410Y-58422454D01*
X20021378Y-58667556D01*
X20627897Y-58681624D01*
X21193632Y-58462516D01*
X21253590Y-58422454D01*
X21286941Y-58112297D01*
X20360000Y-57185355D01*
X20345858Y-57199498D01*
X20310502Y-57164142D01*
X20324645Y-57150000D01*
X20310502Y-57135858D01*
X20345858Y-57100502D01*
X20360000Y-57114645D01*
X21286941Y-56187703D01*
X21275422Y-56080583D01*
X21465647Y-56001789D01*
X21711789Y-55755648D01*
X21760972Y-55636910D01*
X21865314Y-55741434D01*
X21623482Y-55897049D01*
X21435110Y-56172741D01*
X21422733Y-56233859D01*
X21322297Y-56223059D01*
X20395355Y-57150000D01*
X21322297Y-58076941D01*
X21418991Y-58066544D01*
X21426364Y-58105727D01*
X21607049Y-58386518D01*
X21882741Y-58574890D01*
X22210000Y-58641162D01*
X23510000Y-58641162D01*
X23815727Y-58583636D01*
X24096518Y-58402951D01*
X24284890Y-58127259D01*
X24351162Y-57800000D01*
X24351162Y-56500000D01*
X24293636Y-56194273D01*
X24112951Y-55913482D01*
X23837259Y-55725110D01*
X23798577Y-55717277D01*
X24069715Y-55446611D01*
X24294743Y-54904683D01*
X24295256Y-54317892D01*
X24071173Y-53775571D01*
X23656611Y-53360285D01*
X23114683Y-53135257D01*
X22527892Y-53134744D01*
X21985571Y-53358827D01*
X21760956Y-53583051D01*
X21711789Y-53464352D01*
X21465647Y-53218211D01*
X21144048Y-53085000D01*
X20563750Y-53085000D01*
X20345000Y-53303750D01*
X20345000Y-54585000D01*
X20365000Y-54585000D01*
X20365000Y-54635000D01*
X20345000Y-54635000D01*
X20345000Y-54655000D01*
X20295000Y-54655000D01*
X20295000Y-54635000D01*
X20275000Y-54635000D01*
X20275000Y-54585000D01*
X20295000Y-54585000D01*
X20295000Y-53303750D01*
X20076250Y-53085000D01*
X19625990Y-53085000D01*
X19845495Y-52865495D01*
X20089364Y-52500519D01*
X20175000Y-52070000D01*
X20175000Y-49995990D01*
X21549669Y-48621321D01*
X33735194Y-48621321D01*
X34012371Y-49292140D01*
X34525160Y-49805826D01*
X35195494Y-50084173D01*
X35921321Y-50084806D01*
X36592140Y-49807629D01*
X37015508Y-49385000D01*
X40455069Y-49385000D01*
X40875160Y-49805826D01*
X41545494Y-50084173D01*
X42271321Y-50084806D01*
X42942140Y-49807629D01*
X43455826Y-49294840D01*
X43734173Y-48624506D01*
X43734806Y-47898679D01*
X43480044Y-47282108D01*
X45594744Y-47282108D01*
X45818827Y-47824429D01*
X46233389Y-48239715D01*
X46775317Y-48464743D01*
X47362108Y-48465256D01*
X47904429Y-48241173D01*
X48319715Y-47826611D01*
X48544743Y-47284683D01*
X48545256Y-46697892D01*
X48321173Y-46155571D01*
X47906611Y-45740285D01*
X47364683Y-45515257D01*
X46777892Y-45514744D01*
X46235571Y-45738827D01*
X45820285Y-46153389D01*
X45595257Y-46695317D01*
X45594744Y-47282108D01*
X43480044Y-47282108D01*
X43457629Y-47227860D01*
X42944840Y-46714174D01*
X42274506Y-46435827D01*
X41548679Y-46435194D01*
X40877860Y-46712371D01*
X40454492Y-47135000D01*
X37014931Y-47135000D01*
X36594840Y-46714174D01*
X35924506Y-46435827D01*
X35198679Y-46435194D01*
X34527860Y-46712371D01*
X34014174Y-47225160D01*
X33735827Y-47895494D01*
X33735194Y-48621321D01*
X21549669Y-48621321D01*
X22385495Y-47785495D01*
X22629364Y-47420519D01*
X22715000Y-46990000D01*
X22715000Y-39370000D01*
X22629364Y-38939481D01*
X22385495Y-38574505D01*
X19604287Y-35793297D01*
X19604806Y-35198679D01*
X19327629Y-34527860D01*
X18814840Y-34014174D01*
X18144506Y-33735827D01*
X17418679Y-33735194D01*
X16747860Y-34012371D01*
X16234174Y-34525160D01*
X15955827Y-35195494D01*
X15955194Y-35921321D01*
X16232371Y-36592140D01*
X16745160Y-37105826D01*
X17415494Y-37384173D01*
X18013705Y-37384695D01*
X20465000Y-39835990D01*
X20465000Y-46524010D01*
X18254505Y-48734505D01*
X18010636Y-49099481D01*
X17925000Y-49530000D01*
X17925000Y-51604010D01*
X17813649Y-51715361D01*
X17811836Y-51715000D01*
X17748164Y-51715000D01*
X17126303Y-51838696D01*
X16599115Y-52190951D01*
X16246860Y-52718139D01*
X16123164Y-53340000D01*
X16246860Y-53961861D01*
X16599115Y-54489049D01*
X16751497Y-54590867D01*
X16410352Y-54915794D01*
X16145625Y-55513331D01*
X16129718Y-55593309D01*
X16323965Y-55855000D01*
X17755000Y-55855000D01*
X17755000Y-55835000D01*
X17805000Y-55835000D01*
X17805000Y-55855000D01*
X17825000Y-55855000D01*
X17825000Y-55905000D01*
X17805000Y-55905000D01*
X17805000Y-55925000D01*
X17755000Y-55925000D01*
X17755000Y-55905000D01*
X16323965Y-55905000D01*
X16129718Y-56166691D01*
X16145625Y-56246669D01*
X16410352Y-56844206D01*
X16751497Y-57169133D01*
X16599115Y-57270951D01*
X16583046Y-57295000D01*
X15705990Y-57295000D01*
X15095000Y-56684010D01*
X15095000Y-50800000D01*
X15009364Y-50369481D01*
X14765495Y-50004505D01*
X10682384Y-45921394D01*
X10780000Y-45941162D01*
X12080000Y-45941162D01*
X12385727Y-45883636D01*
X12666518Y-45702951D01*
X12854890Y-45427259D01*
X12921162Y-45100000D01*
X12921162Y-43800000D01*
X12863636Y-43494273D01*
X12682951Y-43213482D01*
X12421734Y-43035000D01*
X16325069Y-43035000D01*
X16745160Y-43455826D01*
X17415494Y-43734173D01*
X18141321Y-43734806D01*
X18812140Y-43457629D01*
X19325826Y-42944840D01*
X19604173Y-42274506D01*
X19604806Y-41548679D01*
X19327629Y-40877860D01*
X18814840Y-40364174D01*
X18144506Y-40085827D01*
X17418679Y-40085194D01*
X16747860Y-40362371D01*
X16324492Y-40785000D01*
X6350000Y-40785000D01*
X5919481Y-40870636D01*
X5554505Y-41114505D01*
X5310636Y-41479481D01*
X5225000Y-41910000D01*
X5225000Y-49530000D01*
X5310636Y-49960519D01*
X5393259Y-50084173D01*
X5554505Y-50325495D01*
X8514089Y-53285079D01*
X8503164Y-53340000D01*
X8626860Y-53961861D01*
X8979115Y-54489049D01*
X9160131Y-54610000D01*
X8979115Y-54730951D01*
X8626860Y-55258139D01*
X8503164Y-55880000D01*
X8626860Y-56501861D01*
X8755752Y-56694762D01*
X7145495Y-55084505D01*
X6966643Y-54965000D01*
X6780519Y-54840636D01*
X6350000Y-54755000D01*
X5545990Y-54755000D01*
X4935000Y-54144010D01*
X4935000Y-37955000D01*
X12700000Y-37955000D01*
X13130519Y-37869364D01*
X13495495Y-37625495D01*
X13739364Y-37260519D01*
X13825000Y-36830000D01*
X13825000Y-23221321D01*
X15955194Y-23221321D01*
X16232371Y-23892140D01*
X16745160Y-24405826D01*
X17415494Y-24684173D01*
X18141321Y-24684806D01*
X18812140Y-24407629D01*
X19325826Y-23894840D01*
X19604173Y-23224506D01*
X19604806Y-22498679D01*
X19327629Y-21827860D01*
X18814840Y-21314174D01*
X18144506Y-21035827D01*
X17418679Y-21035194D01*
X16747860Y-21312371D01*
X16234174Y-21825160D01*
X15955827Y-22495494D01*
X15955194Y-23221321D01*
X13825000Y-23221321D01*
X13825000Y-17635000D01*
X16325069Y-17635000D01*
X16745160Y-18055826D01*
X17415494Y-18334173D01*
X18141321Y-18334806D01*
X18812140Y-18057629D01*
X19325826Y-17544840D01*
X19604173Y-16874506D01*
X19604806Y-16148679D01*
X19327629Y-15477860D01*
X18814840Y-14964174D01*
X18144506Y-14685827D01*
X17418679Y-14685194D01*
X16747860Y-14962371D01*
X16324492Y-15385000D01*
X8944711Y-15385000D01*
X8872951Y-15273482D01*
X8597259Y-15085110D01*
X8270000Y-15018838D01*
X6970000Y-15018838D01*
X6664273Y-15076364D01*
X6383482Y-15257049D01*
X6205000Y-15518266D01*
X6205000Y-11895990D01*
X8472882Y-9628108D01*
X8777512Y-10084021D01*
X9325334Y-10450063D01*
X9971533Y-10578600D01*
X10348467Y-10578600D01*
X10994666Y-10450063D01*
X11542488Y-10084021D01*
X11908530Y-9536199D01*
X12037067Y-8890000D01*
X11908530Y-8243801D01*
X11542488Y-7695979D01*
X11428777Y-7620000D01*
X11542488Y-7544021D01*
X11908530Y-6996199D01*
X12037067Y-6350000D01*
X11908530Y-5703801D01*
X11664986Y-5339311D01*
X11762518Y-5276551D01*
X11950890Y-5000859D01*
X11964227Y-4935000D01*
X16325069Y-4935000D01*
X16745160Y-5355826D01*
X17415494Y-5634173D01*
X18141321Y-5634806D01*
X18812140Y-5357629D01*
X19325826Y-4844840D01*
X19604173Y-4174506D01*
X19604806Y-3448679D01*
X19327629Y-2777860D01*
X18814840Y-2264174D01*
X18144506Y-1985827D01*
X17418679Y-1985194D01*
X16747860Y-2262371D01*
X16324492Y-2685000D01*
X11967977Y-2685000D01*
X11959636Y-2640673D01*
X11778951Y-2359882D01*
X11503259Y-2171510D01*
X11176000Y-2105238D01*
X9144000Y-2105238D01*
X8838273Y-2162764D01*
X8557482Y-2343449D01*
X8369110Y-2619141D01*
X8302838Y-2946400D01*
X8302838Y-4673600D01*
X8360364Y-4979327D01*
X8541049Y-5260118D01*
X8655621Y-5338402D01*
X8411470Y-5703801D01*
X8282933Y-6350000D01*
X8330396Y-6588614D01*
X4284505Y-10634505D01*
X4040636Y-10999481D01*
X3955000Y-11430000D01*
X3955000Y-31670000D01*
X4040636Y-32100519D01*
X4123481Y-32224505D01*
X4284505Y-32465495D01*
X6144898Y-34325888D01*
X6144744Y-34502108D01*
X6368827Y-35044429D01*
X6783389Y-35459715D01*
X7325317Y-35684743D01*
X7912108Y-35685256D01*
X8454429Y-35461173D01*
X8869715Y-35046611D01*
X9094743Y-34504683D01*
X9095256Y-33917892D01*
X8871173Y-33375571D01*
X8456611Y-32960285D01*
X7914683Y-32735257D01*
X7736091Y-32735101D01*
X6205000Y-31204010D01*
X6205000Y-30194688D01*
X6367049Y-30446518D01*
X6642741Y-30634890D01*
X6970000Y-30701162D01*
X8270000Y-30701162D01*
X8575727Y-30643636D01*
X8856518Y-30462951D01*
X9044890Y-30187259D01*
X9111162Y-29860000D01*
X9111162Y-28560000D01*
X9053636Y-28254273D01*
X8872951Y-27973482D01*
X8597259Y-27785110D01*
X8270000Y-27718838D01*
X6970000Y-27718838D01*
X6664273Y-27776364D01*
X6383482Y-27957049D01*
X6205000Y-28218266D01*
X6205000Y-21947938D01*
X6368827Y-22344429D01*
X6783389Y-22759715D01*
X7325317Y-22984743D01*
X7912108Y-22985256D01*
X8454429Y-22761173D01*
X8869715Y-22346611D01*
X9094743Y-21804683D01*
X9095256Y-21217892D01*
X8871173Y-20675571D01*
X8456611Y-20260285D01*
X7914683Y-20035257D01*
X7327892Y-20034744D01*
X6785571Y-20258827D01*
X6370285Y-20673389D01*
X6205000Y-21071440D01*
X6205000Y-17494688D01*
X6367049Y-17746518D01*
X6642741Y-17934890D01*
X6970000Y-18001162D01*
X8270000Y-18001162D01*
X8575727Y-17943636D01*
X8856518Y-17762951D01*
X8943943Y-17635000D01*
X11575000Y-17635000D01*
X11575000Y-35705000D01*
X3810000Y-35705000D01*
X3379481Y-35790636D01*
X3014505Y-36034505D01*
X2770636Y-36399481D01*
X2685000Y-36830000D01*
X1545000Y-36830000D01*
X1545000Y-6601274D01*
X1782281Y-6838970D01*
X3095769Y-7384378D01*
X4517992Y-7385619D01*
X5832429Y-6842504D01*
X6838970Y-5837719D01*
X7384378Y-4524231D01*
X7385619Y-3102008D01*
X6842504Y-1787571D01*
X6600356Y-1545000D01*
X27443086Y-1545000D01*
X27144505Y-1744505D01*
G36*
X85165979Y-59802488D02*
X85713801Y-60168530D01*
X86360000Y-60297067D01*
X87006199Y-60168530D01*
X87370689Y-59924986D01*
X87433449Y-60022518D01*
X87709141Y-60210890D01*
X88036400Y-60277162D01*
X89763600Y-60277162D01*
X90069327Y-60219636D01*
X90315000Y-60061549D01*
X90315000Y-67125069D01*
X90078047Y-67361608D01*
X90003061Y-67019234D01*
X89321817Y-66715917D01*
X88576354Y-66696390D01*
X87880163Y-66963625D01*
X87829820Y-66997263D01*
X87885000Y-66864048D01*
X87885000Y-66283750D01*
X87666250Y-66065000D01*
X86385000Y-66065000D01*
X86385000Y-67346250D01*
X86603750Y-67565000D01*
X87184049Y-67565000D01*
X87326251Y-67506098D01*
X87035917Y-68158183D01*
X87016390Y-68903646D01*
X87283625Y-69599837D01*
X87339234Y-69683061D01*
X87685701Y-69758944D01*
X88864645Y-68580000D01*
X88850503Y-68565858D01*
X88885858Y-68530503D01*
X88900000Y-68544645D01*
X88914143Y-68530503D01*
X88949498Y-68565858D01*
X88935355Y-68580000D01*
X88949498Y-68594143D01*
X88914143Y-68629498D01*
X88900000Y-68615355D01*
X87721056Y-69794299D01*
X87796939Y-70140766D01*
X88478183Y-70444083D01*
X89223646Y-70463610D01*
X89919837Y-70196375D01*
X90003061Y-70140766D01*
X90078093Y-69798186D01*
X90315000Y-70035508D01*
X90315000Y-72535000D01*
X86360000Y-72535000D01*
X85929481Y-72620636D01*
X85564505Y-72864505D01*
X84294505Y-74134505D01*
X84050636Y-74499481D01*
X83965000Y-74930000D01*
X83965000Y-76273046D01*
X83940951Y-76289115D01*
X83820000Y-76470131D01*
X83699049Y-76289115D01*
X83171861Y-75936860D01*
X82550000Y-75813164D01*
X81928139Y-75936860D01*
X81400951Y-76289115D01*
X81280000Y-76470131D01*
X81159049Y-76289115D01*
X81135000Y-76273046D01*
X81135000Y-75395990D01*
X83345495Y-73185495D01*
X83589364Y-72820519D01*
X83675000Y-72390000D01*
X83675000Y-71046954D01*
X83699049Y-71030885D01*
X83820000Y-70849869D01*
X83940951Y-71030885D01*
X84468139Y-71383140D01*
X85090000Y-71506836D01*
X85711861Y-71383140D01*
X86239049Y-71030885D01*
X86591304Y-70503697D01*
X86715000Y-69881836D01*
X86715000Y-69818164D01*
X86591304Y-69196303D01*
X86239049Y-68669115D01*
X85711861Y-68316860D01*
X85090000Y-68193164D01*
X84468139Y-68316860D01*
X83940951Y-68669115D01*
X83820000Y-68850131D01*
X83699049Y-68669115D01*
X83171861Y-68316860D01*
X82550000Y-68193164D01*
X81928139Y-68316860D01*
X81535000Y-68579547D01*
X81535000Y-68554998D01*
X81316252Y-68554998D01*
X81535000Y-68336250D01*
X81535000Y-67755952D01*
X81401789Y-67434353D01*
X81155648Y-67188211D01*
X81036910Y-67139028D01*
X81259715Y-66916611D01*
X81484743Y-66374683D01*
X81484822Y-66283750D01*
X82295000Y-66283750D01*
X82295000Y-66864048D01*
X82428211Y-67185647D01*
X82674352Y-67431789D01*
X82995951Y-67565000D01*
X83576250Y-67565000D01*
X83795000Y-67346250D01*
X83795000Y-66065000D01*
X83845000Y-66065000D01*
X83845000Y-67346250D01*
X84063750Y-67565000D01*
X84644049Y-67565000D01*
X84965648Y-67431789D01*
X85090000Y-67307436D01*
X85214352Y-67431789D01*
X85535951Y-67565000D01*
X86116250Y-67565000D01*
X86335000Y-67346250D01*
X86335000Y-66065000D01*
X83845000Y-66065000D01*
X83795000Y-66065000D01*
X82513750Y-66065000D01*
X82295000Y-66283750D01*
X81484822Y-66283750D01*
X81485256Y-65787892D01*
X81261173Y-65245571D01*
X81231606Y-65215952D01*
X82295000Y-65215952D01*
X82295000Y-65796250D01*
X82513750Y-66015000D01*
X83795000Y-66015000D01*
X83795000Y-65995000D01*
X83845000Y-65995000D01*
X83845000Y-66015000D01*
X86335000Y-66015000D01*
X86335000Y-65995000D01*
X86385000Y-65995000D01*
X86385000Y-66015000D01*
X87666250Y-66015000D01*
X87885000Y-65796250D01*
X87885000Y-65215952D01*
X87751789Y-64894353D01*
X87505648Y-64648211D01*
X87386910Y-64599028D01*
X87609715Y-64376611D01*
X87834743Y-63834683D01*
X87835256Y-63247892D01*
X87611173Y-62705571D01*
X87196611Y-62290285D01*
X86654683Y-62065257D01*
X86067892Y-62064744D01*
X85525571Y-62288827D01*
X85110285Y-62703389D01*
X85090229Y-62751690D01*
X85071173Y-62705571D01*
X84656611Y-62290285D01*
X84114683Y-62065257D01*
X83527892Y-62064744D01*
X82985571Y-62288827D01*
X82570285Y-62703389D01*
X82345257Y-63245317D01*
X82344744Y-63832108D01*
X82568827Y-64374429D01*
X82793051Y-64599044D01*
X82674352Y-64648211D01*
X82428211Y-64894353D01*
X82295000Y-65215952D01*
X81231606Y-65215952D01*
X80846611Y-64830285D01*
X80304683Y-64605257D01*
X79717892Y-64604744D01*
X79175571Y-64828827D01*
X78760285Y-65243389D01*
X78535257Y-65785317D01*
X78534744Y-66372108D01*
X78758827Y-66914429D01*
X78983051Y-67139044D01*
X78864352Y-67188211D01*
X78618211Y-67434353D01*
X78485000Y-67755952D01*
X78485000Y-68336250D01*
X78703748Y-68554998D01*
X78485000Y-68554998D01*
X78485000Y-68579547D01*
X78091861Y-68316860D01*
X77470000Y-68193164D01*
X76848139Y-68316860D01*
X76320951Y-68669115D01*
X76283610Y-68725000D01*
X74930000Y-68725000D01*
X74499481Y-68810636D01*
X74134505Y-69054505D01*
X72864505Y-70324505D01*
X72620636Y-70689481D01*
X72547480Y-71057258D01*
X72423482Y-71137049D01*
X72235110Y-71412741D01*
X72168838Y-71740000D01*
X72168838Y-73040000D01*
X72226364Y-73345727D01*
X72407049Y-73626518D01*
X72662829Y-73801285D01*
X72410285Y-74053389D01*
X72185257Y-74595317D01*
X72184744Y-75182108D01*
X72408827Y-75724429D01*
X72535000Y-75850822D01*
X72535000Y-76200000D01*
X72620636Y-76630519D01*
X72676754Y-76714505D01*
X72864505Y-76995495D01*
X74134505Y-78265495D01*
X74499481Y-78509364D01*
X74930000Y-78595000D01*
X76283610Y-78595000D01*
X76320951Y-78650885D01*
X76848139Y-79003140D01*
X77470000Y-79126836D01*
X78091861Y-79003140D01*
X78619049Y-78650885D01*
X78740000Y-78469869D01*
X78860951Y-78650885D01*
X79388139Y-79003140D01*
X80010000Y-79126836D01*
X80631861Y-79003140D01*
X81115052Y-78680283D01*
X81114744Y-79032108D01*
X81338827Y-79574429D01*
X81753389Y-79989715D01*
X81830023Y-80021536D01*
X81715571Y-80068827D01*
X81300285Y-80483389D01*
X81075257Y-81025317D01*
X81074744Y-81612108D01*
X81298827Y-82154429D01*
X81555356Y-82411406D01*
X81313482Y-82567049D01*
X81125110Y-82842741D01*
X81058838Y-83170000D01*
X81058838Y-84470000D01*
X81116364Y-84775727D01*
X81297049Y-85056518D01*
X81572741Y-85244890D01*
X81900000Y-85311162D01*
X83200000Y-85311162D01*
X83505727Y-85253636D01*
X83786518Y-85072951D01*
X83817987Y-85026895D01*
X83837049Y-85056518D01*
X84112741Y-85244890D01*
X84440000Y-85311162D01*
X85740000Y-85311162D01*
X86045727Y-85253636D01*
X86326518Y-85072951D01*
X86514890Y-84797259D01*
X86581162Y-84470000D01*
X86581162Y-83170000D01*
X86523636Y-82864273D01*
X86342951Y-82583482D01*
X86140276Y-82445000D01*
X88474010Y-82445000D01*
X90484010Y-84455000D01*
X88434010Y-86505000D01*
X80475990Y-86505000D01*
X76995495Y-83024505D01*
X76831022Y-82914608D01*
X76630519Y-82780636D01*
X76200000Y-82695000D01*
X74125990Y-82695000D01*
X69705000Y-78274010D01*
X69705000Y-77374874D01*
X70082697Y-77375204D01*
X70514715Y-77196698D01*
X70845536Y-76866453D01*
X71024796Y-76434747D01*
X71025204Y-75967303D01*
X70975000Y-75845800D01*
X70975000Y-70315990D01*
X74455495Y-66835495D01*
X74583750Y-66643547D01*
X74699364Y-66470519D01*
X74785000Y-66040000D01*
X74785000Y-59848606D01*
X74854021Y-59802488D01*
X74930000Y-59688777D01*
X75005979Y-59802488D01*
X75553801Y-60168530D01*
X76200000Y-60297067D01*
X76846199Y-60168530D01*
X77394021Y-59802488D01*
X77470000Y-59688777D01*
X77545979Y-59802488D01*
X78093801Y-60168530D01*
X78740000Y-60297067D01*
X79386199Y-60168530D01*
X79934021Y-59802488D01*
X80010000Y-59688777D01*
X80085979Y-59802488D01*
X80633801Y-60168530D01*
X81280000Y-60297067D01*
X81926199Y-60168530D01*
X82474021Y-59802488D01*
X82550000Y-59688777D01*
X82625979Y-59802488D01*
X83173801Y-60168530D01*
X83820000Y-60297067D01*
X84466199Y-60168530D01*
X85014021Y-59802488D01*
X85090000Y-59688777D01*
X85165979Y-59802488D01*
X85165979Y-59802488D01*
G37*
X85165979Y-59802488D02*
X85713801Y-60168530D01*
X86360000Y-60297067D01*
X87006199Y-60168530D01*
X87370689Y-59924986D01*
X87433449Y-60022518D01*
X87709141Y-60210890D01*
X88036400Y-60277162D01*
X89763600Y-60277162D01*
X90069327Y-60219636D01*
X90315000Y-60061549D01*
X90315000Y-67125069D01*
X90078047Y-67361608D01*
X90003061Y-67019234D01*
X89321817Y-66715917D01*
X88576354Y-66696390D01*
X87880163Y-66963625D01*
X87829820Y-66997263D01*
X87885000Y-66864048D01*
X87885000Y-66283750D01*
X87666250Y-66065000D01*
X86385000Y-66065000D01*
X86385000Y-67346250D01*
X86603750Y-67565000D01*
X87184049Y-67565000D01*
X87326251Y-67506098D01*
X87035917Y-68158183D01*
X87016390Y-68903646D01*
X87283625Y-69599837D01*
X87339234Y-69683061D01*
X87685701Y-69758944D01*
X88864645Y-68580000D01*
X88850503Y-68565858D01*
X88885858Y-68530503D01*
X88900000Y-68544645D01*
X88914143Y-68530503D01*
X88949498Y-68565858D01*
X88935355Y-68580000D01*
X88949498Y-68594143D01*
X88914143Y-68629498D01*
X88900000Y-68615355D01*
X87721056Y-69794299D01*
X87796939Y-70140766D01*
X88478183Y-70444083D01*
X89223646Y-70463610D01*
X89919837Y-70196375D01*
X90003061Y-70140766D01*
X90078093Y-69798186D01*
X90315000Y-70035508D01*
X90315000Y-72535000D01*
X86360000Y-72535000D01*
X85929481Y-72620636D01*
X85564505Y-72864505D01*
X84294505Y-74134505D01*
X84050636Y-74499481D01*
X83965000Y-74930000D01*
X83965000Y-76273046D01*
X83940951Y-76289115D01*
X83820000Y-76470131D01*
X83699049Y-76289115D01*
X83171861Y-75936860D01*
X82550000Y-75813164D01*
X81928139Y-75936860D01*
X81400951Y-76289115D01*
X81280000Y-76470131D01*
X81159049Y-76289115D01*
X81135000Y-76273046D01*
X81135000Y-75395990D01*
X83345495Y-73185495D01*
X83589364Y-72820519D01*
X83675000Y-72390000D01*
X83675000Y-71046954D01*
X83699049Y-71030885D01*
X83820000Y-70849869D01*
X83940951Y-71030885D01*
X84468139Y-71383140D01*
X85090000Y-71506836D01*
X85711861Y-71383140D01*
X86239049Y-71030885D01*
X86591304Y-70503697D01*
X86715000Y-69881836D01*
X86715000Y-69818164D01*
X86591304Y-69196303D01*
X86239049Y-68669115D01*
X85711861Y-68316860D01*
X85090000Y-68193164D01*
X84468139Y-68316860D01*
X83940951Y-68669115D01*
X83820000Y-68850131D01*
X83699049Y-68669115D01*
X83171861Y-68316860D01*
X82550000Y-68193164D01*
X81928139Y-68316860D01*
X81535000Y-68579547D01*
X81535000Y-68554998D01*
X81316252Y-68554998D01*
X81535000Y-68336250D01*
X81535000Y-67755952D01*
X81401789Y-67434353D01*
X81155648Y-67188211D01*
X81036910Y-67139028D01*
X81259715Y-66916611D01*
X81484743Y-66374683D01*
X81484822Y-66283750D01*
X82295000Y-66283750D01*
X82295000Y-66864048D01*
X82428211Y-67185647D01*
X82674352Y-67431789D01*
X82995951Y-67565000D01*
X83576250Y-67565000D01*
X83795000Y-67346250D01*
X83795000Y-66065000D01*
X83845000Y-66065000D01*
X83845000Y-67346250D01*
X84063750Y-67565000D01*
X84644049Y-67565000D01*
X84965648Y-67431789D01*
X85090000Y-67307436D01*
X85214352Y-67431789D01*
X85535951Y-67565000D01*
X86116250Y-67565000D01*
X86335000Y-67346250D01*
X86335000Y-66065000D01*
X83845000Y-66065000D01*
X83795000Y-66065000D01*
X82513750Y-66065000D01*
X82295000Y-66283750D01*
X81484822Y-66283750D01*
X81485256Y-65787892D01*
X81261173Y-65245571D01*
X81231606Y-65215952D01*
X82295000Y-65215952D01*
X82295000Y-65796250D01*
X82513750Y-66015000D01*
X83795000Y-66015000D01*
X83795000Y-65995000D01*
X83845000Y-65995000D01*
X83845000Y-66015000D01*
X86335000Y-66015000D01*
X86335000Y-65995000D01*
X86385000Y-65995000D01*
X86385000Y-66015000D01*
X87666250Y-66015000D01*
X87885000Y-65796250D01*
X87885000Y-65215952D01*
X87751789Y-64894353D01*
X87505648Y-64648211D01*
X87386910Y-64599028D01*
X87609715Y-64376611D01*
X87834743Y-63834683D01*
X87835256Y-63247892D01*
X87611173Y-62705571D01*
X87196611Y-62290285D01*
X86654683Y-62065257D01*
X86067892Y-62064744D01*
X85525571Y-62288827D01*
X85110285Y-62703389D01*
X85090229Y-62751690D01*
X85071173Y-62705571D01*
X84656611Y-62290285D01*
X84114683Y-62065257D01*
X83527892Y-62064744D01*
X82985571Y-62288827D01*
X82570285Y-62703389D01*
X82345257Y-63245317D01*
X82344744Y-63832108D01*
X82568827Y-64374429D01*
X82793051Y-64599044D01*
X82674352Y-64648211D01*
X82428211Y-64894353D01*
X82295000Y-65215952D01*
X81231606Y-65215952D01*
X80846611Y-64830285D01*
X80304683Y-64605257D01*
X79717892Y-64604744D01*
X79175571Y-64828827D01*
X78760285Y-65243389D01*
X78535257Y-65785317D01*
X78534744Y-66372108D01*
X78758827Y-66914429D01*
X78983051Y-67139044D01*
X78864352Y-67188211D01*
X78618211Y-67434353D01*
X78485000Y-67755952D01*
X78485000Y-68336250D01*
X78703748Y-68554998D01*
X78485000Y-68554998D01*
X78485000Y-68579547D01*
X78091861Y-68316860D01*
X77470000Y-68193164D01*
X76848139Y-68316860D01*
X76320951Y-68669115D01*
X76283610Y-68725000D01*
X74930000Y-68725000D01*
X74499481Y-68810636D01*
X74134505Y-69054505D01*
X72864505Y-70324505D01*
X72620636Y-70689481D01*
X72547480Y-71057258D01*
X72423482Y-71137049D01*
X72235110Y-71412741D01*
X72168838Y-71740000D01*
X72168838Y-73040000D01*
X72226364Y-73345727D01*
X72407049Y-73626518D01*
X72662829Y-73801285D01*
X72410285Y-74053389D01*
X72185257Y-74595317D01*
X72184744Y-75182108D01*
X72408827Y-75724429D01*
X72535000Y-75850822D01*
X72535000Y-76200000D01*
X72620636Y-76630519D01*
X72676754Y-76714505D01*
X72864505Y-76995495D01*
X74134505Y-78265495D01*
X74499481Y-78509364D01*
X74930000Y-78595000D01*
X76283610Y-78595000D01*
X76320951Y-78650885D01*
X76848139Y-79003140D01*
X77470000Y-79126836D01*
X78091861Y-79003140D01*
X78619049Y-78650885D01*
X78740000Y-78469869D01*
X78860951Y-78650885D01*
X79388139Y-79003140D01*
X80010000Y-79126836D01*
X80631861Y-79003140D01*
X81115052Y-78680283D01*
X81114744Y-79032108D01*
X81338827Y-79574429D01*
X81753389Y-79989715D01*
X81830023Y-80021536D01*
X81715571Y-80068827D01*
X81300285Y-80483389D01*
X81075257Y-81025317D01*
X81074744Y-81612108D01*
X81298827Y-82154429D01*
X81555356Y-82411406D01*
X81313482Y-82567049D01*
X81125110Y-82842741D01*
X81058838Y-83170000D01*
X81058838Y-84470000D01*
X81116364Y-84775727D01*
X81297049Y-85056518D01*
X81572741Y-85244890D01*
X81900000Y-85311162D01*
X83200000Y-85311162D01*
X83505727Y-85253636D01*
X83786518Y-85072951D01*
X83817987Y-85026895D01*
X83837049Y-85056518D01*
X84112741Y-85244890D01*
X84440000Y-85311162D01*
X85740000Y-85311162D01*
X86045727Y-85253636D01*
X86326518Y-85072951D01*
X86514890Y-84797259D01*
X86581162Y-84470000D01*
X86581162Y-83170000D01*
X86523636Y-82864273D01*
X86342951Y-82583482D01*
X86140276Y-82445000D01*
X88474010Y-82445000D01*
X90484010Y-84455000D01*
X88434010Y-86505000D01*
X80475990Y-86505000D01*
X76995495Y-83024505D01*
X76831022Y-82914608D01*
X76630519Y-82780636D01*
X76200000Y-82695000D01*
X74125990Y-82695000D01*
X69705000Y-78274010D01*
X69705000Y-77374874D01*
X70082697Y-77375204D01*
X70514715Y-77196698D01*
X70845536Y-76866453D01*
X71024796Y-76434747D01*
X71025204Y-75967303D01*
X70975000Y-75845800D01*
X70975000Y-70315990D01*
X74455495Y-66835495D01*
X74583750Y-66643547D01*
X74699364Y-66470519D01*
X74785000Y-66040000D01*
X74785000Y-59848606D01*
X74854021Y-59802488D01*
X74930000Y-59688777D01*
X75005979Y-59802488D01*
X75553801Y-60168530D01*
X76200000Y-60297067D01*
X76846199Y-60168530D01*
X77394021Y-59802488D01*
X77470000Y-59688777D01*
X77545979Y-59802488D01*
X78093801Y-60168530D01*
X78740000Y-60297067D01*
X79386199Y-60168530D01*
X79934021Y-59802488D01*
X80010000Y-59688777D01*
X80085979Y-59802488D01*
X80633801Y-60168530D01*
X81280000Y-60297067D01*
X81926199Y-60168530D01*
X82474021Y-59802488D01*
X82550000Y-59688777D01*
X82625979Y-59802488D01*
X83173801Y-60168530D01*
X83820000Y-60297067D01*
X84466199Y-60168530D01*
X85014021Y-59802488D01*
X85090000Y-59688777D01*
X85165979Y-59802488D01*
G36*
X80035000Y-71306035D02*
X80296691Y-71500282D01*
X80376669Y-71484375D01*
X80974206Y-71219648D01*
X81299133Y-70878503D01*
X81400951Y-71030885D01*
X81425000Y-71046954D01*
X81425000Y-71924010D01*
X79214505Y-74134505D01*
X78970636Y-74499481D01*
X78885000Y-74930000D01*
X78885000Y-76273046D01*
X78860951Y-76289115D01*
X78740000Y-76470131D01*
X78619049Y-76289115D01*
X78091861Y-75936860D01*
X77470000Y-75813164D01*
X76848139Y-75936860D01*
X76320951Y-76289115D01*
X76283610Y-76345000D01*
X75395990Y-76345000D01*
X74843600Y-75792610D01*
X74909715Y-75726611D01*
X75134743Y-75184683D01*
X75135256Y-74597892D01*
X74911173Y-74055571D01*
X74654644Y-73798594D01*
X74896518Y-73642951D01*
X75084890Y-73367259D01*
X75151162Y-73040000D01*
X75151162Y-71740000D01*
X75093636Y-71434273D01*
X75032196Y-71338794D01*
X75395990Y-70975000D01*
X76283610Y-70975000D01*
X76320951Y-71030885D01*
X76848139Y-71383140D01*
X77470000Y-71506836D01*
X78091861Y-71383140D01*
X78619049Y-71030885D01*
X78720867Y-70878503D01*
X79045794Y-71219648D01*
X79643331Y-71484375D01*
X79723309Y-71500282D01*
X79985000Y-71306035D01*
X79985000Y-68535000D01*
X80035000Y-68535000D01*
X80035000Y-71306035D01*
X80035000Y-71306035D01*
G37*
X80035000Y-71306035D02*
X80296691Y-71500282D01*
X80376669Y-71484375D01*
X80974206Y-71219648D01*
X81299133Y-70878503D01*
X81400951Y-71030885D01*
X81425000Y-71046954D01*
X81425000Y-71924010D01*
X79214505Y-74134505D01*
X78970636Y-74499481D01*
X78885000Y-74930000D01*
X78885000Y-76273046D01*
X78860951Y-76289115D01*
X78740000Y-76470131D01*
X78619049Y-76289115D01*
X78091861Y-75936860D01*
X77470000Y-75813164D01*
X76848139Y-75936860D01*
X76320951Y-76289115D01*
X76283610Y-76345000D01*
X75395990Y-76345000D01*
X74843600Y-75792610D01*
X74909715Y-75726611D01*
X75134743Y-75184683D01*
X75135256Y-74597892D01*
X74911173Y-74055571D01*
X74654644Y-73798594D01*
X74896518Y-73642951D01*
X75084890Y-73367259D01*
X75151162Y-73040000D01*
X75151162Y-71740000D01*
X75093636Y-71434273D01*
X75032196Y-71338794D01*
X75395990Y-70975000D01*
X76283610Y-70975000D01*
X76320951Y-71030885D01*
X76848139Y-71383140D01*
X77470000Y-71506836D01*
X78091861Y-71383140D01*
X78619049Y-71030885D01*
X78720867Y-70878503D01*
X79045794Y-71219648D01*
X79643331Y-71484375D01*
X79723309Y-71500282D01*
X79985000Y-71306035D01*
X79985000Y-68535000D01*
X80035000Y-68535000D01*
X80035000Y-71306035D01*
G36*
X92221030Y-1782281D02*
X91675622Y-3095769D01*
X91674381Y-4517992D01*
X92217496Y-5832429D01*
X93222281Y-6838970D01*
X94535769Y-7384378D01*
X95957992Y-7385619D01*
X97272429Y-6842504D01*
X97515000Y-6600356D01*
X97515000Y-37079724D01*
X97328251Y-36892649D01*
X96804693Y-36675248D01*
X96237794Y-36674754D01*
X95713857Y-36891240D01*
X95312649Y-37291749D01*
X95250115Y-37442347D01*
X95188760Y-37293857D01*
X94788251Y-36892649D01*
X94264693Y-36675248D01*
X93697794Y-36674754D01*
X93173857Y-36891240D01*
X92772649Y-37291749D01*
X92565000Y-37791822D01*
X92565000Y-35560000D01*
X92479364Y-35129481D01*
X92235495Y-34764505D01*
X90965495Y-33494505D01*
X90845766Y-33414505D01*
X90600519Y-33250636D01*
X90170000Y-33165000D01*
X85090000Y-33165000D01*
X84659481Y-33250636D01*
X84294505Y-33494505D01*
X82084010Y-35705000D01*
X77824669Y-35705000D01*
X77704747Y-35655204D01*
X77237303Y-35654796D01*
X76805285Y-35833302D01*
X76474464Y-36163547D01*
X76295204Y-36595253D01*
X76294796Y-37062697D01*
X76473302Y-37494715D01*
X76803547Y-37825536D01*
X77235253Y-38004796D01*
X77702697Y-38005204D01*
X77824200Y-37955000D01*
X81425000Y-37955000D01*
X81425000Y-40465994D01*
X81212149Y-40608216D01*
X80813071Y-41205480D01*
X80672933Y-41910000D01*
X80813071Y-42614520D01*
X80954663Y-42826428D01*
X80947482Y-42831049D01*
X80759110Y-43106741D01*
X80714911Y-43325000D01*
X78924931Y-43325000D01*
X78504840Y-42904174D01*
X77834506Y-42625827D01*
X77108679Y-42625194D01*
X76437860Y-42902371D01*
X75924174Y-43415160D01*
X75645827Y-44085494D01*
X75645305Y-44683705D01*
X72864505Y-47464505D01*
X72620636Y-47829481D01*
X72535000Y-48260000D01*
X72535000Y-54451394D01*
X72465979Y-54497512D01*
X72390000Y-54611223D01*
X72314021Y-54497512D01*
X71766199Y-54131470D01*
X71120000Y-54002933D01*
X70473801Y-54131470D01*
X69925979Y-54497512D01*
X69850000Y-54611223D01*
X69774021Y-54497512D01*
X69226199Y-54131470D01*
X68580000Y-54002933D01*
X67933801Y-54131470D01*
X67385979Y-54497512D01*
X67310000Y-54611223D01*
X67234021Y-54497512D01*
X66686199Y-54131470D01*
X66040000Y-54002933D01*
X65393801Y-54131470D01*
X64845979Y-54497512D01*
X64770000Y-54611223D01*
X64694021Y-54497512D01*
X64146199Y-54131470D01*
X63500000Y-54002933D01*
X62853801Y-54131470D01*
X62305979Y-54497512D01*
X62230000Y-54611223D01*
X62154021Y-54497512D01*
X61606199Y-54131470D01*
X60960000Y-54002933D01*
X60313801Y-54131470D01*
X59765979Y-54497512D01*
X59690000Y-54611223D01*
X59614021Y-54497512D01*
X59066199Y-54131470D01*
X58420000Y-54002933D01*
X57773801Y-54131470D01*
X57225979Y-54497512D01*
X57150000Y-54611223D01*
X57074021Y-54497512D01*
X57005000Y-54451394D01*
X57005000Y-53694669D01*
X57054796Y-53574747D01*
X57055204Y-53107303D01*
X56876698Y-52675285D01*
X56546453Y-52344464D01*
X56114747Y-52165204D01*
X55647303Y-52164796D01*
X55215285Y-52343302D01*
X54884464Y-52673547D01*
X54705204Y-53105253D01*
X54704796Y-53572697D01*
X54755000Y-53694200D01*
X54755000Y-54451394D01*
X54685979Y-54497512D01*
X54610000Y-54611223D01*
X54534021Y-54497512D01*
X54465000Y-54451394D01*
X54465000Y-52070000D01*
X54428996Y-51888996D01*
X54610000Y-51925000D01*
X69850000Y-51925000D01*
X70280519Y-51839364D01*
X70645495Y-51595495D01*
X70889364Y-51230519D01*
X70975000Y-50800000D01*
X70975000Y-38332697D01*
X71214796Y-38332697D01*
X71393302Y-38764715D01*
X71723547Y-39095536D01*
X72155253Y-39274796D01*
X72622697Y-39275204D01*
X73054715Y-39096698D01*
X73385536Y-38766453D01*
X73564796Y-38334747D01*
X73565204Y-37867303D01*
X73515000Y-37745800D01*
X73515000Y-34145000D01*
X76015069Y-34145000D01*
X76435160Y-34565826D01*
X77105494Y-34844173D01*
X77831321Y-34844806D01*
X78502140Y-34567629D01*
X79015826Y-34054840D01*
X79294173Y-33384506D01*
X79294806Y-32658679D01*
X79017629Y-31987860D01*
X78504840Y-31474174D01*
X77834506Y-31195827D01*
X77108679Y-31195194D01*
X76437860Y-31472371D01*
X76014492Y-31895000D01*
X73515000Y-31895000D01*
X73515000Y-29675990D01*
X75395990Y-27795000D01*
X76015069Y-27795000D01*
X76435160Y-28215826D01*
X77105494Y-28494173D01*
X77831321Y-28494806D01*
X78502140Y-28217629D01*
X79015826Y-27704840D01*
X79294173Y-27034506D01*
X79294175Y-27031321D01*
X81995194Y-27031321D01*
X82272371Y-27702140D01*
X82785160Y-28215826D01*
X83455494Y-28494173D01*
X84181321Y-28494806D01*
X84852140Y-28217629D01*
X85365826Y-27704840D01*
X85644173Y-27034506D01*
X85644806Y-26308679D01*
X85367629Y-25637860D01*
X84854840Y-25124174D01*
X84184506Y-24845827D01*
X83458679Y-24845194D01*
X82787860Y-25122371D01*
X82274174Y-25635160D01*
X81995827Y-26305494D01*
X81995194Y-27031321D01*
X79294175Y-27031321D01*
X79294806Y-26308679D01*
X79017629Y-25637860D01*
X78504840Y-25124174D01*
X77834506Y-24845827D01*
X77108679Y-24845194D01*
X76437860Y-25122371D01*
X76014492Y-25545000D01*
X74930000Y-25545000D01*
X74499481Y-25630636D01*
X74134505Y-25874505D01*
X71594505Y-28414505D01*
X71350636Y-28779481D01*
X71265000Y-29210000D01*
X71265000Y-37745331D01*
X71215204Y-37865253D01*
X71214796Y-38332697D01*
X70975000Y-38332697D01*
X70975000Y-29210000D01*
X70889364Y-28779481D01*
X70645495Y-28414505D01*
X69134287Y-26903297D01*
X69134806Y-26308679D01*
X68857629Y-25637860D01*
X68344840Y-25124174D01*
X67674506Y-24845827D01*
X66948679Y-24845194D01*
X66277860Y-25122371D01*
X65895000Y-25504562D01*
X65895000Y-23325990D01*
X67076703Y-22144287D01*
X67671321Y-22144806D01*
X68342140Y-21867629D01*
X68765508Y-21445000D01*
X72390000Y-21445000D01*
X72820519Y-21359364D01*
X73185495Y-21115495D01*
X73619669Y-20681321D01*
X75645194Y-20681321D01*
X75922371Y-21352140D01*
X76435160Y-21865826D01*
X77105494Y-22144173D01*
X77831321Y-22144806D01*
X78502140Y-21867629D01*
X79015826Y-21354840D01*
X79294173Y-20684506D01*
X79294806Y-19958679D01*
X79017629Y-19287860D01*
X78504840Y-18774174D01*
X77834506Y-18495827D01*
X77108679Y-18495194D01*
X76437860Y-18772371D01*
X75924174Y-19285160D01*
X75645827Y-19955494D01*
X75645194Y-20681321D01*
X73619669Y-20681321D01*
X78265495Y-16035495D01*
X78426741Y-15794173D01*
X78509364Y-15670519D01*
X78549101Y-15470750D01*
X79015826Y-15004840D01*
X79294173Y-14334506D01*
X79294806Y-13608679D01*
X79271652Y-13552642D01*
X80155000Y-14435990D01*
X80155000Y-17780000D01*
X80240636Y-18210519D01*
X80323259Y-18334173D01*
X80484505Y-18575495D01*
X81995713Y-20086703D01*
X81995194Y-20681321D01*
X82272371Y-21352140D01*
X82741083Y-21821671D01*
X82780636Y-22020519D01*
X82863259Y-22144173D01*
X83024505Y-22385495D01*
X88104505Y-27465495D01*
X88469481Y-27709364D01*
X88900000Y-27795000D01*
X92525069Y-27795000D01*
X92945160Y-28215826D01*
X93615494Y-28494173D01*
X94341321Y-28494806D01*
X95012140Y-28217629D01*
X95525826Y-27704840D01*
X95804173Y-27034506D01*
X95804806Y-26308679D01*
X95527629Y-25637860D01*
X95014840Y-25124174D01*
X94344506Y-24845827D01*
X93618679Y-24845194D01*
X92947860Y-25122371D01*
X92524492Y-25545000D01*
X89365990Y-25545000D01*
X85270745Y-21449755D01*
X85365826Y-21354840D01*
X85644173Y-20684506D01*
X85644175Y-20681321D01*
X92155194Y-20681321D01*
X92432371Y-21352140D01*
X92945160Y-21865826D01*
X93615494Y-22144173D01*
X94341321Y-22144806D01*
X95012140Y-21867629D01*
X95525826Y-21354840D01*
X95804173Y-20684506D01*
X95804806Y-19958679D01*
X95527629Y-19287860D01*
X95014840Y-18774174D01*
X94344506Y-18495827D01*
X93618679Y-18495194D01*
X92947860Y-18772371D01*
X92434174Y-19285160D01*
X92155827Y-19955494D01*
X92155194Y-20681321D01*
X85644175Y-20681321D01*
X85644806Y-19958679D01*
X85367629Y-19287860D01*
X84854840Y-18774174D01*
X84184506Y-18495827D01*
X83586295Y-18495305D01*
X82405000Y-17314010D01*
X82405000Y-15135001D01*
X82785160Y-15515826D01*
X83455494Y-15794173D01*
X84181321Y-15794806D01*
X84852140Y-15517629D01*
X85365826Y-15004840D01*
X85644173Y-14334506D01*
X85644806Y-13608679D01*
X85367629Y-12937860D01*
X84854840Y-12424174D01*
X84184506Y-12145827D01*
X83458679Y-12145194D01*
X82787860Y-12422371D01*
X82274174Y-12935160D01*
X82136733Y-13266154D01*
X82075495Y-13174505D01*
X79535495Y-10634505D01*
X79451827Y-10578600D01*
X79170519Y-10390636D01*
X78740000Y-10305000D01*
X65235990Y-10305000D01*
X63275000Y-8344010D01*
X63275000Y-7981321D01*
X65485194Y-7981321D01*
X65762371Y-8652140D01*
X66275160Y-9165826D01*
X66945494Y-9444173D01*
X67671321Y-9444806D01*
X68342140Y-9167629D01*
X68855826Y-8654840D01*
X69134173Y-7984506D01*
X69134175Y-7981321D01*
X75645194Y-7981321D01*
X75922371Y-8652140D01*
X76435160Y-9165826D01*
X77105494Y-9444173D01*
X77831321Y-9444806D01*
X78502140Y-9167629D01*
X78925508Y-8745000D01*
X87164010Y-8745000D01*
X92155713Y-13736703D01*
X92155194Y-14331321D01*
X92432371Y-15002140D01*
X92945160Y-15515826D01*
X93615494Y-15794173D01*
X94341321Y-15794806D01*
X95012140Y-15517629D01*
X95525826Y-15004840D01*
X95804173Y-14334506D01*
X95804806Y-13608679D01*
X95527629Y-12937860D01*
X95014840Y-12424174D01*
X94344506Y-12145827D01*
X93746295Y-12145305D01*
X88425495Y-6824505D01*
X88071330Y-6587860D01*
X88060519Y-6580636D01*
X87630000Y-6495000D01*
X78924931Y-6495000D01*
X78504840Y-6074174D01*
X77834506Y-5795827D01*
X77108679Y-5795194D01*
X76437860Y-6072371D01*
X75924174Y-6585160D01*
X75645827Y-7255494D01*
X75645194Y-7981321D01*
X69134175Y-7981321D01*
X69134806Y-7258679D01*
X68857629Y-6587860D01*
X68344840Y-6074174D01*
X67674506Y-5795827D01*
X66948679Y-5795194D01*
X66277860Y-6072371D01*
X65764174Y-6585160D01*
X65485827Y-7255494D01*
X65485194Y-7981321D01*
X63275000Y-7981321D01*
X63275000Y-6041109D01*
X63399715Y-5916611D01*
X63624743Y-5374683D01*
X63625256Y-4787892D01*
X63401173Y-4245571D01*
X62986611Y-3830285D01*
X62444683Y-3605257D01*
X61857892Y-3604744D01*
X61315571Y-3828827D01*
X60900285Y-4243389D01*
X60675257Y-4785317D01*
X60674744Y-5372108D01*
X60898827Y-5914429D01*
X61025000Y-6040822D01*
X61025000Y-8810000D01*
X61110636Y-9240519D01*
X61193481Y-9364505D01*
X61354505Y-9605495D01*
X63974505Y-12225495D01*
X64339482Y-12469365D01*
X64770000Y-12555000D01*
X66144999Y-12555000D01*
X65764174Y-12935160D01*
X65485827Y-13605494D01*
X65485305Y-14203705D01*
X61434505Y-18254505D01*
X61190636Y-18619481D01*
X61105000Y-19050000D01*
X61105000Y-22518869D01*
X60901173Y-22025571D01*
X60486611Y-21610285D01*
X59944683Y-21385257D01*
X59357892Y-21384744D01*
X58815571Y-21608827D01*
X58558594Y-21865356D01*
X58402951Y-21623482D01*
X58127259Y-21435110D01*
X57800000Y-21368838D01*
X56500000Y-21368838D01*
X56232843Y-21419107D01*
X56143140Y-20968139D01*
X55790885Y-20440951D01*
X55609869Y-20320000D01*
X55790885Y-20199049D01*
X56143140Y-19671861D01*
X56266836Y-19050000D01*
X56143140Y-18428139D01*
X55790885Y-17900951D01*
X55609869Y-17780000D01*
X55790885Y-17659049D01*
X56143140Y-17131861D01*
X56266836Y-16510000D01*
X56255911Y-16455079D01*
X57945495Y-14765495D01*
X58189364Y-14400519D01*
X58275000Y-13970000D01*
X58275000Y-13054669D01*
X58324796Y-12934747D01*
X58325204Y-12467303D01*
X58275000Y-12345800D01*
X58275000Y-10514669D01*
X58324796Y-10394747D01*
X58325204Y-9927303D01*
X58275000Y-9805800D01*
X58275000Y-6404711D01*
X58386518Y-6332951D01*
X58574890Y-6057259D01*
X58641162Y-5730000D01*
X58641162Y-4430000D01*
X58583636Y-4124273D01*
X58402951Y-3843482D01*
X58127259Y-3655110D01*
X57800000Y-3588838D01*
X56500000Y-3588838D01*
X56194273Y-3646364D01*
X55913482Y-3827049D01*
X55725110Y-4102741D01*
X55658838Y-4430000D01*
X55658838Y-5730000D01*
X55716364Y-6035727D01*
X55897049Y-6316518D01*
X56025000Y-6403943D01*
X56025000Y-9805331D01*
X55975204Y-9925253D01*
X55974796Y-10392697D01*
X56025000Y-10514200D01*
X56025000Y-12345331D01*
X55975204Y-12465253D01*
X55974796Y-12932697D01*
X56025000Y-13054200D01*
X56025000Y-13504010D01*
X54643649Y-14885361D01*
X54641836Y-14885000D01*
X54578164Y-14885000D01*
X53956303Y-15008696D01*
X53429115Y-15360951D01*
X53195000Y-15711330D01*
X53195000Y-6404711D01*
X53306518Y-6332951D01*
X53494890Y-6057259D01*
X53561162Y-5730000D01*
X53561162Y-4430000D01*
X53503636Y-4124273D01*
X53322951Y-3843482D01*
X53047259Y-3655110D01*
X52720000Y-3588838D01*
X51420000Y-3588838D01*
X51114273Y-3646364D01*
X50833482Y-3827049D01*
X50645110Y-4102741D01*
X50578838Y-4430000D01*
X50578838Y-5730000D01*
X50636364Y-6035727D01*
X50817049Y-6316518D01*
X50945000Y-6403943D01*
X50945000Y-20320000D01*
X51030636Y-20750519D01*
X51176045Y-20968139D01*
X51274505Y-21115495D01*
X52544505Y-22385495D01*
X52909481Y-22629364D01*
X53340000Y-22715000D01*
X53413046Y-22715000D01*
X53429115Y-22739049D01*
X53610131Y-22860000D01*
X53429115Y-22980951D01*
X53076860Y-23508139D01*
X52953164Y-24130000D01*
X53076860Y-24751861D01*
X53429115Y-25279049D01*
X53610131Y-25400000D01*
X53429115Y-25520951D01*
X53076860Y-26048139D01*
X52953164Y-26670000D01*
X53076860Y-27291861D01*
X53429115Y-27819049D01*
X53610131Y-27940000D01*
X53429115Y-28060951D01*
X53076860Y-28588139D01*
X52953164Y-29210000D01*
X53076860Y-29831861D01*
X53429115Y-30359049D01*
X53610131Y-30480000D01*
X53429115Y-30600951D01*
X53076860Y-31128139D01*
X52953164Y-31750000D01*
X53076860Y-32371861D01*
X53429115Y-32899049D01*
X53956303Y-33251304D01*
X54578164Y-33375000D01*
X54641836Y-33375000D01*
X55263697Y-33251304D01*
X55579381Y-33040371D01*
X56103715Y-33564705D01*
X56153302Y-33684715D01*
X56483547Y-34015536D01*
X56915253Y-34194796D01*
X57382697Y-34195204D01*
X57814715Y-34016698D01*
X58145536Y-33686453D01*
X58195952Y-33565038D01*
X62324802Y-29436188D01*
X62324796Y-29442697D01*
X62503302Y-29874715D01*
X62833547Y-30205536D01*
X63265253Y-30384796D01*
X63732697Y-30385204D01*
X64164715Y-30206698D01*
X64495536Y-29876453D01*
X64545952Y-29755038D01*
X65565495Y-28735495D01*
X65809364Y-28370519D01*
X65895000Y-27940000D01*
X65895000Y-27835001D01*
X66275160Y-28215826D01*
X66945494Y-28494173D01*
X67543705Y-28494695D01*
X68725000Y-29675990D01*
X68725000Y-31854999D01*
X68344840Y-31474174D01*
X67674506Y-31195827D01*
X66948679Y-31195194D01*
X66277860Y-31472371D01*
X65764174Y-31985160D01*
X65485827Y-32655494D01*
X65485305Y-33253705D01*
X64304010Y-34435000D01*
X47455990Y-34435000D01*
X46515495Y-33494505D01*
X46395766Y-33414505D01*
X46150519Y-33250636D01*
X45720000Y-33165000D01*
X39835990Y-33165000D01*
X39473484Y-32802494D01*
X39524890Y-32727259D01*
X39591162Y-32400000D01*
X39591162Y-31100000D01*
X39533636Y-30794273D01*
X39352951Y-30513482D01*
X39091734Y-30335000D01*
X41444010Y-30335000D01*
X43654505Y-32545495D01*
X44019481Y-32789364D01*
X44450000Y-32875000D01*
X45793046Y-32875000D01*
X45809115Y-32899049D01*
X46336303Y-33251304D01*
X46958164Y-33375000D01*
X47021836Y-33375000D01*
X47643697Y-33251304D01*
X48170885Y-32899049D01*
X48523140Y-32371861D01*
X48646836Y-31750000D01*
X48523140Y-31128139D01*
X48170885Y-30600951D01*
X47989869Y-30480000D01*
X48170885Y-30359049D01*
X48523140Y-29831861D01*
X48646836Y-29210000D01*
X48523140Y-28588139D01*
X48170885Y-28060951D01*
X47989869Y-27940000D01*
X48170885Y-27819049D01*
X48523140Y-27291861D01*
X48646836Y-26670000D01*
X48523140Y-26048139D01*
X48170885Y-25520951D01*
X48018503Y-25419133D01*
X48359648Y-25094206D01*
X48624375Y-24496669D01*
X48640282Y-24416691D01*
X48446035Y-24155000D01*
X47015000Y-24155000D01*
X47015000Y-24175000D01*
X46965000Y-24175000D01*
X46965000Y-24155000D01*
X46945000Y-24155000D01*
X46945000Y-24105000D01*
X46965000Y-24105000D01*
X46965000Y-24085000D01*
X47015000Y-24085000D01*
X47015000Y-24105000D01*
X48446035Y-24105000D01*
X48640282Y-23843309D01*
X48624375Y-23763331D01*
X48359648Y-23165794D01*
X48018503Y-22840867D01*
X48170885Y-22739049D01*
X48523140Y-22211861D01*
X48646836Y-21590000D01*
X48523140Y-20968139D01*
X48170885Y-20440951D01*
X47989869Y-20320000D01*
X48170885Y-20199049D01*
X48523140Y-19671861D01*
X48646836Y-19050000D01*
X48523140Y-18428139D01*
X48170885Y-17900951D01*
X47989869Y-17780000D01*
X48170885Y-17659049D01*
X48523140Y-17131861D01*
X48646836Y-16510000D01*
X48523140Y-15888139D01*
X48170885Y-15360951D01*
X47643697Y-15008696D01*
X47021836Y-14885000D01*
X46958164Y-14885000D01*
X46956351Y-14885361D01*
X45245495Y-13174505D01*
X45187226Y-13135571D01*
X44880519Y-12930636D01*
X44450000Y-12845000D01*
X41964711Y-12845000D01*
X41892951Y-12733482D01*
X41765000Y-12646057D01*
X41765000Y-6404711D01*
X41876518Y-6332951D01*
X42064890Y-6057259D01*
X42131162Y-5730000D01*
X42131162Y-5372108D01*
X45594744Y-5372108D01*
X45818827Y-5914429D01*
X46233389Y-6329715D01*
X46775317Y-6554743D01*
X47362108Y-6555256D01*
X47904429Y-6331173D01*
X48319715Y-5916611D01*
X48544743Y-5374683D01*
X48545256Y-4787892D01*
X48321173Y-4245571D01*
X47906611Y-3830285D01*
X47364683Y-3605257D01*
X46777892Y-3604744D01*
X46235571Y-3828827D01*
X45820285Y-4243389D01*
X45595257Y-4785317D01*
X45594744Y-5372108D01*
X42131162Y-5372108D01*
X42131162Y-4430000D01*
X42073636Y-4124273D01*
X41892951Y-3843482D01*
X41752582Y-3747572D01*
X41679364Y-3379481D01*
X41435495Y-3014505D01*
X40165495Y-1744505D01*
X39866914Y-1545000D01*
X92458726Y-1545000D01*
X92221030Y-1782281D01*
X92221030Y-1782281D01*
G37*
X92221030Y-1782281D02*
X91675622Y-3095769D01*
X91674381Y-4517992D01*
X92217496Y-5832429D01*
X93222281Y-6838970D01*
X94535769Y-7384378D01*
X95957992Y-7385619D01*
X97272429Y-6842504D01*
X97515000Y-6600356D01*
X97515000Y-37079724D01*
X97328251Y-36892649D01*
X96804693Y-36675248D01*
X96237794Y-36674754D01*
X95713857Y-36891240D01*
X95312649Y-37291749D01*
X95250115Y-37442347D01*
X95188760Y-37293857D01*
X94788251Y-36892649D01*
X94264693Y-36675248D01*
X93697794Y-36674754D01*
X93173857Y-36891240D01*
X92772649Y-37291749D01*
X92565000Y-37791822D01*
X92565000Y-35560000D01*
X92479364Y-35129481D01*
X92235495Y-34764505D01*
X90965495Y-33494505D01*
X90845766Y-33414505D01*
X90600519Y-33250636D01*
X90170000Y-33165000D01*
X85090000Y-33165000D01*
X84659481Y-33250636D01*
X84294505Y-33494505D01*
X82084010Y-35705000D01*
X77824669Y-35705000D01*
X77704747Y-35655204D01*
X77237303Y-35654796D01*
X76805285Y-35833302D01*
X76474464Y-36163547D01*
X76295204Y-36595253D01*
X76294796Y-37062697D01*
X76473302Y-37494715D01*
X76803547Y-37825536D01*
X77235253Y-38004796D01*
X77702697Y-38005204D01*
X77824200Y-37955000D01*
X81425000Y-37955000D01*
X81425000Y-40465994D01*
X81212149Y-40608216D01*
X80813071Y-41205480D01*
X80672933Y-41910000D01*
X80813071Y-42614520D01*
X80954663Y-42826428D01*
X80947482Y-42831049D01*
X80759110Y-43106741D01*
X80714911Y-43325000D01*
X78924931Y-43325000D01*
X78504840Y-42904174D01*
X77834506Y-42625827D01*
X77108679Y-42625194D01*
X76437860Y-42902371D01*
X75924174Y-43415160D01*
X75645827Y-44085494D01*
X75645305Y-44683705D01*
X72864505Y-47464505D01*
X72620636Y-47829481D01*
X72535000Y-48260000D01*
X72535000Y-54451394D01*
X72465979Y-54497512D01*
X72390000Y-54611223D01*
X72314021Y-54497512D01*
X71766199Y-54131470D01*
X71120000Y-54002933D01*
X70473801Y-54131470D01*
X69925979Y-54497512D01*
X69850000Y-54611223D01*
X69774021Y-54497512D01*
X69226199Y-54131470D01*
X68580000Y-54002933D01*
X67933801Y-54131470D01*
X67385979Y-54497512D01*
X67310000Y-54611223D01*
X67234021Y-54497512D01*
X66686199Y-54131470D01*
X66040000Y-54002933D01*
X65393801Y-54131470D01*
X64845979Y-54497512D01*
X64770000Y-54611223D01*
X64694021Y-54497512D01*
X64146199Y-54131470D01*
X63500000Y-54002933D01*
X62853801Y-54131470D01*
X62305979Y-54497512D01*
X62230000Y-54611223D01*
X62154021Y-54497512D01*
X61606199Y-54131470D01*
X60960000Y-54002933D01*
X60313801Y-54131470D01*
X59765979Y-54497512D01*
X59690000Y-54611223D01*
X59614021Y-54497512D01*
X59066199Y-54131470D01*
X58420000Y-54002933D01*
X57773801Y-54131470D01*
X57225979Y-54497512D01*
X57150000Y-54611223D01*
X57074021Y-54497512D01*
X57005000Y-54451394D01*
X57005000Y-53694669D01*
X57054796Y-53574747D01*
X57055204Y-53107303D01*
X56876698Y-52675285D01*
X56546453Y-52344464D01*
X56114747Y-52165204D01*
X55647303Y-52164796D01*
X55215285Y-52343302D01*
X54884464Y-52673547D01*
X54705204Y-53105253D01*
X54704796Y-53572697D01*
X54755000Y-53694200D01*
X54755000Y-54451394D01*
X54685979Y-54497512D01*
X54610000Y-54611223D01*
X54534021Y-54497512D01*
X54465000Y-54451394D01*
X54465000Y-52070000D01*
X54428996Y-51888996D01*
X54610000Y-51925000D01*
X69850000Y-51925000D01*
X70280519Y-51839364D01*
X70645495Y-51595495D01*
X70889364Y-51230519D01*
X70975000Y-50800000D01*
X70975000Y-38332697D01*
X71214796Y-38332697D01*
X71393302Y-38764715D01*
X71723547Y-39095536D01*
X72155253Y-39274796D01*
X72622697Y-39275204D01*
X73054715Y-39096698D01*
X73385536Y-38766453D01*
X73564796Y-38334747D01*
X73565204Y-37867303D01*
X73515000Y-37745800D01*
X73515000Y-34145000D01*
X76015069Y-34145000D01*
X76435160Y-34565826D01*
X77105494Y-34844173D01*
X77831321Y-34844806D01*
X78502140Y-34567629D01*
X79015826Y-34054840D01*
X79294173Y-33384506D01*
X79294806Y-32658679D01*
X79017629Y-31987860D01*
X78504840Y-31474174D01*
X77834506Y-31195827D01*
X77108679Y-31195194D01*
X76437860Y-31472371D01*
X76014492Y-31895000D01*
X73515000Y-31895000D01*
X73515000Y-29675990D01*
X75395990Y-27795000D01*
X76015069Y-27795000D01*
X76435160Y-28215826D01*
X77105494Y-28494173D01*
X77831321Y-28494806D01*
X78502140Y-28217629D01*
X79015826Y-27704840D01*
X79294173Y-27034506D01*
X79294175Y-27031321D01*
X81995194Y-27031321D01*
X82272371Y-27702140D01*
X82785160Y-28215826D01*
X83455494Y-28494173D01*
X84181321Y-28494806D01*
X84852140Y-28217629D01*
X85365826Y-27704840D01*
X85644173Y-27034506D01*
X85644806Y-26308679D01*
X85367629Y-25637860D01*
X84854840Y-25124174D01*
X84184506Y-24845827D01*
X83458679Y-24845194D01*
X82787860Y-25122371D01*
X82274174Y-25635160D01*
X81995827Y-26305494D01*
X81995194Y-27031321D01*
X79294175Y-27031321D01*
X79294806Y-26308679D01*
X79017629Y-25637860D01*
X78504840Y-25124174D01*
X77834506Y-24845827D01*
X77108679Y-24845194D01*
X76437860Y-25122371D01*
X76014492Y-25545000D01*
X74930000Y-25545000D01*
X74499481Y-25630636D01*
X74134505Y-25874505D01*
X71594505Y-28414505D01*
X71350636Y-28779481D01*
X71265000Y-29210000D01*
X71265000Y-37745331D01*
X71215204Y-37865253D01*
X71214796Y-38332697D01*
X70975000Y-38332697D01*
X70975000Y-29210000D01*
X70889364Y-28779481D01*
X70645495Y-28414505D01*
X69134287Y-26903297D01*
X69134806Y-26308679D01*
X68857629Y-25637860D01*
X68344840Y-25124174D01*
X67674506Y-24845827D01*
X66948679Y-24845194D01*
X66277860Y-25122371D01*
X65895000Y-25504562D01*
X65895000Y-23325990D01*
X67076703Y-22144287D01*
X67671321Y-22144806D01*
X68342140Y-21867629D01*
X68765508Y-21445000D01*
X72390000Y-21445000D01*
X72820519Y-21359364D01*
X73185495Y-21115495D01*
X73619669Y-20681321D01*
X75645194Y-20681321D01*
X75922371Y-21352140D01*
X76435160Y-21865826D01*
X77105494Y-22144173D01*
X77831321Y-22144806D01*
X78502140Y-21867629D01*
X79015826Y-21354840D01*
X79294173Y-20684506D01*
X79294806Y-19958679D01*
X79017629Y-19287860D01*
X78504840Y-18774174D01*
X77834506Y-18495827D01*
X77108679Y-18495194D01*
X76437860Y-18772371D01*
X75924174Y-19285160D01*
X75645827Y-19955494D01*
X75645194Y-20681321D01*
X73619669Y-20681321D01*
X78265495Y-16035495D01*
X78426741Y-15794173D01*
X78509364Y-15670519D01*
X78549101Y-15470750D01*
X79015826Y-15004840D01*
X79294173Y-14334506D01*
X79294806Y-13608679D01*
X79271652Y-13552642D01*
X80155000Y-14435990D01*
X80155000Y-17780000D01*
X80240636Y-18210519D01*
X80323259Y-18334173D01*
X80484505Y-18575495D01*
X81995713Y-20086703D01*
X81995194Y-20681321D01*
X82272371Y-21352140D01*
X82741083Y-21821671D01*
X82780636Y-22020519D01*
X82863259Y-22144173D01*
X83024505Y-22385495D01*
X88104505Y-27465495D01*
X88469481Y-27709364D01*
X88900000Y-27795000D01*
X92525069Y-27795000D01*
X92945160Y-28215826D01*
X93615494Y-28494173D01*
X94341321Y-28494806D01*
X95012140Y-28217629D01*
X95525826Y-27704840D01*
X95804173Y-27034506D01*
X95804806Y-26308679D01*
X95527629Y-25637860D01*
X95014840Y-25124174D01*
X94344506Y-24845827D01*
X93618679Y-24845194D01*
X92947860Y-25122371D01*
X92524492Y-25545000D01*
X89365990Y-25545000D01*
X85270745Y-21449755D01*
X85365826Y-21354840D01*
X85644173Y-20684506D01*
X85644175Y-20681321D01*
X92155194Y-20681321D01*
X92432371Y-21352140D01*
X92945160Y-21865826D01*
X93615494Y-22144173D01*
X94341321Y-22144806D01*
X95012140Y-21867629D01*
X95525826Y-21354840D01*
X95804173Y-20684506D01*
X95804806Y-19958679D01*
X95527629Y-19287860D01*
X95014840Y-18774174D01*
X94344506Y-18495827D01*
X93618679Y-18495194D01*
X92947860Y-18772371D01*
X92434174Y-19285160D01*
X92155827Y-19955494D01*
X92155194Y-20681321D01*
X85644175Y-20681321D01*
X85644806Y-19958679D01*
X85367629Y-19287860D01*
X84854840Y-18774174D01*
X84184506Y-18495827D01*
X83586295Y-18495305D01*
X82405000Y-17314010D01*
X82405000Y-15135001D01*
X82785160Y-15515826D01*
X83455494Y-15794173D01*
X84181321Y-15794806D01*
X84852140Y-15517629D01*
X85365826Y-15004840D01*
X85644173Y-14334506D01*
X85644806Y-13608679D01*
X85367629Y-12937860D01*
X84854840Y-12424174D01*
X84184506Y-12145827D01*
X83458679Y-12145194D01*
X82787860Y-12422371D01*
X82274174Y-12935160D01*
X82136733Y-13266154D01*
X82075495Y-13174505D01*
X79535495Y-10634505D01*
X79451827Y-10578600D01*
X79170519Y-10390636D01*
X78740000Y-10305000D01*
X65235990Y-10305000D01*
X63275000Y-8344010D01*
X63275000Y-7981321D01*
X65485194Y-7981321D01*
X65762371Y-8652140D01*
X66275160Y-9165826D01*
X66945494Y-9444173D01*
X67671321Y-9444806D01*
X68342140Y-9167629D01*
X68855826Y-8654840D01*
X69134173Y-7984506D01*
X69134175Y-7981321D01*
X75645194Y-7981321D01*
X75922371Y-8652140D01*
X76435160Y-9165826D01*
X77105494Y-9444173D01*
X77831321Y-9444806D01*
X78502140Y-9167629D01*
X78925508Y-8745000D01*
X87164010Y-8745000D01*
X92155713Y-13736703D01*
X92155194Y-14331321D01*
X92432371Y-15002140D01*
X92945160Y-15515826D01*
X93615494Y-15794173D01*
X94341321Y-15794806D01*
X95012140Y-15517629D01*
X95525826Y-15004840D01*
X95804173Y-14334506D01*
X95804806Y-13608679D01*
X95527629Y-12937860D01*
X95014840Y-12424174D01*
X94344506Y-12145827D01*
X93746295Y-12145305D01*
X88425495Y-6824505D01*
X88071330Y-6587860D01*
X88060519Y-6580636D01*
X87630000Y-6495000D01*
X78924931Y-6495000D01*
X78504840Y-6074174D01*
X77834506Y-5795827D01*
X77108679Y-5795194D01*
X76437860Y-6072371D01*
X75924174Y-6585160D01*
X75645827Y-7255494D01*
X75645194Y-7981321D01*
X69134175Y-7981321D01*
X69134806Y-7258679D01*
X68857629Y-6587860D01*
X68344840Y-6074174D01*
X67674506Y-5795827D01*
X66948679Y-5795194D01*
X66277860Y-6072371D01*
X65764174Y-6585160D01*
X65485827Y-7255494D01*
X65485194Y-7981321D01*
X63275000Y-7981321D01*
X63275000Y-6041109D01*
X63399715Y-5916611D01*
X63624743Y-5374683D01*
X63625256Y-4787892D01*
X63401173Y-4245571D01*
X62986611Y-3830285D01*
X62444683Y-3605257D01*
X61857892Y-3604744D01*
X61315571Y-3828827D01*
X60900285Y-4243389D01*
X60675257Y-4785317D01*
X60674744Y-5372108D01*
X60898827Y-5914429D01*
X61025000Y-6040822D01*
X61025000Y-8810000D01*
X61110636Y-9240519D01*
X61193481Y-9364505D01*
X61354505Y-9605495D01*
X63974505Y-12225495D01*
X64339482Y-12469365D01*
X64770000Y-12555000D01*
X66144999Y-12555000D01*
X65764174Y-12935160D01*
X65485827Y-13605494D01*
X65485305Y-14203705D01*
X61434505Y-18254505D01*
X61190636Y-18619481D01*
X61105000Y-19050000D01*
X61105000Y-22518869D01*
X60901173Y-22025571D01*
X60486611Y-21610285D01*
X59944683Y-21385257D01*
X59357892Y-21384744D01*
X58815571Y-21608827D01*
X58558594Y-21865356D01*
X58402951Y-21623482D01*
X58127259Y-21435110D01*
X57800000Y-21368838D01*
X56500000Y-21368838D01*
X56232843Y-21419107D01*
X56143140Y-20968139D01*
X55790885Y-20440951D01*
X55609869Y-20320000D01*
X55790885Y-20199049D01*
X56143140Y-19671861D01*
X56266836Y-19050000D01*
X56143140Y-18428139D01*
X55790885Y-17900951D01*
X55609869Y-17780000D01*
X55790885Y-17659049D01*
X56143140Y-17131861D01*
X56266836Y-16510000D01*
X56255911Y-16455079D01*
X57945495Y-14765495D01*
X58189364Y-14400519D01*
X58275000Y-13970000D01*
X58275000Y-13054669D01*
X58324796Y-12934747D01*
X58325204Y-12467303D01*
X58275000Y-12345800D01*
X58275000Y-10514669D01*
X58324796Y-10394747D01*
X58325204Y-9927303D01*
X58275000Y-9805800D01*
X58275000Y-6404711D01*
X58386518Y-6332951D01*
X58574890Y-6057259D01*
X58641162Y-5730000D01*
X58641162Y-4430000D01*
X58583636Y-4124273D01*
X58402951Y-3843482D01*
X58127259Y-3655110D01*
X57800000Y-3588838D01*
X56500000Y-3588838D01*
X56194273Y-3646364D01*
X55913482Y-3827049D01*
X55725110Y-4102741D01*
X55658838Y-4430000D01*
X55658838Y-5730000D01*
X55716364Y-6035727D01*
X55897049Y-6316518D01*
X56025000Y-6403943D01*
X56025000Y-9805331D01*
X55975204Y-9925253D01*
X55974796Y-10392697D01*
X56025000Y-10514200D01*
X56025000Y-12345331D01*
X55975204Y-12465253D01*
X55974796Y-12932697D01*
X56025000Y-13054200D01*
X56025000Y-13504010D01*
X54643649Y-14885361D01*
X54641836Y-14885000D01*
X54578164Y-14885000D01*
X53956303Y-15008696D01*
X53429115Y-15360951D01*
X53195000Y-15711330D01*
X53195000Y-6404711D01*
X53306518Y-6332951D01*
X53494890Y-6057259D01*
X53561162Y-5730000D01*
X53561162Y-4430000D01*
X53503636Y-4124273D01*
X53322951Y-3843482D01*
X53047259Y-3655110D01*
X52720000Y-3588838D01*
X51420000Y-3588838D01*
X51114273Y-3646364D01*
X50833482Y-3827049D01*
X50645110Y-4102741D01*
X50578838Y-4430000D01*
X50578838Y-5730000D01*
X50636364Y-6035727D01*
X50817049Y-6316518D01*
X50945000Y-6403943D01*
X50945000Y-20320000D01*
X51030636Y-20750519D01*
X51176045Y-20968139D01*
X51274505Y-21115495D01*
X52544505Y-22385495D01*
X52909481Y-22629364D01*
X53340000Y-22715000D01*
X53413046Y-22715000D01*
X53429115Y-22739049D01*
X53610131Y-22860000D01*
X53429115Y-22980951D01*
X53076860Y-23508139D01*
X52953164Y-24130000D01*
X53076860Y-24751861D01*
X53429115Y-25279049D01*
X53610131Y-25400000D01*
X53429115Y-25520951D01*
X53076860Y-26048139D01*
X52953164Y-26670000D01*
X53076860Y-27291861D01*
X53429115Y-27819049D01*
X53610131Y-27940000D01*
X53429115Y-28060951D01*
X53076860Y-28588139D01*
X52953164Y-29210000D01*
X53076860Y-29831861D01*
X53429115Y-30359049D01*
X53610131Y-30480000D01*
X53429115Y-30600951D01*
X53076860Y-31128139D01*
X52953164Y-31750000D01*
X53076860Y-32371861D01*
X53429115Y-32899049D01*
X53956303Y-33251304D01*
X54578164Y-33375000D01*
X54641836Y-33375000D01*
X55263697Y-33251304D01*
X55579381Y-33040371D01*
X56103715Y-33564705D01*
X56153302Y-33684715D01*
X56483547Y-34015536D01*
X56915253Y-34194796D01*
X57382697Y-34195204D01*
X57814715Y-34016698D01*
X58145536Y-33686453D01*
X58195952Y-33565038D01*
X62324802Y-29436188D01*
X62324796Y-29442697D01*
X62503302Y-29874715D01*
X62833547Y-30205536D01*
X63265253Y-30384796D01*
X63732697Y-30385204D01*
X64164715Y-30206698D01*
X64495536Y-29876453D01*
X64545952Y-29755038D01*
X65565495Y-28735495D01*
X65809364Y-28370519D01*
X65895000Y-27940000D01*
X65895000Y-27835001D01*
X66275160Y-28215826D01*
X66945494Y-28494173D01*
X67543705Y-28494695D01*
X68725000Y-29675990D01*
X68725000Y-31854999D01*
X68344840Y-31474174D01*
X67674506Y-31195827D01*
X66948679Y-31195194D01*
X66277860Y-31472371D01*
X65764174Y-31985160D01*
X65485827Y-32655494D01*
X65485305Y-33253705D01*
X64304010Y-34435000D01*
X47455990Y-34435000D01*
X46515495Y-33494505D01*
X46395766Y-33414505D01*
X46150519Y-33250636D01*
X45720000Y-33165000D01*
X39835990Y-33165000D01*
X39473484Y-32802494D01*
X39524890Y-32727259D01*
X39591162Y-32400000D01*
X39591162Y-31100000D01*
X39533636Y-30794273D01*
X39352951Y-30513482D01*
X39091734Y-30335000D01*
X41444010Y-30335000D01*
X43654505Y-32545495D01*
X44019481Y-32789364D01*
X44450000Y-32875000D01*
X45793046Y-32875000D01*
X45809115Y-32899049D01*
X46336303Y-33251304D01*
X46958164Y-33375000D01*
X47021836Y-33375000D01*
X47643697Y-33251304D01*
X48170885Y-32899049D01*
X48523140Y-32371861D01*
X48646836Y-31750000D01*
X48523140Y-31128139D01*
X48170885Y-30600951D01*
X47989869Y-30480000D01*
X48170885Y-30359049D01*
X48523140Y-29831861D01*
X48646836Y-29210000D01*
X48523140Y-28588139D01*
X48170885Y-28060951D01*
X47989869Y-27940000D01*
X48170885Y-27819049D01*
X48523140Y-27291861D01*
X48646836Y-26670000D01*
X48523140Y-26048139D01*
X48170885Y-25520951D01*
X48018503Y-25419133D01*
X48359648Y-25094206D01*
X48624375Y-24496669D01*
X48640282Y-24416691D01*
X48446035Y-24155000D01*
X47015000Y-24155000D01*
X47015000Y-24175000D01*
X46965000Y-24175000D01*
X46965000Y-24155000D01*
X46945000Y-24155000D01*
X46945000Y-24105000D01*
X46965000Y-24105000D01*
X46965000Y-24085000D01*
X47015000Y-24085000D01*
X47015000Y-24105000D01*
X48446035Y-24105000D01*
X48640282Y-23843309D01*
X48624375Y-23763331D01*
X48359648Y-23165794D01*
X48018503Y-22840867D01*
X48170885Y-22739049D01*
X48523140Y-22211861D01*
X48646836Y-21590000D01*
X48523140Y-20968139D01*
X48170885Y-20440951D01*
X47989869Y-20320000D01*
X48170885Y-20199049D01*
X48523140Y-19671861D01*
X48646836Y-19050000D01*
X48523140Y-18428139D01*
X48170885Y-17900951D01*
X47989869Y-17780000D01*
X48170885Y-17659049D01*
X48523140Y-17131861D01*
X48646836Y-16510000D01*
X48523140Y-15888139D01*
X48170885Y-15360951D01*
X47643697Y-15008696D01*
X47021836Y-14885000D01*
X46958164Y-14885000D01*
X46956351Y-14885361D01*
X45245495Y-13174505D01*
X45187226Y-13135571D01*
X44880519Y-12930636D01*
X44450000Y-12845000D01*
X41964711Y-12845000D01*
X41892951Y-12733482D01*
X41765000Y-12646057D01*
X41765000Y-6404711D01*
X41876518Y-6332951D01*
X42064890Y-6057259D01*
X42131162Y-5730000D01*
X42131162Y-5372108D01*
X45594744Y-5372108D01*
X45818827Y-5914429D01*
X46233389Y-6329715D01*
X46775317Y-6554743D01*
X47362108Y-6555256D01*
X47904429Y-6331173D01*
X48319715Y-5916611D01*
X48544743Y-5374683D01*
X48545256Y-4787892D01*
X48321173Y-4245571D01*
X47906611Y-3830285D01*
X47364683Y-3605257D01*
X46777892Y-3604744D01*
X46235571Y-3828827D01*
X45820285Y-4243389D01*
X45595257Y-4785317D01*
X45594744Y-5372108D01*
X42131162Y-5372108D01*
X42131162Y-4430000D01*
X42073636Y-4124273D01*
X41892951Y-3843482D01*
X41752582Y-3747572D01*
X41679364Y-3379481D01*
X41435495Y-3014505D01*
X40165495Y-1744505D01*
X39866914Y-1545000D01*
X92458726Y-1545000D01*
X92221030Y-1782281D01*
G36*
X34290000Y-20175000D02*
X45793046Y-20175000D01*
X45809115Y-20199049D01*
X45990131Y-20320000D01*
X45809115Y-20440951D01*
X45456860Y-20968139D01*
X45333164Y-21590000D01*
X45384842Y-21849800D01*
X45336941Y-21897701D01*
X45303590Y-21587546D01*
X44748622Y-21342444D01*
X44142103Y-21328376D01*
X43576368Y-21547484D01*
X43516410Y-21587546D01*
X43483059Y-21897703D01*
X44410000Y-22824645D01*
X44424142Y-22810502D01*
X44459498Y-22845858D01*
X44445355Y-22860000D01*
X44459498Y-22874142D01*
X44424142Y-22909498D01*
X44410000Y-22895355D01*
X43483059Y-23822297D01*
X43494578Y-23929417D01*
X43304353Y-24008211D01*
X43058211Y-24254352D01*
X43009028Y-24373090D01*
X42904686Y-24268566D01*
X43146518Y-24112951D01*
X43334890Y-23837259D01*
X43347267Y-23776141D01*
X43447703Y-23786941D01*
X44374645Y-22860000D01*
X43447703Y-21933059D01*
X43351009Y-21943456D01*
X43343636Y-21904273D01*
X43162951Y-21623482D01*
X42887259Y-21435110D01*
X42560000Y-21368838D01*
X41260000Y-21368838D01*
X40954273Y-21426364D01*
X40673482Y-21607049D01*
X40485110Y-21882741D01*
X40418838Y-22210000D01*
X40418838Y-23510000D01*
X40476364Y-23815727D01*
X40657049Y-24096518D01*
X40932741Y-24284890D01*
X40971423Y-24292723D01*
X40700285Y-24563389D01*
X40475257Y-25105317D01*
X40474744Y-25692108D01*
X40698827Y-26234429D01*
X41113389Y-26649715D01*
X41655317Y-26874743D01*
X42242108Y-26875256D01*
X42784429Y-26651173D01*
X43009044Y-26426949D01*
X43058211Y-26545648D01*
X43304353Y-26791789D01*
X43625952Y-26925000D01*
X44206250Y-26925000D01*
X44425000Y-26706250D01*
X44425000Y-25425000D01*
X44405000Y-25425000D01*
X44405000Y-25375000D01*
X44425000Y-25375000D01*
X44425000Y-25355000D01*
X44475000Y-25355000D01*
X44475000Y-25375000D01*
X44495000Y-25375000D01*
X44495000Y-25425000D01*
X44475000Y-25425000D01*
X44475000Y-26706250D01*
X44693750Y-26925000D01*
X45274048Y-26925000D01*
X45375526Y-26882966D01*
X45456860Y-27291861D01*
X45809115Y-27819049D01*
X45990131Y-27940000D01*
X45809115Y-28060951D01*
X45456860Y-28588139D01*
X45333164Y-29210000D01*
X45456860Y-29831861D01*
X45809115Y-30359049D01*
X45990131Y-30480000D01*
X45809115Y-30600951D01*
X45793046Y-30625000D01*
X44915990Y-30625000D01*
X42705495Y-28414505D01*
X42526643Y-28295000D01*
X42340519Y-28170636D01*
X41910000Y-28085000D01*
X38100000Y-28085000D01*
X37669481Y-28170636D01*
X37483357Y-28295000D01*
X37304505Y-28414505D01*
X35444147Y-30274863D01*
X35307892Y-30274744D01*
X34765571Y-30498827D01*
X34350285Y-30913389D01*
X34145000Y-31407771D01*
X34145000Y-20146158D01*
X34290000Y-20175000D01*
X34290000Y-20175000D01*
G37*
X34290000Y-20175000D02*
X45793046Y-20175000D01*
X45809115Y-20199049D01*
X45990131Y-20320000D01*
X45809115Y-20440951D01*
X45456860Y-20968139D01*
X45333164Y-21590000D01*
X45384842Y-21849800D01*
X45336941Y-21897701D01*
X45303590Y-21587546D01*
X44748622Y-21342444D01*
X44142103Y-21328376D01*
X43576368Y-21547484D01*
X43516410Y-21587546D01*
X43483059Y-21897703D01*
X44410000Y-22824645D01*
X44424142Y-22810502D01*
X44459498Y-22845858D01*
X44445355Y-22860000D01*
X44459498Y-22874142D01*
X44424142Y-22909498D01*
X44410000Y-22895355D01*
X43483059Y-23822297D01*
X43494578Y-23929417D01*
X43304353Y-24008211D01*
X43058211Y-24254352D01*
X43009028Y-24373090D01*
X42904686Y-24268566D01*
X43146518Y-24112951D01*
X43334890Y-23837259D01*
X43347267Y-23776141D01*
X43447703Y-23786941D01*
X44374645Y-22860000D01*
X43447703Y-21933059D01*
X43351009Y-21943456D01*
X43343636Y-21904273D01*
X43162951Y-21623482D01*
X42887259Y-21435110D01*
X42560000Y-21368838D01*
X41260000Y-21368838D01*
X40954273Y-21426364D01*
X40673482Y-21607049D01*
X40485110Y-21882741D01*
X40418838Y-22210000D01*
X40418838Y-23510000D01*
X40476364Y-23815727D01*
X40657049Y-24096518D01*
X40932741Y-24284890D01*
X40971423Y-24292723D01*
X40700285Y-24563389D01*
X40475257Y-25105317D01*
X40474744Y-25692108D01*
X40698827Y-26234429D01*
X41113389Y-26649715D01*
X41655317Y-26874743D01*
X42242108Y-26875256D01*
X42784429Y-26651173D01*
X43009044Y-26426949D01*
X43058211Y-26545648D01*
X43304353Y-26791789D01*
X43625952Y-26925000D01*
X44206250Y-26925000D01*
X44425000Y-26706250D01*
X44425000Y-25425000D01*
X44405000Y-25425000D01*
X44405000Y-25375000D01*
X44425000Y-25375000D01*
X44425000Y-25355000D01*
X44475000Y-25355000D01*
X44475000Y-25375000D01*
X44495000Y-25375000D01*
X44495000Y-25425000D01*
X44475000Y-25425000D01*
X44475000Y-26706250D01*
X44693750Y-26925000D01*
X45274048Y-26925000D01*
X45375526Y-26882966D01*
X45456860Y-27291861D01*
X45809115Y-27819049D01*
X45990131Y-27940000D01*
X45809115Y-28060951D01*
X45456860Y-28588139D01*
X45333164Y-29210000D01*
X45456860Y-29831861D01*
X45809115Y-30359049D01*
X45990131Y-30480000D01*
X45809115Y-30600951D01*
X45793046Y-30625000D01*
X44915990Y-30625000D01*
X42705495Y-28414505D01*
X42526643Y-28295000D01*
X42340519Y-28170636D01*
X41910000Y-28085000D01*
X38100000Y-28085000D01*
X37669481Y-28170636D01*
X37483357Y-28295000D01*
X37304505Y-28414505D01*
X35444147Y-30274863D01*
X35307892Y-30274744D01*
X34765571Y-30498827D01*
X34350285Y-30913389D01*
X34145000Y-31407771D01*
X34145000Y-20146158D01*
X34290000Y-20175000D01*
M02*
