M48
;DRILL file {KiCad 4.0.2-stable} date 2016 September 16, Friday 02:04:47
;FORMAT={-:-/ absolute / inch / decimal}
FMAT,2
INCH,TZ
T1C0.020
T2C0.024
T3C0.028
T4C0.031
T5C0.032
T6C0.039
T7C0.039
T8C0.040
T9C0.047
T10C0.055
T11C0.122
%
G90
G05
M72
T1
X1.25Y-0.8
X1.3Y-3.
X1.45Y-2.65
X2.25Y-0.5
X2.25Y-1.2
X2.5Y-1.15
X2.65Y-2.6
X2.75Y-3.
X3.Y-3.4
X3.05Y-1.45
X3.3Y-2.1
X3.5Y-2.1
T2
X1.25Y-1.05
X1.3Y-2.1
X2.Y-2.1
X2.2Y-2.1
X2.25Y-0.4
X2.25Y-1.3
X2.25Y-1.45
X2.65Y-1.5
X2.85Y-1.5
T3
X0.5Y-2.88
X0.5Y-3.42
T4
X0.2Y-2.35
X0.3Y-0.65
X0.3Y-0.8469
X0.3Y-1.15
X0.3Y-1.3469
X0.3Y-2.45
X0.4Y-2.1
X0.4Y-2.2
X0.4Y-2.3
X0.4Y-2.4
X0.45Y-1.75
X0.7Y-2.1
X0.7Y-2.2
X0.7Y-2.3
X0.7Y-2.4
X0.8Y-2.15
X0.9Y-2.25
X1.2Y-2.25
X1.4031Y-0.2
X1.4031Y-0.55
X1.5Y-1.25
X1.6Y-0.2
X1.6Y-0.55
X1.6Y-2.65
X1.6Y-2.95
X1.65Y-0.9
X1.7Y-2.65
X1.7Y-2.95
X1.75Y-1.
X1.75Y-2.45
X1.8Y-2.65
X1.8Y-2.95
X1.85Y-0.65
X1.85Y-0.75
X1.85Y-0.85
X1.85Y-0.95
X1.85Y-1.05
X1.85Y-1.15
X1.85Y-1.25
X1.85Y-2.45
X1.8531Y-0.2
X1.8531Y-1.85
X1.9Y-2.65
X1.9Y-2.95
X2.Y-2.65
X2.Y-2.95
X2.05Y-0.2
X2.05Y-1.85
X2.1Y-2.65
X2.1Y-2.95
X2.15Y-0.65
X2.15Y-0.75
X2.15Y-0.85
X2.15Y-0.95
X2.15Y-1.05
X2.15Y-1.15
X2.15Y-1.25
X2.2Y-2.65
X2.2Y-2.95
X2.25Y-0.2
X2.25Y-0.9
X2.25Y-1.55
X2.25Y-1.85
X2.3Y-2.65
X2.3Y-2.95
X2.35Y-1.
X2.4469Y-0.2
X2.4469Y-1.85
X2.9Y-2.85
X3.05Y-2.75
X3.05Y-3.05
X3.15Y-2.7
X3.15Y-2.75
X3.15Y-3.05
X3.25Y-2.75
X3.25Y-3.05
X3.25Y-3.3
X3.3Y-2.6
X3.35Y-2.75
X3.35Y-3.05
X3.35Y-3.1
X3.35Y-3.3
X3.4Y-2.6
T5
X0.2016Y-2.45
X0.2984Y-2.35
X0.3516Y-1.75
X0.8016Y-2.25
X0.8984Y-2.15
X1.2984Y-2.25
X1.4016Y-1.25
X1.6516Y-1.
X1.7484Y-0.9
X1.75Y-2.5484
X1.85Y-2.5484
X2.2516Y-1.
X2.3484Y-0.9
X2.3484Y-1.55
X2.9Y-2.9484
X3.15Y-2.6016
X3.25Y-3.2016
X3.2516Y-3.1
X3.3Y-2.5016
X3.35Y-3.2016
X3.4Y-2.5016
T7
X0.5Y-2.65
X0.7Y-0.15
X0.7Y-0.4
X0.7Y-0.65
X0.7Y-0.9
X0.7Y-1.15
X0.7Y-1.4
X0.7Y-1.65
X0.9Y-2.65
X1.1Y-0.15
X1.1Y-0.4
X1.1Y-0.65
X1.1Y-0.9
X1.1Y-1.15
X1.1Y-1.4
X1.1Y-1.65
X1.2Y-3.15
X1.4Y-1.5
X1.4Y-1.9
X1.6Y-3.15
X1.65Y-1.5
X1.65Y-1.9
X2.6Y-2.85
X2.6Y-3.25
X2.65Y-0.3
X2.65Y-0.55
X2.65Y-0.8
X2.65Y-1.05
X2.65Y-1.3
X2.65Y-1.75
X3.05Y-0.3
X3.05Y-0.55
X3.05Y-0.8
X3.05Y-1.05
X3.05Y-1.3
X3.05Y-1.75
X3.3Y-0.55
X3.3Y-0.8
X3.3Y-1.05
X3.5Y-2.7
X3.5Y-3.1
X3.6Y-2.7
X3.6Y-3.1
X3.7Y-0.55
X3.7Y-0.8
X3.7Y-1.05
T8
X0.4Y-0.15
X0.4Y-0.25
X0.4Y-0.35
X1.05Y-3.7
X1.15Y-3.7
X1.25Y-3.7
X1.6Y-2.2
X1.6Y-2.3
X1.6Y-3.6
X1.6Y-3.7
X1.7Y-2.2
X1.7Y-2.3
X1.7Y-3.05
X1.7Y-3.15
X1.7Y-3.6
X1.7Y-3.7
X1.8Y-2.2
X1.8Y-2.3
X1.8Y-3.05
X1.8Y-3.15
X1.8Y-3.6
X1.8Y-3.7
X1.9Y-2.2
X1.9Y-2.3
X1.9Y-3.05
X1.9Y-3.15
X1.9Y-3.6
X1.9Y-3.7
X2.Y-2.2
X2.Y-2.3
X2.Y-3.05
X2.Y-3.15
X2.Y-3.6
X2.Y-3.7
X2.1Y-2.2
X2.1Y-2.3
X2.1Y-3.05
X2.1Y-3.15
X2.1Y-3.6
X2.1Y-3.7
X2.2Y-2.2
X2.2Y-2.3
X2.2Y-3.05
X2.2Y-3.15
X2.2Y-3.6
X2.2Y-3.7
X2.3Y-2.2
X2.3Y-2.3
X2.3Y-3.05
X2.3Y-3.15
X2.3Y-3.6
X2.3Y-3.7
X2.4Y-2.2
X2.4Y-2.3
X2.4Y-3.6
X2.4Y-3.7
X2.5Y-2.2
X2.5Y-2.3
X2.5Y-3.6
X2.5Y-3.7
X2.6Y-2.2
X2.6Y-2.3
X2.6Y-3.6
X2.6Y-3.7
X2.7Y-2.2
X2.7Y-2.3
X2.7Y-3.6
X2.7Y-3.7
X2.8Y-2.2
X2.8Y-2.3
X2.8Y-3.6
X2.8Y-3.7
X2.9Y-2.2
X2.9Y-2.3
X2.9Y-3.6
X2.9Y-3.7
X3.Y-2.2
X3.Y-2.3
X3.Y-3.6
X3.Y-3.7
X3.1Y-2.2
X3.1Y-2.3
X3.1Y-3.6
X3.1Y-3.7
X3.2Y-2.2
X3.2Y-2.3
X3.2Y-3.6
X3.2Y-3.7
X3.25Y-1.65
X3.25Y-1.75
X3.3Y-2.2
X3.3Y-2.3
X3.3Y-3.6
X3.3Y-3.7
X3.4Y-2.2
X3.4Y-2.3
X3.4Y-3.6
X3.4Y-3.7
X3.5Y-2.2
X3.5Y-2.3
X3.5Y-3.6
X3.5Y-3.7
T9
X0.5Y-2.95
T10
X0.5Y-3.35
T11
X0.15Y-0.15
X0.15Y-3.75
X1.95Y-1.55
X3.75Y-0.15
X3.75Y-3.75
T3
X0.25Y-3.0402G85X0.25Y-3.0598
G05
X0.25Y-3.2402G85X0.25Y-3.2598
G05
X0.75Y-3.0402G85X0.75Y-3.0598
G05
X0.75Y-3.2402G85X0.75Y-3.2598
G05
T6
X3.4862Y-1.5G85X3.5138Y-1.5
G05
X3.4862Y-1.6G85X3.5138Y-1.6
G05
X3.4862Y-1.8G85X3.5138Y-1.8
G05
X3.4862Y-1.8921G85X3.5138Y-1.8921
G05
X3.7Y-1.7138G85X3.7Y-1.6862
G05
T9
X3.5Y-1.7G85X3.5Y-1.7
G05
X3.7Y-1.5G85X3.7Y-1.5
G05
X3.7Y-1.9G85X3.7Y-1.9
G05
X3.8Y-1.5G85X3.8Y-1.5
G05
X3.8Y-1.9G85X3.8Y-1.9
G05
T0
M30
