G04 #@! TF.FileFunction,Other,Fab,Top*
%FSLAX46Y46*%
G04 Gerber Fmt 4.6, Leading zero omitted, Abs format (unit mm)*
G04 Created by KiCad (PCBNEW 4.0.2-stable) date 2016 September 16, Friday 02:04:32*
%MOMM*%
G01*
G04 APERTURE LIST*
%ADD10C,0.100000*%
%ADD11C,0.150000*%
G04 APERTURE END LIST*
D10*
D11*
X7485619Y-70762762D02*
X7628476Y-70810381D01*
X7866572Y-70810381D01*
X7961810Y-70762762D01*
X8009429Y-70715143D01*
X8057048Y-70619905D01*
X8057048Y-70524667D01*
X8009429Y-70429429D01*
X7961810Y-70381810D01*
X7866572Y-70334190D01*
X7676095Y-70286571D01*
X7580857Y-70238952D01*
X7533238Y-70191333D01*
X7485619Y-70096095D01*
X7485619Y-70000857D01*
X7533238Y-69905619D01*
X7580857Y-69858000D01*
X7676095Y-69810381D01*
X7914191Y-69810381D01*
X8057048Y-69858000D01*
X8390381Y-70143714D02*
X8580857Y-70810381D01*
X8771334Y-70334190D01*
X8961810Y-70810381D01*
X9152286Y-70143714D01*
X9533238Y-70810381D02*
X9533238Y-70143714D01*
X9533238Y-69810381D02*
X9485619Y-69858000D01*
X9533238Y-69905619D01*
X9580857Y-69858000D01*
X9533238Y-69810381D01*
X9533238Y-69905619D01*
X9866571Y-70143714D02*
X10247523Y-70143714D01*
X10009428Y-69810381D02*
X10009428Y-70667524D01*
X10057047Y-70762762D01*
X10152285Y-70810381D01*
X10247523Y-70810381D01*
X11009429Y-70762762D02*
X10914191Y-70810381D01*
X10723714Y-70810381D01*
X10628476Y-70762762D01*
X10580857Y-70715143D01*
X10533238Y-70619905D01*
X10533238Y-70334190D01*
X10580857Y-70238952D01*
X10628476Y-70191333D01*
X10723714Y-70143714D01*
X10914191Y-70143714D01*
X11009429Y-70191333D01*
X11438000Y-70810381D02*
X11438000Y-69810381D01*
X11866572Y-70810381D02*
X11866572Y-70286571D01*
X11818953Y-70191333D01*
X11723715Y-70143714D01*
X11580857Y-70143714D01*
X11485619Y-70191333D01*
X11438000Y-70238952D01*
X12104667Y-70905619D02*
X12866572Y-70905619D01*
X13104667Y-70810381D02*
X13104667Y-69810381D01*
X13342762Y-69810381D01*
X13485620Y-69858000D01*
X13580858Y-69953238D01*
X13628477Y-70048476D01*
X13676096Y-70238952D01*
X13676096Y-70381810D01*
X13628477Y-70572286D01*
X13580858Y-70667524D01*
X13485620Y-70762762D01*
X13342762Y-70810381D01*
X13104667Y-70810381D01*
X14104667Y-70810381D02*
X14104667Y-69810381D01*
X14485620Y-69810381D01*
X14580858Y-69858000D01*
X14628477Y-69905619D01*
X14676096Y-70000857D01*
X14676096Y-70143714D01*
X14628477Y-70238952D01*
X14580858Y-70286571D01*
X14485620Y-70334190D01*
X14104667Y-70334190D01*
X15057048Y-70762762D02*
X15199905Y-70810381D01*
X15438001Y-70810381D01*
X15533239Y-70762762D01*
X15580858Y-70715143D01*
X15628477Y-70619905D01*
X15628477Y-70524667D01*
X15580858Y-70429429D01*
X15533239Y-70381810D01*
X15438001Y-70334190D01*
X15247524Y-70286571D01*
X15152286Y-70238952D01*
X15104667Y-70191333D01*
X15057048Y-70096095D01*
X15057048Y-70000857D01*
X15104667Y-69905619D01*
X15152286Y-69858000D01*
X15247524Y-69810381D01*
X15485620Y-69810381D01*
X15628477Y-69858000D01*
X15914191Y-69810381D02*
X16485620Y-69810381D01*
X16199905Y-70810381D02*
X16199905Y-69810381D01*
X85812381Y-45822857D02*
X86526667Y-45822857D01*
X86669524Y-45870477D01*
X86764762Y-45965715D01*
X86812381Y-46108572D01*
X86812381Y-46203810D01*
X86526667Y-45394286D02*
X86526667Y-44918095D01*
X86812381Y-45489524D02*
X85812381Y-45156191D01*
X86812381Y-44822857D01*
X86717143Y-43918095D02*
X86764762Y-43965714D01*
X86812381Y-44108571D01*
X86812381Y-44203809D01*
X86764762Y-44346667D01*
X86669524Y-44441905D01*
X86574286Y-44489524D01*
X86383810Y-44537143D01*
X86240952Y-44537143D01*
X86050476Y-44489524D01*
X85955238Y-44441905D01*
X85860000Y-44346667D01*
X85812381Y-44203809D01*
X85812381Y-44108571D01*
X85860000Y-43965714D01*
X85907619Y-43918095D01*
X86812381Y-43489524D02*
X85812381Y-43489524D01*
X86812381Y-42918095D02*
X86240952Y-43346667D01*
X85812381Y-42918095D02*
X86383810Y-43489524D01*
X86907619Y-42727619D02*
X86907619Y-41965714D01*
X85907619Y-41775238D02*
X85860000Y-41727619D01*
X85812381Y-41632381D01*
X85812381Y-41394285D01*
X85860000Y-41299047D01*
X85907619Y-41251428D01*
X86002857Y-41203809D01*
X86098095Y-41203809D01*
X86240952Y-41251428D01*
X86812381Y-41822857D01*
X86812381Y-41203809D01*
X86812381Y-40775238D02*
X85812381Y-40775238D01*
X85812381Y-40394285D01*
X85860000Y-40299047D01*
X85907619Y-40251428D01*
X86002857Y-40203809D01*
X86145714Y-40203809D01*
X86240952Y-40251428D01*
X86288571Y-40299047D01*
X86336190Y-40394285D01*
X86336190Y-40775238D01*
X17565715Y-69032381D02*
X16994286Y-69032381D01*
X17280000Y-69032381D02*
X17280000Y-68032381D01*
X17184762Y-68175238D01*
X17089524Y-68270476D01*
X16994286Y-68318095D01*
X17994286Y-69032381D02*
X17994286Y-68032381D01*
X18565715Y-69032381D02*
X18137143Y-68460952D01*
X18565715Y-68032381D02*
X17994286Y-68603810D01*
X72175715Y-43632381D02*
X71604286Y-43632381D01*
X71890000Y-43632381D02*
X71890000Y-42632381D01*
X71794762Y-42775238D01*
X71699524Y-42870476D01*
X71604286Y-42918095D01*
X72604286Y-43632381D02*
X72604286Y-42632381D01*
X73175715Y-43632381D02*
X72747143Y-43060952D01*
X73175715Y-42632381D02*
X72604286Y-43203810D01*
X86812381Y-82788095D02*
X86812381Y-83359524D01*
X86812381Y-83073810D02*
X85812381Y-83073810D01*
X85955238Y-83169048D01*
X86050476Y-83264286D01*
X86098095Y-83359524D01*
X86145714Y-82359524D02*
X87145714Y-82359524D01*
X86669524Y-81883333D02*
X86764762Y-81835714D01*
X86812381Y-81740476D01*
X86669524Y-82359524D02*
X86764762Y-82311905D01*
X86812381Y-82216667D01*
X86812381Y-82026190D01*
X86764762Y-81930952D01*
X86669524Y-81883333D01*
X86145714Y-81883333D01*
X88082381Y-65484285D02*
X88082381Y-66055714D01*
X88082381Y-65770000D02*
X87082381Y-65770000D01*
X87225238Y-65865238D01*
X87320476Y-65960476D01*
X87368095Y-66055714D01*
X87082381Y-64865238D02*
X87082381Y-64769999D01*
X87130000Y-64674761D01*
X87177619Y-64627142D01*
X87272857Y-64579523D01*
X87463333Y-64531904D01*
X87701429Y-64531904D01*
X87891905Y-64579523D01*
X87987143Y-64627142D01*
X88034762Y-64674761D01*
X88082381Y-64769999D01*
X88082381Y-64865238D01*
X88034762Y-64960476D01*
X87987143Y-65008095D01*
X87891905Y-65055714D01*
X87701429Y-65103333D01*
X87463333Y-65103333D01*
X87272857Y-65055714D01*
X87177619Y-65008095D01*
X87130000Y-64960476D01*
X87082381Y-64865238D01*
X87415714Y-64103333D02*
X88415714Y-64103333D01*
X87939524Y-63627142D02*
X88034762Y-63579523D01*
X88082381Y-63484285D01*
X87939524Y-64103333D02*
X88034762Y-64055714D01*
X88082381Y-63960476D01*
X88082381Y-63769999D01*
X88034762Y-63674761D01*
X87939524Y-63627142D01*
X87415714Y-63627142D01*
X85542381Y-65008095D02*
X85542381Y-65579524D01*
X85542381Y-65293810D02*
X84542381Y-65293810D01*
X84685238Y-65389048D01*
X84780476Y-65484286D01*
X84828095Y-65579524D01*
X84875714Y-64579524D02*
X85875714Y-64579524D01*
X85399524Y-64103333D02*
X85494762Y-64055714D01*
X85542381Y-63960476D01*
X85399524Y-64579524D02*
X85494762Y-64531905D01*
X85542381Y-64436667D01*
X85542381Y-64246190D01*
X85494762Y-64150952D01*
X85399524Y-64103333D01*
X84875714Y-64103333D01*
X84272381Y-83264285D02*
X84272381Y-83835714D01*
X84272381Y-83550000D02*
X83272381Y-83550000D01*
X83415238Y-83645238D01*
X83510476Y-83740476D01*
X83558095Y-83835714D01*
X83272381Y-82645238D02*
X83272381Y-82549999D01*
X83320000Y-82454761D01*
X83367619Y-82407142D01*
X83462857Y-82359523D01*
X83653333Y-82311904D01*
X83891429Y-82311904D01*
X84081905Y-82359523D01*
X84177143Y-82407142D01*
X84224762Y-82454761D01*
X84272381Y-82549999D01*
X84272381Y-82645238D01*
X84224762Y-82740476D01*
X84177143Y-82788095D01*
X84081905Y-82835714D01*
X83891429Y-82883333D01*
X83653333Y-82883333D01*
X83462857Y-82835714D01*
X83367619Y-82788095D01*
X83320000Y-82740476D01*
X83272381Y-82645238D01*
X83605714Y-81883333D02*
X84605714Y-81883333D01*
X84129524Y-81407142D02*
X84224762Y-81359523D01*
X84272381Y-81264285D01*
X84129524Y-81883333D02*
X84224762Y-81835714D01*
X84272381Y-81740476D01*
X84272381Y-81549999D01*
X84224762Y-81454761D01*
X84129524Y-81407142D01*
X83605714Y-81407142D01*
X72842381Y-73826666D02*
X72842381Y-74398095D01*
X72842381Y-74112381D02*
X71842381Y-74112381D01*
X71985238Y-74207619D01*
X72080476Y-74302857D01*
X72128095Y-74398095D01*
X72175714Y-73398095D02*
X72842381Y-73398095D01*
X72270952Y-73398095D02*
X72223333Y-73350476D01*
X72175714Y-73255238D01*
X72175714Y-73112380D01*
X72223333Y-73017142D01*
X72318571Y-72969523D01*
X72842381Y-72969523D01*
X81637143Y-68786190D02*
X81684762Y-68738571D01*
X81732381Y-68786190D01*
X81684762Y-68833809D01*
X81637143Y-68786190D01*
X81732381Y-68786190D01*
X80732381Y-68119524D02*
X80732381Y-68024285D01*
X80780000Y-67929047D01*
X80827619Y-67881428D01*
X80922857Y-67833809D01*
X81113333Y-67786190D01*
X81351429Y-67786190D01*
X81541905Y-67833809D01*
X81637143Y-67881428D01*
X81684762Y-67929047D01*
X81732381Y-68024285D01*
X81732381Y-68119524D01*
X81684762Y-68214762D01*
X81637143Y-68262381D01*
X81541905Y-68310000D01*
X81351429Y-68357619D01*
X81113333Y-68357619D01*
X80922857Y-68310000D01*
X80827619Y-68262381D01*
X80780000Y-68214762D01*
X80732381Y-68119524D01*
X81732381Y-66833809D02*
X81732381Y-67405238D01*
X81732381Y-67119524D02*
X80732381Y-67119524D01*
X80875238Y-67214762D01*
X80970476Y-67310000D01*
X81018095Y-67405238D01*
X81065714Y-66405238D02*
X82065714Y-66405238D01*
X81589524Y-65929047D02*
X81684762Y-65881428D01*
X81732381Y-65786190D01*
X81589524Y-66405238D02*
X81684762Y-66357619D01*
X81732381Y-66262381D01*
X81732381Y-66071904D01*
X81684762Y-65976666D01*
X81589524Y-65929047D01*
X81065714Y-65929047D01*
X82343810Y-77827143D02*
X82391429Y-77874762D01*
X82343810Y-77922381D01*
X82296191Y-77874762D01*
X82343810Y-77827143D01*
X82343810Y-77922381D01*
X83010476Y-76922381D02*
X83105715Y-76922381D01*
X83200953Y-76970000D01*
X83248572Y-77017619D01*
X83296191Y-77112857D01*
X83343810Y-77303333D01*
X83343810Y-77541429D01*
X83296191Y-77731905D01*
X83248572Y-77827143D01*
X83200953Y-77874762D01*
X83105715Y-77922381D01*
X83010476Y-77922381D01*
X82915238Y-77874762D01*
X82867619Y-77827143D01*
X82820000Y-77731905D01*
X82772381Y-77541429D01*
X82772381Y-77303333D01*
X82820000Y-77112857D01*
X82867619Y-77017619D01*
X82915238Y-76970000D01*
X83010476Y-76922381D01*
X84296191Y-77922381D02*
X83724762Y-77922381D01*
X84010476Y-77922381D02*
X84010476Y-76922381D01*
X83915238Y-77065238D01*
X83820000Y-77160476D01*
X83724762Y-77208095D01*
X84724762Y-77255714D02*
X84724762Y-78255714D01*
X85200953Y-77779524D02*
X85248572Y-77874762D01*
X85343810Y-77922381D01*
X84724762Y-77779524D02*
X84772381Y-77874762D01*
X84867619Y-77922381D01*
X85058096Y-77922381D01*
X85153334Y-77874762D01*
X85200953Y-77779524D01*
X85200953Y-77255714D01*
X88082381Y-74350476D02*
X88082381Y-74921905D01*
X88082381Y-74636191D02*
X87082381Y-74636191D01*
X87225238Y-74731429D01*
X87320476Y-74826667D01*
X87368095Y-74921905D01*
X87082381Y-73731429D02*
X87082381Y-73636190D01*
X87130000Y-73540952D01*
X87177619Y-73493333D01*
X87272857Y-73445714D01*
X87463333Y-73398095D01*
X87701429Y-73398095D01*
X87891905Y-73445714D01*
X87987143Y-73493333D01*
X88034762Y-73540952D01*
X88082381Y-73636190D01*
X88082381Y-73731429D01*
X88034762Y-73826667D01*
X87987143Y-73874286D01*
X87891905Y-73921905D01*
X87701429Y-73969524D01*
X87463333Y-73969524D01*
X87272857Y-73921905D01*
X87177619Y-73874286D01*
X87130000Y-73826667D01*
X87082381Y-73731429D01*
X88082381Y-72969524D02*
X87082381Y-72969524D01*
X88082381Y-72398095D02*
X87510952Y-72826667D01*
X87082381Y-72398095D02*
X87653810Y-72969524D01*
X93162381Y-74350476D02*
X93162381Y-74921905D01*
X93162381Y-74636191D02*
X92162381Y-74636191D01*
X92305238Y-74731429D01*
X92400476Y-74826667D01*
X92448095Y-74921905D01*
X92162381Y-73445714D02*
X92162381Y-73921905D01*
X92638571Y-73969524D01*
X92590952Y-73921905D01*
X92543333Y-73826667D01*
X92543333Y-73588571D01*
X92590952Y-73493333D01*
X92638571Y-73445714D01*
X92733810Y-73398095D01*
X92971905Y-73398095D01*
X93067143Y-73445714D01*
X93114762Y-73493333D01*
X93162381Y-73588571D01*
X93162381Y-73826667D01*
X93114762Y-73921905D01*
X93067143Y-73969524D01*
X93162381Y-72969524D02*
X92162381Y-72969524D01*
X93162381Y-72398095D02*
X92590952Y-72826667D01*
X92162381Y-72398095D02*
X92733810Y-72969524D01*
X42632381Y-65261905D02*
X42632381Y-65166666D01*
X42680000Y-65071428D01*
X42727619Y-65023809D01*
X42822857Y-64976190D01*
X43013333Y-64928571D01*
X43251429Y-64928571D01*
X43441905Y-64976190D01*
X43537143Y-65023809D01*
X43584762Y-65071428D01*
X43632381Y-65166666D01*
X43632381Y-65261905D01*
X43584762Y-65357143D01*
X43537143Y-65404762D01*
X43441905Y-65452381D01*
X43251429Y-65500000D01*
X43013333Y-65500000D01*
X42822857Y-65452381D01*
X42727619Y-65404762D01*
X42680000Y-65357143D01*
X42632381Y-65261905D01*
X43537143Y-64500000D02*
X43584762Y-64452381D01*
X43632381Y-64500000D01*
X43584762Y-64547619D01*
X43537143Y-64500000D01*
X43632381Y-64500000D01*
X42632381Y-64119048D02*
X42632381Y-63500000D01*
X43013333Y-63833334D01*
X43013333Y-63690476D01*
X43060952Y-63595238D01*
X43108571Y-63547619D01*
X43203810Y-63500000D01*
X43441905Y-63500000D01*
X43537143Y-63547619D01*
X43584762Y-63595238D01*
X43632381Y-63690476D01*
X43632381Y-63976191D01*
X43584762Y-64071429D01*
X43537143Y-64119048D01*
X42632381Y-63166667D02*
X42632381Y-62547619D01*
X43013333Y-62880953D01*
X43013333Y-62738095D01*
X43060952Y-62642857D01*
X43108571Y-62595238D01*
X43203810Y-62547619D01*
X43441905Y-62547619D01*
X43537143Y-62595238D01*
X43584762Y-62642857D01*
X43632381Y-62738095D01*
X43632381Y-63023810D01*
X43584762Y-63119048D01*
X43537143Y-63166667D01*
X42965714Y-62119048D02*
X43965714Y-62119048D01*
X43489524Y-61642857D02*
X43584762Y-61595238D01*
X43632381Y-61500000D01*
X43489524Y-62119048D02*
X43584762Y-62071429D01*
X43632381Y-61976191D01*
X43632381Y-61785714D01*
X43584762Y-61690476D01*
X43489524Y-61642857D01*
X42965714Y-61642857D01*
X45172381Y-65261905D02*
X45172381Y-65166666D01*
X45220000Y-65071428D01*
X45267619Y-65023809D01*
X45362857Y-64976190D01*
X45553333Y-64928571D01*
X45791429Y-64928571D01*
X45981905Y-64976190D01*
X46077143Y-65023809D01*
X46124762Y-65071428D01*
X46172381Y-65166666D01*
X46172381Y-65261905D01*
X46124762Y-65357143D01*
X46077143Y-65404762D01*
X45981905Y-65452381D01*
X45791429Y-65500000D01*
X45553333Y-65500000D01*
X45362857Y-65452381D01*
X45267619Y-65404762D01*
X45220000Y-65357143D01*
X45172381Y-65261905D01*
X46077143Y-64500000D02*
X46124762Y-64452381D01*
X46172381Y-64500000D01*
X46124762Y-64547619D01*
X46077143Y-64500000D01*
X46172381Y-64500000D01*
X45172381Y-63833334D02*
X45172381Y-63738095D01*
X45220000Y-63642857D01*
X45267619Y-63595238D01*
X45362857Y-63547619D01*
X45553333Y-63500000D01*
X45791429Y-63500000D01*
X45981905Y-63547619D01*
X46077143Y-63595238D01*
X46124762Y-63642857D01*
X46172381Y-63738095D01*
X46172381Y-63833334D01*
X46124762Y-63928572D01*
X46077143Y-63976191D01*
X45981905Y-64023810D01*
X45791429Y-64071429D01*
X45553333Y-64071429D01*
X45362857Y-64023810D01*
X45267619Y-63976191D01*
X45220000Y-63928572D01*
X45172381Y-63833334D01*
X46172381Y-62547619D02*
X46172381Y-63119048D01*
X46172381Y-62833334D02*
X45172381Y-62833334D01*
X45315238Y-62928572D01*
X45410476Y-63023810D01*
X45458095Y-63119048D01*
X45505714Y-62119048D02*
X46505714Y-62119048D01*
X46029524Y-61642857D02*
X46124762Y-61595238D01*
X46172381Y-61500000D01*
X46029524Y-62119048D02*
X46124762Y-62071429D01*
X46172381Y-61976191D01*
X46172381Y-61785714D01*
X46124762Y-61690476D01*
X46029524Y-61642857D01*
X45505714Y-61642857D01*
X34321905Y-80827619D02*
X34369524Y-80780000D01*
X34464762Y-80732381D01*
X34702858Y-80732381D01*
X34798096Y-80780000D01*
X34845715Y-80827619D01*
X34893334Y-80922857D01*
X34893334Y-81018095D01*
X34845715Y-81160952D01*
X34274286Y-81732381D01*
X34893334Y-81732381D01*
X35274286Y-80827619D02*
X35321905Y-80780000D01*
X35417143Y-80732381D01*
X35655239Y-80732381D01*
X35750477Y-80780000D01*
X35798096Y-80827619D01*
X35845715Y-80922857D01*
X35845715Y-81018095D01*
X35798096Y-81160952D01*
X35226667Y-81732381D01*
X35845715Y-81732381D01*
X36464762Y-80732381D02*
X36560001Y-80732381D01*
X36655239Y-80780000D01*
X36702858Y-80827619D01*
X36750477Y-80922857D01*
X36798096Y-81113333D01*
X36798096Y-81351429D01*
X36750477Y-81541905D01*
X36702858Y-81637143D01*
X36655239Y-81684762D01*
X36560001Y-81732381D01*
X36464762Y-81732381D01*
X36369524Y-81684762D01*
X36321905Y-81637143D01*
X36274286Y-81541905D01*
X36226667Y-81351429D01*
X36226667Y-81113333D01*
X36274286Y-80922857D01*
X36321905Y-80827619D01*
X36369524Y-80780000D01*
X36464762Y-80732381D01*
X31035715Y-58872381D02*
X30464286Y-58872381D01*
X30750000Y-58872381D02*
X30750000Y-57872381D01*
X30654762Y-58015238D01*
X30559524Y-58110476D01*
X30464286Y-58158095D01*
X31654762Y-57872381D02*
X31750001Y-57872381D01*
X31845239Y-57920000D01*
X31892858Y-57967619D01*
X31940477Y-58062857D01*
X31988096Y-58253333D01*
X31988096Y-58491429D01*
X31940477Y-58681905D01*
X31892858Y-58777143D01*
X31845239Y-58824762D01*
X31750001Y-58872381D01*
X31654762Y-58872381D01*
X31559524Y-58824762D01*
X31511905Y-58777143D01*
X31464286Y-58681905D01*
X31416667Y-58491429D01*
X31416667Y-58253333D01*
X31464286Y-58062857D01*
X31511905Y-57967619D01*
X31559524Y-57920000D01*
X31654762Y-57872381D01*
X32416667Y-58205714D02*
X32416667Y-59205714D01*
X32892858Y-58729524D02*
X32940477Y-58824762D01*
X33035715Y-58872381D01*
X32416667Y-58729524D02*
X32464286Y-58824762D01*
X32559524Y-58872381D01*
X32750001Y-58872381D01*
X32845239Y-58824762D01*
X32892858Y-58729524D01*
X32892858Y-58205714D01*
X87638096Y-15025714D02*
X87638096Y-15692381D01*
X87400000Y-14644762D02*
X87161905Y-15359048D01*
X87780953Y-15359048D01*
X88066667Y-14692381D02*
X88733334Y-14692381D01*
X88304762Y-15692381D01*
X89304762Y-14692381D02*
X89400001Y-14692381D01*
X89495239Y-14740000D01*
X89542858Y-14787619D01*
X89590477Y-14882857D01*
X89638096Y-15073333D01*
X89638096Y-15311429D01*
X89590477Y-15501905D01*
X89542858Y-15597143D01*
X89495239Y-15644762D01*
X89400001Y-15692381D01*
X89304762Y-15692381D01*
X89209524Y-15644762D01*
X89161905Y-15597143D01*
X89114286Y-15501905D01*
X89066667Y-15311429D01*
X89066667Y-15073333D01*
X89114286Y-14882857D01*
X89161905Y-14787619D01*
X89209524Y-14740000D01*
X89304762Y-14692381D01*
X90066667Y-15692381D02*
X90066667Y-14692381D01*
X90638096Y-15692381D02*
X90209524Y-15120952D01*
X90638096Y-14692381D02*
X90066667Y-15263810D01*
X71699524Y-6802381D02*
X71128095Y-6802381D01*
X71413809Y-6802381D02*
X71413809Y-5802381D01*
X71318571Y-5945238D01*
X71223333Y-6040476D01*
X71128095Y-6088095D01*
X72318571Y-5802381D02*
X72413810Y-5802381D01*
X72509048Y-5850000D01*
X72556667Y-5897619D01*
X72604286Y-5992857D01*
X72651905Y-6183333D01*
X72651905Y-6421429D01*
X72604286Y-6611905D01*
X72556667Y-6707143D01*
X72509048Y-6754762D01*
X72413810Y-6802381D01*
X72318571Y-6802381D01*
X72223333Y-6754762D01*
X72175714Y-6707143D01*
X72128095Y-6611905D01*
X72080476Y-6421429D01*
X72080476Y-6183333D01*
X72128095Y-5992857D01*
X72175714Y-5897619D01*
X72223333Y-5850000D01*
X72318571Y-5802381D01*
X73080476Y-6802381D02*
X73080476Y-5802381D01*
X73651905Y-6802381D02*
X73223333Y-6230952D01*
X73651905Y-5802381D02*
X73080476Y-6373810D01*
X57928095Y-5802381D02*
X58023334Y-5802381D01*
X58118572Y-5850000D01*
X58166191Y-5897619D01*
X58213810Y-5992857D01*
X58261429Y-6183333D01*
X58261429Y-6421429D01*
X58213810Y-6611905D01*
X58166191Y-6707143D01*
X58118572Y-6754762D01*
X58023334Y-6802381D01*
X57928095Y-6802381D01*
X57832857Y-6754762D01*
X57785238Y-6707143D01*
X57737619Y-6611905D01*
X57690000Y-6421429D01*
X57690000Y-6183333D01*
X57737619Y-5992857D01*
X57785238Y-5897619D01*
X57832857Y-5850000D01*
X57928095Y-5802381D01*
X58690000Y-6707143D02*
X58737619Y-6754762D01*
X58690000Y-6802381D01*
X58642381Y-6754762D01*
X58690000Y-6707143D01*
X58690000Y-6802381D01*
X59309047Y-6230952D02*
X59213809Y-6183333D01*
X59166190Y-6135714D01*
X59118571Y-6040476D01*
X59118571Y-5992857D01*
X59166190Y-5897619D01*
X59213809Y-5850000D01*
X59309047Y-5802381D01*
X59499524Y-5802381D01*
X59594762Y-5850000D01*
X59642381Y-5897619D01*
X59690000Y-5992857D01*
X59690000Y-6040476D01*
X59642381Y-6135714D01*
X59594762Y-6183333D01*
X59499524Y-6230952D01*
X59309047Y-6230952D01*
X59213809Y-6278571D01*
X59166190Y-6326190D01*
X59118571Y-6421429D01*
X59118571Y-6611905D01*
X59166190Y-6707143D01*
X59213809Y-6754762D01*
X59309047Y-6802381D01*
X59499524Y-6802381D01*
X59594762Y-6754762D01*
X59642381Y-6707143D01*
X59690000Y-6611905D01*
X59690000Y-6421429D01*
X59642381Y-6326190D01*
X59594762Y-6278571D01*
X59499524Y-6230952D01*
X60070952Y-5897619D02*
X60118571Y-5850000D01*
X60213809Y-5802381D01*
X60451905Y-5802381D01*
X60547143Y-5850000D01*
X60594762Y-5897619D01*
X60642381Y-5992857D01*
X60642381Y-6088095D01*
X60594762Y-6230952D01*
X60023333Y-6802381D01*
X60642381Y-6802381D01*
X61070952Y-6135714D02*
X61070952Y-7135714D01*
X61547143Y-6659524D02*
X61594762Y-6754762D01*
X61690000Y-6802381D01*
X61070952Y-6659524D02*
X61118571Y-6754762D01*
X61213809Y-6802381D01*
X61404286Y-6802381D01*
X61499524Y-6754762D01*
X61547143Y-6659524D01*
X61547143Y-6135714D01*
X47768095Y-3262381D02*
X47863334Y-3262381D01*
X47958572Y-3310000D01*
X48006191Y-3357619D01*
X48053810Y-3452857D01*
X48101429Y-3643333D01*
X48101429Y-3881429D01*
X48053810Y-4071905D01*
X48006191Y-4167143D01*
X47958572Y-4214762D01*
X47863334Y-4262381D01*
X47768095Y-4262381D01*
X47672857Y-4214762D01*
X47625238Y-4167143D01*
X47577619Y-4071905D01*
X47530000Y-3881429D01*
X47530000Y-3643333D01*
X47577619Y-3452857D01*
X47625238Y-3357619D01*
X47672857Y-3310000D01*
X47768095Y-3262381D01*
X48530000Y-4167143D02*
X48577619Y-4214762D01*
X48530000Y-4262381D01*
X48482381Y-4214762D01*
X48530000Y-4167143D01*
X48530000Y-4262381D01*
X49434762Y-3595714D02*
X49434762Y-4262381D01*
X49196666Y-3214762D02*
X48958571Y-3929048D01*
X49577619Y-3929048D01*
X49863333Y-3262381D02*
X50530000Y-3262381D01*
X50101428Y-4262381D01*
X50910952Y-3595714D02*
X50910952Y-4595714D01*
X51387143Y-4119524D02*
X51434762Y-4214762D01*
X51530000Y-4262381D01*
X50910952Y-4119524D02*
X50958571Y-4214762D01*
X51053809Y-4262381D01*
X51244286Y-4262381D01*
X51339524Y-4214762D01*
X51387143Y-4119524D01*
X51387143Y-3595714D01*
X88209524Y-22042381D02*
X87638095Y-22042381D01*
X87923809Y-22042381D02*
X87923809Y-21042381D01*
X87828571Y-21185238D01*
X87733333Y-21280476D01*
X87638095Y-21328095D01*
X88828571Y-21042381D02*
X88923810Y-21042381D01*
X89019048Y-21090000D01*
X89066667Y-21137619D01*
X89114286Y-21232857D01*
X89161905Y-21423333D01*
X89161905Y-21661429D01*
X89114286Y-21851905D01*
X89066667Y-21947143D01*
X89019048Y-21994762D01*
X88923810Y-22042381D01*
X88828571Y-22042381D01*
X88733333Y-21994762D01*
X88685714Y-21947143D01*
X88638095Y-21851905D01*
X88590476Y-21661429D01*
X88590476Y-21423333D01*
X88638095Y-21232857D01*
X88685714Y-21137619D01*
X88733333Y-21090000D01*
X88828571Y-21042381D01*
X89590476Y-22042381D02*
X89590476Y-21042381D01*
X90161905Y-22042381D02*
X89733333Y-21470952D01*
X90161905Y-21042381D02*
X89590476Y-21613810D01*
X88209524Y-25852381D02*
X87638095Y-25852381D01*
X87923809Y-25852381D02*
X87923809Y-24852381D01*
X87828571Y-24995238D01*
X87733333Y-25090476D01*
X87638095Y-25138095D01*
X88828571Y-24852381D02*
X88923810Y-24852381D01*
X89019048Y-24900000D01*
X89066667Y-24947619D01*
X89114286Y-25042857D01*
X89161905Y-25233333D01*
X89161905Y-25471429D01*
X89114286Y-25661905D01*
X89066667Y-25757143D01*
X89019048Y-25804762D01*
X88923810Y-25852381D01*
X88828571Y-25852381D01*
X88733333Y-25804762D01*
X88685714Y-25757143D01*
X88638095Y-25661905D01*
X88590476Y-25471429D01*
X88590476Y-25233333D01*
X88638095Y-25042857D01*
X88685714Y-24947619D01*
X88733333Y-24900000D01*
X88828571Y-24852381D01*
X89590476Y-25852381D02*
X89590476Y-24852381D01*
X90161905Y-25852381D02*
X89733333Y-25280952D01*
X90161905Y-24852381D02*
X89590476Y-25423810D01*
X57705715Y-41092381D02*
X57134286Y-41092381D01*
X57420000Y-41092381D02*
X57420000Y-40092381D01*
X57324762Y-40235238D01*
X57229524Y-40330476D01*
X57134286Y-40378095D01*
X58324762Y-40092381D02*
X58420001Y-40092381D01*
X58515239Y-40140000D01*
X58562858Y-40187619D01*
X58610477Y-40282857D01*
X58658096Y-40473333D01*
X58658096Y-40711429D01*
X58610477Y-40901905D01*
X58562858Y-40997143D01*
X58515239Y-41044762D01*
X58420001Y-41092381D01*
X58324762Y-41092381D01*
X58229524Y-41044762D01*
X58181905Y-40997143D01*
X58134286Y-40901905D01*
X58086667Y-40711429D01*
X58086667Y-40473333D01*
X58134286Y-40282857D01*
X58181905Y-40187619D01*
X58229524Y-40140000D01*
X58324762Y-40092381D01*
X59086667Y-40425714D02*
X59086667Y-41425714D01*
X59562858Y-40949524D02*
X59610477Y-41044762D01*
X59705715Y-41092381D01*
X59086667Y-40949524D02*
X59134286Y-41044762D01*
X59229524Y-41092381D01*
X59420001Y-41092381D01*
X59515239Y-41044762D01*
X59562858Y-40949524D01*
X59562858Y-40425714D01*
X71128096Y-15025714D02*
X71128096Y-15692381D01*
X70890000Y-14644762D02*
X70651905Y-15359048D01*
X71270953Y-15359048D01*
X71556667Y-14692381D02*
X72223334Y-14692381D01*
X71794762Y-15692381D01*
X72794762Y-14692381D02*
X72890001Y-14692381D01*
X72985239Y-14740000D01*
X73032858Y-14787619D01*
X73080477Y-14882857D01*
X73128096Y-15073333D01*
X73128096Y-15311429D01*
X73080477Y-15501905D01*
X73032858Y-15597143D01*
X72985239Y-15644762D01*
X72890001Y-15692381D01*
X72794762Y-15692381D01*
X72699524Y-15644762D01*
X72651905Y-15597143D01*
X72604286Y-15501905D01*
X72556667Y-15311429D01*
X72556667Y-15073333D01*
X72604286Y-14882857D01*
X72651905Y-14787619D01*
X72699524Y-14740000D01*
X72794762Y-14692381D01*
X73556667Y-15692381D02*
X73556667Y-14692381D01*
X74128096Y-15692381D02*
X73699524Y-15120952D01*
X74128096Y-14692381D02*
X73556667Y-15263810D01*
X47768095Y-45172381D02*
X47863334Y-45172381D01*
X47958572Y-45220000D01*
X48006191Y-45267619D01*
X48053810Y-45362857D01*
X48101429Y-45553333D01*
X48101429Y-45791429D01*
X48053810Y-45981905D01*
X48006191Y-46077143D01*
X47958572Y-46124762D01*
X47863334Y-46172381D01*
X47768095Y-46172381D01*
X47672857Y-46124762D01*
X47625238Y-46077143D01*
X47577619Y-45981905D01*
X47530000Y-45791429D01*
X47530000Y-45553333D01*
X47577619Y-45362857D01*
X47625238Y-45267619D01*
X47672857Y-45220000D01*
X47768095Y-45172381D01*
X48530000Y-46077143D02*
X48577619Y-46124762D01*
X48530000Y-46172381D01*
X48482381Y-46124762D01*
X48530000Y-46077143D01*
X48530000Y-46172381D01*
X49434762Y-45505714D02*
X49434762Y-46172381D01*
X49196666Y-45124762D02*
X48958571Y-45839048D01*
X49577619Y-45839048D01*
X49863333Y-45172381D02*
X50530000Y-45172381D01*
X50101428Y-46172381D01*
X50910952Y-45505714D02*
X50910952Y-46505714D01*
X51387143Y-46029524D02*
X51434762Y-46124762D01*
X51530000Y-46172381D01*
X50910952Y-46029524D02*
X50958571Y-46124762D01*
X51053809Y-46172381D01*
X51244286Y-46172381D01*
X51339524Y-46124762D01*
X51387143Y-46029524D01*
X51387143Y-45505714D01*
X57928095Y-47712381D02*
X58023334Y-47712381D01*
X58118572Y-47760000D01*
X58166191Y-47807619D01*
X58213810Y-47902857D01*
X58261429Y-48093333D01*
X58261429Y-48331429D01*
X58213810Y-48521905D01*
X58166191Y-48617143D01*
X58118572Y-48664762D01*
X58023334Y-48712381D01*
X57928095Y-48712381D01*
X57832857Y-48664762D01*
X57785238Y-48617143D01*
X57737619Y-48521905D01*
X57690000Y-48331429D01*
X57690000Y-48093333D01*
X57737619Y-47902857D01*
X57785238Y-47807619D01*
X57832857Y-47760000D01*
X57928095Y-47712381D01*
X58690000Y-48617143D02*
X58737619Y-48664762D01*
X58690000Y-48712381D01*
X58642381Y-48664762D01*
X58690000Y-48617143D01*
X58690000Y-48712381D01*
X59309047Y-48140952D02*
X59213809Y-48093333D01*
X59166190Y-48045714D01*
X59118571Y-47950476D01*
X59118571Y-47902857D01*
X59166190Y-47807619D01*
X59213809Y-47760000D01*
X59309047Y-47712381D01*
X59499524Y-47712381D01*
X59594762Y-47760000D01*
X59642381Y-47807619D01*
X59690000Y-47902857D01*
X59690000Y-47950476D01*
X59642381Y-48045714D01*
X59594762Y-48093333D01*
X59499524Y-48140952D01*
X59309047Y-48140952D01*
X59213809Y-48188571D01*
X59166190Y-48236190D01*
X59118571Y-48331429D01*
X59118571Y-48521905D01*
X59166190Y-48617143D01*
X59213809Y-48664762D01*
X59309047Y-48712381D01*
X59499524Y-48712381D01*
X59594762Y-48664762D01*
X59642381Y-48617143D01*
X59690000Y-48521905D01*
X59690000Y-48331429D01*
X59642381Y-48236190D01*
X59594762Y-48188571D01*
X59499524Y-48140952D01*
X60070952Y-47807619D02*
X60118571Y-47760000D01*
X60213809Y-47712381D01*
X60451905Y-47712381D01*
X60547143Y-47760000D01*
X60594762Y-47807619D01*
X60642381Y-47902857D01*
X60642381Y-47998095D01*
X60594762Y-48140952D01*
X60023333Y-48712381D01*
X60642381Y-48712381D01*
X61070952Y-48045714D02*
X61070952Y-49045714D01*
X61547143Y-48569524D02*
X61594762Y-48664762D01*
X61690000Y-48712381D01*
X61070952Y-48569524D02*
X61118571Y-48664762D01*
X61213809Y-48712381D01*
X61404286Y-48712381D01*
X61499524Y-48664762D01*
X61547143Y-48569524D01*
X61547143Y-48045714D01*
X71699524Y-28392381D02*
X71128095Y-28392381D01*
X71413809Y-28392381D02*
X71413809Y-27392381D01*
X71318571Y-27535238D01*
X71223333Y-27630476D01*
X71128095Y-27678095D01*
X72318571Y-27392381D02*
X72413810Y-27392381D01*
X72509048Y-27440000D01*
X72556667Y-27487619D01*
X72604286Y-27582857D01*
X72651905Y-27773333D01*
X72651905Y-28011429D01*
X72604286Y-28201905D01*
X72556667Y-28297143D01*
X72509048Y-28344762D01*
X72413810Y-28392381D01*
X72318571Y-28392381D01*
X72223333Y-28344762D01*
X72175714Y-28297143D01*
X72128095Y-28201905D01*
X72080476Y-28011429D01*
X72080476Y-27773333D01*
X72128095Y-27582857D01*
X72175714Y-27487619D01*
X72223333Y-27440000D01*
X72318571Y-27392381D01*
X73080476Y-28392381D02*
X73080476Y-27392381D01*
X73651905Y-28392381D02*
X73223333Y-27820952D01*
X73651905Y-27392381D02*
X73080476Y-27963810D01*
X71699524Y-32202381D02*
X71128095Y-32202381D01*
X71413809Y-32202381D02*
X71413809Y-31202381D01*
X71318571Y-31345238D01*
X71223333Y-31440476D01*
X71128095Y-31488095D01*
X72318571Y-31202381D02*
X72413810Y-31202381D01*
X72509048Y-31250000D01*
X72556667Y-31297619D01*
X72604286Y-31392857D01*
X72651905Y-31583333D01*
X72651905Y-31821429D01*
X72604286Y-32011905D01*
X72556667Y-32107143D01*
X72509048Y-32154762D01*
X72413810Y-32202381D01*
X72318571Y-32202381D01*
X72223333Y-32154762D01*
X72175714Y-32107143D01*
X72128095Y-32011905D01*
X72080476Y-31821429D01*
X72080476Y-31583333D01*
X72128095Y-31392857D01*
X72175714Y-31297619D01*
X72223333Y-31250000D01*
X72318571Y-31202381D01*
X73080476Y-32202381D02*
X73080476Y-31202381D01*
X73651905Y-32202381D02*
X73223333Y-31630952D01*
X73651905Y-31202381D02*
X73080476Y-31773810D01*
X36115715Y-30932381D02*
X35544286Y-30932381D01*
X35830000Y-30932381D02*
X35830000Y-29932381D01*
X35734762Y-30075238D01*
X35639524Y-30170476D01*
X35544286Y-30218095D01*
X36734762Y-29932381D02*
X36830001Y-29932381D01*
X36925239Y-29980000D01*
X36972858Y-30027619D01*
X37020477Y-30122857D01*
X37068096Y-30313333D01*
X37068096Y-30551429D01*
X37020477Y-30741905D01*
X36972858Y-30837143D01*
X36925239Y-30884762D01*
X36830001Y-30932381D01*
X36734762Y-30932381D01*
X36639524Y-30884762D01*
X36591905Y-30837143D01*
X36544286Y-30741905D01*
X36496667Y-30551429D01*
X36496667Y-30313333D01*
X36544286Y-30122857D01*
X36591905Y-30027619D01*
X36639524Y-29980000D01*
X36734762Y-29932381D01*
X37496667Y-30265714D02*
X37496667Y-31265714D01*
X37972858Y-30789524D02*
X38020477Y-30884762D01*
X38115715Y-30932381D01*
X37496667Y-30789524D02*
X37544286Y-30884762D01*
X37639524Y-30932381D01*
X37830001Y-30932381D01*
X37925239Y-30884762D01*
X37972858Y-30789524D01*
X37972858Y-30265714D01*
X34075714Y-44441904D02*
X34742381Y-44441904D01*
X33694762Y-44680000D02*
X34409048Y-44918095D01*
X34409048Y-44299047D01*
X33742381Y-44013333D02*
X33742381Y-43346666D01*
X34742381Y-43775238D01*
X33742381Y-42775238D02*
X33742381Y-42679999D01*
X33790000Y-42584761D01*
X33837619Y-42537142D01*
X33932857Y-42489523D01*
X34123333Y-42441904D01*
X34361429Y-42441904D01*
X34551905Y-42489523D01*
X34647143Y-42537142D01*
X34694762Y-42584761D01*
X34742381Y-42679999D01*
X34742381Y-42775238D01*
X34694762Y-42870476D01*
X34647143Y-42918095D01*
X34551905Y-42965714D01*
X34361429Y-43013333D01*
X34123333Y-43013333D01*
X33932857Y-42965714D01*
X33837619Y-42918095D01*
X33790000Y-42870476D01*
X33742381Y-42775238D01*
X34742381Y-42013333D02*
X33742381Y-42013333D01*
X34742381Y-41441904D02*
X34170952Y-41870476D01*
X33742381Y-41441904D02*
X34313810Y-42013333D01*
X71699524Y-22042381D02*
X71128095Y-22042381D01*
X71413809Y-22042381D02*
X71413809Y-21042381D01*
X71318571Y-21185238D01*
X71223333Y-21280476D01*
X71128095Y-21328095D01*
X72318571Y-21042381D02*
X72413810Y-21042381D01*
X72509048Y-21090000D01*
X72556667Y-21137619D01*
X72604286Y-21232857D01*
X72651905Y-21423333D01*
X72651905Y-21661429D01*
X72604286Y-21851905D01*
X72556667Y-21947143D01*
X72509048Y-21994762D01*
X72413810Y-22042381D01*
X72318571Y-22042381D01*
X72223333Y-21994762D01*
X72175714Y-21947143D01*
X72128095Y-21851905D01*
X72080476Y-21661429D01*
X72080476Y-21423333D01*
X72128095Y-21232857D01*
X72175714Y-21137619D01*
X72223333Y-21090000D01*
X72318571Y-21042381D01*
X73080476Y-22042381D02*
X73080476Y-21042381D01*
X73651905Y-22042381D02*
X73223333Y-21470952D01*
X73651905Y-21042381D02*
X73080476Y-21613810D01*
X43632381Y-43870476D02*
X43632381Y-44441905D01*
X43632381Y-44156191D02*
X42632381Y-44156191D01*
X42775238Y-44251429D01*
X42870476Y-44346667D01*
X42918095Y-44441905D01*
X42632381Y-43251429D02*
X42632381Y-43156190D01*
X42680000Y-43060952D01*
X42727619Y-43013333D01*
X42822857Y-42965714D01*
X43013333Y-42918095D01*
X43251429Y-42918095D01*
X43441905Y-42965714D01*
X43537143Y-43013333D01*
X43584762Y-43060952D01*
X43632381Y-43156190D01*
X43632381Y-43251429D01*
X43584762Y-43346667D01*
X43537143Y-43394286D01*
X43441905Y-43441905D01*
X43251429Y-43489524D01*
X43013333Y-43489524D01*
X42822857Y-43441905D01*
X42727619Y-43394286D01*
X42680000Y-43346667D01*
X42632381Y-43251429D01*
X43632381Y-42489524D02*
X42632381Y-42489524D01*
X43632381Y-41918095D02*
X43060952Y-42346667D01*
X42632381Y-41918095D02*
X43203810Y-42489524D01*
X22169524Y-30932381D02*
X21598095Y-30932381D01*
X21883809Y-30932381D02*
X21883809Y-29932381D01*
X21788571Y-30075238D01*
X21693333Y-30170476D01*
X21598095Y-30218095D01*
X22788571Y-29932381D02*
X22883810Y-29932381D01*
X22979048Y-29980000D01*
X23026667Y-30027619D01*
X23074286Y-30122857D01*
X23121905Y-30313333D01*
X23121905Y-30551429D01*
X23074286Y-30741905D01*
X23026667Y-30837143D01*
X22979048Y-30884762D01*
X22883810Y-30932381D01*
X22788571Y-30932381D01*
X22693333Y-30884762D01*
X22645714Y-30837143D01*
X22598095Y-30741905D01*
X22550476Y-30551429D01*
X22550476Y-30313333D01*
X22598095Y-30122857D01*
X22645714Y-30027619D01*
X22693333Y-29980000D01*
X22788571Y-29932381D01*
X23550476Y-30932381D02*
X23550476Y-29932381D01*
X24121905Y-30932381D02*
X23693333Y-30360952D01*
X24121905Y-29932381D02*
X23550476Y-30503810D01*
X9445715Y-43632381D02*
X8874286Y-43632381D01*
X9160000Y-43632381D02*
X9160000Y-42632381D01*
X9064762Y-42775238D01*
X8969524Y-42870476D01*
X8874286Y-42918095D01*
X10064762Y-42632381D02*
X10160001Y-42632381D01*
X10255239Y-42680000D01*
X10302858Y-42727619D01*
X10350477Y-42822857D01*
X10398096Y-43013333D01*
X10398096Y-43251429D01*
X10350477Y-43441905D01*
X10302858Y-43537143D01*
X10255239Y-43584762D01*
X10160001Y-43632381D01*
X10064762Y-43632381D01*
X9969524Y-43584762D01*
X9921905Y-43537143D01*
X9874286Y-43441905D01*
X9826667Y-43251429D01*
X9826667Y-43013333D01*
X9874286Y-42822857D01*
X9921905Y-42727619D01*
X9969524Y-42680000D01*
X10064762Y-42632381D01*
X10826667Y-42965714D02*
X10826667Y-43965714D01*
X11302858Y-43489524D02*
X11350477Y-43584762D01*
X11445715Y-43632381D01*
X10826667Y-43489524D02*
X10874286Y-43584762D01*
X10969524Y-43632381D01*
X11160001Y-43632381D01*
X11255239Y-43584762D01*
X11302858Y-43489524D01*
X11302858Y-42965714D01*
X41418095Y-23582381D02*
X41513334Y-23582381D01*
X41608572Y-23630000D01*
X41656191Y-23677619D01*
X41703810Y-23772857D01*
X41751429Y-23963333D01*
X41751429Y-24201429D01*
X41703810Y-24391905D01*
X41656191Y-24487143D01*
X41608572Y-24534762D01*
X41513334Y-24582381D01*
X41418095Y-24582381D01*
X41322857Y-24534762D01*
X41275238Y-24487143D01*
X41227619Y-24391905D01*
X41180000Y-24201429D01*
X41180000Y-23963333D01*
X41227619Y-23772857D01*
X41275238Y-23677619D01*
X41322857Y-23630000D01*
X41418095Y-23582381D01*
X42180000Y-24487143D02*
X42227619Y-24534762D01*
X42180000Y-24582381D01*
X42132381Y-24534762D01*
X42180000Y-24487143D01*
X42180000Y-24582381D01*
X42560952Y-23582381D02*
X43180000Y-23582381D01*
X42846666Y-23963333D01*
X42989524Y-23963333D01*
X43084762Y-24010952D01*
X43132381Y-24058571D01*
X43180000Y-24153810D01*
X43180000Y-24391905D01*
X43132381Y-24487143D01*
X43084762Y-24534762D01*
X42989524Y-24582381D01*
X42703809Y-24582381D01*
X42608571Y-24534762D01*
X42560952Y-24487143D01*
X43513333Y-23582381D02*
X44132381Y-23582381D01*
X43799047Y-23963333D01*
X43941905Y-23963333D01*
X44037143Y-24010952D01*
X44084762Y-24058571D01*
X44132381Y-24153810D01*
X44132381Y-24391905D01*
X44084762Y-24487143D01*
X44037143Y-24534762D01*
X43941905Y-24582381D01*
X43656190Y-24582381D01*
X43560952Y-24534762D01*
X43513333Y-24487143D01*
X44560952Y-23915714D02*
X44560952Y-24915714D01*
X45037143Y-24439524D02*
X45084762Y-24534762D01*
X45180000Y-24582381D01*
X44560952Y-24439524D02*
X44608571Y-24534762D01*
X44703809Y-24582381D01*
X44894286Y-24582381D01*
X44989524Y-24534762D01*
X45037143Y-24439524D01*
X45037143Y-23915714D01*
X41418095Y-23582381D02*
X41513334Y-23582381D01*
X41608572Y-23630000D01*
X41656191Y-23677619D01*
X41703810Y-23772857D01*
X41751429Y-23963333D01*
X41751429Y-24201429D01*
X41703810Y-24391905D01*
X41656191Y-24487143D01*
X41608572Y-24534762D01*
X41513334Y-24582381D01*
X41418095Y-24582381D01*
X41322857Y-24534762D01*
X41275238Y-24487143D01*
X41227619Y-24391905D01*
X41180000Y-24201429D01*
X41180000Y-23963333D01*
X41227619Y-23772857D01*
X41275238Y-23677619D01*
X41322857Y-23630000D01*
X41418095Y-23582381D01*
X42180000Y-24487143D02*
X42227619Y-24534762D01*
X42180000Y-24582381D01*
X42132381Y-24534762D01*
X42180000Y-24487143D01*
X42180000Y-24582381D01*
X42846666Y-23582381D02*
X42941905Y-23582381D01*
X43037143Y-23630000D01*
X43084762Y-23677619D01*
X43132381Y-23772857D01*
X43180000Y-23963333D01*
X43180000Y-24201429D01*
X43132381Y-24391905D01*
X43084762Y-24487143D01*
X43037143Y-24534762D01*
X42941905Y-24582381D01*
X42846666Y-24582381D01*
X42751428Y-24534762D01*
X42703809Y-24487143D01*
X42656190Y-24391905D01*
X42608571Y-24201429D01*
X42608571Y-23963333D01*
X42656190Y-23772857D01*
X42703809Y-23677619D01*
X42751428Y-23630000D01*
X42846666Y-23582381D01*
X44132381Y-24582381D02*
X43560952Y-24582381D01*
X43846666Y-24582381D02*
X43846666Y-23582381D01*
X43751428Y-23725238D01*
X43656190Y-23820476D01*
X43560952Y-23868095D01*
X44560952Y-23915714D02*
X44560952Y-24915714D01*
X45037143Y-24439524D02*
X45084762Y-24534762D01*
X45180000Y-24582381D01*
X44560952Y-24439524D02*
X44608571Y-24534762D01*
X44703809Y-24582381D01*
X44894286Y-24582381D01*
X44989524Y-24534762D01*
X45037143Y-24439524D01*
X45037143Y-23915714D01*
X56658095Y-26122381D02*
X56753334Y-26122381D01*
X56848572Y-26170000D01*
X56896191Y-26217619D01*
X56943810Y-26312857D01*
X56991429Y-26503333D01*
X56991429Y-26741429D01*
X56943810Y-26931905D01*
X56896191Y-27027143D01*
X56848572Y-27074762D01*
X56753334Y-27122381D01*
X56658095Y-27122381D01*
X56562857Y-27074762D01*
X56515238Y-27027143D01*
X56467619Y-26931905D01*
X56420000Y-26741429D01*
X56420000Y-26503333D01*
X56467619Y-26312857D01*
X56515238Y-26217619D01*
X56562857Y-26170000D01*
X56658095Y-26122381D01*
X57420000Y-27027143D02*
X57467619Y-27074762D01*
X57420000Y-27122381D01*
X57372381Y-27074762D01*
X57420000Y-27027143D01*
X57420000Y-27122381D01*
X57800952Y-26122381D02*
X58420000Y-26122381D01*
X58086666Y-26503333D01*
X58229524Y-26503333D01*
X58324762Y-26550952D01*
X58372381Y-26598571D01*
X58420000Y-26693810D01*
X58420000Y-26931905D01*
X58372381Y-27027143D01*
X58324762Y-27074762D01*
X58229524Y-27122381D01*
X57943809Y-27122381D01*
X57848571Y-27074762D01*
X57800952Y-27027143D01*
X58753333Y-26122381D02*
X59372381Y-26122381D01*
X59039047Y-26503333D01*
X59181905Y-26503333D01*
X59277143Y-26550952D01*
X59324762Y-26598571D01*
X59372381Y-26693810D01*
X59372381Y-26931905D01*
X59324762Y-27027143D01*
X59277143Y-27074762D01*
X59181905Y-27122381D01*
X58896190Y-27122381D01*
X58800952Y-27074762D01*
X58753333Y-27027143D01*
X59800952Y-26455714D02*
X59800952Y-27455714D01*
X60277143Y-26979524D02*
X60324762Y-27074762D01*
X60420000Y-27122381D01*
X59800952Y-26979524D02*
X59848571Y-27074762D01*
X59943809Y-27122381D01*
X60134286Y-27122381D01*
X60229524Y-27074762D01*
X60277143Y-26979524D01*
X60277143Y-26455714D01*
X56658095Y-23582381D02*
X56753334Y-23582381D01*
X56848572Y-23630000D01*
X56896191Y-23677619D01*
X56943810Y-23772857D01*
X56991429Y-23963333D01*
X56991429Y-24201429D01*
X56943810Y-24391905D01*
X56896191Y-24487143D01*
X56848572Y-24534762D01*
X56753334Y-24582381D01*
X56658095Y-24582381D01*
X56562857Y-24534762D01*
X56515238Y-24487143D01*
X56467619Y-24391905D01*
X56420000Y-24201429D01*
X56420000Y-23963333D01*
X56467619Y-23772857D01*
X56515238Y-23677619D01*
X56562857Y-23630000D01*
X56658095Y-23582381D01*
X57420000Y-24487143D02*
X57467619Y-24534762D01*
X57420000Y-24582381D01*
X57372381Y-24534762D01*
X57420000Y-24487143D01*
X57420000Y-24582381D01*
X58086666Y-23582381D02*
X58181905Y-23582381D01*
X58277143Y-23630000D01*
X58324762Y-23677619D01*
X58372381Y-23772857D01*
X58420000Y-23963333D01*
X58420000Y-24201429D01*
X58372381Y-24391905D01*
X58324762Y-24487143D01*
X58277143Y-24534762D01*
X58181905Y-24582381D01*
X58086666Y-24582381D01*
X57991428Y-24534762D01*
X57943809Y-24487143D01*
X57896190Y-24391905D01*
X57848571Y-24201429D01*
X57848571Y-23963333D01*
X57896190Y-23772857D01*
X57943809Y-23677619D01*
X57991428Y-23630000D01*
X58086666Y-23582381D01*
X59372381Y-24582381D02*
X58800952Y-24582381D01*
X59086666Y-24582381D02*
X59086666Y-23582381D01*
X58991428Y-23725238D01*
X58896190Y-23820476D01*
X58800952Y-23868095D01*
X59800952Y-23915714D02*
X59800952Y-24915714D01*
X60277143Y-24439524D02*
X60324762Y-24534762D01*
X60420000Y-24582381D01*
X59800952Y-24439524D02*
X59848571Y-24534762D01*
X59943809Y-24582381D01*
X60134286Y-24582381D01*
X60229524Y-24534762D01*
X60277143Y-24439524D01*
X60277143Y-23915714D01*
X22193334Y-37282381D02*
X21621905Y-37282381D01*
X21907619Y-37282381D02*
X21907619Y-36282381D01*
X21812381Y-36425238D01*
X21717143Y-36520476D01*
X21621905Y-36568095D01*
X22812381Y-36282381D02*
X22907620Y-36282381D01*
X23002858Y-36330000D01*
X23050477Y-36377619D01*
X23098096Y-36472857D01*
X23145715Y-36663333D01*
X23145715Y-36901429D01*
X23098096Y-37091905D01*
X23050477Y-37187143D01*
X23002858Y-37234762D01*
X22907620Y-37282381D01*
X22812381Y-37282381D01*
X22717143Y-37234762D01*
X22669524Y-37187143D01*
X22621905Y-37091905D01*
X22574286Y-36901429D01*
X22574286Y-36663333D01*
X22621905Y-36472857D01*
X22669524Y-36377619D01*
X22717143Y-36330000D01*
X22812381Y-36282381D01*
X23764762Y-36282381D02*
X23860001Y-36282381D01*
X23955239Y-36330000D01*
X24002858Y-36377619D01*
X24050477Y-36472857D01*
X24098096Y-36663333D01*
X24098096Y-36901429D01*
X24050477Y-37091905D01*
X24002858Y-37187143D01*
X23955239Y-37234762D01*
X23860001Y-37282381D01*
X23764762Y-37282381D01*
X23669524Y-37234762D01*
X23621905Y-37187143D01*
X23574286Y-37091905D01*
X23526667Y-36901429D01*
X23526667Y-36663333D01*
X23574286Y-36472857D01*
X23621905Y-36377619D01*
X23669524Y-36330000D01*
X23764762Y-36282381D01*
X22193334Y-41092381D02*
X21621905Y-41092381D01*
X21907619Y-41092381D02*
X21907619Y-40092381D01*
X21812381Y-40235238D01*
X21717143Y-40330476D01*
X21621905Y-40378095D01*
X22812381Y-40092381D02*
X22907620Y-40092381D01*
X23002858Y-40140000D01*
X23050477Y-40187619D01*
X23098096Y-40282857D01*
X23145715Y-40473333D01*
X23145715Y-40711429D01*
X23098096Y-40901905D01*
X23050477Y-40997143D01*
X23002858Y-41044762D01*
X22907620Y-41092381D01*
X22812381Y-41092381D01*
X22717143Y-41044762D01*
X22669524Y-40997143D01*
X22621905Y-40901905D01*
X22574286Y-40711429D01*
X22574286Y-40473333D01*
X22621905Y-40282857D01*
X22669524Y-40187619D01*
X22717143Y-40140000D01*
X22812381Y-40092381D01*
X23764762Y-40092381D02*
X23860001Y-40092381D01*
X23955239Y-40140000D01*
X24002858Y-40187619D01*
X24050477Y-40282857D01*
X24098096Y-40473333D01*
X24098096Y-40711429D01*
X24050477Y-40901905D01*
X24002858Y-40997143D01*
X23955239Y-41044762D01*
X23860001Y-41092381D01*
X23764762Y-41092381D01*
X23669524Y-41044762D01*
X23621905Y-40997143D01*
X23574286Y-40901905D01*
X23526667Y-40711429D01*
X23526667Y-40473333D01*
X23574286Y-40282857D01*
X23621905Y-40187619D01*
X23669524Y-40140000D01*
X23764762Y-40092381D01*
X19828095Y-55332381D02*
X19923334Y-55332381D01*
X20018572Y-55380000D01*
X20066191Y-55427619D01*
X20113810Y-55522857D01*
X20161429Y-55713333D01*
X20161429Y-55951429D01*
X20113810Y-56141905D01*
X20066191Y-56237143D01*
X20018572Y-56284762D01*
X19923334Y-56332381D01*
X19828095Y-56332381D01*
X19732857Y-56284762D01*
X19685238Y-56237143D01*
X19637619Y-56141905D01*
X19590000Y-55951429D01*
X19590000Y-55713333D01*
X19637619Y-55522857D01*
X19685238Y-55427619D01*
X19732857Y-55380000D01*
X19828095Y-55332381D01*
X20590000Y-56237143D02*
X20637619Y-56284762D01*
X20590000Y-56332381D01*
X20542381Y-56284762D01*
X20590000Y-56237143D01*
X20590000Y-56332381D01*
X20970952Y-55332381D02*
X21590000Y-55332381D01*
X21256666Y-55713333D01*
X21399524Y-55713333D01*
X21494762Y-55760952D01*
X21542381Y-55808571D01*
X21590000Y-55903810D01*
X21590000Y-56141905D01*
X21542381Y-56237143D01*
X21494762Y-56284762D01*
X21399524Y-56332381D01*
X21113809Y-56332381D01*
X21018571Y-56284762D01*
X20970952Y-56237143D01*
X21923333Y-55332381D02*
X22542381Y-55332381D01*
X22209047Y-55713333D01*
X22351905Y-55713333D01*
X22447143Y-55760952D01*
X22494762Y-55808571D01*
X22542381Y-55903810D01*
X22542381Y-56141905D01*
X22494762Y-56237143D01*
X22447143Y-56284762D01*
X22351905Y-56332381D01*
X22066190Y-56332381D01*
X21970952Y-56284762D01*
X21923333Y-56237143D01*
X22970952Y-55665714D02*
X22970952Y-56665714D01*
X23447143Y-56189524D02*
X23494762Y-56284762D01*
X23590000Y-56332381D01*
X22970952Y-56189524D02*
X23018571Y-56284762D01*
X23113809Y-56332381D01*
X23304286Y-56332381D01*
X23399524Y-56284762D01*
X23447143Y-56189524D01*
X23447143Y-55665714D01*
X19828095Y-55332381D02*
X19923334Y-55332381D01*
X20018572Y-55380000D01*
X20066191Y-55427619D01*
X20113810Y-55522857D01*
X20161429Y-55713333D01*
X20161429Y-55951429D01*
X20113810Y-56141905D01*
X20066191Y-56237143D01*
X20018572Y-56284762D01*
X19923334Y-56332381D01*
X19828095Y-56332381D01*
X19732857Y-56284762D01*
X19685238Y-56237143D01*
X19637619Y-56141905D01*
X19590000Y-55951429D01*
X19590000Y-55713333D01*
X19637619Y-55522857D01*
X19685238Y-55427619D01*
X19732857Y-55380000D01*
X19828095Y-55332381D01*
X20590000Y-56237143D02*
X20637619Y-56284762D01*
X20590000Y-56332381D01*
X20542381Y-56284762D01*
X20590000Y-56237143D01*
X20590000Y-56332381D01*
X21256666Y-55332381D02*
X21351905Y-55332381D01*
X21447143Y-55380000D01*
X21494762Y-55427619D01*
X21542381Y-55522857D01*
X21590000Y-55713333D01*
X21590000Y-55951429D01*
X21542381Y-56141905D01*
X21494762Y-56237143D01*
X21447143Y-56284762D01*
X21351905Y-56332381D01*
X21256666Y-56332381D01*
X21161428Y-56284762D01*
X21113809Y-56237143D01*
X21066190Y-56141905D01*
X21018571Y-55951429D01*
X21018571Y-55713333D01*
X21066190Y-55522857D01*
X21113809Y-55427619D01*
X21161428Y-55380000D01*
X21256666Y-55332381D01*
X22542381Y-56332381D02*
X21970952Y-56332381D01*
X22256666Y-56332381D02*
X22256666Y-55332381D01*
X22161428Y-55475238D01*
X22066190Y-55570476D01*
X21970952Y-55618095D01*
X22970952Y-55665714D02*
X22970952Y-56665714D01*
X23447143Y-56189524D02*
X23494762Y-56284762D01*
X23590000Y-56332381D01*
X22970952Y-56189524D02*
X23018571Y-56284762D01*
X23113809Y-56332381D01*
X23304286Y-56332381D01*
X23399524Y-56284762D01*
X23447143Y-56189524D01*
X23447143Y-55665714D01*
X4588095Y-60412381D02*
X4683334Y-60412381D01*
X4778572Y-60460000D01*
X4826191Y-60507619D01*
X4873810Y-60602857D01*
X4921429Y-60793333D01*
X4921429Y-61031429D01*
X4873810Y-61221905D01*
X4826191Y-61317143D01*
X4778572Y-61364762D01*
X4683334Y-61412381D01*
X4588095Y-61412381D01*
X4492857Y-61364762D01*
X4445238Y-61317143D01*
X4397619Y-61221905D01*
X4350000Y-61031429D01*
X4350000Y-60793333D01*
X4397619Y-60602857D01*
X4445238Y-60507619D01*
X4492857Y-60460000D01*
X4588095Y-60412381D01*
X5350000Y-61317143D02*
X5397619Y-61364762D01*
X5350000Y-61412381D01*
X5302381Y-61364762D01*
X5350000Y-61317143D01*
X5350000Y-61412381D01*
X6016666Y-60412381D02*
X6111905Y-60412381D01*
X6207143Y-60460000D01*
X6254762Y-60507619D01*
X6302381Y-60602857D01*
X6350000Y-60793333D01*
X6350000Y-61031429D01*
X6302381Y-61221905D01*
X6254762Y-61317143D01*
X6207143Y-61364762D01*
X6111905Y-61412381D01*
X6016666Y-61412381D01*
X5921428Y-61364762D01*
X5873809Y-61317143D01*
X5826190Y-61221905D01*
X5778571Y-61031429D01*
X5778571Y-60793333D01*
X5826190Y-60602857D01*
X5873809Y-60507619D01*
X5921428Y-60460000D01*
X6016666Y-60412381D01*
X7302381Y-61412381D02*
X6730952Y-61412381D01*
X7016666Y-61412381D02*
X7016666Y-60412381D01*
X6921428Y-60555238D01*
X6826190Y-60650476D01*
X6730952Y-60698095D01*
X7730952Y-60745714D02*
X7730952Y-61745714D01*
X8207143Y-61269524D02*
X8254762Y-61364762D01*
X8350000Y-61412381D01*
X7730952Y-61269524D02*
X7778571Y-61364762D01*
X7873809Y-61412381D01*
X8064286Y-61412381D01*
X8159524Y-61364762D01*
X8207143Y-61269524D01*
X8207143Y-60745714D01*
X4588095Y-60412381D02*
X4683334Y-60412381D01*
X4778572Y-60460000D01*
X4826191Y-60507619D01*
X4873810Y-60602857D01*
X4921429Y-60793333D01*
X4921429Y-61031429D01*
X4873810Y-61221905D01*
X4826191Y-61317143D01*
X4778572Y-61364762D01*
X4683334Y-61412381D01*
X4588095Y-61412381D01*
X4492857Y-61364762D01*
X4445238Y-61317143D01*
X4397619Y-61221905D01*
X4350000Y-61031429D01*
X4350000Y-60793333D01*
X4397619Y-60602857D01*
X4445238Y-60507619D01*
X4492857Y-60460000D01*
X4588095Y-60412381D01*
X5350000Y-61317143D02*
X5397619Y-61364762D01*
X5350000Y-61412381D01*
X5302381Y-61364762D01*
X5350000Y-61317143D01*
X5350000Y-61412381D01*
X5730952Y-60412381D02*
X6350000Y-60412381D01*
X6016666Y-60793333D01*
X6159524Y-60793333D01*
X6254762Y-60840952D01*
X6302381Y-60888571D01*
X6350000Y-60983810D01*
X6350000Y-61221905D01*
X6302381Y-61317143D01*
X6254762Y-61364762D01*
X6159524Y-61412381D01*
X5873809Y-61412381D01*
X5778571Y-61364762D01*
X5730952Y-61317143D01*
X6683333Y-60412381D02*
X7302381Y-60412381D01*
X6969047Y-60793333D01*
X7111905Y-60793333D01*
X7207143Y-60840952D01*
X7254762Y-60888571D01*
X7302381Y-60983810D01*
X7302381Y-61221905D01*
X7254762Y-61317143D01*
X7207143Y-61364762D01*
X7111905Y-61412381D01*
X6826190Y-61412381D01*
X6730952Y-61364762D01*
X6683333Y-61317143D01*
X7730952Y-60745714D02*
X7730952Y-61745714D01*
X8207143Y-61269524D02*
X8254762Y-61364762D01*
X8350000Y-61412381D01*
X7730952Y-61269524D02*
X7778571Y-61364762D01*
X7873809Y-61412381D01*
X8064286Y-61412381D01*
X8159524Y-61364762D01*
X8207143Y-61269524D01*
X8207143Y-60745714D01*
X11803333Y-52236667D02*
X12279524Y-52236667D01*
X11708095Y-52522381D02*
X12041428Y-51522381D01*
X12374762Y-52522381D01*
X12708095Y-52522381D02*
X12708095Y-51522381D01*
X12946190Y-51522381D01*
X13089048Y-51570000D01*
X13184286Y-51665238D01*
X13231905Y-51760476D01*
X13279524Y-51950952D01*
X13279524Y-52093810D01*
X13231905Y-52284286D01*
X13184286Y-52379524D01*
X13089048Y-52474762D01*
X12946190Y-52522381D01*
X12708095Y-52522381D01*
X14136667Y-51522381D02*
X13946190Y-51522381D01*
X13850952Y-51570000D01*
X13803333Y-51617619D01*
X13708095Y-51760476D01*
X13660476Y-51950952D01*
X13660476Y-52331905D01*
X13708095Y-52427143D01*
X13755714Y-52474762D01*
X13850952Y-52522381D01*
X14041429Y-52522381D01*
X14136667Y-52474762D01*
X14184286Y-52427143D01*
X14231905Y-52331905D01*
X14231905Y-52093810D01*
X14184286Y-51998571D01*
X14136667Y-51950952D01*
X14041429Y-51903333D01*
X13850952Y-51903333D01*
X13755714Y-51950952D01*
X13708095Y-51998571D01*
X13660476Y-52093810D01*
X14612857Y-51617619D02*
X14660476Y-51570000D01*
X14755714Y-51522381D01*
X14993810Y-51522381D01*
X15089048Y-51570000D01*
X15136667Y-51617619D01*
X15184286Y-51712857D01*
X15184286Y-51808095D01*
X15136667Y-51950952D01*
X14565238Y-52522381D01*
X15184286Y-52522381D01*
X15803333Y-51522381D02*
X15898572Y-51522381D01*
X15993810Y-51570000D01*
X16041429Y-51617619D01*
X16089048Y-51712857D01*
X16136667Y-51903333D01*
X16136667Y-52141429D01*
X16089048Y-52331905D01*
X16041429Y-52427143D01*
X15993810Y-52474762D01*
X15898572Y-52522381D01*
X15803333Y-52522381D01*
X15708095Y-52474762D01*
X15660476Y-52427143D01*
X15612857Y-52331905D01*
X15565238Y-52141429D01*
X15565238Y-51903333D01*
X15612857Y-51712857D01*
X15660476Y-51617619D01*
X15708095Y-51570000D01*
X15803333Y-51522381D01*
X22098096Y-18232381D02*
X21526667Y-18232381D01*
X21812381Y-18232381D02*
X21812381Y-17232381D01*
X21717143Y-17375238D01*
X21621905Y-17470476D01*
X21526667Y-17518095D01*
X23002858Y-17232381D02*
X22526667Y-17232381D01*
X22479048Y-17708571D01*
X22526667Y-17660952D01*
X22621905Y-17613333D01*
X22860001Y-17613333D01*
X22955239Y-17660952D01*
X23002858Y-17708571D01*
X23050477Y-17803810D01*
X23050477Y-18041905D01*
X23002858Y-18137143D01*
X22955239Y-18184762D01*
X22860001Y-18232381D01*
X22621905Y-18232381D01*
X22526667Y-18184762D01*
X22479048Y-18137143D01*
X23479048Y-18232381D02*
X23479048Y-17232381D01*
X23812382Y-17946667D01*
X24145715Y-17232381D01*
X24145715Y-18232381D01*
X22098096Y-24582381D02*
X21526667Y-24582381D01*
X21812381Y-24582381D02*
X21812381Y-23582381D01*
X21717143Y-23725238D01*
X21621905Y-23820476D01*
X21526667Y-23868095D01*
X23002858Y-23582381D02*
X22526667Y-23582381D01*
X22479048Y-24058571D01*
X22526667Y-24010952D01*
X22621905Y-23963333D01*
X22860001Y-23963333D01*
X22955239Y-24010952D01*
X23002858Y-24058571D01*
X23050477Y-24153810D01*
X23050477Y-24391905D01*
X23002858Y-24487143D01*
X22955239Y-24534762D01*
X22860001Y-24582381D01*
X22621905Y-24582381D01*
X22526667Y-24534762D01*
X22479048Y-24487143D01*
X23479048Y-24582381D02*
X23479048Y-23582381D01*
X23812382Y-24296667D01*
X24145715Y-23582381D01*
X24145715Y-24582381D01*
X5802381Y-20811905D02*
X5802381Y-20716666D01*
X5850000Y-20621428D01*
X5897619Y-20573809D01*
X5992857Y-20526190D01*
X6183333Y-20478571D01*
X6421429Y-20478571D01*
X6611905Y-20526190D01*
X6707143Y-20573809D01*
X6754762Y-20621428D01*
X6802381Y-20716666D01*
X6802381Y-20811905D01*
X6754762Y-20907143D01*
X6707143Y-20954762D01*
X6611905Y-21002381D01*
X6421429Y-21050000D01*
X6183333Y-21050000D01*
X5992857Y-21002381D01*
X5897619Y-20954762D01*
X5850000Y-20907143D01*
X5802381Y-20811905D01*
X6707143Y-20050000D02*
X6754762Y-20002381D01*
X6802381Y-20050000D01*
X6754762Y-20097619D01*
X6707143Y-20050000D01*
X6802381Y-20050000D01*
X5802381Y-19383334D02*
X5802381Y-19288095D01*
X5850000Y-19192857D01*
X5897619Y-19145238D01*
X5992857Y-19097619D01*
X6183333Y-19050000D01*
X6421429Y-19050000D01*
X6611905Y-19097619D01*
X6707143Y-19145238D01*
X6754762Y-19192857D01*
X6802381Y-19288095D01*
X6802381Y-19383334D01*
X6754762Y-19478572D01*
X6707143Y-19526191D01*
X6611905Y-19573810D01*
X6421429Y-19621429D01*
X6183333Y-19621429D01*
X5992857Y-19573810D01*
X5897619Y-19526191D01*
X5850000Y-19478572D01*
X5802381Y-19383334D01*
X6802381Y-18097619D02*
X6802381Y-18669048D01*
X6802381Y-18383334D02*
X5802381Y-18383334D01*
X5945238Y-18478572D01*
X6040476Y-18573810D01*
X6088095Y-18669048D01*
X6135714Y-17669048D02*
X7135714Y-17669048D01*
X6659524Y-17192857D02*
X6754762Y-17145238D01*
X6802381Y-17050000D01*
X6659524Y-17669048D02*
X6754762Y-17621429D01*
X6802381Y-17526191D01*
X6802381Y-17335714D01*
X6754762Y-17240476D01*
X6659524Y-17192857D01*
X6135714Y-17192857D01*
X5802381Y-33511905D02*
X5802381Y-33416666D01*
X5850000Y-33321428D01*
X5897619Y-33273809D01*
X5992857Y-33226190D01*
X6183333Y-33178571D01*
X6421429Y-33178571D01*
X6611905Y-33226190D01*
X6707143Y-33273809D01*
X6754762Y-33321428D01*
X6802381Y-33416666D01*
X6802381Y-33511905D01*
X6754762Y-33607143D01*
X6707143Y-33654762D01*
X6611905Y-33702381D01*
X6421429Y-33750000D01*
X6183333Y-33750000D01*
X5992857Y-33702381D01*
X5897619Y-33654762D01*
X5850000Y-33607143D01*
X5802381Y-33511905D01*
X6707143Y-32750000D02*
X6754762Y-32702381D01*
X6802381Y-32750000D01*
X6754762Y-32797619D01*
X6707143Y-32750000D01*
X6802381Y-32750000D01*
X5802381Y-32083334D02*
X5802381Y-31988095D01*
X5850000Y-31892857D01*
X5897619Y-31845238D01*
X5992857Y-31797619D01*
X6183333Y-31750000D01*
X6421429Y-31750000D01*
X6611905Y-31797619D01*
X6707143Y-31845238D01*
X6754762Y-31892857D01*
X6802381Y-31988095D01*
X6802381Y-32083334D01*
X6754762Y-32178572D01*
X6707143Y-32226191D01*
X6611905Y-32273810D01*
X6421429Y-32321429D01*
X6183333Y-32321429D01*
X5992857Y-32273810D01*
X5897619Y-32226191D01*
X5850000Y-32178572D01*
X5802381Y-32083334D01*
X6802381Y-30797619D02*
X6802381Y-31369048D01*
X6802381Y-31083334D02*
X5802381Y-31083334D01*
X5945238Y-31178572D01*
X6040476Y-31273810D01*
X6088095Y-31369048D01*
X6135714Y-30369048D02*
X7135714Y-30369048D01*
X6659524Y-29892857D02*
X6754762Y-29845238D01*
X6802381Y-29750000D01*
X6659524Y-30369048D02*
X6754762Y-30321429D01*
X6802381Y-30226191D01*
X6802381Y-30035714D01*
X6754762Y-29940476D01*
X6659524Y-29892857D01*
X6135714Y-29892857D01*
X37933334Y-4262381D02*
X37361905Y-4262381D01*
X37647619Y-4262381D02*
X37647619Y-3262381D01*
X37552381Y-3405238D01*
X37457143Y-3500476D01*
X37361905Y-3548095D01*
X38361905Y-3595714D02*
X38361905Y-4262381D01*
X38361905Y-3690952D02*
X38409524Y-3643333D01*
X38504762Y-3595714D01*
X38647620Y-3595714D01*
X38742858Y-3643333D01*
X38790477Y-3738571D01*
X38790477Y-4262381D01*
X37933334Y-13152381D02*
X37361905Y-13152381D01*
X37647619Y-13152381D02*
X37647619Y-12152381D01*
X37552381Y-12295238D01*
X37457143Y-12390476D01*
X37361905Y-12438095D01*
X38361905Y-12485714D02*
X38361905Y-13152381D01*
X38361905Y-12580952D02*
X38409524Y-12533333D01*
X38504762Y-12485714D01*
X38647620Y-12485714D01*
X38742858Y-12533333D01*
X38790477Y-12628571D01*
X38790477Y-13152381D01*
X49109524Y-15692381D02*
X48633333Y-15692381D01*
X48633333Y-14692381D01*
X49442857Y-15692381D02*
X49442857Y-14692381D01*
X49776191Y-15406667D01*
X50109524Y-14692381D01*
X50109524Y-15692381D01*
X50490476Y-14692381D02*
X51109524Y-14692381D01*
X50776190Y-15073333D01*
X50919048Y-15073333D01*
X51014286Y-15120952D01*
X51061905Y-15168571D01*
X51109524Y-15263810D01*
X51109524Y-15501905D01*
X51061905Y-15597143D01*
X51014286Y-15644762D01*
X50919048Y-15692381D01*
X50633333Y-15692381D01*
X50538095Y-15644762D01*
X50490476Y-15597143D01*
X51490476Y-14787619D02*
X51538095Y-14740000D01*
X51633333Y-14692381D01*
X51871429Y-14692381D01*
X51966667Y-14740000D01*
X52014286Y-14787619D01*
X52061905Y-14882857D01*
X52061905Y-14978095D01*
X52014286Y-15120952D01*
X51442857Y-15692381D01*
X52061905Y-15692381D01*
X52919048Y-15025714D02*
X52919048Y-15692381D01*
X52680952Y-14644762D02*
X52442857Y-15359048D01*
X53061905Y-15359048D01*
X76557143Y-75683809D02*
X76604762Y-75731428D01*
X76652381Y-75874285D01*
X76652381Y-75969523D01*
X76604762Y-76112381D01*
X76509524Y-76207619D01*
X76414286Y-76255238D01*
X76223810Y-76302857D01*
X76080952Y-76302857D01*
X75890476Y-76255238D01*
X75795238Y-76207619D01*
X75700000Y-76112381D01*
X75652381Y-75969523D01*
X75652381Y-75874285D01*
X75700000Y-75731428D01*
X75747619Y-75683809D01*
X76366667Y-75302857D02*
X76366667Y-74826666D01*
X76652381Y-75398095D02*
X75652381Y-75064762D01*
X76652381Y-74731428D01*
X75652381Y-74493333D02*
X75652381Y-73874285D01*
X76033333Y-74207619D01*
X76033333Y-74064761D01*
X76080952Y-73969523D01*
X76128571Y-73921904D01*
X76223810Y-73874285D01*
X76461905Y-73874285D01*
X76557143Y-73921904D01*
X76604762Y-73969523D01*
X76652381Y-74064761D01*
X76652381Y-74350476D01*
X76604762Y-74445714D01*
X76557143Y-74493333D01*
X76652381Y-72921904D02*
X76652381Y-73493333D01*
X76652381Y-73207619D02*
X75652381Y-73207619D01*
X75795238Y-73302857D01*
X75890476Y-73398095D01*
X75938095Y-73493333D01*
X75985714Y-72064761D02*
X76652381Y-72064761D01*
X75604762Y-72302857D02*
X76319048Y-72540952D01*
X76319048Y-71921904D01*
X75652381Y-71350476D02*
X75652381Y-71255237D01*
X75700000Y-71159999D01*
X75747619Y-71112380D01*
X75842857Y-71064761D01*
X76033333Y-71017142D01*
X76271429Y-71017142D01*
X76461905Y-71064761D01*
X76557143Y-71112380D01*
X76604762Y-71159999D01*
X76652381Y-71255237D01*
X76652381Y-71350476D01*
X76604762Y-71445714D01*
X76557143Y-71493333D01*
X76461905Y-71540952D01*
X76271429Y-71588571D01*
X76033333Y-71588571D01*
X75842857Y-71540952D01*
X75747619Y-71493333D01*
X75700000Y-71445714D01*
X75652381Y-71350476D01*
X32202381Y-97686667D02*
X31202381Y-97686667D01*
X31202381Y-97305714D01*
X31250000Y-97210476D01*
X31297619Y-97162857D01*
X31392857Y-97115238D01*
X31535714Y-97115238D01*
X31630952Y-97162857D01*
X31678571Y-97210476D01*
X31726190Y-97305714D01*
X31726190Y-97686667D01*
X31202381Y-96496191D02*
X31202381Y-96305714D01*
X31250000Y-96210476D01*
X31345238Y-96115238D01*
X31535714Y-96067619D01*
X31869048Y-96067619D01*
X32059524Y-96115238D01*
X32154762Y-96210476D01*
X32202381Y-96305714D01*
X32202381Y-96496191D01*
X32154762Y-96591429D01*
X32059524Y-96686667D01*
X31869048Y-96734286D01*
X31535714Y-96734286D01*
X31345238Y-96686667D01*
X31250000Y-96591429D01*
X31202381Y-96496191D01*
X31202381Y-95781905D02*
X31202381Y-95210476D01*
X32202381Y-95496191D02*
X31202381Y-95496191D01*
X65826191Y-53697143D02*
X65778572Y-53744762D01*
X65635715Y-53792381D01*
X65540477Y-53792381D01*
X65397619Y-53744762D01*
X65302381Y-53649524D01*
X65254762Y-53554286D01*
X65207143Y-53363810D01*
X65207143Y-53220952D01*
X65254762Y-53030476D01*
X65302381Y-52935238D01*
X65397619Y-52840000D01*
X65540477Y-52792381D01*
X65635715Y-52792381D01*
X65778572Y-52840000D01*
X65826191Y-52887619D01*
X66445238Y-52792381D02*
X66635715Y-52792381D01*
X66730953Y-52840000D01*
X66826191Y-52935238D01*
X66873810Y-53125714D01*
X66873810Y-53459048D01*
X66826191Y-53649524D01*
X66730953Y-53744762D01*
X66635715Y-53792381D01*
X66445238Y-53792381D01*
X66350000Y-53744762D01*
X66254762Y-53649524D01*
X66207143Y-53459048D01*
X66207143Y-53125714D01*
X66254762Y-52935238D01*
X66350000Y-52840000D01*
X66445238Y-52792381D01*
X67302381Y-53792381D02*
X67302381Y-52792381D01*
X67873810Y-53792381D01*
X67873810Y-52792381D01*
X68350000Y-53792381D02*
X68350000Y-52792381D01*
X68921429Y-53792381D01*
X68921429Y-52792381D01*
X69159524Y-53887619D02*
X69921429Y-53887619D01*
X70350000Y-52792381D02*
X70445239Y-52792381D01*
X70540477Y-52840000D01*
X70588096Y-52887619D01*
X70635715Y-52982857D01*
X70683334Y-53173333D01*
X70683334Y-53411429D01*
X70635715Y-53601905D01*
X70588096Y-53697143D01*
X70540477Y-53744762D01*
X70445239Y-53792381D01*
X70350000Y-53792381D01*
X70254762Y-53744762D01*
X70207143Y-53697143D01*
X70159524Y-53601905D01*
X70111905Y-53411429D01*
X70111905Y-53173333D01*
X70159524Y-52982857D01*
X70207143Y-52887619D01*
X70254762Y-52840000D01*
X70350000Y-52792381D01*
X71635715Y-53792381D02*
X71064286Y-53792381D01*
X71350000Y-53792381D02*
X71350000Y-52792381D01*
X71254762Y-52935238D01*
X71159524Y-53030476D01*
X71064286Y-53078095D01*
X71969048Y-52792381D02*
X72635715Y-53792381D01*
X72635715Y-52792381D02*
X71969048Y-53792381D01*
X72969048Y-52887619D02*
X73016667Y-52840000D01*
X73111905Y-52792381D01*
X73350001Y-52792381D01*
X73445239Y-52840000D01*
X73492858Y-52887619D01*
X73540477Y-52982857D01*
X73540477Y-53078095D01*
X73492858Y-53220952D01*
X72921429Y-53792381D01*
X73540477Y-53792381D01*
X74159524Y-52792381D02*
X74254763Y-52792381D01*
X74350001Y-52840000D01*
X74397620Y-52887619D01*
X74445239Y-52982857D01*
X74492858Y-53173333D01*
X74492858Y-53411429D01*
X74445239Y-53601905D01*
X74397620Y-53697143D01*
X74350001Y-53744762D01*
X74254763Y-53792381D01*
X74159524Y-53792381D01*
X74064286Y-53744762D01*
X74016667Y-53697143D01*
X73969048Y-53601905D01*
X73921429Y-53411429D01*
X73921429Y-53173333D01*
X73969048Y-52982857D01*
X74016667Y-52887619D01*
X74064286Y-52840000D01*
X74159524Y-52792381D01*
X62016191Y-61317143D02*
X61968572Y-61364762D01*
X61825715Y-61412381D01*
X61730477Y-61412381D01*
X61587619Y-61364762D01*
X61492381Y-61269524D01*
X61444762Y-61174286D01*
X61397143Y-60983810D01*
X61397143Y-60840952D01*
X61444762Y-60650476D01*
X61492381Y-60555238D01*
X61587619Y-60460000D01*
X61730477Y-60412381D01*
X61825715Y-60412381D01*
X61968572Y-60460000D01*
X62016191Y-60507619D01*
X62635238Y-60412381D02*
X62825715Y-60412381D01*
X62920953Y-60460000D01*
X63016191Y-60555238D01*
X63063810Y-60745714D01*
X63063810Y-61079048D01*
X63016191Y-61269524D01*
X62920953Y-61364762D01*
X62825715Y-61412381D01*
X62635238Y-61412381D01*
X62540000Y-61364762D01*
X62444762Y-61269524D01*
X62397143Y-61079048D01*
X62397143Y-60745714D01*
X62444762Y-60555238D01*
X62540000Y-60460000D01*
X62635238Y-60412381D01*
X63492381Y-61412381D02*
X63492381Y-60412381D01*
X64063810Y-61412381D01*
X64063810Y-60412381D01*
X64540000Y-61412381D02*
X64540000Y-60412381D01*
X65111429Y-61412381D01*
X65111429Y-60412381D01*
X65349524Y-61507619D02*
X66111429Y-61507619D01*
X66540000Y-60412381D02*
X66635239Y-60412381D01*
X66730477Y-60460000D01*
X66778096Y-60507619D01*
X66825715Y-60602857D01*
X66873334Y-60793333D01*
X66873334Y-61031429D01*
X66825715Y-61221905D01*
X66778096Y-61317143D01*
X66730477Y-61364762D01*
X66635239Y-61412381D01*
X66540000Y-61412381D01*
X66444762Y-61364762D01*
X66397143Y-61317143D01*
X66349524Y-61221905D01*
X66301905Y-61031429D01*
X66301905Y-60793333D01*
X66349524Y-60602857D01*
X66397143Y-60507619D01*
X66444762Y-60460000D01*
X66540000Y-60412381D01*
X67825715Y-61412381D02*
X67254286Y-61412381D01*
X67540000Y-61412381D02*
X67540000Y-60412381D01*
X67444762Y-60555238D01*
X67349524Y-60650476D01*
X67254286Y-60698095D01*
X68159048Y-60412381D02*
X68825715Y-61412381D01*
X68825715Y-60412381D02*
X68159048Y-61412381D01*
X69159048Y-60507619D02*
X69206667Y-60460000D01*
X69301905Y-60412381D01*
X69540001Y-60412381D01*
X69635239Y-60460000D01*
X69682858Y-60507619D01*
X69730477Y-60602857D01*
X69730477Y-60698095D01*
X69682858Y-60840952D01*
X69111429Y-61412381D01*
X69730477Y-61412381D01*
X70349524Y-60412381D02*
X70444763Y-60412381D01*
X70540001Y-60460000D01*
X70587620Y-60507619D01*
X70635239Y-60602857D01*
X70682858Y-60793333D01*
X70682858Y-61031429D01*
X70635239Y-61221905D01*
X70587620Y-61317143D01*
X70540001Y-61364762D01*
X70444763Y-61412381D01*
X70349524Y-61412381D01*
X70254286Y-61364762D01*
X70206667Y-61317143D01*
X70159048Y-61221905D01*
X70111429Y-61031429D01*
X70111429Y-60793333D01*
X70159048Y-60602857D01*
X70206667Y-60507619D01*
X70254286Y-60460000D01*
X70349524Y-60412381D01*
X39822381Y-74358095D02*
X38822381Y-74358095D01*
X39536667Y-74024761D01*
X38822381Y-73691428D01*
X39822381Y-73691428D01*
X39727143Y-72643809D02*
X39774762Y-72691428D01*
X39822381Y-72834285D01*
X39822381Y-72929523D01*
X39774762Y-73072381D01*
X39679524Y-73167619D01*
X39584286Y-73215238D01*
X39393810Y-73262857D01*
X39250952Y-73262857D01*
X39060476Y-73215238D01*
X38965238Y-73167619D01*
X38870000Y-73072381D01*
X38822381Y-72929523D01*
X38822381Y-72834285D01*
X38870000Y-72691428D01*
X38917619Y-72643809D01*
X39822381Y-72215238D02*
X38822381Y-72215238D01*
X38822381Y-71834285D01*
X38870000Y-71739047D01*
X38917619Y-71691428D01*
X39012857Y-71643809D01*
X39155714Y-71643809D01*
X39250952Y-71691428D01*
X39298571Y-71739047D01*
X39346190Y-71834285D01*
X39346190Y-72215238D01*
X38822381Y-71310476D02*
X38822381Y-70691428D01*
X39203333Y-71024762D01*
X39203333Y-70881904D01*
X39250952Y-70786666D01*
X39298571Y-70739047D01*
X39393810Y-70691428D01*
X39631905Y-70691428D01*
X39727143Y-70739047D01*
X39774762Y-70786666D01*
X39822381Y-70881904D01*
X39822381Y-71167619D01*
X39774762Y-71262857D01*
X39727143Y-71310476D01*
X38822381Y-70072381D02*
X38822381Y-69977142D01*
X38870000Y-69881904D01*
X38917619Y-69834285D01*
X39012857Y-69786666D01*
X39203333Y-69739047D01*
X39441429Y-69739047D01*
X39631905Y-69786666D01*
X39727143Y-69834285D01*
X39774762Y-69881904D01*
X39822381Y-69977142D01*
X39822381Y-70072381D01*
X39774762Y-70167619D01*
X39727143Y-70215238D01*
X39631905Y-70262857D01*
X39441429Y-70310476D01*
X39203333Y-70310476D01*
X39012857Y-70262857D01*
X38917619Y-70215238D01*
X38870000Y-70167619D01*
X38822381Y-70072381D01*
X38822381Y-69120000D02*
X38822381Y-69024761D01*
X38870000Y-68929523D01*
X38917619Y-68881904D01*
X39012857Y-68834285D01*
X39203333Y-68786666D01*
X39441429Y-68786666D01*
X39631905Y-68834285D01*
X39727143Y-68881904D01*
X39774762Y-68929523D01*
X39822381Y-69024761D01*
X39822381Y-69120000D01*
X39774762Y-69215238D01*
X39727143Y-69262857D01*
X39631905Y-69310476D01*
X39441429Y-69358095D01*
X39203333Y-69358095D01*
X39012857Y-69310476D01*
X38917619Y-69262857D01*
X38870000Y-69215238D01*
X38822381Y-69120000D01*
X39250952Y-68215238D02*
X39203333Y-68310476D01*
X39155714Y-68358095D01*
X39060476Y-68405714D01*
X39012857Y-68405714D01*
X38917619Y-68358095D01*
X38870000Y-68310476D01*
X38822381Y-68215238D01*
X38822381Y-68024761D01*
X38870000Y-67929523D01*
X38917619Y-67881904D01*
X39012857Y-67834285D01*
X39060476Y-67834285D01*
X39155714Y-67881904D01*
X39203333Y-67929523D01*
X39250952Y-68024761D01*
X39250952Y-68215238D01*
X39298571Y-68310476D01*
X39346190Y-68358095D01*
X39441429Y-68405714D01*
X39631905Y-68405714D01*
X39727143Y-68358095D01*
X39774762Y-68310476D01*
X39822381Y-68215238D01*
X39822381Y-68024761D01*
X39774762Y-67929523D01*
X39727143Y-67881904D01*
X39631905Y-67834285D01*
X39441429Y-67834285D01*
X39346190Y-67881904D01*
X39298571Y-67929523D01*
X39250952Y-68024761D01*
X60047143Y-81493809D02*
X60094762Y-81541428D01*
X60142381Y-81684285D01*
X60142381Y-81779523D01*
X60094762Y-81922381D01*
X59999524Y-82017619D01*
X59904286Y-82065238D01*
X59713810Y-82112857D01*
X59570952Y-82112857D01*
X59380476Y-82065238D01*
X59285238Y-82017619D01*
X59190000Y-81922381D01*
X59142381Y-81779523D01*
X59142381Y-81684285D01*
X59190000Y-81541428D01*
X59237619Y-81493809D01*
X59142381Y-80874762D02*
X59142381Y-80684285D01*
X59190000Y-80589047D01*
X59285238Y-80493809D01*
X59475714Y-80446190D01*
X59809048Y-80446190D01*
X59999524Y-80493809D01*
X60094762Y-80589047D01*
X60142381Y-80684285D01*
X60142381Y-80874762D01*
X60094762Y-80970000D01*
X59999524Y-81065238D01*
X59809048Y-81112857D01*
X59475714Y-81112857D01*
X59285238Y-81065238D01*
X59190000Y-80970000D01*
X59142381Y-80874762D01*
X60142381Y-80017619D02*
X59142381Y-80017619D01*
X60142381Y-79446190D01*
X59142381Y-79446190D01*
X60142381Y-78970000D02*
X59142381Y-78970000D01*
X60142381Y-78398571D01*
X59142381Y-78398571D01*
X60237619Y-78160476D02*
X60237619Y-77398571D01*
X59142381Y-76970000D02*
X59142381Y-76874761D01*
X59190000Y-76779523D01*
X59237619Y-76731904D01*
X59332857Y-76684285D01*
X59523333Y-76636666D01*
X59761429Y-76636666D01*
X59951905Y-76684285D01*
X60047143Y-76731904D01*
X60094762Y-76779523D01*
X60142381Y-76874761D01*
X60142381Y-76970000D01*
X60094762Y-77065238D01*
X60047143Y-77112857D01*
X59951905Y-77160476D01*
X59761429Y-77208095D01*
X59523333Y-77208095D01*
X59332857Y-77160476D01*
X59237619Y-77112857D01*
X59190000Y-77065238D01*
X59142381Y-76970000D01*
X60142381Y-75684285D02*
X60142381Y-76255714D01*
X60142381Y-75970000D02*
X59142381Y-75970000D01*
X59285238Y-76065238D01*
X59380476Y-76160476D01*
X59428095Y-76255714D01*
X59142381Y-75350952D02*
X60142381Y-74684285D01*
X59142381Y-74684285D02*
X60142381Y-75350952D01*
X59142381Y-74112857D02*
X59142381Y-74017618D01*
X59190000Y-73922380D01*
X59237619Y-73874761D01*
X59332857Y-73827142D01*
X59523333Y-73779523D01*
X59761429Y-73779523D01*
X59951905Y-73827142D01*
X60047143Y-73874761D01*
X60094762Y-73922380D01*
X60142381Y-74017618D01*
X60142381Y-74112857D01*
X60094762Y-74208095D01*
X60047143Y-74255714D01*
X59951905Y-74303333D01*
X59761429Y-74350952D01*
X59523333Y-74350952D01*
X59332857Y-74303333D01*
X59237619Y-74255714D01*
X59190000Y-74208095D01*
X59142381Y-74112857D01*
X59142381Y-73446190D02*
X59142381Y-72779523D01*
X60142381Y-73208095D01*
X44236191Y-82907143D02*
X44188572Y-82954762D01*
X44045715Y-83002381D01*
X43950477Y-83002381D01*
X43807619Y-82954762D01*
X43712381Y-82859524D01*
X43664762Y-82764286D01*
X43617143Y-82573810D01*
X43617143Y-82430952D01*
X43664762Y-82240476D01*
X43712381Y-82145238D01*
X43807619Y-82050000D01*
X43950477Y-82002381D01*
X44045715Y-82002381D01*
X44188572Y-82050000D01*
X44236191Y-82097619D01*
X44855238Y-82002381D02*
X45045715Y-82002381D01*
X45140953Y-82050000D01*
X45236191Y-82145238D01*
X45283810Y-82335714D01*
X45283810Y-82669048D01*
X45236191Y-82859524D01*
X45140953Y-82954762D01*
X45045715Y-83002381D01*
X44855238Y-83002381D01*
X44760000Y-82954762D01*
X44664762Y-82859524D01*
X44617143Y-82669048D01*
X44617143Y-82335714D01*
X44664762Y-82145238D01*
X44760000Y-82050000D01*
X44855238Y-82002381D01*
X45712381Y-83002381D02*
X45712381Y-82002381D01*
X46283810Y-83002381D01*
X46283810Y-82002381D01*
X46760000Y-83002381D02*
X46760000Y-82002381D01*
X47331429Y-83002381D01*
X47331429Y-82002381D01*
X47569524Y-83097619D02*
X48331429Y-83097619D01*
X48760000Y-82002381D02*
X48855239Y-82002381D01*
X48950477Y-82050000D01*
X48998096Y-82097619D01*
X49045715Y-82192857D01*
X49093334Y-82383333D01*
X49093334Y-82621429D01*
X49045715Y-82811905D01*
X48998096Y-82907143D01*
X48950477Y-82954762D01*
X48855239Y-83002381D01*
X48760000Y-83002381D01*
X48664762Y-82954762D01*
X48617143Y-82907143D01*
X48569524Y-82811905D01*
X48521905Y-82621429D01*
X48521905Y-82383333D01*
X48569524Y-82192857D01*
X48617143Y-82097619D01*
X48664762Y-82050000D01*
X48760000Y-82002381D01*
X50045715Y-83002381D02*
X49474286Y-83002381D01*
X49760000Y-83002381D02*
X49760000Y-82002381D01*
X49664762Y-82145238D01*
X49569524Y-82240476D01*
X49474286Y-82288095D01*
X50379048Y-82002381D02*
X51045715Y-83002381D01*
X51045715Y-82002381D02*
X50379048Y-83002381D01*
X51617143Y-82002381D02*
X51712382Y-82002381D01*
X51807620Y-82050000D01*
X51855239Y-82097619D01*
X51902858Y-82192857D01*
X51950477Y-82383333D01*
X51950477Y-82621429D01*
X51902858Y-82811905D01*
X51855239Y-82907143D01*
X51807620Y-82954762D01*
X51712382Y-83002381D01*
X51617143Y-83002381D01*
X51521905Y-82954762D01*
X51474286Y-82907143D01*
X51426667Y-82811905D01*
X51379048Y-82621429D01*
X51379048Y-82383333D01*
X51426667Y-82192857D01*
X51474286Y-82097619D01*
X51521905Y-82050000D01*
X51617143Y-82002381D01*
X52283810Y-82002381D02*
X52950477Y-82002381D01*
X52521905Y-83002381D01*
X56936191Y-89257143D02*
X56888572Y-89304762D01*
X56745715Y-89352381D01*
X56650477Y-89352381D01*
X56507619Y-89304762D01*
X56412381Y-89209524D01*
X56364762Y-89114286D01*
X56317143Y-88923810D01*
X56317143Y-88780952D01*
X56364762Y-88590476D01*
X56412381Y-88495238D01*
X56507619Y-88400000D01*
X56650477Y-88352381D01*
X56745715Y-88352381D01*
X56888572Y-88400000D01*
X56936191Y-88447619D01*
X57555238Y-88352381D02*
X57745715Y-88352381D01*
X57840953Y-88400000D01*
X57936191Y-88495238D01*
X57983810Y-88685714D01*
X57983810Y-89019048D01*
X57936191Y-89209524D01*
X57840953Y-89304762D01*
X57745715Y-89352381D01*
X57555238Y-89352381D01*
X57460000Y-89304762D01*
X57364762Y-89209524D01*
X57317143Y-89019048D01*
X57317143Y-88685714D01*
X57364762Y-88495238D01*
X57460000Y-88400000D01*
X57555238Y-88352381D01*
X58412381Y-89352381D02*
X58412381Y-88352381D01*
X58983810Y-89352381D01*
X58983810Y-88352381D01*
X59460000Y-89352381D02*
X59460000Y-88352381D01*
X60031429Y-89352381D01*
X60031429Y-88352381D01*
X60269524Y-89447619D02*
X61031429Y-89447619D01*
X61460000Y-88352381D02*
X61555239Y-88352381D01*
X61650477Y-88400000D01*
X61698096Y-88447619D01*
X61745715Y-88542857D01*
X61793334Y-88733333D01*
X61793334Y-88971429D01*
X61745715Y-89161905D01*
X61698096Y-89257143D01*
X61650477Y-89304762D01*
X61555239Y-89352381D01*
X61460000Y-89352381D01*
X61364762Y-89304762D01*
X61317143Y-89257143D01*
X61269524Y-89161905D01*
X61221905Y-88971429D01*
X61221905Y-88733333D01*
X61269524Y-88542857D01*
X61317143Y-88447619D01*
X61364762Y-88400000D01*
X61460000Y-88352381D01*
X62745715Y-89352381D02*
X62174286Y-89352381D01*
X62460000Y-89352381D02*
X62460000Y-88352381D01*
X62364762Y-88495238D01*
X62269524Y-88590476D01*
X62174286Y-88638095D01*
X63079048Y-88352381D02*
X63745715Y-89352381D01*
X63745715Y-88352381D02*
X63079048Y-89352381D01*
X64079048Y-88447619D02*
X64126667Y-88400000D01*
X64221905Y-88352381D01*
X64460001Y-88352381D01*
X64555239Y-88400000D01*
X64602858Y-88447619D01*
X64650477Y-88542857D01*
X64650477Y-88638095D01*
X64602858Y-88780952D01*
X64031429Y-89352381D01*
X64650477Y-89352381D01*
X65269524Y-88352381D02*
X65364763Y-88352381D01*
X65460001Y-88400000D01*
X65507620Y-88447619D01*
X65555239Y-88542857D01*
X65602858Y-88733333D01*
X65602858Y-88971429D01*
X65555239Y-89161905D01*
X65507620Y-89257143D01*
X65460001Y-89304762D01*
X65364763Y-89352381D01*
X65269524Y-89352381D01*
X65174286Y-89304762D01*
X65126667Y-89257143D01*
X65079048Y-89161905D01*
X65031429Y-88971429D01*
X65031429Y-88733333D01*
X65079048Y-88542857D01*
X65126667Y-88447619D01*
X65174286Y-88400000D01*
X65269524Y-88352381D01*
X68366191Y-96877143D02*
X68318572Y-96924762D01*
X68175715Y-96972381D01*
X68080477Y-96972381D01*
X67937619Y-96924762D01*
X67842381Y-96829524D01*
X67794762Y-96734286D01*
X67747143Y-96543810D01*
X67747143Y-96400952D01*
X67794762Y-96210476D01*
X67842381Y-96115238D01*
X67937619Y-96020000D01*
X68080477Y-95972381D01*
X68175715Y-95972381D01*
X68318572Y-96020000D01*
X68366191Y-96067619D01*
X68985238Y-95972381D02*
X69175715Y-95972381D01*
X69270953Y-96020000D01*
X69366191Y-96115238D01*
X69413810Y-96305714D01*
X69413810Y-96639048D01*
X69366191Y-96829524D01*
X69270953Y-96924762D01*
X69175715Y-96972381D01*
X68985238Y-96972381D01*
X68890000Y-96924762D01*
X68794762Y-96829524D01*
X68747143Y-96639048D01*
X68747143Y-96305714D01*
X68794762Y-96115238D01*
X68890000Y-96020000D01*
X68985238Y-95972381D01*
X69842381Y-96972381D02*
X69842381Y-95972381D01*
X70413810Y-96972381D01*
X70413810Y-95972381D01*
X70890000Y-96972381D02*
X70890000Y-95972381D01*
X71461429Y-96972381D01*
X71461429Y-95972381D01*
X71699524Y-97067619D02*
X72461429Y-97067619D01*
X72890000Y-95972381D02*
X72985239Y-95972381D01*
X73080477Y-96020000D01*
X73128096Y-96067619D01*
X73175715Y-96162857D01*
X73223334Y-96353333D01*
X73223334Y-96591429D01*
X73175715Y-96781905D01*
X73128096Y-96877143D01*
X73080477Y-96924762D01*
X72985239Y-96972381D01*
X72890000Y-96972381D01*
X72794762Y-96924762D01*
X72747143Y-96877143D01*
X72699524Y-96781905D01*
X72651905Y-96591429D01*
X72651905Y-96353333D01*
X72699524Y-96162857D01*
X72747143Y-96067619D01*
X72794762Y-96020000D01*
X72890000Y-95972381D01*
X74175715Y-96972381D02*
X73604286Y-96972381D01*
X73890000Y-96972381D02*
X73890000Y-95972381D01*
X73794762Y-96115238D01*
X73699524Y-96210476D01*
X73604286Y-96258095D01*
X74509048Y-95972381D02*
X75175715Y-96972381D01*
X75175715Y-95972381D02*
X74509048Y-96972381D01*
X75509048Y-96067619D02*
X75556667Y-96020000D01*
X75651905Y-95972381D01*
X75890001Y-95972381D01*
X75985239Y-96020000D01*
X76032858Y-96067619D01*
X76080477Y-96162857D01*
X76080477Y-96258095D01*
X76032858Y-96400952D01*
X75461429Y-96972381D01*
X76080477Y-96972381D01*
X76699524Y-95972381D02*
X76794763Y-95972381D01*
X76890001Y-96020000D01*
X76937620Y-96067619D01*
X76985239Y-96162857D01*
X77032858Y-96353333D01*
X77032858Y-96591429D01*
X76985239Y-96781905D01*
X76937620Y-96877143D01*
X76890001Y-96924762D01*
X76794763Y-96972381D01*
X76699524Y-96972381D01*
X76604286Y-96924762D01*
X76556667Y-96877143D01*
X76509048Y-96781905D01*
X76461429Y-96591429D01*
X76461429Y-96353333D01*
X76509048Y-96162857D01*
X76556667Y-96067619D01*
X76604286Y-96020000D01*
X76699524Y-95972381D01*
X13057143Y-10373809D02*
X13104762Y-10421428D01*
X13152381Y-10564285D01*
X13152381Y-10659523D01*
X13104762Y-10802381D01*
X13009524Y-10897619D01*
X12914286Y-10945238D01*
X12723810Y-10992857D01*
X12580952Y-10992857D01*
X12390476Y-10945238D01*
X12295238Y-10897619D01*
X12200000Y-10802381D01*
X12152381Y-10659523D01*
X12152381Y-10564285D01*
X12200000Y-10421428D01*
X12247619Y-10373809D01*
X12152381Y-9754762D02*
X12152381Y-9564285D01*
X12200000Y-9469047D01*
X12295238Y-9373809D01*
X12485714Y-9326190D01*
X12819048Y-9326190D01*
X13009524Y-9373809D01*
X13104762Y-9469047D01*
X13152381Y-9564285D01*
X13152381Y-9754762D01*
X13104762Y-9850000D01*
X13009524Y-9945238D01*
X12819048Y-9992857D01*
X12485714Y-9992857D01*
X12295238Y-9945238D01*
X12200000Y-9850000D01*
X12152381Y-9754762D01*
X13152381Y-8897619D02*
X12152381Y-8897619D01*
X13152381Y-8326190D01*
X12152381Y-8326190D01*
X13152381Y-7850000D02*
X12152381Y-7850000D01*
X13152381Y-7278571D01*
X12152381Y-7278571D01*
X13247619Y-7040476D02*
X13247619Y-6278571D01*
X12152381Y-5850000D02*
X12152381Y-5754761D01*
X12200000Y-5659523D01*
X12247619Y-5611904D01*
X12342857Y-5564285D01*
X12533333Y-5516666D01*
X12771429Y-5516666D01*
X12961905Y-5564285D01*
X13057143Y-5611904D01*
X13104762Y-5659523D01*
X13152381Y-5754761D01*
X13152381Y-5850000D01*
X13104762Y-5945238D01*
X13057143Y-5992857D01*
X12961905Y-6040476D01*
X12771429Y-6088095D01*
X12533333Y-6088095D01*
X12342857Y-6040476D01*
X12247619Y-5992857D01*
X12200000Y-5945238D01*
X12152381Y-5850000D01*
X13152381Y-4564285D02*
X13152381Y-5135714D01*
X13152381Y-4850000D02*
X12152381Y-4850000D01*
X12295238Y-4945238D01*
X12390476Y-5040476D01*
X12438095Y-5135714D01*
X12152381Y-4230952D02*
X13152381Y-3564285D01*
X12152381Y-3564285D02*
X13152381Y-4230952D01*
X12152381Y-2992857D02*
X12152381Y-2897618D01*
X12200000Y-2802380D01*
X12247619Y-2754761D01*
X12342857Y-2707142D01*
X12533333Y-2659523D01*
X12771429Y-2659523D01*
X12961905Y-2707142D01*
X13057143Y-2754761D01*
X13104762Y-2802380D01*
X13152381Y-2897618D01*
X13152381Y-2992857D01*
X13104762Y-3088095D01*
X13057143Y-3135714D01*
X12961905Y-3183333D01*
X12771429Y-3230952D01*
X12533333Y-3230952D01*
X12342857Y-3183333D01*
X12247619Y-3135714D01*
X12200000Y-3088095D01*
X12152381Y-2992857D01*
X12152381Y-2326190D02*
X12152381Y-1707142D01*
X12533333Y-2040476D01*
X12533333Y-1897618D01*
X12580952Y-1802380D01*
X12628571Y-1754761D01*
X12723810Y-1707142D01*
X12961905Y-1707142D01*
X13057143Y-1754761D01*
X13104762Y-1802380D01*
X13152381Y-1897618D01*
X13152381Y-2183333D01*
X13104762Y-2278571D01*
X13057143Y-2326190D01*
X21693334Y-11882381D02*
X21121905Y-11882381D01*
X21407619Y-11882381D02*
X21407619Y-10882381D01*
X21312381Y-11025238D01*
X21217143Y-11120476D01*
X21121905Y-11168095D01*
X22312381Y-10882381D02*
X22407620Y-10882381D01*
X22502858Y-10930000D01*
X22550477Y-10977619D01*
X22598096Y-11072857D01*
X22645715Y-11263333D01*
X22645715Y-11501429D01*
X22598096Y-11691905D01*
X22550477Y-11787143D01*
X22502858Y-11834762D01*
X22407620Y-11882381D01*
X22312381Y-11882381D01*
X22217143Y-11834762D01*
X22169524Y-11787143D01*
X22121905Y-11691905D01*
X22074286Y-11501429D01*
X22074286Y-11263333D01*
X22121905Y-11072857D01*
X22169524Y-10977619D01*
X22217143Y-10930000D01*
X22312381Y-10882381D01*
X23264762Y-10882381D02*
X23360001Y-10882381D01*
X23455239Y-10930000D01*
X23502858Y-10977619D01*
X23550477Y-11072857D01*
X23598096Y-11263333D01*
X23598096Y-11501429D01*
X23550477Y-11691905D01*
X23502858Y-11787143D01*
X23455239Y-11834762D01*
X23360001Y-11882381D01*
X23264762Y-11882381D01*
X23169524Y-11834762D01*
X23121905Y-11787143D01*
X23074286Y-11691905D01*
X23026667Y-11501429D01*
X23026667Y-11263333D01*
X23074286Y-11072857D01*
X23121905Y-10977619D01*
X23169524Y-10930000D01*
X23264762Y-10882381D01*
X24026667Y-11882381D02*
X24026667Y-10882381D01*
X24598096Y-11882381D02*
X24169524Y-11310952D01*
X24598096Y-10882381D02*
X24026667Y-11453810D01*
X21693334Y-2992381D02*
X21121905Y-2992381D01*
X21407619Y-2992381D02*
X21407619Y-1992381D01*
X21312381Y-2135238D01*
X21217143Y-2230476D01*
X21121905Y-2278095D01*
X22312381Y-1992381D02*
X22407620Y-1992381D01*
X22502858Y-2040000D01*
X22550477Y-2087619D01*
X22598096Y-2182857D01*
X22645715Y-2373333D01*
X22645715Y-2611429D01*
X22598096Y-2801905D01*
X22550477Y-2897143D01*
X22502858Y-2944762D01*
X22407620Y-2992381D01*
X22312381Y-2992381D01*
X22217143Y-2944762D01*
X22169524Y-2897143D01*
X22121905Y-2801905D01*
X22074286Y-2611429D01*
X22074286Y-2373333D01*
X22121905Y-2182857D01*
X22169524Y-2087619D01*
X22217143Y-2040000D01*
X22312381Y-1992381D01*
X23264762Y-1992381D02*
X23360001Y-1992381D01*
X23455239Y-2040000D01*
X23502858Y-2087619D01*
X23550477Y-2182857D01*
X23598096Y-2373333D01*
X23598096Y-2611429D01*
X23550477Y-2801905D01*
X23502858Y-2897143D01*
X23455239Y-2944762D01*
X23360001Y-2992381D01*
X23264762Y-2992381D01*
X23169524Y-2944762D01*
X23121905Y-2897143D01*
X23074286Y-2801905D01*
X23026667Y-2611429D01*
X23026667Y-2373333D01*
X23074286Y-2182857D01*
X23121905Y-2087619D01*
X23169524Y-2040000D01*
X23264762Y-1992381D01*
X24026667Y-2992381D02*
X24026667Y-1992381D01*
X24598096Y-2992381D02*
X24169524Y-2420952D01*
X24598096Y-1992381D02*
X24026667Y-2563810D01*
X78526191Y-47907143D02*
X78478572Y-47954762D01*
X78335715Y-48002381D01*
X78240477Y-48002381D01*
X78097619Y-47954762D01*
X78002381Y-47859524D01*
X77954762Y-47764286D01*
X77907143Y-47573810D01*
X77907143Y-47430952D01*
X77954762Y-47240476D01*
X78002381Y-47145238D01*
X78097619Y-47050000D01*
X78240477Y-47002381D01*
X78335715Y-47002381D01*
X78478572Y-47050000D01*
X78526191Y-47097619D01*
X79145238Y-47002381D02*
X79335715Y-47002381D01*
X79430953Y-47050000D01*
X79526191Y-47145238D01*
X79573810Y-47335714D01*
X79573810Y-47669048D01*
X79526191Y-47859524D01*
X79430953Y-47954762D01*
X79335715Y-48002381D01*
X79145238Y-48002381D01*
X79050000Y-47954762D01*
X78954762Y-47859524D01*
X78907143Y-47669048D01*
X78907143Y-47335714D01*
X78954762Y-47145238D01*
X79050000Y-47050000D01*
X79145238Y-47002381D01*
X80002381Y-48002381D02*
X80002381Y-47002381D01*
X80573810Y-48002381D01*
X80573810Y-47002381D01*
X81050000Y-48002381D02*
X81050000Y-47002381D01*
X81621429Y-48002381D01*
X81621429Y-47002381D01*
X81859524Y-48097619D02*
X82621429Y-48097619D01*
X83050000Y-47002381D02*
X83145239Y-47002381D01*
X83240477Y-47050000D01*
X83288096Y-47097619D01*
X83335715Y-47192857D01*
X83383334Y-47383333D01*
X83383334Y-47621429D01*
X83335715Y-47811905D01*
X83288096Y-47907143D01*
X83240477Y-47954762D01*
X83145239Y-48002381D01*
X83050000Y-48002381D01*
X82954762Y-47954762D01*
X82907143Y-47907143D01*
X82859524Y-47811905D01*
X82811905Y-47621429D01*
X82811905Y-47383333D01*
X82859524Y-47192857D01*
X82907143Y-47097619D01*
X82954762Y-47050000D01*
X83050000Y-47002381D01*
X84335715Y-48002381D02*
X83764286Y-48002381D01*
X84050000Y-48002381D02*
X84050000Y-47002381D01*
X83954762Y-47145238D01*
X83859524Y-47240476D01*
X83764286Y-47288095D01*
X84669048Y-47002381D02*
X85335715Y-48002381D01*
X85335715Y-47002381D02*
X84669048Y-48002381D01*
X85907143Y-47002381D02*
X86002382Y-47002381D01*
X86097620Y-47050000D01*
X86145239Y-47097619D01*
X86192858Y-47192857D01*
X86240477Y-47383333D01*
X86240477Y-47621429D01*
X86192858Y-47811905D01*
X86145239Y-47907143D01*
X86097620Y-47954762D01*
X86002382Y-48002381D01*
X85907143Y-48002381D01*
X85811905Y-47954762D01*
X85764286Y-47907143D01*
X85716667Y-47811905D01*
X85669048Y-47621429D01*
X85669048Y-47383333D01*
X85716667Y-47192857D01*
X85764286Y-47097619D01*
X85811905Y-47050000D01*
X85907143Y-47002381D01*
X86621429Y-47097619D02*
X86669048Y-47050000D01*
X86764286Y-47002381D01*
X87002382Y-47002381D01*
X87097620Y-47050000D01*
X87145239Y-47097619D01*
X87192858Y-47192857D01*
X87192858Y-47288095D01*
X87145239Y-47430952D01*
X86573810Y-48002381D01*
X87192858Y-48002381D01*
X65222381Y-77684285D02*
X65222381Y-78255714D01*
X65222381Y-77970000D02*
X64222381Y-77970000D01*
X64365238Y-78065238D01*
X64460476Y-78160476D01*
X64508095Y-78255714D01*
X65222381Y-77255714D02*
X64222381Y-77255714D01*
X65222381Y-76684285D02*
X64650952Y-77112857D01*
X64222381Y-76684285D02*
X64793810Y-77255714D01*
M02*
